G04 #@! TF.GenerationSoftware,KiCad,Pcbnew,(5.0.1)-4*
G04 #@! TF.CreationDate,2019-01-08T12:08:18+01:00*
G04 #@! TF.ProjectId,1U HiHat,31552048694861742E6B696361645F70,rev?*
G04 #@! TF.SameCoordinates,Original*
G04 #@! TF.FileFunction,Soldermask,Bot*
G04 #@! TF.FilePolarity,Negative*
%FSLAX46Y46*%
G04 Gerber Fmt 4.6, Leading zero omitted, Abs format (unit mm)*
G04 Created by KiCad (PCBNEW (5.0.1)-4) date 01/08/19 12:08:18*
%MOMM*%
%LPD*%
G01*
G04 APERTURE LIST*
%ADD10C,0.100000*%
G04 APERTURE END LIST*
D10*
G36*
X117890000Y-121065000D02*
X115790000Y-121065000D01*
X115790000Y-118965000D01*
X117890000Y-118965000D01*
X117890000Y-121065000D01*
X117890000Y-121065000D01*
G37*
G36*
X127128707Y-118972596D02*
X127205836Y-118980193D01*
X127337787Y-119020220D01*
X127403763Y-119040233D01*
X127586172Y-119137733D01*
X127746054Y-119268946D01*
X127877267Y-119428828D01*
X127974767Y-119611237D01*
X127974767Y-119611238D01*
X128034807Y-119809164D01*
X128055080Y-120015000D01*
X128034807Y-120220836D01*
X127994780Y-120352787D01*
X127974767Y-120418763D01*
X127877267Y-120601172D01*
X127746054Y-120761054D01*
X127586172Y-120892267D01*
X127403763Y-120989767D01*
X127337787Y-121009780D01*
X127205836Y-121049807D01*
X127128707Y-121057404D01*
X127051580Y-121065000D01*
X126948420Y-121065000D01*
X126871293Y-121057404D01*
X126794164Y-121049807D01*
X126662213Y-121009780D01*
X126596237Y-120989767D01*
X126413828Y-120892267D01*
X126253946Y-120761054D01*
X126122733Y-120601172D01*
X126025233Y-120418763D01*
X126005220Y-120352787D01*
X125965193Y-120220836D01*
X125944920Y-120015000D01*
X125965193Y-119809164D01*
X126025233Y-119611238D01*
X126025233Y-119611237D01*
X126122733Y-119428828D01*
X126253946Y-119268946D01*
X126413828Y-119137733D01*
X126596237Y-119040233D01*
X126662213Y-119020220D01*
X126794164Y-118980193D01*
X126871293Y-118972596D01*
X126948420Y-118965000D01*
X127051580Y-118965000D01*
X127128707Y-118972596D01*
X127128707Y-118972596D01*
G37*
G36*
X129668707Y-118972596D02*
X129745836Y-118980193D01*
X129877787Y-119020220D01*
X129943763Y-119040233D01*
X130126172Y-119137733D01*
X130286054Y-119268946D01*
X130417267Y-119428828D01*
X130514767Y-119611237D01*
X130514767Y-119611238D01*
X130574807Y-119809164D01*
X130595080Y-120015000D01*
X130574807Y-120220836D01*
X130534780Y-120352787D01*
X130514767Y-120418763D01*
X130417267Y-120601172D01*
X130286054Y-120761054D01*
X130126172Y-120892267D01*
X129943763Y-120989767D01*
X129877787Y-121009780D01*
X129745836Y-121049807D01*
X129668707Y-121057404D01*
X129591580Y-121065000D01*
X129488420Y-121065000D01*
X129411293Y-121057404D01*
X129334164Y-121049807D01*
X129202213Y-121009780D01*
X129136237Y-120989767D01*
X128953828Y-120892267D01*
X128793946Y-120761054D01*
X128662733Y-120601172D01*
X128565233Y-120418763D01*
X128545220Y-120352787D01*
X128505193Y-120220836D01*
X128484920Y-120015000D01*
X128505193Y-119809164D01*
X128565233Y-119611238D01*
X128565233Y-119611237D01*
X128662733Y-119428828D01*
X128793946Y-119268946D01*
X128953828Y-119137733D01*
X129136237Y-119040233D01*
X129202213Y-119020220D01*
X129334164Y-118980193D01*
X129411293Y-118972596D01*
X129488420Y-118965000D01*
X129591580Y-118965000D01*
X129668707Y-118972596D01*
X129668707Y-118972596D01*
G37*
G36*
X124588707Y-118972596D02*
X124665836Y-118980193D01*
X124797787Y-119020220D01*
X124863763Y-119040233D01*
X125046172Y-119137733D01*
X125206054Y-119268946D01*
X125337267Y-119428828D01*
X125434767Y-119611237D01*
X125434767Y-119611238D01*
X125494807Y-119809164D01*
X125515080Y-120015000D01*
X125494807Y-120220836D01*
X125454780Y-120352787D01*
X125434767Y-120418763D01*
X125337267Y-120601172D01*
X125206054Y-120761054D01*
X125046172Y-120892267D01*
X124863763Y-120989767D01*
X124797787Y-121009780D01*
X124665836Y-121049807D01*
X124588707Y-121057404D01*
X124511580Y-121065000D01*
X124408420Y-121065000D01*
X124331293Y-121057404D01*
X124254164Y-121049807D01*
X124122213Y-121009780D01*
X124056237Y-120989767D01*
X123873828Y-120892267D01*
X123713946Y-120761054D01*
X123582733Y-120601172D01*
X123485233Y-120418763D01*
X123465220Y-120352787D01*
X123425193Y-120220836D01*
X123404920Y-120015000D01*
X123425193Y-119809164D01*
X123485233Y-119611238D01*
X123485233Y-119611237D01*
X123582733Y-119428828D01*
X123713946Y-119268946D01*
X123873828Y-119137733D01*
X124056237Y-119040233D01*
X124122213Y-119020220D01*
X124254164Y-118980193D01*
X124331293Y-118972596D01*
X124408420Y-118965000D01*
X124511580Y-118965000D01*
X124588707Y-118972596D01*
X124588707Y-118972596D01*
G37*
G36*
X119508707Y-118972596D02*
X119585836Y-118980193D01*
X119717787Y-119020220D01*
X119783763Y-119040233D01*
X119966172Y-119137733D01*
X120126054Y-119268946D01*
X120257267Y-119428828D01*
X120354767Y-119611237D01*
X120354767Y-119611238D01*
X120414807Y-119809164D01*
X120435080Y-120015000D01*
X120414807Y-120220836D01*
X120374780Y-120352787D01*
X120354767Y-120418763D01*
X120257267Y-120601172D01*
X120126054Y-120761054D01*
X119966172Y-120892267D01*
X119783763Y-120989767D01*
X119717787Y-121009780D01*
X119585836Y-121049807D01*
X119508707Y-121057404D01*
X119431580Y-121065000D01*
X119328420Y-121065000D01*
X119251293Y-121057404D01*
X119174164Y-121049807D01*
X119042213Y-121009780D01*
X118976237Y-120989767D01*
X118793828Y-120892267D01*
X118633946Y-120761054D01*
X118502733Y-120601172D01*
X118405233Y-120418763D01*
X118385220Y-120352787D01*
X118345193Y-120220836D01*
X118324920Y-120015000D01*
X118345193Y-119809164D01*
X118405233Y-119611238D01*
X118405233Y-119611237D01*
X118502733Y-119428828D01*
X118633946Y-119268946D01*
X118793828Y-119137733D01*
X118976237Y-119040233D01*
X119042213Y-119020220D01*
X119174164Y-118980193D01*
X119251293Y-118972596D01*
X119328420Y-118965000D01*
X119431580Y-118965000D01*
X119508707Y-118972596D01*
X119508707Y-118972596D01*
G37*
G36*
X122048707Y-118972596D02*
X122125836Y-118980193D01*
X122257787Y-119020220D01*
X122323763Y-119040233D01*
X122506172Y-119137733D01*
X122666054Y-119268946D01*
X122797267Y-119428828D01*
X122894767Y-119611237D01*
X122894767Y-119611238D01*
X122954807Y-119809164D01*
X122975080Y-120015000D01*
X122954807Y-120220836D01*
X122914780Y-120352787D01*
X122894767Y-120418763D01*
X122797267Y-120601172D01*
X122666054Y-120761054D01*
X122506172Y-120892267D01*
X122323763Y-120989767D01*
X122257787Y-121009780D01*
X122125836Y-121049807D01*
X122048707Y-121057404D01*
X121971580Y-121065000D01*
X121868420Y-121065000D01*
X121791293Y-121057404D01*
X121714164Y-121049807D01*
X121582213Y-121009780D01*
X121516237Y-120989767D01*
X121333828Y-120892267D01*
X121173946Y-120761054D01*
X121042733Y-120601172D01*
X120945233Y-120418763D01*
X120925220Y-120352787D01*
X120885193Y-120220836D01*
X120864920Y-120015000D01*
X120885193Y-119809164D01*
X120945233Y-119611238D01*
X120945233Y-119611237D01*
X121042733Y-119428828D01*
X121173946Y-119268946D01*
X121333828Y-119137733D01*
X121516237Y-119040233D01*
X121582213Y-119020220D01*
X121714164Y-118980193D01*
X121791293Y-118972596D01*
X121868420Y-118965000D01*
X121971580Y-118965000D01*
X122048707Y-118972596D01*
X122048707Y-118972596D01*
G37*
G36*
X119508707Y-100963997D02*
X119585836Y-100971593D01*
X119717787Y-101011620D01*
X119783763Y-101031633D01*
X119966172Y-101129133D01*
X120126054Y-101260346D01*
X120257267Y-101420228D01*
X120354767Y-101602637D01*
X120354767Y-101602638D01*
X120414807Y-101800564D01*
X120435080Y-102006400D01*
X120414807Y-102212236D01*
X120374780Y-102344187D01*
X120354767Y-102410163D01*
X120257267Y-102592572D01*
X120126054Y-102752454D01*
X119966172Y-102883667D01*
X119783763Y-102981167D01*
X119717787Y-103001180D01*
X119585836Y-103041207D01*
X119508707Y-103048804D01*
X119431580Y-103056400D01*
X119328420Y-103056400D01*
X119251293Y-103048804D01*
X119174164Y-103041207D01*
X119042213Y-103001180D01*
X118976237Y-102981167D01*
X118793828Y-102883667D01*
X118633946Y-102752454D01*
X118502733Y-102592572D01*
X118405233Y-102410163D01*
X118385220Y-102344187D01*
X118345193Y-102212236D01*
X118324920Y-102006400D01*
X118345193Y-101800564D01*
X118405233Y-101602638D01*
X118405233Y-101602637D01*
X118502733Y-101420228D01*
X118633946Y-101260346D01*
X118793828Y-101129133D01*
X118976237Y-101031633D01*
X119042213Y-101011620D01*
X119174164Y-100971593D01*
X119251293Y-100963996D01*
X119328420Y-100956400D01*
X119431580Y-100956400D01*
X119508707Y-100963997D01*
X119508707Y-100963997D01*
G37*
G36*
X115748544Y-100963997D02*
X115825673Y-100971593D01*
X115957624Y-101011620D01*
X116023600Y-101031633D01*
X116206009Y-101129133D01*
X116365891Y-101260346D01*
X116497104Y-101420228D01*
X116594604Y-101602637D01*
X116594604Y-101602638D01*
X116654644Y-101800564D01*
X116674917Y-102006400D01*
X116654644Y-102212236D01*
X116614617Y-102344187D01*
X116594604Y-102410163D01*
X116497104Y-102592572D01*
X116365891Y-102752454D01*
X116206009Y-102883667D01*
X116023600Y-102981167D01*
X115957624Y-103001180D01*
X115825673Y-103041207D01*
X115748544Y-103048804D01*
X115671417Y-103056400D01*
X115568257Y-103056400D01*
X115491130Y-103048804D01*
X115414001Y-103041207D01*
X115282050Y-103001180D01*
X115216074Y-102981167D01*
X115033665Y-102883667D01*
X114873783Y-102752454D01*
X114742570Y-102592572D01*
X114645070Y-102410163D01*
X114625057Y-102344187D01*
X114585030Y-102212236D01*
X114564757Y-102006400D01*
X114585030Y-101800564D01*
X114645070Y-101602638D01*
X114645070Y-101602637D01*
X114742570Y-101420228D01*
X114873783Y-101260346D01*
X115033665Y-101129133D01*
X115216074Y-101031633D01*
X115282050Y-101011620D01*
X115414001Y-100971593D01*
X115491130Y-100963996D01*
X115568257Y-100956400D01*
X115671417Y-100956400D01*
X115748544Y-100963997D01*
X115748544Y-100963997D01*
G37*
G36*
X115748544Y-98423996D02*
X115825673Y-98431593D01*
X115957624Y-98471620D01*
X116023600Y-98491633D01*
X116206009Y-98589133D01*
X116365891Y-98720346D01*
X116497104Y-98880228D01*
X116594604Y-99062637D01*
X116594604Y-99062638D01*
X116654644Y-99260564D01*
X116674917Y-99466400D01*
X116654644Y-99672236D01*
X116614617Y-99804187D01*
X116594604Y-99870163D01*
X116497104Y-100052572D01*
X116365891Y-100212454D01*
X116206009Y-100343667D01*
X116023600Y-100441167D01*
X115957624Y-100461180D01*
X115825673Y-100501207D01*
X115748544Y-100508803D01*
X115671417Y-100516400D01*
X115568257Y-100516400D01*
X115491130Y-100508803D01*
X115414001Y-100501207D01*
X115282050Y-100461180D01*
X115216074Y-100441167D01*
X115033665Y-100343667D01*
X114873783Y-100212454D01*
X114742570Y-100052572D01*
X114645070Y-99870163D01*
X114625057Y-99804187D01*
X114585030Y-99672236D01*
X114564757Y-99466400D01*
X114585030Y-99260564D01*
X114645070Y-99062638D01*
X114645070Y-99062637D01*
X114742570Y-98880228D01*
X114873783Y-98720346D01*
X115033665Y-98589133D01*
X115216074Y-98491633D01*
X115282050Y-98471620D01*
X115414001Y-98431593D01*
X115491130Y-98423996D01*
X115568257Y-98416400D01*
X115671417Y-98416400D01*
X115748544Y-98423996D01*
X115748544Y-98423996D01*
G37*
G36*
X119508707Y-98423996D02*
X119585836Y-98431593D01*
X119717787Y-98471620D01*
X119783763Y-98491633D01*
X119966172Y-98589133D01*
X120126054Y-98720346D01*
X120257267Y-98880228D01*
X120354767Y-99062637D01*
X120354767Y-99062638D01*
X120414807Y-99260564D01*
X120435080Y-99466400D01*
X120414807Y-99672236D01*
X120374780Y-99804187D01*
X120354767Y-99870163D01*
X120257267Y-100052572D01*
X120126054Y-100212454D01*
X119966172Y-100343667D01*
X119783763Y-100441167D01*
X119717787Y-100461180D01*
X119585836Y-100501207D01*
X119508707Y-100508803D01*
X119431580Y-100516400D01*
X119328420Y-100516400D01*
X119251293Y-100508803D01*
X119174164Y-100501207D01*
X119042213Y-100461180D01*
X118976237Y-100441167D01*
X118793828Y-100343667D01*
X118633946Y-100212454D01*
X118502733Y-100052572D01*
X118405233Y-99870163D01*
X118385220Y-99804187D01*
X118345193Y-99672236D01*
X118324920Y-99466400D01*
X118345193Y-99260564D01*
X118405233Y-99062638D01*
X118405233Y-99062637D01*
X118502733Y-98880228D01*
X118633946Y-98720346D01*
X118793828Y-98589133D01*
X118976237Y-98491633D01*
X119042213Y-98471620D01*
X119174164Y-98431593D01*
X119251293Y-98423996D01*
X119328420Y-98416400D01*
X119431580Y-98416400D01*
X119508707Y-98423996D01*
X119508707Y-98423996D01*
G37*
G36*
X116669837Y-97976400D02*
X114569837Y-97976400D01*
X114569837Y-95876400D01*
X116669837Y-95876400D01*
X116669837Y-97976400D01*
X116669837Y-97976400D01*
G37*
G36*
X120430000Y-97976400D02*
X118330000Y-97976400D01*
X118330000Y-95876400D01*
X120430000Y-95876400D01*
X120430000Y-97976400D01*
X120430000Y-97976400D01*
G37*
G36*
X115710683Y-91973400D02*
X115838074Y-92026168D01*
X115952725Y-92102775D01*
X116050225Y-92200275D01*
X116126832Y-92314926D01*
X116179600Y-92442317D01*
X116206500Y-92577555D01*
X116206500Y-92715445D01*
X116179600Y-92850683D01*
X116126832Y-92978074D01*
X116050225Y-93092725D01*
X115952725Y-93190225D01*
X115838074Y-93266832D01*
X115710683Y-93319600D01*
X115575445Y-93346500D01*
X115437555Y-93346500D01*
X115302317Y-93319600D01*
X115174926Y-93266832D01*
X115060275Y-93190225D01*
X114962775Y-93092725D01*
X114886168Y-92978074D01*
X114833400Y-92850683D01*
X114806500Y-92715445D01*
X114806500Y-92577555D01*
X114833400Y-92442317D01*
X114886168Y-92314926D01*
X114962775Y-92200275D01*
X115060275Y-92102775D01*
X115174926Y-92026168D01*
X115302317Y-91973400D01*
X115437555Y-91946500D01*
X115575445Y-91946500D01*
X115710683Y-91973400D01*
X115710683Y-91973400D01*
G37*
G36*
X117742683Y-91973400D02*
X117870074Y-92026168D01*
X117984725Y-92102775D01*
X118082225Y-92200275D01*
X118158832Y-92314926D01*
X118211600Y-92442317D01*
X118238500Y-92577555D01*
X118238500Y-92715445D01*
X118211600Y-92850683D01*
X118158832Y-92978074D01*
X118082225Y-93092725D01*
X117984725Y-93190225D01*
X117870074Y-93266832D01*
X117742683Y-93319600D01*
X117607445Y-93346500D01*
X117469555Y-93346500D01*
X117334317Y-93319600D01*
X117206926Y-93266832D01*
X117092275Y-93190225D01*
X116994775Y-93092725D01*
X116918168Y-92978074D01*
X116865400Y-92850683D01*
X116838500Y-92715445D01*
X116838500Y-92577555D01*
X116865400Y-92442317D01*
X116918168Y-92314926D01*
X116994775Y-92200275D01*
X117092275Y-92102775D01*
X117206926Y-92026168D01*
X117334317Y-91973400D01*
X117469555Y-91946500D01*
X117607445Y-91946500D01*
X117742683Y-91973400D01*
X117742683Y-91973400D01*
G37*
G36*
X119774683Y-91973400D02*
X119902074Y-92026168D01*
X120016725Y-92102775D01*
X120114225Y-92200275D01*
X120190832Y-92314926D01*
X120243600Y-92442317D01*
X120270500Y-92577555D01*
X120270500Y-92715445D01*
X120243600Y-92850683D01*
X120190832Y-92978074D01*
X120114225Y-93092725D01*
X120016725Y-93190225D01*
X119902074Y-93266832D01*
X119774683Y-93319600D01*
X119639445Y-93346500D01*
X119501555Y-93346500D01*
X119366317Y-93319600D01*
X119238926Y-93266832D01*
X119124275Y-93190225D01*
X119026775Y-93092725D01*
X118950168Y-92978074D01*
X118897400Y-92850683D01*
X118870500Y-92715445D01*
X118870500Y-92577555D01*
X118897400Y-92442317D01*
X118950168Y-92314926D01*
X119026775Y-92200275D01*
X119124275Y-92102775D01*
X119238926Y-92026168D01*
X119366317Y-91973400D01*
X119501555Y-91946500D01*
X119639445Y-91946500D01*
X119774683Y-91973400D01*
X119774683Y-91973400D01*
G37*
G36*
X127128707Y-89254597D02*
X127205836Y-89262193D01*
X127337787Y-89302220D01*
X127403763Y-89322233D01*
X127586172Y-89419733D01*
X127746054Y-89550946D01*
X127877267Y-89710828D01*
X127974767Y-89893237D01*
X127974767Y-89893238D01*
X128034807Y-90091164D01*
X128055080Y-90297000D01*
X128034807Y-90502836D01*
X127994780Y-90634787D01*
X127974767Y-90700763D01*
X127877267Y-90883172D01*
X127746054Y-91043054D01*
X127586172Y-91174267D01*
X127403763Y-91271767D01*
X127337787Y-91291780D01*
X127205836Y-91331807D01*
X127128707Y-91339404D01*
X127051580Y-91347000D01*
X126948420Y-91347000D01*
X126871293Y-91339404D01*
X126794164Y-91331807D01*
X126662213Y-91291780D01*
X126596237Y-91271767D01*
X126413828Y-91174267D01*
X126253946Y-91043054D01*
X126122733Y-90883172D01*
X126025233Y-90700763D01*
X126005220Y-90634787D01*
X125965193Y-90502836D01*
X125944920Y-90297000D01*
X125965193Y-90091164D01*
X126025233Y-89893238D01*
X126025233Y-89893237D01*
X126122733Y-89710828D01*
X126253946Y-89550946D01*
X126413828Y-89419733D01*
X126596237Y-89322233D01*
X126662213Y-89302220D01*
X126794164Y-89262193D01*
X126871293Y-89254597D01*
X126948420Y-89247000D01*
X127051580Y-89247000D01*
X127128707Y-89254597D01*
X127128707Y-89254597D01*
G37*
G36*
X117890000Y-91347000D02*
X115790000Y-91347000D01*
X115790000Y-89247000D01*
X117890000Y-89247000D01*
X117890000Y-91347000D01*
X117890000Y-91347000D01*
G37*
G36*
X119508707Y-89254597D02*
X119585836Y-89262193D01*
X119717787Y-89302220D01*
X119783763Y-89322233D01*
X119966172Y-89419733D01*
X120126054Y-89550946D01*
X120257267Y-89710828D01*
X120354767Y-89893237D01*
X120354767Y-89893238D01*
X120414807Y-90091164D01*
X120435080Y-90297000D01*
X120414807Y-90502836D01*
X120374780Y-90634787D01*
X120354767Y-90700763D01*
X120257267Y-90883172D01*
X120126054Y-91043054D01*
X119966172Y-91174267D01*
X119783763Y-91271767D01*
X119717787Y-91291780D01*
X119585836Y-91331807D01*
X119508707Y-91339404D01*
X119431580Y-91347000D01*
X119328420Y-91347000D01*
X119251293Y-91339404D01*
X119174164Y-91331807D01*
X119042213Y-91291780D01*
X118976237Y-91271767D01*
X118793828Y-91174267D01*
X118633946Y-91043054D01*
X118502733Y-90883172D01*
X118405233Y-90700763D01*
X118385220Y-90634787D01*
X118345193Y-90502836D01*
X118324920Y-90297000D01*
X118345193Y-90091164D01*
X118405233Y-89893238D01*
X118405233Y-89893237D01*
X118502733Y-89710828D01*
X118633946Y-89550946D01*
X118793828Y-89419733D01*
X118976237Y-89322233D01*
X119042213Y-89302220D01*
X119174164Y-89262193D01*
X119251293Y-89254597D01*
X119328420Y-89247000D01*
X119431580Y-89247000D01*
X119508707Y-89254597D01*
X119508707Y-89254597D01*
G37*
G36*
X122048707Y-89254597D02*
X122125836Y-89262193D01*
X122257787Y-89302220D01*
X122323763Y-89322233D01*
X122506172Y-89419733D01*
X122666054Y-89550946D01*
X122797267Y-89710828D01*
X122894767Y-89893237D01*
X122894767Y-89893238D01*
X122954807Y-90091164D01*
X122975080Y-90297000D01*
X122954807Y-90502836D01*
X122914780Y-90634787D01*
X122894767Y-90700763D01*
X122797267Y-90883172D01*
X122666054Y-91043054D01*
X122506172Y-91174267D01*
X122323763Y-91271767D01*
X122257787Y-91291780D01*
X122125836Y-91331807D01*
X122048707Y-91339404D01*
X121971580Y-91347000D01*
X121868420Y-91347000D01*
X121791293Y-91339404D01*
X121714164Y-91331807D01*
X121582213Y-91291780D01*
X121516237Y-91271767D01*
X121333828Y-91174267D01*
X121173946Y-91043054D01*
X121042733Y-90883172D01*
X120945233Y-90700763D01*
X120925220Y-90634787D01*
X120885193Y-90502836D01*
X120864920Y-90297000D01*
X120885193Y-90091164D01*
X120945233Y-89893238D01*
X120945233Y-89893237D01*
X121042733Y-89710828D01*
X121173946Y-89550946D01*
X121333828Y-89419733D01*
X121516237Y-89322233D01*
X121582213Y-89302220D01*
X121714164Y-89262193D01*
X121791293Y-89254597D01*
X121868420Y-89247000D01*
X121971580Y-89247000D01*
X122048707Y-89254597D01*
X122048707Y-89254597D01*
G37*
G36*
X124588707Y-89254597D02*
X124665836Y-89262193D01*
X124797787Y-89302220D01*
X124863763Y-89322233D01*
X125046172Y-89419733D01*
X125206054Y-89550946D01*
X125337267Y-89710828D01*
X125434767Y-89893237D01*
X125434767Y-89893238D01*
X125494807Y-90091164D01*
X125515080Y-90297000D01*
X125494807Y-90502836D01*
X125454780Y-90634787D01*
X125434767Y-90700763D01*
X125337267Y-90883172D01*
X125206054Y-91043054D01*
X125046172Y-91174267D01*
X124863763Y-91271767D01*
X124797787Y-91291780D01*
X124665836Y-91331807D01*
X124588707Y-91339404D01*
X124511580Y-91347000D01*
X124408420Y-91347000D01*
X124331293Y-91339404D01*
X124254164Y-91331807D01*
X124122213Y-91291780D01*
X124056237Y-91271767D01*
X123873828Y-91174267D01*
X123713946Y-91043054D01*
X123582733Y-90883172D01*
X123485233Y-90700763D01*
X123465220Y-90634787D01*
X123425193Y-90502836D01*
X123404920Y-90297000D01*
X123425193Y-90091164D01*
X123485233Y-89893238D01*
X123485233Y-89893237D01*
X123582733Y-89710828D01*
X123713946Y-89550946D01*
X123873828Y-89419733D01*
X124056237Y-89322233D01*
X124122213Y-89302220D01*
X124254164Y-89262193D01*
X124331293Y-89254597D01*
X124408420Y-89247000D01*
X124511580Y-89247000D01*
X124588707Y-89254597D01*
X124588707Y-89254597D01*
G37*
G36*
X129668707Y-89254597D02*
X129745836Y-89262193D01*
X129877787Y-89302220D01*
X129943763Y-89322233D01*
X130126172Y-89419733D01*
X130286054Y-89550946D01*
X130417267Y-89710828D01*
X130514767Y-89893237D01*
X130514767Y-89893238D01*
X130574807Y-90091164D01*
X130595080Y-90297000D01*
X130574807Y-90502836D01*
X130534780Y-90634787D01*
X130514767Y-90700763D01*
X130417267Y-90883172D01*
X130286054Y-91043054D01*
X130126172Y-91174267D01*
X129943763Y-91271767D01*
X129877787Y-91291780D01*
X129745836Y-91331807D01*
X129668707Y-91339404D01*
X129591580Y-91347000D01*
X129488420Y-91347000D01*
X129411293Y-91339404D01*
X129334164Y-91331807D01*
X129202213Y-91291780D01*
X129136237Y-91271767D01*
X128953828Y-91174267D01*
X128793946Y-91043054D01*
X128662733Y-90883172D01*
X128565233Y-90700763D01*
X128545220Y-90634787D01*
X128505193Y-90502836D01*
X128484920Y-90297000D01*
X128505193Y-90091164D01*
X128565233Y-89893238D01*
X128565233Y-89893237D01*
X128662733Y-89710828D01*
X128793946Y-89550946D01*
X128953828Y-89419733D01*
X129136237Y-89322233D01*
X129202213Y-89302220D01*
X129334164Y-89262193D01*
X129411293Y-89254597D01*
X129488420Y-89247000D01*
X129591580Y-89247000D01*
X129668707Y-89254597D01*
X129668707Y-89254597D01*
G37*
G36*
X96631103Y-85837486D02*
X96922283Y-85958097D01*
X97184344Y-86133201D01*
X97407199Y-86356056D01*
X97582303Y-86618117D01*
X97702914Y-86909297D01*
X97764400Y-87218412D01*
X97764400Y-87533588D01*
X97702914Y-87842703D01*
X97582303Y-88133883D01*
X97407199Y-88395944D01*
X97184344Y-88618799D01*
X96922283Y-88793903D01*
X96631103Y-88914514D01*
X96321988Y-88976000D01*
X96006812Y-88976000D01*
X95697697Y-88914514D01*
X95406517Y-88793903D01*
X95144456Y-88618799D01*
X94921601Y-88395944D01*
X94746497Y-88133883D01*
X94625886Y-87842703D01*
X94564400Y-87533588D01*
X94564400Y-87218412D01*
X94625886Y-86909297D01*
X94746497Y-86618117D01*
X94921601Y-86356056D01*
X95144456Y-86133201D01*
X95406517Y-85958097D01*
X95697697Y-85837486D01*
X96006812Y-85776000D01*
X96321988Y-85776000D01*
X96631103Y-85837486D01*
X96631103Y-85837486D01*
G37*
G36*
X108162703Y-85837486D02*
X108453883Y-85958097D01*
X108715944Y-86133201D01*
X108938799Y-86356056D01*
X109113903Y-86618117D01*
X109234514Y-86909297D01*
X109296000Y-87218412D01*
X109296000Y-87533588D01*
X109234514Y-87842703D01*
X109113903Y-88133883D01*
X108938799Y-88395944D01*
X108715944Y-88618799D01*
X108453883Y-88793903D01*
X108162703Y-88914514D01*
X107853588Y-88976000D01*
X107538412Y-88976000D01*
X107229297Y-88914514D01*
X106938117Y-88793903D01*
X106676056Y-88618799D01*
X106453201Y-88395944D01*
X106278097Y-88133883D01*
X106157486Y-87842703D01*
X106096000Y-87533588D01*
X106096000Y-87218412D01*
X106157486Y-86909297D01*
X106278097Y-86618117D01*
X106453201Y-86356056D01*
X106676056Y-86133201D01*
X106938117Y-85958097D01*
X107229297Y-85837486D01*
X107538412Y-85776000D01*
X107853588Y-85776000D01*
X108162703Y-85837486D01*
X108162703Y-85837486D01*
G37*
G36*
X138134703Y-85837486D02*
X138425883Y-85958097D01*
X138687944Y-86133201D01*
X138910799Y-86356056D01*
X139085903Y-86618117D01*
X139206514Y-86909297D01*
X139268000Y-87218412D01*
X139268000Y-87533588D01*
X139206514Y-87842703D01*
X139085903Y-88133883D01*
X138910799Y-88395944D01*
X138687944Y-88618799D01*
X138425883Y-88793903D01*
X138134703Y-88914514D01*
X137825588Y-88976000D01*
X137510412Y-88976000D01*
X137201297Y-88914514D01*
X136910117Y-88793903D01*
X136648056Y-88618799D01*
X136425201Y-88395944D01*
X136250097Y-88133883D01*
X136129486Y-87842703D01*
X136068000Y-87533588D01*
X136068000Y-87218412D01*
X136129486Y-86909297D01*
X136250097Y-86618117D01*
X136425201Y-86356056D01*
X136648056Y-86133201D01*
X136910117Y-85958097D01*
X137201297Y-85837486D01*
X137510412Y-85776000D01*
X137825588Y-85776000D01*
X138134703Y-85837486D01*
X138134703Y-85837486D01*
G37*
G36*
X113221583Y-86325772D02*
X113420350Y-86408104D01*
X113599239Y-86527634D01*
X113751366Y-86679761D01*
X113870896Y-86858650D01*
X113953228Y-87057417D01*
X113995200Y-87268426D01*
X113995200Y-87483574D01*
X113953228Y-87694583D01*
X113870896Y-87893350D01*
X113751366Y-88072239D01*
X113599239Y-88224366D01*
X113420350Y-88343896D01*
X113221583Y-88426228D01*
X113010574Y-88468200D01*
X112795426Y-88468200D01*
X112584417Y-88426228D01*
X112385650Y-88343896D01*
X112206761Y-88224366D01*
X112054634Y-88072239D01*
X111935104Y-87893350D01*
X111852772Y-87694583D01*
X111810800Y-87483574D01*
X111810800Y-87268426D01*
X111852772Y-87057417D01*
X111935104Y-86858650D01*
X112054634Y-86679761D01*
X112206761Y-86527634D01*
X112385650Y-86408104D01*
X112584417Y-86325772D01*
X112795426Y-86283800D01*
X113010574Y-86283800D01*
X113221583Y-86325772D01*
X113221583Y-86325772D01*
G37*
G36*
X99835783Y-86325772D02*
X100034550Y-86408104D01*
X100213439Y-86527634D01*
X100365566Y-86679761D01*
X100485096Y-86858650D01*
X100567428Y-87057417D01*
X100601102Y-87226709D01*
X100608215Y-87250158D01*
X100619766Y-87271769D01*
X100635312Y-87290711D01*
X100654254Y-87306257D01*
X100675864Y-87317808D01*
X100699314Y-87324921D01*
X100723700Y-87327323D01*
X100748086Y-87324921D01*
X100771535Y-87317808D01*
X100793146Y-87306257D01*
X100812088Y-87290711D01*
X100827634Y-87271769D01*
X100839185Y-87250159D01*
X100846298Y-87226709D01*
X100879972Y-87057417D01*
X100962304Y-86858650D01*
X101081834Y-86679761D01*
X101233961Y-86527634D01*
X101412850Y-86408104D01*
X101611617Y-86325772D01*
X101822626Y-86283800D01*
X102037774Y-86283800D01*
X102248783Y-86325772D01*
X102447550Y-86408104D01*
X102626439Y-86527634D01*
X102778566Y-86679761D01*
X102898096Y-86858650D01*
X102980428Y-87057417D01*
X103014102Y-87226709D01*
X103021215Y-87250158D01*
X103032766Y-87271769D01*
X103048312Y-87290711D01*
X103067254Y-87306257D01*
X103088864Y-87317808D01*
X103112314Y-87324921D01*
X103136700Y-87327323D01*
X103161086Y-87324921D01*
X103184535Y-87317808D01*
X103206146Y-87306257D01*
X103225088Y-87290711D01*
X103240634Y-87271769D01*
X103252185Y-87250159D01*
X103259298Y-87226709D01*
X103292972Y-87057417D01*
X103375304Y-86858650D01*
X103494834Y-86679761D01*
X103646961Y-86527634D01*
X103825850Y-86408104D01*
X104024617Y-86325772D01*
X104235626Y-86283800D01*
X104450774Y-86283800D01*
X104661783Y-86325772D01*
X104860550Y-86408104D01*
X105039439Y-86527634D01*
X105191566Y-86679761D01*
X105311096Y-86858650D01*
X105393428Y-87057417D01*
X105435400Y-87268426D01*
X105435400Y-87483574D01*
X105393428Y-87694583D01*
X105311096Y-87893350D01*
X105191566Y-88072239D01*
X105039439Y-88224366D01*
X104860550Y-88343896D01*
X104661783Y-88426228D01*
X104450774Y-88468200D01*
X104235626Y-88468200D01*
X104024617Y-88426228D01*
X103825850Y-88343896D01*
X103646961Y-88224366D01*
X103494834Y-88072239D01*
X103375304Y-87893350D01*
X103292972Y-87694583D01*
X103259298Y-87525291D01*
X103252185Y-87501842D01*
X103240634Y-87480231D01*
X103225088Y-87461289D01*
X103206146Y-87445743D01*
X103184536Y-87434192D01*
X103161086Y-87427079D01*
X103136700Y-87424677D01*
X103112314Y-87427079D01*
X103088865Y-87434192D01*
X103067254Y-87445743D01*
X103048312Y-87461289D01*
X103032766Y-87480231D01*
X103021215Y-87501841D01*
X103014102Y-87525291D01*
X102980428Y-87694583D01*
X102898096Y-87893350D01*
X102778566Y-88072239D01*
X102626439Y-88224366D01*
X102447550Y-88343896D01*
X102248783Y-88426228D01*
X102037774Y-88468200D01*
X101822626Y-88468200D01*
X101611617Y-88426228D01*
X101412850Y-88343896D01*
X101233961Y-88224366D01*
X101081834Y-88072239D01*
X100962304Y-87893350D01*
X100879972Y-87694583D01*
X100846298Y-87525291D01*
X100839185Y-87501842D01*
X100827634Y-87480231D01*
X100812088Y-87461289D01*
X100793146Y-87445743D01*
X100771536Y-87434192D01*
X100748086Y-87427079D01*
X100723700Y-87424677D01*
X100699314Y-87427079D01*
X100675865Y-87434192D01*
X100654254Y-87445743D01*
X100635312Y-87461289D01*
X100619766Y-87480231D01*
X100608215Y-87501841D01*
X100601102Y-87525291D01*
X100567428Y-87694583D01*
X100485096Y-87893350D01*
X100365566Y-88072239D01*
X100213439Y-88224366D01*
X100034550Y-88343896D01*
X99835783Y-88426228D01*
X99624774Y-88468200D01*
X99409626Y-88468200D01*
X99198617Y-88426228D01*
X98999850Y-88343896D01*
X98820961Y-88224366D01*
X98668834Y-88072239D01*
X98549304Y-87893350D01*
X98466972Y-87694583D01*
X98425000Y-87483574D01*
X98425000Y-87268426D01*
X98466972Y-87057417D01*
X98549304Y-86858650D01*
X98668834Y-86679761D01*
X98820961Y-86527634D01*
X98999850Y-86408104D01*
X99198617Y-86325772D01*
X99409626Y-86283800D01*
X99624774Y-86283800D01*
X99835783Y-86325772D01*
X99835783Y-86325772D01*
G37*
G36*
X91275983Y-86325772D02*
X91474750Y-86408104D01*
X91653639Y-86527634D01*
X91805766Y-86679761D01*
X91925296Y-86858650D01*
X92007628Y-87057417D01*
X92049600Y-87268426D01*
X92049600Y-87483574D01*
X92007628Y-87694583D01*
X91925296Y-87893350D01*
X91805766Y-88072239D01*
X91653639Y-88224366D01*
X91474750Y-88343896D01*
X91275983Y-88426228D01*
X91064974Y-88468200D01*
X90849826Y-88468200D01*
X90638817Y-88426228D01*
X90440050Y-88343896D01*
X90261161Y-88224366D01*
X90109034Y-88072239D01*
X89989504Y-87893350D01*
X89907172Y-87694583D01*
X89865200Y-87483574D01*
X89865200Y-87268426D01*
X89907172Y-87057417D01*
X89989504Y-86858650D01*
X90109034Y-86679761D01*
X90261161Y-86527634D01*
X90440050Y-86408104D01*
X90638817Y-86325772D01*
X90849826Y-86283800D01*
X91064974Y-86283800D01*
X91275983Y-86325772D01*
X91275983Y-86325772D01*
G37*
G36*
X143193583Y-86325772D02*
X143392350Y-86408104D01*
X143571239Y-86527634D01*
X143723366Y-86679761D01*
X143842896Y-86858650D01*
X143925228Y-87057417D01*
X143967200Y-87268426D01*
X143967200Y-87483574D01*
X143925228Y-87694583D01*
X143842896Y-87893350D01*
X143723366Y-88072239D01*
X143571239Y-88224366D01*
X143392350Y-88343896D01*
X143193583Y-88426228D01*
X142982574Y-88468200D01*
X142767426Y-88468200D01*
X142556417Y-88426228D01*
X142357650Y-88343896D01*
X142178761Y-88224366D01*
X142026634Y-88072239D01*
X141907104Y-87893350D01*
X141824772Y-87694583D01*
X141782800Y-87483574D01*
X141782800Y-87268426D01*
X141824772Y-87057417D01*
X141907104Y-86858650D01*
X142026634Y-86679761D01*
X142178761Y-86527634D01*
X142357650Y-86408104D01*
X142556417Y-86325772D01*
X142767426Y-86283800D01*
X142982574Y-86283800D01*
X143193583Y-86325772D01*
X143193583Y-86325772D01*
G37*
G36*
X132220783Y-86325772D02*
X132419550Y-86408104D01*
X132598439Y-86527634D01*
X132750566Y-86679761D01*
X132870096Y-86858650D01*
X132952428Y-87057417D01*
X132986102Y-87226709D01*
X132993215Y-87250158D01*
X133004766Y-87271769D01*
X133020312Y-87290711D01*
X133039254Y-87306257D01*
X133060864Y-87317808D01*
X133084314Y-87324921D01*
X133108700Y-87327323D01*
X133133086Y-87324921D01*
X133156535Y-87317808D01*
X133178146Y-87306257D01*
X133197088Y-87290711D01*
X133212634Y-87271769D01*
X133224185Y-87250159D01*
X133231298Y-87226709D01*
X133264972Y-87057417D01*
X133347304Y-86858650D01*
X133466834Y-86679761D01*
X133618961Y-86527634D01*
X133797850Y-86408104D01*
X133996617Y-86325772D01*
X134207626Y-86283800D01*
X134422774Y-86283800D01*
X134633783Y-86325772D01*
X134832550Y-86408104D01*
X135011439Y-86527634D01*
X135163566Y-86679761D01*
X135283096Y-86858650D01*
X135365428Y-87057417D01*
X135407400Y-87268426D01*
X135407400Y-87483574D01*
X135365428Y-87694583D01*
X135283096Y-87893350D01*
X135163566Y-88072239D01*
X135011439Y-88224366D01*
X134832550Y-88343896D01*
X134633783Y-88426228D01*
X134422774Y-88468200D01*
X134207626Y-88468200D01*
X133996617Y-88426228D01*
X133797850Y-88343896D01*
X133618961Y-88224366D01*
X133466834Y-88072239D01*
X133347304Y-87893350D01*
X133264972Y-87694583D01*
X133231298Y-87525291D01*
X133224185Y-87501842D01*
X133212634Y-87480231D01*
X133197088Y-87461289D01*
X133178146Y-87445743D01*
X133156536Y-87434192D01*
X133133086Y-87427079D01*
X133108700Y-87424677D01*
X133084314Y-87427079D01*
X133060865Y-87434192D01*
X133039254Y-87445743D01*
X133020312Y-87461289D01*
X133004766Y-87480231D01*
X132993215Y-87501841D01*
X132986102Y-87525291D01*
X132952428Y-87694583D01*
X132870096Y-87893350D01*
X132750566Y-88072239D01*
X132598439Y-88224366D01*
X132419550Y-88343896D01*
X132220783Y-88426228D01*
X132009774Y-88468200D01*
X131794626Y-88468200D01*
X131583617Y-88426228D01*
X131384850Y-88343896D01*
X131205961Y-88224366D01*
X131053834Y-88072239D01*
X130934304Y-87893350D01*
X130851972Y-87694583D01*
X130810000Y-87483574D01*
X130810000Y-87268426D01*
X130851972Y-87057417D01*
X130934304Y-86858650D01*
X131053834Y-86679761D01*
X131205961Y-86527634D01*
X131384850Y-86408104D01*
X131583617Y-86325772D01*
X131794626Y-86283800D01*
X132009774Y-86283800D01*
X132220783Y-86325772D01*
X132220783Y-86325772D01*
G37*
G36*
X118727500Y-86979000D02*
X115727500Y-86979000D01*
X115727500Y-84979000D01*
X118727500Y-84979000D01*
X118727500Y-86979000D01*
X118727500Y-86979000D01*
G37*
G36*
X122327500Y-86979000D02*
X119327500Y-86979000D01*
X119327500Y-84979000D01*
X122327500Y-84979000D01*
X122327500Y-86979000D01*
X122327500Y-86979000D01*
G37*
G36*
X126658500Y-86979000D02*
X123658500Y-86979000D01*
X123658500Y-84979000D01*
X126658500Y-84979000D01*
X126658500Y-86979000D01*
X126658500Y-86979000D01*
G37*
G36*
X130258500Y-86979000D02*
X127258500Y-86979000D01*
X127258500Y-84979000D01*
X130258500Y-84979000D01*
X130258500Y-86979000D01*
X130258500Y-86979000D01*
G37*
G36*
X94306530Y-80589877D02*
X94358010Y-80605493D01*
X94405442Y-80630846D01*
X94447027Y-80664973D01*
X94481154Y-80706558D01*
X94506507Y-80753990D01*
X94522123Y-80805470D01*
X94528000Y-80865140D01*
X94528000Y-81752860D01*
X94522123Y-81812530D01*
X94506507Y-81864010D01*
X94481154Y-81911442D01*
X94447027Y-81953027D01*
X94405442Y-81987154D01*
X94358010Y-82012507D01*
X94306530Y-82028123D01*
X94246860Y-82034000D01*
X93459140Y-82034000D01*
X93399470Y-82028123D01*
X93347990Y-82012507D01*
X93300558Y-81987154D01*
X93258973Y-81953027D01*
X93224846Y-81911442D01*
X93199493Y-81864010D01*
X93183877Y-81812530D01*
X93178000Y-81752860D01*
X93178000Y-80865140D01*
X93183877Y-80805470D01*
X93199493Y-80753990D01*
X93224846Y-80706558D01*
X93258973Y-80664973D01*
X93300558Y-80630846D01*
X93347990Y-80605493D01*
X93399470Y-80589877D01*
X93459140Y-80584000D01*
X94246860Y-80584000D01*
X94306530Y-80589877D01*
X94306530Y-80589877D01*
G37*
G36*
X91639530Y-80589877D02*
X91691010Y-80605493D01*
X91738442Y-80630846D01*
X91780027Y-80664973D01*
X91814154Y-80706558D01*
X91839507Y-80753990D01*
X91855123Y-80805470D01*
X91861000Y-80865140D01*
X91861000Y-81752860D01*
X91855123Y-81812530D01*
X91839507Y-81864010D01*
X91814154Y-81911442D01*
X91780027Y-81953027D01*
X91738442Y-81987154D01*
X91691010Y-82012507D01*
X91639530Y-82028123D01*
X91579860Y-82034000D01*
X90792140Y-82034000D01*
X90732470Y-82028123D01*
X90680990Y-82012507D01*
X90633558Y-81987154D01*
X90591973Y-81953027D01*
X90557846Y-81911442D01*
X90532493Y-81864010D01*
X90516877Y-81812530D01*
X90511000Y-81752860D01*
X90511000Y-80865140D01*
X90516877Y-80805470D01*
X90532493Y-80753990D01*
X90557846Y-80706558D01*
X90591973Y-80664973D01*
X90633558Y-80630846D01*
X90680990Y-80605493D01*
X90732470Y-80589877D01*
X90792140Y-80584000D01*
X91579860Y-80584000D01*
X91639530Y-80589877D01*
X91639530Y-80589877D01*
G37*
G36*
X117927500Y-81645000D02*
X114527500Y-81645000D01*
X114527500Y-79645000D01*
X117927500Y-79645000D01*
X117927500Y-81645000D01*
X117927500Y-81645000D01*
G37*
G36*
X127058500Y-81645000D02*
X123658500Y-81645000D01*
X123658500Y-79645000D01*
X127058500Y-79645000D01*
X127058500Y-81645000D01*
X127058500Y-81645000D01*
G37*
G36*
X122327500Y-81645000D02*
X118927500Y-81645000D01*
X118927500Y-79645000D01*
X122327500Y-79645000D01*
X122327500Y-81645000D01*
X122327500Y-81645000D01*
G37*
G36*
X131458500Y-81645000D02*
X128058500Y-81645000D01*
X128058500Y-79645000D01*
X131458500Y-79645000D01*
X131458500Y-81645000D01*
X131458500Y-81645000D01*
G37*
G36*
X109682000Y-81200500D02*
X106682000Y-81200500D01*
X106682000Y-79200500D01*
X109682000Y-79200500D01*
X109682000Y-81200500D01*
X109682000Y-81200500D01*
G37*
G36*
X113282000Y-81200500D02*
X110282000Y-81200500D01*
X110282000Y-79200500D01*
X113282000Y-79200500D01*
X113282000Y-81200500D01*
X113282000Y-81200500D01*
G37*
G36*
X100973000Y-80810500D02*
X97573000Y-80810500D01*
X97573000Y-78810500D01*
X100973000Y-78810500D01*
X100973000Y-80810500D01*
X100973000Y-80810500D01*
G37*
G36*
X105373000Y-80810500D02*
X101973000Y-80810500D01*
X101973000Y-78810500D01*
X105373000Y-78810500D01*
X105373000Y-80810500D01*
X105373000Y-80810500D01*
G37*
G36*
X94306530Y-78839877D02*
X94358010Y-78855493D01*
X94405442Y-78880846D01*
X94447027Y-78914973D01*
X94481154Y-78956558D01*
X94506507Y-79003990D01*
X94522123Y-79055470D01*
X94528000Y-79115140D01*
X94528000Y-80002860D01*
X94522123Y-80062530D01*
X94506507Y-80114010D01*
X94481154Y-80161442D01*
X94447027Y-80203027D01*
X94405442Y-80237154D01*
X94358010Y-80262507D01*
X94306530Y-80278123D01*
X94246860Y-80284000D01*
X93459140Y-80284000D01*
X93399470Y-80278123D01*
X93347990Y-80262507D01*
X93300558Y-80237154D01*
X93258973Y-80203027D01*
X93224846Y-80161442D01*
X93199493Y-80114010D01*
X93183877Y-80062530D01*
X93178000Y-80002860D01*
X93178000Y-79115140D01*
X93183877Y-79055470D01*
X93199493Y-79003990D01*
X93224846Y-78956558D01*
X93258973Y-78914973D01*
X93300558Y-78880846D01*
X93347990Y-78855493D01*
X93399470Y-78839877D01*
X93459140Y-78834000D01*
X94246860Y-78834000D01*
X94306530Y-78839877D01*
X94306530Y-78839877D01*
G37*
G36*
X91639530Y-78839877D02*
X91691010Y-78855493D01*
X91738442Y-78880846D01*
X91780027Y-78914973D01*
X91814154Y-78956558D01*
X91839507Y-79003990D01*
X91855123Y-79055470D01*
X91861000Y-79115140D01*
X91861000Y-80002860D01*
X91855123Y-80062530D01*
X91839507Y-80114010D01*
X91814154Y-80161442D01*
X91780027Y-80203027D01*
X91738442Y-80237154D01*
X91691010Y-80262507D01*
X91639530Y-80278123D01*
X91579860Y-80284000D01*
X90792140Y-80284000D01*
X90732470Y-80278123D01*
X90680990Y-80262507D01*
X90633558Y-80237154D01*
X90591973Y-80203027D01*
X90557846Y-80161442D01*
X90532493Y-80114010D01*
X90516877Y-80062530D01*
X90511000Y-80002860D01*
X90511000Y-79115140D01*
X90516877Y-79055470D01*
X90532493Y-79003990D01*
X90557846Y-78956558D01*
X90591973Y-78914973D01*
X90633558Y-78880846D01*
X90680990Y-78855493D01*
X90732470Y-78839877D01*
X90792140Y-78834000D01*
X91579860Y-78834000D01*
X91639530Y-78839877D01*
X91639530Y-78839877D01*
G37*
G36*
X138134703Y-76439486D02*
X138425883Y-76560097D01*
X138687944Y-76735201D01*
X138910799Y-76958056D01*
X139085903Y-77220117D01*
X139206514Y-77511297D01*
X139268000Y-77820412D01*
X139268000Y-78135588D01*
X139206514Y-78444703D01*
X139085903Y-78735883D01*
X138910799Y-78997944D01*
X138687944Y-79220799D01*
X138425883Y-79395903D01*
X138134703Y-79516514D01*
X137825588Y-79578000D01*
X137510412Y-79578000D01*
X137201297Y-79516514D01*
X136910117Y-79395903D01*
X136648056Y-79220799D01*
X136425201Y-78997944D01*
X136250097Y-78735883D01*
X136129486Y-78444703D01*
X136068000Y-78135588D01*
X136068000Y-77820412D01*
X136129486Y-77511297D01*
X136250097Y-77220117D01*
X136425201Y-76958056D01*
X136648056Y-76735201D01*
X136910117Y-76560097D01*
X137201297Y-76439486D01*
X137510412Y-76378000D01*
X137825588Y-76378000D01*
X138134703Y-76439486D01*
X138134703Y-76439486D01*
G37*
G36*
X143193583Y-76927772D02*
X143392350Y-77010104D01*
X143571239Y-77129634D01*
X143723366Y-77281761D01*
X143842896Y-77460650D01*
X143925228Y-77659417D01*
X143967200Y-77870426D01*
X143967200Y-78085574D01*
X143925228Y-78296583D01*
X143842896Y-78495350D01*
X143723366Y-78674239D01*
X143571239Y-78826366D01*
X143392350Y-78945896D01*
X143193583Y-79028228D01*
X142982574Y-79070200D01*
X142767426Y-79070200D01*
X142556417Y-79028228D01*
X142357650Y-78945896D01*
X142178761Y-78826366D01*
X142026634Y-78674239D01*
X141907104Y-78495350D01*
X141824772Y-78296583D01*
X141782800Y-78085574D01*
X141782800Y-77870426D01*
X141824772Y-77659417D01*
X141907104Y-77460650D01*
X142026634Y-77281761D01*
X142178761Y-77129634D01*
X142357650Y-77010104D01*
X142556417Y-76927772D01*
X142767426Y-76885800D01*
X142982574Y-76885800D01*
X143193583Y-76927772D01*
X143193583Y-76927772D01*
G37*
G36*
X132220783Y-76927772D02*
X132419550Y-77010104D01*
X132598439Y-77129634D01*
X132750566Y-77281761D01*
X132870096Y-77460650D01*
X132952428Y-77659417D01*
X132986102Y-77828709D01*
X132993215Y-77852158D01*
X133004766Y-77873769D01*
X133020312Y-77892711D01*
X133039254Y-77908257D01*
X133060864Y-77919808D01*
X133084314Y-77926921D01*
X133108700Y-77929323D01*
X133133086Y-77926921D01*
X133156535Y-77919808D01*
X133178146Y-77908257D01*
X133197088Y-77892711D01*
X133212634Y-77873769D01*
X133224185Y-77852159D01*
X133231298Y-77828709D01*
X133264972Y-77659417D01*
X133347304Y-77460650D01*
X133466834Y-77281761D01*
X133618961Y-77129634D01*
X133797850Y-77010104D01*
X133996617Y-76927772D01*
X134207626Y-76885800D01*
X134422774Y-76885800D01*
X134633783Y-76927772D01*
X134832550Y-77010104D01*
X135011439Y-77129634D01*
X135163566Y-77281761D01*
X135283096Y-77460650D01*
X135365428Y-77659417D01*
X135407400Y-77870426D01*
X135407400Y-78085574D01*
X135365428Y-78296583D01*
X135283096Y-78495350D01*
X135163566Y-78674239D01*
X135011439Y-78826366D01*
X134832550Y-78945896D01*
X134633783Y-79028228D01*
X134422774Y-79070200D01*
X134207626Y-79070200D01*
X133996617Y-79028228D01*
X133797850Y-78945896D01*
X133618961Y-78826366D01*
X133466834Y-78674239D01*
X133347304Y-78495350D01*
X133264972Y-78296583D01*
X133231298Y-78127291D01*
X133224185Y-78103842D01*
X133212634Y-78082231D01*
X133197088Y-78063289D01*
X133178146Y-78047743D01*
X133156536Y-78036192D01*
X133133086Y-78029079D01*
X133108700Y-78026677D01*
X133084314Y-78029079D01*
X133060865Y-78036192D01*
X133039254Y-78047743D01*
X133020312Y-78063289D01*
X133004766Y-78082231D01*
X132993215Y-78103841D01*
X132986102Y-78127291D01*
X132952428Y-78296583D01*
X132870096Y-78495350D01*
X132750566Y-78674239D01*
X132598439Y-78826366D01*
X132419550Y-78945896D01*
X132220783Y-79028228D01*
X132009774Y-79070200D01*
X131794626Y-79070200D01*
X131583617Y-79028228D01*
X131384850Y-78945896D01*
X131205961Y-78826366D01*
X131053834Y-78674239D01*
X130934304Y-78495350D01*
X130851972Y-78296583D01*
X130810000Y-78085574D01*
X130810000Y-77870426D01*
X130851972Y-77659417D01*
X130934304Y-77460650D01*
X131053834Y-77281761D01*
X131205961Y-77129634D01*
X131384850Y-77010104D01*
X131583617Y-76927772D01*
X131794626Y-76885800D01*
X132009774Y-76885800D01*
X132220783Y-76927772D01*
X132220783Y-76927772D01*
G37*
G36*
X98365191Y-75548880D02*
X98565688Y-75631929D01*
X98746130Y-75752496D01*
X98899584Y-75905950D01*
X99020151Y-76086392D01*
X99103200Y-76286889D01*
X99145537Y-76499735D01*
X99145537Y-76716751D01*
X99103200Y-76929597D01*
X99020151Y-77130094D01*
X98899584Y-77310536D01*
X98746130Y-77463990D01*
X98565688Y-77584557D01*
X98365191Y-77667606D01*
X98152345Y-77709943D01*
X97935329Y-77709943D01*
X97722483Y-77667606D01*
X97521986Y-77584557D01*
X97341544Y-77463990D01*
X97188090Y-77310536D01*
X97067523Y-77130094D01*
X96984474Y-76929597D01*
X96942137Y-76716751D01*
X96942137Y-76499735D01*
X96984474Y-76286889D01*
X97067523Y-76086392D01*
X97188090Y-75905950D01*
X97341544Y-75752496D01*
X97521986Y-75631929D01*
X97722483Y-75548880D01*
X97935329Y-75506543D01*
X98152345Y-75506543D01*
X98365191Y-75548880D01*
X98365191Y-75548880D01*
G37*
G36*
X95825191Y-75548880D02*
X96025688Y-75631929D01*
X96206130Y-75752496D01*
X96359584Y-75905950D01*
X96480151Y-76086392D01*
X96563200Y-76286889D01*
X96605537Y-76499735D01*
X96605537Y-76716751D01*
X96563200Y-76929597D01*
X96480151Y-77130094D01*
X96359584Y-77310536D01*
X96206130Y-77463990D01*
X96025688Y-77584557D01*
X95825191Y-77667606D01*
X95612345Y-77709943D01*
X95395329Y-77709943D01*
X95182483Y-77667606D01*
X94981986Y-77584557D01*
X94801544Y-77463990D01*
X94648090Y-77310536D01*
X94527523Y-77130094D01*
X94444474Y-76929597D01*
X94402137Y-76716751D01*
X94402137Y-76499735D01*
X94444474Y-76286889D01*
X94527523Y-76086392D01*
X94648090Y-75905950D01*
X94801544Y-75752496D01*
X94981986Y-75631929D01*
X95182483Y-75548880D01*
X95395329Y-75506543D01*
X95612345Y-75506543D01*
X95825191Y-75548880D01*
X95825191Y-75548880D01*
G37*
G36*
X93285191Y-75548880D02*
X93485688Y-75631929D01*
X93666130Y-75752496D01*
X93819584Y-75905950D01*
X93940151Y-76086392D01*
X94023200Y-76286889D01*
X94065537Y-76499735D01*
X94065537Y-76716751D01*
X94023200Y-76929597D01*
X93940151Y-77130094D01*
X93819584Y-77310536D01*
X93666130Y-77463990D01*
X93485688Y-77584557D01*
X93285191Y-77667606D01*
X93072345Y-77709943D01*
X92855329Y-77709943D01*
X92642483Y-77667606D01*
X92441986Y-77584557D01*
X92261544Y-77463990D01*
X92108090Y-77310536D01*
X91987523Y-77130094D01*
X91904474Y-76929597D01*
X91862137Y-76716751D01*
X91862137Y-76499735D01*
X91904474Y-76286889D01*
X91987523Y-76086392D01*
X92108090Y-75905950D01*
X92261544Y-75752496D01*
X92441986Y-75631929D01*
X92642483Y-75548880D01*
X92855329Y-75506543D01*
X93072345Y-75506543D01*
X93285191Y-75548880D01*
X93285191Y-75548880D01*
G37*
G36*
X105731191Y-75548880D02*
X105931688Y-75631929D01*
X106112130Y-75752496D01*
X106265584Y-75905950D01*
X106386151Y-76086392D01*
X106469200Y-76286889D01*
X106511537Y-76499735D01*
X106511537Y-76716751D01*
X106469200Y-76929597D01*
X106386151Y-77130094D01*
X106265584Y-77310536D01*
X106112130Y-77463990D01*
X105931688Y-77584557D01*
X105731191Y-77667606D01*
X105518345Y-77709943D01*
X105301329Y-77709943D01*
X105088483Y-77667606D01*
X104887986Y-77584557D01*
X104707544Y-77463990D01*
X104554090Y-77310536D01*
X104433523Y-77130094D01*
X104350474Y-76929597D01*
X104308137Y-76716751D01*
X104308137Y-76499735D01*
X104350474Y-76286889D01*
X104433523Y-76086392D01*
X104554090Y-75905950D01*
X104707544Y-75752496D01*
X104887986Y-75631929D01*
X105088483Y-75548880D01*
X105301329Y-75506543D01*
X105518345Y-75506543D01*
X105731191Y-75548880D01*
X105731191Y-75548880D01*
G37*
G36*
X108271191Y-75548880D02*
X108471688Y-75631929D01*
X108652130Y-75752496D01*
X108805584Y-75905950D01*
X108926151Y-76086392D01*
X109009200Y-76286889D01*
X109051537Y-76499735D01*
X109051537Y-76716751D01*
X109009200Y-76929597D01*
X108926151Y-77130094D01*
X108805584Y-77310536D01*
X108652130Y-77463990D01*
X108471688Y-77584557D01*
X108271191Y-77667606D01*
X108058345Y-77709943D01*
X107841329Y-77709943D01*
X107628483Y-77667606D01*
X107427986Y-77584557D01*
X107247544Y-77463990D01*
X107094090Y-77310536D01*
X106973523Y-77130094D01*
X106890474Y-76929597D01*
X106848137Y-76716751D01*
X106848137Y-76499735D01*
X106890474Y-76286889D01*
X106973523Y-76086392D01*
X107094090Y-75905950D01*
X107247544Y-75752496D01*
X107427986Y-75631929D01*
X107628483Y-75548880D01*
X107841329Y-75506543D01*
X108058345Y-75506543D01*
X108271191Y-75548880D01*
X108271191Y-75548880D01*
G37*
G36*
X120971191Y-75548880D02*
X121171688Y-75631929D01*
X121352130Y-75752496D01*
X121505584Y-75905950D01*
X121626151Y-76086392D01*
X121709200Y-76286889D01*
X121751537Y-76499735D01*
X121751537Y-76716751D01*
X121709200Y-76929597D01*
X121626151Y-77130094D01*
X121505584Y-77310536D01*
X121352130Y-77463990D01*
X121171688Y-77584557D01*
X120971191Y-77667606D01*
X120758345Y-77709943D01*
X120541329Y-77709943D01*
X120328483Y-77667606D01*
X120127986Y-77584557D01*
X119947544Y-77463990D01*
X119794090Y-77310536D01*
X119673523Y-77130094D01*
X119590474Y-76929597D01*
X119548137Y-76716751D01*
X119548137Y-76499735D01*
X119590474Y-76286889D01*
X119673523Y-76086392D01*
X119794090Y-75905950D01*
X119947544Y-75752496D01*
X120127986Y-75631929D01*
X120328483Y-75548880D01*
X120541329Y-75506543D01*
X120758345Y-75506543D01*
X120971191Y-75548880D01*
X120971191Y-75548880D01*
G37*
G36*
X123511191Y-75548880D02*
X123711688Y-75631929D01*
X123892130Y-75752496D01*
X124045584Y-75905950D01*
X124166151Y-76086392D01*
X124249200Y-76286889D01*
X124291537Y-76499735D01*
X124291537Y-76716751D01*
X124249200Y-76929597D01*
X124166151Y-77130094D01*
X124045584Y-77310536D01*
X123892130Y-77463990D01*
X123711688Y-77584557D01*
X123511191Y-77667606D01*
X123298345Y-77709943D01*
X123081329Y-77709943D01*
X122868483Y-77667606D01*
X122667986Y-77584557D01*
X122487544Y-77463990D01*
X122334090Y-77310536D01*
X122213523Y-77130094D01*
X122130474Y-76929597D01*
X122088137Y-76716751D01*
X122088137Y-76499735D01*
X122130474Y-76286889D01*
X122213523Y-76086392D01*
X122334090Y-75905950D01*
X122487544Y-75752496D01*
X122667986Y-75631929D01*
X122868483Y-75548880D01*
X123081329Y-75506543D01*
X123298345Y-75506543D01*
X123511191Y-75548880D01*
X123511191Y-75548880D01*
G37*
G36*
X126051191Y-75548880D02*
X126251688Y-75631929D01*
X126432130Y-75752496D01*
X126585584Y-75905950D01*
X126706151Y-76086392D01*
X126789200Y-76286889D01*
X126831537Y-76499735D01*
X126831537Y-76716751D01*
X126789200Y-76929597D01*
X126706151Y-77130094D01*
X126585584Y-77310536D01*
X126432130Y-77463990D01*
X126251688Y-77584557D01*
X126051191Y-77667606D01*
X125838345Y-77709943D01*
X125621329Y-77709943D01*
X125408483Y-77667606D01*
X125207986Y-77584557D01*
X125027544Y-77463990D01*
X124874090Y-77310536D01*
X124753523Y-77130094D01*
X124670474Y-76929597D01*
X124628137Y-76716751D01*
X124628137Y-76499735D01*
X124670474Y-76286889D01*
X124753523Y-76086392D01*
X124874090Y-75905950D01*
X125027544Y-75752496D01*
X125207986Y-75631929D01*
X125408483Y-75548880D01*
X125621329Y-75506543D01*
X125838345Y-75506543D01*
X126051191Y-75548880D01*
X126051191Y-75548880D01*
G37*
G36*
X110811191Y-75548880D02*
X111011688Y-75631929D01*
X111192130Y-75752496D01*
X111345584Y-75905950D01*
X111466151Y-76086392D01*
X111549200Y-76286889D01*
X111591537Y-76499735D01*
X111591537Y-76716751D01*
X111549200Y-76929597D01*
X111466151Y-77130094D01*
X111345584Y-77310536D01*
X111192130Y-77463990D01*
X111011688Y-77584557D01*
X110811191Y-77667606D01*
X110598345Y-77709943D01*
X110381329Y-77709943D01*
X110168483Y-77667606D01*
X109967986Y-77584557D01*
X109787544Y-77463990D01*
X109634090Y-77310536D01*
X109513523Y-77130094D01*
X109430474Y-76929597D01*
X109388137Y-76716751D01*
X109388137Y-76499735D01*
X109430474Y-76286889D01*
X109513523Y-76086392D01*
X109634090Y-75905950D01*
X109787544Y-75752496D01*
X109967986Y-75631929D01*
X110168483Y-75548880D01*
X110381329Y-75506543D01*
X110598345Y-75506543D01*
X110811191Y-75548880D01*
X110811191Y-75548880D01*
G37*
G36*
X115698544Y-70712596D02*
X115775673Y-70720193D01*
X115907624Y-70760220D01*
X115973600Y-70780233D01*
X116156009Y-70877733D01*
X116315891Y-71008946D01*
X116447104Y-71168828D01*
X116544604Y-71351237D01*
X116544604Y-71351238D01*
X116604644Y-71549164D01*
X116624917Y-71755000D01*
X116604644Y-71960836D01*
X116564617Y-72092787D01*
X116544604Y-72158763D01*
X116447104Y-72341172D01*
X116315891Y-72501054D01*
X116156009Y-72632267D01*
X115973600Y-72729767D01*
X115907624Y-72749780D01*
X115775673Y-72789807D01*
X115698544Y-72797403D01*
X115621417Y-72805000D01*
X115518257Y-72805000D01*
X115441130Y-72797403D01*
X115364001Y-72789807D01*
X115232050Y-72749780D01*
X115166074Y-72729767D01*
X114983665Y-72632267D01*
X114823783Y-72501054D01*
X114692570Y-72341172D01*
X114595070Y-72158763D01*
X114575057Y-72092787D01*
X114535030Y-71960836D01*
X114514757Y-71755000D01*
X114535030Y-71549164D01*
X114595070Y-71351238D01*
X114595070Y-71351237D01*
X114692570Y-71168828D01*
X114823783Y-71008946D01*
X114983665Y-70877733D01*
X115166074Y-70780233D01*
X115232050Y-70760220D01*
X115364001Y-70720193D01*
X115441130Y-70712596D01*
X115518257Y-70705000D01*
X115621417Y-70705000D01*
X115698544Y-70712596D01*
X115698544Y-70712596D01*
G37*
G36*
X91506784Y-68113297D02*
X91556942Y-68123274D01*
X91836022Y-68238873D01*
X91838057Y-68240233D01*
X92087189Y-68406698D01*
X92300782Y-68620291D01*
X92300784Y-68620294D01*
X92379158Y-68737588D01*
X92468608Y-68871460D01*
X92584206Y-69150538D01*
X92643137Y-69446805D01*
X92643137Y-69748881D01*
X92584206Y-70045148D01*
X92468608Y-70324226D01*
X92300782Y-70575395D01*
X92087189Y-70788988D01*
X92087186Y-70788990D01*
X91836022Y-70956813D01*
X91836021Y-70956814D01*
X91836020Y-70956814D01*
X91556942Y-71072412D01*
X91260675Y-71131343D01*
X90958599Y-71131343D01*
X90662332Y-71072412D01*
X90383254Y-70956814D01*
X90383253Y-70956814D01*
X90383252Y-70956813D01*
X90132088Y-70788990D01*
X90132085Y-70788988D01*
X89918492Y-70575395D01*
X89750666Y-70324226D01*
X89635068Y-70045148D01*
X89576137Y-69748881D01*
X89576137Y-69446805D01*
X89635068Y-69150538D01*
X89750666Y-68871460D01*
X89840117Y-68737588D01*
X89918490Y-68620294D01*
X89918492Y-68620291D01*
X90132085Y-68406698D01*
X90381217Y-68240233D01*
X90383252Y-68238873D01*
X90662332Y-68123274D01*
X90712490Y-68113297D01*
X90958599Y-68064343D01*
X91260675Y-68064343D01*
X91506784Y-68113297D01*
X91506784Y-68113297D01*
G37*
G36*
X100295184Y-68113297D02*
X100345342Y-68123274D01*
X100624422Y-68238873D01*
X100626457Y-68240233D01*
X100875589Y-68406698D01*
X101089182Y-68620291D01*
X101089184Y-68620294D01*
X101167558Y-68737588D01*
X101257008Y-68871460D01*
X101372606Y-69150538D01*
X101431537Y-69446805D01*
X101431537Y-69748881D01*
X101372606Y-70045148D01*
X101257008Y-70324226D01*
X101089182Y-70575395D01*
X100875589Y-70788988D01*
X100875586Y-70788990D01*
X100624422Y-70956813D01*
X100624421Y-70956814D01*
X100624420Y-70956814D01*
X100345342Y-71072412D01*
X100049075Y-71131343D01*
X99746999Y-71131343D01*
X99450732Y-71072412D01*
X99171654Y-70956814D01*
X99171653Y-70956814D01*
X99171652Y-70956813D01*
X98920488Y-70788990D01*
X98920485Y-70788988D01*
X98706892Y-70575395D01*
X98539066Y-70324226D01*
X98423468Y-70045148D01*
X98364537Y-69748881D01*
X98364537Y-69446805D01*
X98423468Y-69150538D01*
X98539066Y-68871460D01*
X98628517Y-68737588D01*
X98706890Y-68620294D01*
X98706892Y-68620291D01*
X98920485Y-68406698D01*
X99169617Y-68240233D01*
X99171652Y-68238873D01*
X99450732Y-68123274D01*
X99500890Y-68113297D01*
X99746999Y-68064343D01*
X100049075Y-68064343D01*
X100295184Y-68113297D01*
X100295184Y-68113297D01*
G37*
G36*
X103952784Y-68113297D02*
X104002942Y-68123274D01*
X104282022Y-68238873D01*
X104284057Y-68240233D01*
X104533189Y-68406698D01*
X104746782Y-68620291D01*
X104746784Y-68620294D01*
X104825158Y-68737588D01*
X104914608Y-68871460D01*
X105030206Y-69150538D01*
X105089137Y-69446805D01*
X105089137Y-69748881D01*
X105030206Y-70045148D01*
X104914608Y-70324226D01*
X104746782Y-70575395D01*
X104533189Y-70788988D01*
X104533186Y-70788990D01*
X104282022Y-70956813D01*
X104282021Y-70956814D01*
X104282020Y-70956814D01*
X104002942Y-71072412D01*
X103706675Y-71131343D01*
X103404599Y-71131343D01*
X103108332Y-71072412D01*
X102829254Y-70956814D01*
X102829253Y-70956814D01*
X102829252Y-70956813D01*
X102578088Y-70788990D01*
X102578085Y-70788988D01*
X102364492Y-70575395D01*
X102196666Y-70324226D01*
X102081068Y-70045148D01*
X102022137Y-69748881D01*
X102022137Y-69446805D01*
X102081068Y-69150538D01*
X102196666Y-68871460D01*
X102286117Y-68737588D01*
X102364490Y-68620294D01*
X102364492Y-68620291D01*
X102578085Y-68406698D01*
X102827217Y-68240233D01*
X102829252Y-68238873D01*
X103108332Y-68123274D01*
X103158490Y-68113297D01*
X103404599Y-68064343D01*
X103706675Y-68064343D01*
X103952784Y-68113297D01*
X103952784Y-68113297D01*
G37*
G36*
X112741184Y-68113297D02*
X112791342Y-68123274D01*
X113070422Y-68238873D01*
X113072457Y-68240233D01*
X113321589Y-68406698D01*
X113535182Y-68620291D01*
X113535184Y-68620294D01*
X113613558Y-68737588D01*
X113703008Y-68871460D01*
X113818606Y-69150538D01*
X113877537Y-69446805D01*
X113877537Y-69748881D01*
X113818606Y-70045148D01*
X113703008Y-70324226D01*
X113535182Y-70575395D01*
X113321589Y-70788988D01*
X113321586Y-70788990D01*
X113070422Y-70956813D01*
X113070421Y-70956814D01*
X113070420Y-70956814D01*
X112791342Y-71072412D01*
X112495075Y-71131343D01*
X112192999Y-71131343D01*
X111896732Y-71072412D01*
X111617654Y-70956814D01*
X111617653Y-70956814D01*
X111617652Y-70956813D01*
X111366488Y-70788990D01*
X111366485Y-70788988D01*
X111152892Y-70575395D01*
X110985066Y-70324226D01*
X110869468Y-70045148D01*
X110810537Y-69748881D01*
X110810537Y-69446805D01*
X110869468Y-69150538D01*
X110985066Y-68871460D01*
X111074517Y-68737588D01*
X111152890Y-68620294D01*
X111152892Y-68620291D01*
X111366485Y-68406698D01*
X111615617Y-68240233D01*
X111617652Y-68238873D01*
X111896732Y-68123274D01*
X111946890Y-68113297D01*
X112192999Y-68064343D01*
X112495075Y-68064343D01*
X112741184Y-68113297D01*
X112741184Y-68113297D01*
G37*
G36*
X127981184Y-68113297D02*
X128031342Y-68123274D01*
X128310422Y-68238873D01*
X128312457Y-68240233D01*
X128561589Y-68406698D01*
X128775182Y-68620291D01*
X128775184Y-68620294D01*
X128853558Y-68737588D01*
X128943008Y-68871460D01*
X129058606Y-69150538D01*
X129117537Y-69446805D01*
X129117537Y-69748881D01*
X129058606Y-70045148D01*
X128943008Y-70324226D01*
X128775182Y-70575395D01*
X128561589Y-70788988D01*
X128561586Y-70788990D01*
X128310422Y-70956813D01*
X128310421Y-70956814D01*
X128310420Y-70956814D01*
X128031342Y-71072412D01*
X127735075Y-71131343D01*
X127432999Y-71131343D01*
X127136732Y-71072412D01*
X126857654Y-70956814D01*
X126857653Y-70956814D01*
X126857652Y-70956813D01*
X126606488Y-70788990D01*
X126606485Y-70788988D01*
X126392892Y-70575395D01*
X126225066Y-70324226D01*
X126109468Y-70045148D01*
X126050537Y-69748881D01*
X126050537Y-69446805D01*
X126109468Y-69150538D01*
X126225066Y-68871460D01*
X126314517Y-68737588D01*
X126392890Y-68620294D01*
X126392892Y-68620291D01*
X126606485Y-68406698D01*
X126855617Y-68240233D01*
X126857652Y-68238873D01*
X127136732Y-68123274D01*
X127186890Y-68113297D01*
X127432999Y-68064343D01*
X127735075Y-68064343D01*
X127981184Y-68113297D01*
X127981184Y-68113297D01*
G37*
G36*
X119192784Y-68113297D02*
X119242942Y-68123274D01*
X119522022Y-68238873D01*
X119524057Y-68240233D01*
X119773189Y-68406698D01*
X119986782Y-68620291D01*
X119986784Y-68620294D01*
X120065158Y-68737588D01*
X120154608Y-68871460D01*
X120270206Y-69150538D01*
X120329137Y-69446805D01*
X120329137Y-69748881D01*
X120270206Y-70045148D01*
X120154608Y-70324226D01*
X119986782Y-70575395D01*
X119773189Y-70788988D01*
X119773186Y-70788990D01*
X119522022Y-70956813D01*
X119522021Y-70956814D01*
X119522020Y-70956814D01*
X119242942Y-71072412D01*
X118946675Y-71131343D01*
X118644599Y-71131343D01*
X118348332Y-71072412D01*
X118069254Y-70956814D01*
X118069253Y-70956814D01*
X118069252Y-70956813D01*
X117818088Y-70788990D01*
X117818085Y-70788988D01*
X117604492Y-70575395D01*
X117436666Y-70324226D01*
X117321068Y-70045148D01*
X117262137Y-69748881D01*
X117262137Y-69446805D01*
X117321068Y-69150538D01*
X117436666Y-68871460D01*
X117526117Y-68737588D01*
X117604490Y-68620294D01*
X117604492Y-68620291D01*
X117818085Y-68406698D01*
X118067217Y-68240233D01*
X118069252Y-68238873D01*
X118348332Y-68123274D01*
X118398490Y-68113297D01*
X118644599Y-68064343D01*
X118946675Y-68064343D01*
X119192784Y-68113297D01*
X119192784Y-68113297D01*
G37*
G36*
X115698544Y-68172596D02*
X115775673Y-68180193D01*
X115907624Y-68220220D01*
X115973600Y-68240233D01*
X116156009Y-68337733D01*
X116315891Y-68468946D01*
X116447104Y-68628828D01*
X116544604Y-68811237D01*
X116562872Y-68871460D01*
X116604644Y-69009164D01*
X116624917Y-69215000D01*
X116604644Y-69420836D01*
X116596766Y-69446805D01*
X116544604Y-69618763D01*
X116447104Y-69801172D01*
X116315891Y-69961054D01*
X116156009Y-70092267D01*
X115973600Y-70189767D01*
X115907624Y-70209780D01*
X115775673Y-70249807D01*
X115698544Y-70257404D01*
X115621417Y-70265000D01*
X115518257Y-70265000D01*
X115441130Y-70257404D01*
X115364001Y-70249807D01*
X115232050Y-70209780D01*
X115166074Y-70189767D01*
X114983665Y-70092267D01*
X114823783Y-69961054D01*
X114692570Y-69801172D01*
X114595070Y-69618763D01*
X114542908Y-69446805D01*
X114535030Y-69420836D01*
X114514757Y-69215000D01*
X114535030Y-69009164D01*
X114576802Y-68871460D01*
X114595070Y-68811237D01*
X114692570Y-68628828D01*
X114823783Y-68468946D01*
X114983665Y-68337733D01*
X115166074Y-68240233D01*
X115232050Y-68220220D01*
X115364001Y-68180193D01*
X115441130Y-68172596D01*
X115518257Y-68165000D01*
X115621417Y-68165000D01*
X115698544Y-68172596D01*
X115698544Y-68172596D01*
G37*
G36*
X138134703Y-67041486D02*
X138425883Y-67162097D01*
X138687944Y-67337201D01*
X138910799Y-67560056D01*
X139085903Y-67822117D01*
X139206514Y-68113297D01*
X139268000Y-68422412D01*
X139268000Y-68737588D01*
X139206514Y-69046703D01*
X139085903Y-69337883D01*
X138910799Y-69599944D01*
X138687944Y-69822799D01*
X138425883Y-69997903D01*
X138134703Y-70118514D01*
X137825588Y-70180000D01*
X137510412Y-70180000D01*
X137201297Y-70118514D01*
X136910117Y-69997903D01*
X136648056Y-69822799D01*
X136425201Y-69599944D01*
X136250097Y-69337883D01*
X136129486Y-69046703D01*
X136068000Y-68737588D01*
X136068000Y-68422412D01*
X136129486Y-68113297D01*
X136250097Y-67822117D01*
X136425201Y-67560056D01*
X136648056Y-67337201D01*
X136910117Y-67162097D01*
X137201297Y-67041486D01*
X137510412Y-66980000D01*
X137825588Y-66980000D01*
X138134703Y-67041486D01*
X138134703Y-67041486D01*
G37*
G36*
X132220783Y-67529772D02*
X132419550Y-67612104D01*
X132598439Y-67731634D01*
X132750566Y-67883761D01*
X132870096Y-68062650D01*
X132952428Y-68261417D01*
X132986102Y-68430709D01*
X132993215Y-68454158D01*
X133004766Y-68475769D01*
X133020312Y-68494711D01*
X133039254Y-68510257D01*
X133060864Y-68521808D01*
X133084314Y-68528921D01*
X133108700Y-68531323D01*
X133133086Y-68528921D01*
X133156535Y-68521808D01*
X133178146Y-68510257D01*
X133197088Y-68494711D01*
X133212634Y-68475769D01*
X133224185Y-68454159D01*
X133231298Y-68430709D01*
X133264972Y-68261417D01*
X133347304Y-68062650D01*
X133466834Y-67883761D01*
X133618961Y-67731634D01*
X133797850Y-67612104D01*
X133996617Y-67529772D01*
X134207626Y-67487800D01*
X134422774Y-67487800D01*
X134633783Y-67529772D01*
X134832550Y-67612104D01*
X135011439Y-67731634D01*
X135163566Y-67883761D01*
X135283096Y-68062650D01*
X135365428Y-68261417D01*
X135407400Y-68472426D01*
X135407400Y-68687574D01*
X135365428Y-68898583D01*
X135283096Y-69097350D01*
X135163566Y-69276239D01*
X135011439Y-69428366D01*
X134832550Y-69547896D01*
X134633783Y-69630228D01*
X134422774Y-69672200D01*
X134207626Y-69672200D01*
X133996617Y-69630228D01*
X133797850Y-69547896D01*
X133618961Y-69428366D01*
X133466834Y-69276239D01*
X133347304Y-69097350D01*
X133264972Y-68898583D01*
X133231298Y-68729291D01*
X133224185Y-68705842D01*
X133212634Y-68684231D01*
X133197088Y-68665289D01*
X133178146Y-68649743D01*
X133156536Y-68638192D01*
X133133086Y-68631079D01*
X133108700Y-68628677D01*
X133084314Y-68631079D01*
X133060865Y-68638192D01*
X133039254Y-68649743D01*
X133020312Y-68665289D01*
X133004766Y-68684231D01*
X132993215Y-68705841D01*
X132986102Y-68729291D01*
X132952428Y-68898583D01*
X132870096Y-69097350D01*
X132750566Y-69276239D01*
X132598439Y-69428366D01*
X132419550Y-69547896D01*
X132220783Y-69630228D01*
X132009774Y-69672200D01*
X131794626Y-69672200D01*
X131583617Y-69630228D01*
X131384850Y-69547896D01*
X131205961Y-69428366D01*
X131053834Y-69276239D01*
X130934304Y-69097350D01*
X130851972Y-68898583D01*
X130810000Y-68687574D01*
X130810000Y-68472426D01*
X130851972Y-68261417D01*
X130934304Y-68062650D01*
X131053834Y-67883761D01*
X131205961Y-67731634D01*
X131384850Y-67612104D01*
X131583617Y-67529772D01*
X131794626Y-67487800D01*
X132009774Y-67487800D01*
X132220783Y-67529772D01*
X132220783Y-67529772D01*
G37*
G36*
X143193583Y-67529772D02*
X143392350Y-67612104D01*
X143571239Y-67731634D01*
X143723366Y-67883761D01*
X143842896Y-68062650D01*
X143925228Y-68261417D01*
X143967200Y-68472426D01*
X143967200Y-68687574D01*
X143925228Y-68898583D01*
X143842896Y-69097350D01*
X143723366Y-69276239D01*
X143571239Y-69428366D01*
X143392350Y-69547896D01*
X143193583Y-69630228D01*
X142982574Y-69672200D01*
X142767426Y-69672200D01*
X142556417Y-69630228D01*
X142357650Y-69547896D01*
X142178761Y-69428366D01*
X142026634Y-69276239D01*
X141907104Y-69097350D01*
X141824772Y-68898583D01*
X141782800Y-68687574D01*
X141782800Y-68472426D01*
X141824772Y-68261417D01*
X141907104Y-68062650D01*
X142026634Y-67883761D01*
X142178761Y-67731634D01*
X142357650Y-67612104D01*
X142556417Y-67529772D01*
X142767426Y-67487800D01*
X142982574Y-67487800D01*
X143193583Y-67529772D01*
X143193583Y-67529772D01*
G37*
G36*
X130120530Y-66671377D02*
X130172010Y-66686993D01*
X130219442Y-66712346D01*
X130261027Y-66746473D01*
X130295154Y-66788058D01*
X130320507Y-66835490D01*
X130336123Y-66886970D01*
X130342000Y-66946640D01*
X130342000Y-67834360D01*
X130336123Y-67894030D01*
X130320507Y-67945510D01*
X130295154Y-67992942D01*
X130261027Y-68034527D01*
X130219442Y-68068654D01*
X130172010Y-68094007D01*
X130120530Y-68109623D01*
X130060860Y-68115500D01*
X129273140Y-68115500D01*
X129213470Y-68109623D01*
X129161990Y-68094007D01*
X129114558Y-68068654D01*
X129072973Y-68034527D01*
X129038846Y-67992942D01*
X129013493Y-67945510D01*
X128997877Y-67894030D01*
X128992000Y-67834360D01*
X128992000Y-66946640D01*
X128997877Y-66886970D01*
X129013493Y-66835490D01*
X129038846Y-66788058D01*
X129072973Y-66746473D01*
X129114558Y-66712346D01*
X129161990Y-66686993D01*
X129213470Y-66671377D01*
X129273140Y-66665500D01*
X130060860Y-66665500D01*
X130120530Y-66671377D01*
X130120530Y-66671377D01*
G37*
G36*
X116619837Y-67725000D02*
X114519837Y-67725000D01*
X114519837Y-65625000D01*
X116619837Y-65625000D01*
X116619837Y-67725000D01*
X116619837Y-67725000D01*
G37*
G36*
X130120530Y-64921377D02*
X130172010Y-64936993D01*
X130219442Y-64962346D01*
X130261027Y-64996473D01*
X130295154Y-65038058D01*
X130320507Y-65085490D01*
X130336123Y-65136970D01*
X130342000Y-65196640D01*
X130342000Y-66084360D01*
X130336123Y-66144030D01*
X130320507Y-66195510D01*
X130295154Y-66242942D01*
X130261027Y-66284527D01*
X130219442Y-66318654D01*
X130172010Y-66344007D01*
X130120530Y-66359623D01*
X130060860Y-66365500D01*
X129273140Y-66365500D01*
X129213470Y-66359623D01*
X129161990Y-66344007D01*
X129114558Y-66318654D01*
X129072973Y-66284527D01*
X129038846Y-66242942D01*
X129013493Y-66195510D01*
X128997877Y-66144030D01*
X128992000Y-66084360D01*
X128992000Y-65196640D01*
X128997877Y-65136970D01*
X129013493Y-65085490D01*
X129038846Y-65038058D01*
X129072973Y-64996473D01*
X129114558Y-64962346D01*
X129161990Y-64936993D01*
X129213470Y-64921377D01*
X129273140Y-64915500D01*
X130060860Y-64915500D01*
X130120530Y-64921377D01*
X130120530Y-64921377D01*
G37*
M02*
