G04 #@! TF.GenerationSoftware,KiCad,Pcbnew,(5.0.1)-4*
G04 #@! TF.CreationDate,2019-01-08T12:08:18+01:00*
G04 #@! TF.ProjectId,1U HiHat,31552048694861742E6B696361645F70,rev?*
G04 #@! TF.SameCoordinates,Original*
G04 #@! TF.FileFunction,Legend,Top*
G04 #@! TF.FilePolarity,Positive*
%FSLAX46Y46*%
G04 Gerber Fmt 4.6, Leading zero omitted, Abs format (unit mm)*
G04 Created by KiCad (PCBNEW (5.0.1)-4) date 01/08/19 12:08:18*
%MOMM*%
%LPD*%
G01*
G04 APERTURE LIST*
%ADD10C,0.120000*%
%ADD11C,0.150000*%
G04 APERTURE END LIST*
D10*
X134033419Y-97107723D02*
X134033419Y-96257723D01*
X134033419Y-96662485D02*
X134519133Y-96662485D01*
X134519133Y-97107723D02*
X134519133Y-96257723D01*
X134923895Y-97107723D02*
X134923895Y-96541057D01*
X134923895Y-96257723D02*
X134883419Y-96298200D01*
X134923895Y-96338676D01*
X134964371Y-96298200D01*
X134923895Y-96257723D01*
X134923895Y-96338676D01*
X135328657Y-97107723D02*
X135328657Y-96257723D01*
X135328657Y-96662485D02*
X135814371Y-96662485D01*
X135814371Y-97107723D02*
X135814371Y-96257723D01*
X136583419Y-97107723D02*
X136583419Y-96662485D01*
X136542942Y-96581533D01*
X136461990Y-96541057D01*
X136300085Y-96541057D01*
X136219133Y-96581533D01*
X136583419Y-97067247D02*
X136502466Y-97107723D01*
X136300085Y-97107723D01*
X136219133Y-97067247D01*
X136178657Y-96986295D01*
X136178657Y-96905342D01*
X136219133Y-96824390D01*
X136300085Y-96783914D01*
X136502466Y-96783914D01*
X136583419Y-96743438D01*
X136866752Y-96541057D02*
X137190561Y-96541057D01*
X136988180Y-96257723D02*
X136988180Y-96986295D01*
X137028657Y-97067247D01*
X137109609Y-97107723D01*
X137190561Y-97107723D01*
X138040561Y-96541057D02*
X138242942Y-97107723D01*
X138445323Y-96541057D01*
X138931038Y-96257723D02*
X139011990Y-96257723D01*
X139092942Y-96298200D01*
X139133419Y-96338676D01*
X139173895Y-96419628D01*
X139214371Y-96581533D01*
X139214371Y-96783914D01*
X139173895Y-96945819D01*
X139133419Y-97026771D01*
X139092942Y-97067247D01*
X139011990Y-97107723D01*
X138931038Y-97107723D01*
X138850085Y-97067247D01*
X138809609Y-97026771D01*
X138769133Y-96945819D01*
X138728657Y-96783914D01*
X138728657Y-96581533D01*
X138769133Y-96419628D01*
X138809609Y-96338676D01*
X138850085Y-96298200D01*
X138931038Y-96257723D01*
X139578657Y-97026771D02*
X139619133Y-97067247D01*
X139578657Y-97107723D01*
X139538180Y-97067247D01*
X139578657Y-97026771D01*
X139578657Y-97107723D01*
X140428657Y-97107723D02*
X139942942Y-97107723D01*
X140185800Y-97107723D02*
X140185800Y-96257723D01*
X140104847Y-96379152D01*
X140023895Y-96460104D01*
X139942942Y-96500580D01*
X133345323Y-95736123D02*
X133345323Y-94886123D01*
X133831038Y-95736123D02*
X133466752Y-95250409D01*
X133831038Y-94886123D02*
X133345323Y-95371838D01*
X134195323Y-95736123D02*
X134195323Y-95169457D01*
X134195323Y-95331361D02*
X134235800Y-95250409D01*
X134276276Y-95209933D01*
X134357228Y-95169457D01*
X134438180Y-95169457D01*
X135085800Y-95736123D02*
X135085800Y-95290885D01*
X135045323Y-95209933D01*
X134964371Y-95169457D01*
X134802466Y-95169457D01*
X134721514Y-95209933D01*
X135085800Y-95695647D02*
X135004847Y-95736123D01*
X134802466Y-95736123D01*
X134721514Y-95695647D01*
X134681038Y-95614695D01*
X134681038Y-95533742D01*
X134721514Y-95452790D01*
X134802466Y-95412314D01*
X135004847Y-95412314D01*
X135085800Y-95371838D01*
X135854847Y-95736123D02*
X135854847Y-95290885D01*
X135814371Y-95209933D01*
X135733419Y-95169457D01*
X135571514Y-95169457D01*
X135490561Y-95209933D01*
X135854847Y-95695647D02*
X135773895Y-95736123D01*
X135571514Y-95736123D01*
X135490561Y-95695647D01*
X135450085Y-95614695D01*
X135450085Y-95533742D01*
X135490561Y-95452790D01*
X135571514Y-95412314D01*
X135773895Y-95412314D01*
X135854847Y-95371838D01*
X136259609Y-95736123D02*
X136259609Y-94886123D01*
X136340561Y-95412314D02*
X136583419Y-95736123D01*
X136583419Y-95169457D02*
X136259609Y-95493266D01*
X137271514Y-95695647D02*
X137190561Y-95736123D01*
X137028657Y-95736123D01*
X136947704Y-95695647D01*
X136907228Y-95614695D01*
X136907228Y-95290885D01*
X136947704Y-95209933D01*
X137028657Y-95169457D01*
X137190561Y-95169457D01*
X137271514Y-95209933D01*
X137311990Y-95290885D01*
X137311990Y-95371838D01*
X136907228Y-95452790D01*
X137676276Y-95169457D02*
X137676276Y-95736123D01*
X137676276Y-95250409D02*
X137716752Y-95209933D01*
X137797704Y-95169457D01*
X137919133Y-95169457D01*
X138000085Y-95209933D01*
X138040561Y-95290885D01*
X138040561Y-95736123D01*
X138404847Y-95695647D02*
X138526276Y-95736123D01*
X138728657Y-95736123D01*
X138809609Y-95695647D01*
X138850085Y-95655171D01*
X138890561Y-95574219D01*
X138890561Y-95493266D01*
X138850085Y-95412314D01*
X138809609Y-95371838D01*
X138728657Y-95331361D01*
X138566752Y-95290885D01*
X138485800Y-95250409D01*
X138445323Y-95209933D01*
X138404847Y-95128980D01*
X138404847Y-95048028D01*
X138445323Y-94967076D01*
X138485800Y-94926600D01*
X138566752Y-94886123D01*
X138769133Y-94886123D01*
X138890561Y-94926600D01*
X139133419Y-95169457D02*
X139457228Y-95169457D01*
X139254847Y-94886123D02*
X139254847Y-95614695D01*
X139295323Y-95695647D01*
X139376276Y-95736123D01*
X139457228Y-95736123D01*
X140104847Y-95169457D02*
X140104847Y-95736123D01*
X139740561Y-95169457D02*
X139740561Y-95614695D01*
X139781038Y-95695647D01*
X139861990Y-95736123D01*
X139983419Y-95736123D01*
X140064371Y-95695647D01*
X140104847Y-95655171D01*
X140388180Y-95169457D02*
X140711990Y-95169457D01*
X140509609Y-95736123D02*
X140509609Y-95007552D01*
X140550085Y-94926600D01*
X140631038Y-94886123D01*
X140711990Y-94886123D01*
X140873895Y-95169457D02*
X141197704Y-95169457D01*
X140995323Y-95736123D02*
X140995323Y-95007552D01*
X141035800Y-94926600D01*
X141116752Y-94886123D01*
X141197704Y-94886123D01*
G04 #@! TO.C,J6*
X118110000Y-91627000D02*
X118110000Y-88967000D01*
X118110000Y-91627000D02*
X130870000Y-91627000D01*
X130870000Y-91627000D02*
X130870000Y-88967000D01*
X118110000Y-88967000D02*
X130870000Y-88967000D01*
X115510000Y-88967000D02*
X116840000Y-88967000D01*
X115510000Y-90297000D02*
X115510000Y-88967000D01*
G04 #@! TO.C,J8*
X118050000Y-103336400D02*
X120710000Y-103336400D01*
X118050000Y-98196400D02*
X118050000Y-103336400D01*
X120710000Y-98196400D02*
X120710000Y-103336400D01*
X118050000Y-98196400D02*
X120710000Y-98196400D01*
X118050000Y-96926400D02*
X118050000Y-95596400D01*
X118050000Y-95596400D02*
X119380000Y-95596400D01*
G04 #@! TO.C,J9*
X114239837Y-67945000D02*
X116899837Y-67945000D01*
X114239837Y-67945000D02*
X114239837Y-73085000D01*
X114239837Y-73085000D02*
X116899837Y-73085000D01*
X116899837Y-67945000D02*
X116899837Y-73085000D01*
X116899837Y-65345000D02*
X116899837Y-66675000D01*
X115569837Y-65345000D02*
X116899837Y-65345000D01*
G04 #@! TO.C,Q1*
X126240000Y-71569500D02*
X126240000Y-72499500D01*
X126240000Y-74729500D02*
X126240000Y-73799500D01*
X126240000Y-74729500D02*
X128400000Y-74729500D01*
X126240000Y-71569500D02*
X127700000Y-71569500D01*
G04 #@! TO.C,Q2*
X125970000Y-80970000D02*
X127430000Y-80970000D01*
X125970000Y-84130000D02*
X128130000Y-84130000D01*
X125970000Y-84130000D02*
X125970000Y-83200000D01*
X125970000Y-80970000D02*
X125970000Y-81900000D01*
G04 #@! TO.C,Q3*
X135828500Y-71696500D02*
X137288500Y-71696500D01*
X135828500Y-74856500D02*
X137988500Y-74856500D01*
X135828500Y-74856500D02*
X135828500Y-73926500D01*
X135828500Y-71696500D02*
X135828500Y-72626500D01*
G04 #@! TO.C,Q4*
X135828500Y-81097000D02*
X135828500Y-82027000D01*
X135828500Y-84257000D02*
X135828500Y-83327000D01*
X135828500Y-84257000D02*
X137988500Y-84257000D01*
X135828500Y-81097000D02*
X137288500Y-81097000D01*
G04 #@! TO.C,Q5*
X142169000Y-103929450D02*
X142169000Y-105389450D01*
X139009000Y-103929450D02*
X139009000Y-106089450D01*
X139009000Y-103929450D02*
X139939000Y-103929450D01*
X142169000Y-103929450D02*
X141239000Y-103929450D01*
G04 #@! TO.C,Q6*
X109472000Y-106144999D02*
X109472000Y-105214999D01*
X109472000Y-102984999D02*
X109472000Y-103914999D01*
X109472000Y-102984999D02*
X107312000Y-102984999D01*
X109472000Y-106144999D02*
X108012000Y-106144999D01*
G04 #@! TO.C,Q7*
X106369837Y-67628000D02*
X106369837Y-66168000D01*
X109529837Y-67628000D02*
X109529837Y-65468000D01*
X109529837Y-67628000D02*
X108599837Y-67628000D01*
X106369837Y-67628000D02*
X107299837Y-67628000D01*
G04 #@! TO.C,Q8*
X93923837Y-67628000D02*
X93923837Y-66168000D01*
X97083837Y-67628000D02*
X97083837Y-65468000D01*
X97083837Y-67628000D02*
X96153837Y-67628000D01*
X93923837Y-67628000D02*
X94853837Y-67628000D01*
G04 #@! TO.C,Q9*
X125639300Y-112705000D02*
X125639300Y-111775000D01*
X125639300Y-109545000D02*
X125639300Y-110475000D01*
X125639300Y-109545000D02*
X123479300Y-109545000D01*
X125639300Y-112705000D02*
X124179300Y-112705000D01*
G04 #@! TO.C,Q10*
X94178000Y-81024000D02*
X95108000Y-81024000D01*
X97338000Y-81024000D02*
X96408000Y-81024000D01*
X97338000Y-81024000D02*
X97338000Y-78864000D01*
X94178000Y-81024000D02*
X94178000Y-79564000D01*
G04 #@! TO.C,Q11*
X109276000Y-79504000D02*
X108346000Y-79504000D01*
X106116000Y-79504000D02*
X107046000Y-79504000D01*
X106116000Y-79504000D02*
X106116000Y-81664000D01*
X109276000Y-79504000D02*
X109276000Y-80964000D01*
G04 #@! TO.C,Q12*
X101036000Y-81024000D02*
X101966000Y-81024000D01*
X104196000Y-81024000D02*
X103266000Y-81024000D01*
X104196000Y-81024000D02*
X104196000Y-78864000D01*
X101036000Y-81024000D02*
X101036000Y-79564000D01*
G04 #@! TO.C,Q13*
X117926450Y-108641000D02*
X116466450Y-108641000D01*
X117926450Y-105481000D02*
X115766450Y-105481000D01*
X117926450Y-105481000D02*
X117926450Y-106411000D01*
X117926450Y-108641000D02*
X117926450Y-107711000D01*
G04 #@! TO.C,Q14*
X113764000Y-82872000D02*
X113764000Y-84332000D01*
X110604000Y-82872000D02*
X110604000Y-85032000D01*
X110604000Y-82872000D02*
X111534000Y-82872000D01*
X113764000Y-82872000D02*
X112834000Y-82872000D01*
D11*
G04 #@! TO.C,U1*
X131484000Y-106019000D02*
X131484000Y-105919000D01*
X126834000Y-106019000D02*
X126834000Y-105819000D01*
X126834000Y-102769000D02*
X126834000Y-102969000D01*
X131484000Y-102769000D02*
X131484000Y-102969000D01*
X131484000Y-106019000D02*
X126834000Y-106019000D01*
X131484000Y-102769000D02*
X126834000Y-102769000D01*
X131484000Y-105919000D02*
X132834000Y-105919000D01*
G04 #@! TO.C,U2*
X98767000Y-115315000D02*
X97417000Y-115315000D01*
X98767000Y-118465000D02*
X103417000Y-118465000D01*
X98767000Y-115215000D02*
X103417000Y-115215000D01*
X98767000Y-118465000D02*
X98767000Y-118265000D01*
X103417000Y-118465000D02*
X103417000Y-118265000D01*
X103417000Y-115215000D02*
X103417000Y-115415000D01*
X98767000Y-115215000D02*
X98767000Y-115315000D01*
G04 #@! TO.C,U3*
X103294000Y-108844000D02*
X103294000Y-108819000D01*
X99144000Y-108844000D02*
X99144000Y-108729000D01*
X99144000Y-99944000D02*
X99144000Y-100059000D01*
X103294000Y-99944000D02*
X103294000Y-100059000D01*
X103294000Y-108844000D02*
X99144000Y-108844000D01*
X103294000Y-99944000D02*
X99144000Y-99944000D01*
X103294000Y-108819000D02*
X104669000Y-108819000D01*
D10*
G04 #@! TO.C,U4*
X128070000Y-97720000D02*
X128070000Y-98920000D01*
X128070000Y-98920000D02*
X125370000Y-98920000D01*
X124070000Y-94120000D02*
X128070000Y-94120000D01*
X128070000Y-94120000D02*
X128070000Y-95320000D01*
G04 #@! TO.C,C2*
X124862733Y-116330000D02*
X125205267Y-116330000D01*
X124862733Y-117350000D02*
X125205267Y-117350000D01*
G04 #@! TO.C,C3*
X140732733Y-110233800D02*
X141075267Y-110233800D01*
X140732733Y-109213800D02*
X141075267Y-109213800D01*
G04 #@! TO.C,C4*
X141080267Y-108251600D02*
X140737733Y-108251600D01*
X141080267Y-107231600D02*
X140737733Y-107231600D01*
G04 #@! TO.C,C5*
X104565267Y-114429000D02*
X104222733Y-114429000D01*
X104565267Y-113409000D02*
X104222733Y-113409000D01*
G04 #@! TO.C,C6*
X126765233Y-106614500D02*
X127107767Y-106614500D01*
X126765233Y-107634500D02*
X127107767Y-107634500D01*
G04 #@! TO.C,C8*
X141141267Y-111631000D02*
X140798733Y-111631000D01*
X141141267Y-112651000D02*
X140798733Y-112651000D01*
G04 #@! TO.C,C9*
X135866233Y-110233800D02*
X136208767Y-110233800D01*
X135866233Y-109213800D02*
X136208767Y-109213800D01*
G04 #@! TO.C,C10*
X129203267Y-114425000D02*
X128860733Y-114425000D01*
X129203267Y-115445000D02*
X128860733Y-115445000D01*
G04 #@! TO.C,C11*
X131273733Y-101026500D02*
X131616267Y-101026500D01*
X131273733Y-102046500D02*
X131616267Y-102046500D01*
G04 #@! TO.C,C14*
X130685000Y-110953733D02*
X130685000Y-111296267D01*
X129665000Y-110953733D02*
X129665000Y-111296267D01*
G04 #@! TO.C,C15*
X114588800Y-111296267D02*
X114588800Y-110953733D01*
X115608800Y-111296267D02*
X115608800Y-110953733D01*
G04 #@! TO.C,C16*
X116766200Y-110953733D02*
X116766200Y-111296267D01*
X117786200Y-110953733D02*
X117786200Y-111296267D01*
G04 #@! TO.C,C17*
X110365000Y-97387267D02*
X110365000Y-97044733D01*
X109345000Y-97387267D02*
X109345000Y-97044733D01*
G04 #@! TO.C,C18*
X107801267Y-115441000D02*
X107458733Y-115441000D01*
X107801267Y-116461000D02*
X107458733Y-116461000D01*
G04 #@! TO.C,C19*
X110234000Y-111296267D02*
X110234000Y-110953733D01*
X111254000Y-111296267D02*
X111254000Y-110953733D01*
G04 #@! TO.C,C20*
X112411400Y-110953733D02*
X112411400Y-111296267D01*
X113431400Y-110953733D02*
X113431400Y-111296267D01*
G04 #@! TO.C,C22*
X115845733Y-114425000D02*
X116188267Y-114425000D01*
X115845733Y-115445000D02*
X116188267Y-115445000D01*
G04 #@! TO.C,C23*
X102741000Y-97387267D02*
X102741000Y-97044733D01*
X103761000Y-97387267D02*
X103761000Y-97044733D01*
G04 #@! TO.C,C25*
X97030000Y-97387267D02*
X97030000Y-97044733D01*
X96010000Y-97387267D02*
X96010000Y-97044733D01*
G04 #@! TO.C,C26*
X93262267Y-117223000D02*
X92919733Y-117223000D01*
X93262267Y-116203000D02*
X92919733Y-116203000D01*
G04 #@! TO.C,C27*
X93262267Y-117854000D02*
X92919733Y-117854000D01*
X93262267Y-118874000D02*
X92919733Y-118874000D01*
G04 #@! TO.C,C28*
X92919733Y-119632000D02*
X93262267Y-119632000D01*
X92919733Y-120652000D02*
X93262267Y-120652000D01*
G04 #@! TO.C,C29*
X93300267Y-100713000D02*
X92957733Y-100713000D01*
X93300267Y-99693000D02*
X92957733Y-99693000D01*
G04 #@! TO.C,C30*
X93262267Y-112647000D02*
X92919733Y-112647000D01*
X93262267Y-113667000D02*
X92919733Y-113667000D01*
G04 #@! TO.C,C31*
X122557000Y-102340267D02*
X122557000Y-101997733D01*
X121537000Y-102340267D02*
X121537000Y-101997733D01*
G04 #@! TO.C,C32*
X99716733Y-114429000D02*
X100059267Y-114429000D01*
X99716733Y-113409000D02*
X100059267Y-113409000D01*
G04 #@! TO.C,C33*
X93300267Y-105281000D02*
X92957733Y-105281000D01*
X93300267Y-106301000D02*
X92957733Y-106301000D01*
G04 #@! TO.C,C34*
X103761000Y-111019733D02*
X103761000Y-111362267D01*
X102741000Y-111019733D02*
X102741000Y-111362267D01*
G04 #@! TO.C,C35*
X123442000Y-102279267D02*
X123442000Y-101936733D01*
X124462000Y-102279267D02*
X124462000Y-101936733D01*
G04 #@! TO.C,R1*
X95670104Y-72896000D02*
X95327570Y-72896000D01*
X95670104Y-73916000D02*
X95327570Y-73916000D01*
G04 #@! TO.C,R2*
X131913267Y-74039000D02*
X131570733Y-74039000D01*
X131913267Y-75059000D02*
X131570733Y-75059000D01*
G04 #@! TO.C,R3*
X131913267Y-81917000D02*
X131570733Y-81917000D01*
X131913267Y-80897000D02*
X131570733Y-80897000D01*
G04 #@! TO.C,R5*
X131580733Y-71499000D02*
X131923267Y-71499000D01*
X131580733Y-72519000D02*
X131923267Y-72519000D01*
G04 #@! TO.C,R6*
X131580733Y-84457000D02*
X131923267Y-84457000D01*
X131580733Y-83437000D02*
X131923267Y-83437000D01*
G04 #@! TO.C,R7*
X106475733Y-109726000D02*
X106818267Y-109726000D01*
X106475733Y-110746000D02*
X106818267Y-110746000D01*
G04 #@! TO.C,R8*
X141809267Y-80897000D02*
X141466733Y-80897000D01*
X141809267Y-81917000D02*
X141466733Y-81917000D01*
G04 #@! TO.C,R9*
X141819267Y-71499000D02*
X141476733Y-71499000D01*
X141819267Y-72519000D02*
X141476733Y-72519000D01*
G04 #@! TO.C,R10*
X118954733Y-78992000D02*
X119297267Y-78992000D01*
X118954733Y-80012000D02*
X119297267Y-80012000D01*
G04 #@! TO.C,R11*
X119297267Y-82449950D02*
X118954733Y-82449950D01*
X119297267Y-81429950D02*
X118954733Y-81429950D01*
G04 #@! TO.C,R12*
X106808267Y-112651000D02*
X106465733Y-112651000D01*
X106808267Y-111631000D02*
X106465733Y-111631000D01*
G04 #@! TO.C,R13*
X135871233Y-106204400D02*
X136213767Y-106204400D01*
X135871233Y-105184400D02*
X136213767Y-105184400D01*
G04 #@! TO.C,R14*
X123356104Y-65085500D02*
X123013570Y-65085500D01*
X123356104Y-66105500D02*
X123013570Y-66105500D01*
G04 #@! TO.C,R16*
X141476733Y-75059000D02*
X141819267Y-75059000D01*
X141476733Y-74039000D02*
X141819267Y-74039000D01*
G04 #@! TO.C,R17*
X128881233Y-75690000D02*
X129223767Y-75690000D01*
X128881233Y-76710000D02*
X129223767Y-76710000D01*
G04 #@! TO.C,R18*
X141476733Y-84457000D02*
X141819267Y-84457000D01*
X141476733Y-83437000D02*
X141819267Y-83437000D01*
G04 #@! TO.C,R19*
X140930267Y-102110000D02*
X140587733Y-102110000D01*
X140930267Y-101090000D02*
X140587733Y-101090000D01*
G04 #@! TO.C,R20*
X136203767Y-108251600D02*
X135861233Y-108251600D01*
X136203767Y-107231600D02*
X135861233Y-107231600D01*
G04 #@! TO.C,R21*
X106678733Y-83122000D02*
X107021267Y-83122000D01*
X106678733Y-84142000D02*
X107021267Y-84142000D01*
G04 #@! TO.C,R22*
X128881233Y-80202500D02*
X129223767Y-80202500D01*
X128881233Y-79182500D02*
X129223767Y-79182500D01*
G04 #@! TO.C,R23*
X124839733Y-115445000D02*
X125182267Y-115445000D01*
X124839733Y-114425000D02*
X125182267Y-114425000D01*
G04 #@! TO.C,R24*
X108878267Y-107440000D02*
X108535733Y-107440000D01*
X108878267Y-108460000D02*
X108535733Y-108460000D01*
G04 #@! TO.C,R25*
X135871233Y-103137200D02*
X136213767Y-103137200D01*
X135871233Y-104157200D02*
X136213767Y-104157200D01*
G04 #@! TO.C,R26*
X136203767Y-102110000D02*
X135861233Y-102110000D01*
X136203767Y-101090000D02*
X135861233Y-101090000D01*
G04 #@! TO.C,R27*
X107783570Y-70483000D02*
X108126104Y-70483000D01*
X107783570Y-71503000D02*
X108126104Y-71503000D01*
G04 #@! TO.C,R29*
X107783570Y-73916000D02*
X108126104Y-73916000D01*
X107783570Y-72896000D02*
X108126104Y-72896000D01*
G04 #@! TO.C,R30*
X95670104Y-71503000D02*
X95327570Y-71503000D01*
X95670104Y-70483000D02*
X95327570Y-70483000D01*
G04 #@! TO.C,R31*
X115403570Y-77218000D02*
X115746104Y-77218000D01*
X115403570Y-76198000D02*
X115746104Y-76198000D01*
G04 #@! TO.C,R32*
X107491733Y-119567000D02*
X107834267Y-119567000D01*
X107491733Y-120587000D02*
X107834267Y-120587000D01*
G04 #@! TO.C,R33*
X106381733Y-98681000D02*
X106724267Y-98681000D01*
X106381733Y-97661000D02*
X106724267Y-97661000D01*
G04 #@! TO.C,R34*
X118954733Y-83867900D02*
X119297267Y-83867900D01*
X118954733Y-84887900D02*
X119297267Y-84887900D01*
G04 #@! TO.C,R35*
X95929267Y-84142000D02*
X95586733Y-84142000D01*
X95929267Y-83122000D02*
X95586733Y-83122000D01*
G04 #@! TO.C,R36*
X107824267Y-118239000D02*
X107481733Y-118239000D01*
X107824267Y-117219000D02*
X107481733Y-117219000D01*
G04 #@! TO.C,R37*
X128442600Y-111291267D02*
X128442600Y-110948733D01*
X127422600Y-111291267D02*
X127422600Y-110948733D01*
G04 #@! TO.C,R38*
X106714267Y-96776000D02*
X106371733Y-96776000D01*
X106714267Y-95756000D02*
X106371733Y-95756000D01*
G04 #@! TO.C,R39*
X120028600Y-110958733D02*
X120028600Y-111301267D01*
X119008600Y-110958733D02*
X119008600Y-111301267D01*
G04 #@! TO.C,R40*
X122336000Y-111291267D02*
X122336000Y-110948733D01*
X121316000Y-111291267D02*
X121316000Y-110948733D01*
G04 #@! TO.C,R41*
X99734733Y-98681000D02*
X100077267Y-98681000D01*
X99734733Y-97661000D02*
X100077267Y-97661000D01*
G04 #@! TO.C,R42*
X120483267Y-114425000D02*
X120140733Y-114425000D01*
X120483267Y-115445000D02*
X120140733Y-115445000D01*
G04 #@! TO.C,R43*
X122066233Y-107634500D02*
X122408767Y-107634500D01*
X122066233Y-106614500D02*
X122408767Y-106614500D01*
G04 #@! TO.C,R44*
X122408767Y-105856500D02*
X122066233Y-105856500D01*
X122408767Y-104836500D02*
X122066233Y-104836500D01*
G04 #@! TO.C,R45*
X100077267Y-96776000D02*
X99734733Y-96776000D01*
X100077267Y-95756000D02*
X99734733Y-95756000D01*
G04 #@! TO.C,R46*
X111931267Y-115445000D02*
X111588733Y-115445000D01*
X111931267Y-114425000D02*
X111588733Y-114425000D01*
G04 #@! TO.C,R47*
X123023570Y-67181000D02*
X123366104Y-67181000D01*
X123023570Y-68201000D02*
X123366104Y-68201000D01*
G04 #@! TO.C,R48*
X101470267Y-84142000D02*
X101127733Y-84142000D01*
X101470267Y-83122000D02*
X101127733Y-83122000D01*
G04 #@! TO.C,R49*
X127933267Y-85850000D02*
X127590733Y-85850000D01*
X127933267Y-86870000D02*
X127590733Y-86870000D01*
G04 #@! TO.C,R50*
X92962733Y-98681000D02*
X93305267Y-98681000D01*
X92962733Y-97661000D02*
X93305267Y-97661000D01*
G04 #@! TO.C,R51*
X102916933Y-120587000D02*
X102574399Y-120587000D01*
X102916933Y-119567000D02*
X102574399Y-119567000D01*
G04 #@! TO.C,R52*
X93295267Y-96776000D02*
X92952733Y-96776000D01*
X93295267Y-95756000D02*
X92952733Y-95756000D01*
G04 #@! TO.C,R53*
X98009600Y-119567000D02*
X97667066Y-119567000D01*
X98009600Y-120587000D02*
X97667066Y-120587000D01*
G04 #@! TO.C,R54*
X92962733Y-102491000D02*
X93305267Y-102491000D01*
X92962733Y-101471000D02*
X93305267Y-101471000D01*
G04 #@! TO.C,R55*
X92962733Y-104396000D02*
X93305267Y-104396000D01*
X92962733Y-103376000D02*
X93305267Y-103376000D01*
G04 #@! TO.C,R56*
X93262267Y-115445000D02*
X92919733Y-115445000D01*
X93262267Y-114425000D02*
X92919733Y-114425000D01*
G04 #@! TO.C,R57*
X92962733Y-108079000D02*
X93305267Y-108079000D01*
X92962733Y-107059000D02*
X93305267Y-107059000D01*
G04 #@! TO.C,R58*
X92962733Y-108964000D02*
X93305267Y-108964000D01*
X92962733Y-109984000D02*
X93305267Y-109984000D01*
G04 #@! TO.C,R59*
X99734733Y-110746000D02*
X100077267Y-110746000D01*
X99734733Y-109726000D02*
X100077267Y-109726000D01*
G04 #@! TO.C,R60*
X99734733Y-111631000D02*
X100077267Y-111631000D01*
X99734733Y-112651000D02*
X100077267Y-112651000D01*
G04 #@! TO.C,R61*
X92962733Y-111889000D02*
X93305267Y-111889000D01*
X92962733Y-110869000D02*
X93305267Y-110869000D01*
G04 #@! TO.C,D1*
X137680000Y-111406000D02*
X135220000Y-111406000D01*
X137680000Y-112876000D02*
X137680000Y-111406000D01*
X135220000Y-112876000D02*
X137680000Y-112876000D01*
G04 #@! TO.C,D2*
X113696400Y-107830000D02*
X113696400Y-105370000D01*
X113696400Y-105370000D02*
X112226400Y-105370000D01*
X112226400Y-105370000D02*
X112226400Y-107830000D01*
G04 #@! TO.C,J6*
X113686666Y-90530333D02*
X114186666Y-90530333D01*
X114286666Y-90563666D01*
X114353333Y-90630333D01*
X114386666Y-90730333D01*
X114386666Y-90797000D01*
X113686666Y-89897000D02*
X113686666Y-90030333D01*
X113720000Y-90097000D01*
X113753333Y-90130333D01*
X113853333Y-90197000D01*
X113986666Y-90230333D01*
X114253333Y-90230333D01*
X114320000Y-90197000D01*
X114353333Y-90163666D01*
X114386666Y-90097000D01*
X114386666Y-89963666D01*
X114353333Y-89897000D01*
X114320000Y-89863666D01*
X114253333Y-89830333D01*
X114086666Y-89830333D01*
X114020000Y-89863666D01*
X113986666Y-89897000D01*
X113953333Y-89963666D01*
X113953333Y-90097000D01*
X113986666Y-90163666D01*
X114020000Y-90197000D01*
X114086666Y-90230333D01*
G04 #@! TO.C,J8*
X119146666Y-94213066D02*
X119146666Y-94713066D01*
X119113333Y-94813066D01*
X119046666Y-94879733D01*
X118946666Y-94913066D01*
X118880000Y-94913066D01*
X119580000Y-94513066D02*
X119513333Y-94479733D01*
X119480000Y-94446400D01*
X119446666Y-94379733D01*
X119446666Y-94346400D01*
X119480000Y-94279733D01*
X119513333Y-94246400D01*
X119580000Y-94213066D01*
X119713333Y-94213066D01*
X119780000Y-94246400D01*
X119813333Y-94279733D01*
X119846666Y-94346400D01*
X119846666Y-94379733D01*
X119813333Y-94446400D01*
X119780000Y-94479733D01*
X119713333Y-94513066D01*
X119580000Y-94513066D01*
X119513333Y-94546400D01*
X119480000Y-94579733D01*
X119446666Y-94646400D01*
X119446666Y-94779733D01*
X119480000Y-94846400D01*
X119513333Y-94879733D01*
X119580000Y-94913066D01*
X119713333Y-94913066D01*
X119780000Y-94879733D01*
X119813333Y-94846400D01*
X119846666Y-94779733D01*
X119846666Y-94646400D01*
X119813333Y-94579733D01*
X119780000Y-94546400D01*
X119713333Y-94513066D01*
G04 #@! TO.C,J9*
X115336503Y-64196166D02*
X115336503Y-64696166D01*
X115303170Y-64796166D01*
X115236503Y-64862833D01*
X115136503Y-64896166D01*
X115069837Y-64896166D01*
X115703170Y-64896166D02*
X115836503Y-64896166D01*
X115903170Y-64862833D01*
X115936503Y-64829500D01*
X116003170Y-64729500D01*
X116036503Y-64596166D01*
X116036503Y-64329500D01*
X116003170Y-64262833D01*
X115969837Y-64229500D01*
X115903170Y-64196166D01*
X115769837Y-64196166D01*
X115703170Y-64229500D01*
X115669837Y-64262833D01*
X115636503Y-64329500D01*
X115636503Y-64496166D01*
X115669837Y-64562833D01*
X115703170Y-64596166D01*
X115769837Y-64629500D01*
X115903170Y-64629500D01*
X115969837Y-64596166D01*
X116003170Y-64562833D01*
X116036503Y-64496166D01*
G04 #@! TO.C,Q1*
X125155333Y-72201833D02*
X125088666Y-72168500D01*
X125022000Y-72101833D01*
X124922000Y-72001833D01*
X124855333Y-71968500D01*
X124788666Y-71968500D01*
X124822000Y-72135166D02*
X124755333Y-72101833D01*
X124688666Y-72035166D01*
X124655333Y-71901833D01*
X124655333Y-71668500D01*
X124688666Y-71535166D01*
X124755333Y-71468500D01*
X124822000Y-71435166D01*
X124955333Y-71435166D01*
X125022000Y-71468500D01*
X125088666Y-71535166D01*
X125122000Y-71668500D01*
X125122000Y-71901833D01*
X125088666Y-72035166D01*
X125022000Y-72101833D01*
X124955333Y-72135166D01*
X124822000Y-72135166D01*
X125788666Y-72135166D02*
X125388666Y-72135166D01*
X125588666Y-72135166D02*
X125588666Y-71435166D01*
X125522000Y-71535166D01*
X125455333Y-71601833D01*
X125388666Y-71635166D01*
G04 #@! TO.C,Q2*
X124901333Y-84330333D02*
X124834666Y-84297000D01*
X124768000Y-84230333D01*
X124668000Y-84130333D01*
X124601333Y-84097000D01*
X124534666Y-84097000D01*
X124568000Y-84263666D02*
X124501333Y-84230333D01*
X124434666Y-84163666D01*
X124401333Y-84030333D01*
X124401333Y-83797000D01*
X124434666Y-83663666D01*
X124501333Y-83597000D01*
X124568000Y-83563666D01*
X124701333Y-83563666D01*
X124768000Y-83597000D01*
X124834666Y-83663666D01*
X124868000Y-83797000D01*
X124868000Y-84030333D01*
X124834666Y-84163666D01*
X124768000Y-84230333D01*
X124701333Y-84263666D01*
X124568000Y-84263666D01*
X125134666Y-83630333D02*
X125168000Y-83597000D01*
X125234666Y-83563666D01*
X125401333Y-83563666D01*
X125468000Y-83597000D01*
X125501333Y-83630333D01*
X125534666Y-83697000D01*
X125534666Y-83763666D01*
X125501333Y-83863666D01*
X125101333Y-84263666D01*
X125534666Y-84263666D01*
G04 #@! TO.C,Q3*
X136521833Y-76159833D02*
X136455166Y-76126500D01*
X136388500Y-76059833D01*
X136288500Y-75959833D01*
X136221833Y-75926500D01*
X136155166Y-75926500D01*
X136188500Y-76093166D02*
X136121833Y-76059833D01*
X136055166Y-75993166D01*
X136021833Y-75859833D01*
X136021833Y-75626500D01*
X136055166Y-75493166D01*
X136121833Y-75426500D01*
X136188500Y-75393166D01*
X136321833Y-75393166D01*
X136388500Y-75426500D01*
X136455166Y-75493166D01*
X136488500Y-75626500D01*
X136488500Y-75859833D01*
X136455166Y-75993166D01*
X136388500Y-76059833D01*
X136321833Y-76093166D01*
X136188500Y-76093166D01*
X136721833Y-75393166D02*
X137155166Y-75393166D01*
X136921833Y-75659833D01*
X137021833Y-75659833D01*
X137088500Y-75693166D01*
X137121833Y-75726500D01*
X137155166Y-75793166D01*
X137155166Y-75959833D01*
X137121833Y-76026500D01*
X137088500Y-76059833D01*
X137021833Y-76093166D01*
X136821833Y-76093166D01*
X136755166Y-76059833D01*
X136721833Y-76026500D01*
G04 #@! TO.C,Q4*
X136521833Y-85560333D02*
X136455166Y-85527000D01*
X136388500Y-85460333D01*
X136288500Y-85360333D01*
X136221833Y-85327000D01*
X136155166Y-85327000D01*
X136188500Y-85493666D02*
X136121833Y-85460333D01*
X136055166Y-85393666D01*
X136021833Y-85260333D01*
X136021833Y-85027000D01*
X136055166Y-84893666D01*
X136121833Y-84827000D01*
X136188500Y-84793666D01*
X136321833Y-84793666D01*
X136388500Y-84827000D01*
X136455166Y-84893666D01*
X136488500Y-85027000D01*
X136488500Y-85260333D01*
X136455166Y-85393666D01*
X136388500Y-85460333D01*
X136321833Y-85493666D01*
X136188500Y-85493666D01*
X137088500Y-85027000D02*
X137088500Y-85493666D01*
X136921833Y-84760333D02*
X136755166Y-85260333D01*
X137188500Y-85260333D01*
G04 #@! TO.C,Q5*
X141970133Y-103659733D02*
X141903466Y-103626400D01*
X141836800Y-103559733D01*
X141736800Y-103459733D01*
X141670133Y-103426400D01*
X141603466Y-103426400D01*
X141636800Y-103593066D02*
X141570133Y-103559733D01*
X141503466Y-103493066D01*
X141470133Y-103359733D01*
X141470133Y-103126400D01*
X141503466Y-102993066D01*
X141570133Y-102926400D01*
X141636800Y-102893066D01*
X141770133Y-102893066D01*
X141836800Y-102926400D01*
X141903466Y-102993066D01*
X141936800Y-103126400D01*
X141936800Y-103359733D01*
X141903466Y-103493066D01*
X141836800Y-103559733D01*
X141770133Y-103593066D01*
X141636800Y-103593066D01*
X142570133Y-102893066D02*
X142236800Y-102893066D01*
X142203466Y-103226400D01*
X142236800Y-103193066D01*
X142303466Y-103159733D01*
X142470133Y-103159733D01*
X142536800Y-103193066D01*
X142570133Y-103226400D01*
X142603466Y-103293066D01*
X142603466Y-103459733D01*
X142570133Y-103526400D01*
X142536800Y-103559733D01*
X142470133Y-103593066D01*
X142303466Y-103593066D01*
X142236800Y-103559733D01*
X142203466Y-103526400D01*
G04 #@! TO.C,Q6*
X108645333Y-102448332D02*
X108578666Y-102414999D01*
X108512000Y-102348332D01*
X108412000Y-102248332D01*
X108345333Y-102214999D01*
X108278666Y-102214999D01*
X108312000Y-102381665D02*
X108245333Y-102348332D01*
X108178666Y-102281665D01*
X108145333Y-102148332D01*
X108145333Y-101914999D01*
X108178666Y-101781665D01*
X108245333Y-101714999D01*
X108312000Y-101681665D01*
X108445333Y-101681665D01*
X108512000Y-101714999D01*
X108578666Y-101781665D01*
X108612000Y-101914999D01*
X108612000Y-102148332D01*
X108578666Y-102281665D01*
X108512000Y-102348332D01*
X108445333Y-102381665D01*
X108312000Y-102381665D01*
X109212000Y-101681665D02*
X109078666Y-101681665D01*
X109012000Y-101714999D01*
X108978666Y-101748332D01*
X108912000Y-101848332D01*
X108878666Y-101981665D01*
X108878666Y-102248332D01*
X108912000Y-102314999D01*
X108945333Y-102348332D01*
X109012000Y-102381665D01*
X109145333Y-102381665D01*
X109212000Y-102348332D01*
X109245333Y-102314999D01*
X109278666Y-102248332D01*
X109278666Y-102081665D01*
X109245333Y-102014999D01*
X109212000Y-101981665D01*
X109145333Y-101948332D01*
X109012000Y-101948332D01*
X108945333Y-101981665D01*
X108912000Y-102014999D01*
X108878666Y-102081665D01*
G04 #@! TO.C,Q7*
X110833170Y-66934666D02*
X110799837Y-67001333D01*
X110733170Y-67068000D01*
X110633170Y-67168000D01*
X110599837Y-67234666D01*
X110599837Y-67301333D01*
X110766503Y-67268000D02*
X110733170Y-67334666D01*
X110666503Y-67401333D01*
X110533170Y-67434666D01*
X110299837Y-67434666D01*
X110166503Y-67401333D01*
X110099837Y-67334666D01*
X110066503Y-67268000D01*
X110066503Y-67134666D01*
X110099837Y-67068000D01*
X110166503Y-67001333D01*
X110299837Y-66968000D01*
X110533170Y-66968000D01*
X110666503Y-67001333D01*
X110733170Y-67068000D01*
X110766503Y-67134666D01*
X110766503Y-67268000D01*
X110066503Y-66734666D02*
X110066503Y-66268000D01*
X110766503Y-66568000D01*
G04 #@! TO.C,Q8*
X98387170Y-66934666D02*
X98353837Y-67001333D01*
X98287170Y-67068000D01*
X98187170Y-67168000D01*
X98153837Y-67234666D01*
X98153837Y-67301333D01*
X98320503Y-67268000D02*
X98287170Y-67334666D01*
X98220503Y-67401333D01*
X98087170Y-67434666D01*
X97853837Y-67434666D01*
X97720503Y-67401333D01*
X97653837Y-67334666D01*
X97620503Y-67268000D01*
X97620503Y-67134666D01*
X97653837Y-67068000D01*
X97720503Y-67001333D01*
X97853837Y-66968000D01*
X98087170Y-66968000D01*
X98220503Y-67001333D01*
X98287170Y-67068000D01*
X98320503Y-67134666D01*
X98320503Y-67268000D01*
X97920503Y-66568000D02*
X97887170Y-66634666D01*
X97853837Y-66668000D01*
X97787170Y-66701333D01*
X97753837Y-66701333D01*
X97687170Y-66668000D01*
X97653837Y-66634666D01*
X97620503Y-66568000D01*
X97620503Y-66434666D01*
X97653837Y-66368000D01*
X97687170Y-66334666D01*
X97753837Y-66301333D01*
X97787170Y-66301333D01*
X97853837Y-66334666D01*
X97887170Y-66368000D01*
X97920503Y-66434666D01*
X97920503Y-66568000D01*
X97953837Y-66634666D01*
X97987170Y-66668000D01*
X98053837Y-66701333D01*
X98187170Y-66701333D01*
X98253837Y-66668000D01*
X98287170Y-66634666D01*
X98320503Y-66568000D01*
X98320503Y-66434666D01*
X98287170Y-66368000D01*
X98253837Y-66334666D01*
X98187170Y-66301333D01*
X98053837Y-66301333D01*
X97987170Y-66334666D01*
X97953837Y-66368000D01*
X97920503Y-66434666D01*
G04 #@! TO.C,Q9*
X124812633Y-109008333D02*
X124745966Y-108975000D01*
X124679300Y-108908333D01*
X124579300Y-108808333D01*
X124512633Y-108775000D01*
X124445966Y-108775000D01*
X124479300Y-108941666D02*
X124412633Y-108908333D01*
X124345966Y-108841666D01*
X124312633Y-108708333D01*
X124312633Y-108475000D01*
X124345966Y-108341666D01*
X124412633Y-108275000D01*
X124479300Y-108241666D01*
X124612633Y-108241666D01*
X124679300Y-108275000D01*
X124745966Y-108341666D01*
X124779300Y-108475000D01*
X124779300Y-108708333D01*
X124745966Y-108841666D01*
X124679300Y-108908333D01*
X124612633Y-108941666D01*
X124479300Y-108941666D01*
X125112633Y-108941666D02*
X125245966Y-108941666D01*
X125312633Y-108908333D01*
X125345966Y-108875000D01*
X125412633Y-108775000D01*
X125445966Y-108641666D01*
X125445966Y-108375000D01*
X125412633Y-108308333D01*
X125379300Y-108275000D01*
X125312633Y-108241666D01*
X125179300Y-108241666D01*
X125112633Y-108275000D01*
X125079300Y-108308333D01*
X125045966Y-108375000D01*
X125045966Y-108541666D01*
X125079300Y-108608333D01*
X125112633Y-108641666D01*
X125179300Y-108675000D01*
X125312633Y-108675000D01*
X125379300Y-108641666D01*
X125412633Y-108608333D01*
X125445966Y-108541666D01*
G04 #@! TO.C,Q10*
X93453000Y-82107833D02*
X93386333Y-82074500D01*
X93319666Y-82007833D01*
X93219666Y-81907833D01*
X93153000Y-81874500D01*
X93086333Y-81874500D01*
X93119666Y-82041166D02*
X93053000Y-82007833D01*
X92986333Y-81941166D01*
X92953000Y-81807833D01*
X92953000Y-81574500D01*
X92986333Y-81441166D01*
X93053000Y-81374500D01*
X93119666Y-81341166D01*
X93253000Y-81341166D01*
X93319666Y-81374500D01*
X93386333Y-81441166D01*
X93419666Y-81574500D01*
X93419666Y-81807833D01*
X93386333Y-81941166D01*
X93319666Y-82007833D01*
X93253000Y-82041166D01*
X93119666Y-82041166D01*
X94086333Y-82041166D02*
X93686333Y-82041166D01*
X93886333Y-82041166D02*
X93886333Y-81341166D01*
X93819666Y-81441166D01*
X93753000Y-81507833D01*
X93686333Y-81541166D01*
X94519666Y-81341166D02*
X94586333Y-81341166D01*
X94653000Y-81374500D01*
X94686333Y-81407833D01*
X94719666Y-81474500D01*
X94753000Y-81607833D01*
X94753000Y-81774500D01*
X94719666Y-81907833D01*
X94686333Y-81974500D01*
X94653000Y-82007833D01*
X94586333Y-82041166D01*
X94519666Y-82041166D01*
X94453000Y-82007833D01*
X94419666Y-81974500D01*
X94386333Y-81907833D01*
X94353000Y-81774500D01*
X94353000Y-81607833D01*
X94386333Y-81474500D01*
X94419666Y-81407833D01*
X94453000Y-81374500D01*
X94519666Y-81341166D01*
G04 #@! TO.C,Q11*
X109201000Y-79186833D02*
X109134333Y-79153500D01*
X109067666Y-79086833D01*
X108967666Y-78986833D01*
X108901000Y-78953500D01*
X108834333Y-78953500D01*
X108867666Y-79120166D02*
X108801000Y-79086833D01*
X108734333Y-79020166D01*
X108701000Y-78886833D01*
X108701000Y-78653500D01*
X108734333Y-78520166D01*
X108801000Y-78453500D01*
X108867666Y-78420166D01*
X109001000Y-78420166D01*
X109067666Y-78453500D01*
X109134333Y-78520166D01*
X109167666Y-78653500D01*
X109167666Y-78886833D01*
X109134333Y-79020166D01*
X109067666Y-79086833D01*
X109001000Y-79120166D01*
X108867666Y-79120166D01*
X109834333Y-79120166D02*
X109434333Y-79120166D01*
X109634333Y-79120166D02*
X109634333Y-78420166D01*
X109567666Y-78520166D01*
X109501000Y-78586833D01*
X109434333Y-78620166D01*
X110501000Y-79120166D02*
X110101000Y-79120166D01*
X110301000Y-79120166D02*
X110301000Y-78420166D01*
X110234333Y-78520166D01*
X110167666Y-78586833D01*
X110101000Y-78620166D01*
G04 #@! TO.C,Q12*
X100311000Y-82107833D02*
X100244333Y-82074500D01*
X100177666Y-82007833D01*
X100077666Y-81907833D01*
X100011000Y-81874500D01*
X99944333Y-81874500D01*
X99977666Y-82041166D02*
X99911000Y-82007833D01*
X99844333Y-81941166D01*
X99811000Y-81807833D01*
X99811000Y-81574500D01*
X99844333Y-81441166D01*
X99911000Y-81374500D01*
X99977666Y-81341166D01*
X100111000Y-81341166D01*
X100177666Y-81374500D01*
X100244333Y-81441166D01*
X100277666Y-81574500D01*
X100277666Y-81807833D01*
X100244333Y-81941166D01*
X100177666Y-82007833D01*
X100111000Y-82041166D01*
X99977666Y-82041166D01*
X100944333Y-82041166D02*
X100544333Y-82041166D01*
X100744333Y-82041166D02*
X100744333Y-81341166D01*
X100677666Y-81441166D01*
X100611000Y-81507833D01*
X100544333Y-81541166D01*
X101211000Y-81407833D02*
X101244333Y-81374500D01*
X101311000Y-81341166D01*
X101477666Y-81341166D01*
X101544333Y-81374500D01*
X101577666Y-81407833D01*
X101611000Y-81474500D01*
X101611000Y-81541166D01*
X101577666Y-81641166D01*
X101177666Y-82041166D01*
X101611000Y-82041166D01*
G04 #@! TO.C,Q13*
X116766450Y-104944333D02*
X116699783Y-104911000D01*
X116633116Y-104844333D01*
X116533116Y-104744333D01*
X116466450Y-104711000D01*
X116399783Y-104711000D01*
X116433116Y-104877666D02*
X116366450Y-104844333D01*
X116299783Y-104777666D01*
X116266450Y-104644333D01*
X116266450Y-104411000D01*
X116299783Y-104277666D01*
X116366450Y-104211000D01*
X116433116Y-104177666D01*
X116566450Y-104177666D01*
X116633116Y-104211000D01*
X116699783Y-104277666D01*
X116733116Y-104411000D01*
X116733116Y-104644333D01*
X116699783Y-104777666D01*
X116633116Y-104844333D01*
X116566450Y-104877666D01*
X116433116Y-104877666D01*
X117399783Y-104877666D02*
X116999783Y-104877666D01*
X117199783Y-104877666D02*
X117199783Y-104177666D01*
X117133116Y-104277666D01*
X117066450Y-104344333D01*
X116999783Y-104377666D01*
X117633116Y-104177666D02*
X118066450Y-104177666D01*
X117833116Y-104444333D01*
X117933116Y-104444333D01*
X117999783Y-104477666D01*
X118033116Y-104511000D01*
X118066450Y-104577666D01*
X118066450Y-104744333D01*
X118033116Y-104811000D01*
X117999783Y-104844333D01*
X117933116Y-104877666D01*
X117733116Y-104877666D01*
X117666450Y-104844333D01*
X117633116Y-104811000D01*
G04 #@! TO.C,Q14*
X110598000Y-86425833D02*
X110531333Y-86392500D01*
X110464666Y-86325833D01*
X110364666Y-86225833D01*
X110298000Y-86192500D01*
X110231333Y-86192500D01*
X110264666Y-86359166D02*
X110198000Y-86325833D01*
X110131333Y-86259166D01*
X110098000Y-86125833D01*
X110098000Y-85892500D01*
X110131333Y-85759166D01*
X110198000Y-85692500D01*
X110264666Y-85659166D01*
X110398000Y-85659166D01*
X110464666Y-85692500D01*
X110531333Y-85759166D01*
X110564666Y-85892500D01*
X110564666Y-86125833D01*
X110531333Y-86259166D01*
X110464666Y-86325833D01*
X110398000Y-86359166D01*
X110264666Y-86359166D01*
X111231333Y-86359166D02*
X110831333Y-86359166D01*
X111031333Y-86359166D02*
X111031333Y-85659166D01*
X110964666Y-85759166D01*
X110898000Y-85825833D01*
X110831333Y-85859166D01*
X111831333Y-85892500D02*
X111831333Y-86359166D01*
X111664666Y-85625833D02*
X111498000Y-86125833D01*
X111931333Y-86125833D01*
G04 #@! TO.C,U1*
X127482666Y-104963166D02*
X127482666Y-105529833D01*
X127516000Y-105596500D01*
X127549333Y-105629833D01*
X127616000Y-105663166D01*
X127749333Y-105663166D01*
X127816000Y-105629833D01*
X127849333Y-105596500D01*
X127882666Y-105529833D01*
X127882666Y-104963166D01*
X128582666Y-105663166D02*
X128182666Y-105663166D01*
X128382666Y-105663166D02*
X128382666Y-104963166D01*
X128316000Y-105063166D01*
X128249333Y-105129833D01*
X128182666Y-105163166D01*
G04 #@! TO.C,U2*
X101574666Y-117282166D02*
X101574666Y-117848833D01*
X101608000Y-117915500D01*
X101641333Y-117948833D01*
X101708000Y-117982166D01*
X101841333Y-117982166D01*
X101908000Y-117948833D01*
X101941333Y-117915500D01*
X101974666Y-117848833D01*
X101974666Y-117282166D01*
X102274666Y-117348833D02*
X102308000Y-117315500D01*
X102374666Y-117282166D01*
X102541333Y-117282166D01*
X102608000Y-117315500D01*
X102641333Y-117348833D01*
X102674666Y-117415500D01*
X102674666Y-117482166D01*
X102641333Y-117582166D01*
X102241333Y-117982166D01*
X102674666Y-117982166D01*
G04 #@! TO.C,U3*
X101384166Y-107693666D02*
X101384166Y-108260333D01*
X101417500Y-108327000D01*
X101450833Y-108360333D01*
X101517500Y-108393666D01*
X101650833Y-108393666D01*
X101717500Y-108360333D01*
X101750833Y-108327000D01*
X101784166Y-108260333D01*
X101784166Y-107693666D01*
X102050833Y-107693666D02*
X102484166Y-107693666D01*
X102250833Y-107960333D01*
X102350833Y-107960333D01*
X102417500Y-107993666D01*
X102450833Y-108027000D01*
X102484166Y-108093666D01*
X102484166Y-108260333D01*
X102450833Y-108327000D01*
X102417500Y-108360333D01*
X102350833Y-108393666D01*
X102150833Y-108393666D01*
X102084166Y-108360333D01*
X102050833Y-108327000D01*
G04 #@! TO.C,U4*
X128803466Y-98067066D02*
X128803466Y-98633733D01*
X128836800Y-98700400D01*
X128870133Y-98733733D01*
X128936800Y-98767066D01*
X129070133Y-98767066D01*
X129136800Y-98733733D01*
X129170133Y-98700400D01*
X129203466Y-98633733D01*
X129203466Y-98067066D01*
X129836800Y-98300400D02*
X129836800Y-98767066D01*
X129670133Y-98033733D02*
X129503466Y-98533733D01*
X129936800Y-98533733D01*
G04 #@! TO.C,C2*
X122565333Y-117090000D02*
X122532000Y-117123333D01*
X122432000Y-117156666D01*
X122365333Y-117156666D01*
X122265333Y-117123333D01*
X122198666Y-117056666D01*
X122165333Y-116990000D01*
X122132000Y-116856666D01*
X122132000Y-116756666D01*
X122165333Y-116623333D01*
X122198666Y-116556666D01*
X122265333Y-116490000D01*
X122365333Y-116456666D01*
X122432000Y-116456666D01*
X122532000Y-116490000D01*
X122565333Y-116523333D01*
X122832000Y-116523333D02*
X122865333Y-116490000D01*
X122932000Y-116456666D01*
X123098666Y-116456666D01*
X123165333Y-116490000D01*
X123198666Y-116523333D01*
X123232000Y-116590000D01*
X123232000Y-116656666D01*
X123198666Y-116756666D01*
X122798666Y-117156666D01*
X123232000Y-117156666D01*
G04 #@! TO.C,C3*
X143139333Y-109978000D02*
X143106000Y-110011333D01*
X143006000Y-110044666D01*
X142939333Y-110044666D01*
X142839333Y-110011333D01*
X142772666Y-109944666D01*
X142739333Y-109878000D01*
X142706000Y-109744666D01*
X142706000Y-109644666D01*
X142739333Y-109511333D01*
X142772666Y-109444666D01*
X142839333Y-109378000D01*
X142939333Y-109344666D01*
X143006000Y-109344666D01*
X143106000Y-109378000D01*
X143139333Y-109411333D01*
X143372666Y-109344666D02*
X143806000Y-109344666D01*
X143572666Y-109611333D01*
X143672666Y-109611333D01*
X143739333Y-109644666D01*
X143772666Y-109678000D01*
X143806000Y-109744666D01*
X143806000Y-109911333D01*
X143772666Y-109978000D01*
X143739333Y-110011333D01*
X143672666Y-110044666D01*
X143472666Y-110044666D01*
X143406000Y-110011333D01*
X143372666Y-109978000D01*
G04 #@! TO.C,C4*
X143139333Y-107996800D02*
X143106000Y-108030133D01*
X143006000Y-108063466D01*
X142939333Y-108063466D01*
X142839333Y-108030133D01*
X142772666Y-107963466D01*
X142739333Y-107896800D01*
X142706000Y-107763466D01*
X142706000Y-107663466D01*
X142739333Y-107530133D01*
X142772666Y-107463466D01*
X142839333Y-107396800D01*
X142939333Y-107363466D01*
X143006000Y-107363466D01*
X143106000Y-107396800D01*
X143139333Y-107430133D01*
X143739333Y-107596800D02*
X143739333Y-108063466D01*
X143572666Y-107330133D02*
X143406000Y-107830133D01*
X143839333Y-107830133D01*
G04 #@! TO.C,C5*
X106626833Y-113915000D02*
X106593500Y-113948333D01*
X106493500Y-113981666D01*
X106426833Y-113981666D01*
X106326833Y-113948333D01*
X106260166Y-113881666D01*
X106226833Y-113815000D01*
X106193500Y-113681666D01*
X106193500Y-113581666D01*
X106226833Y-113448333D01*
X106260166Y-113381666D01*
X106326833Y-113315000D01*
X106426833Y-113281666D01*
X106493500Y-113281666D01*
X106593500Y-113315000D01*
X106626833Y-113348333D01*
X107260166Y-113281666D02*
X106926833Y-113281666D01*
X106893500Y-113615000D01*
X106926833Y-113581666D01*
X106993500Y-113548333D01*
X107160166Y-113548333D01*
X107226833Y-113581666D01*
X107260166Y-113615000D01*
X107293500Y-113681666D01*
X107293500Y-113848333D01*
X107260166Y-113915000D01*
X107226833Y-113948333D01*
X107160166Y-113981666D01*
X106993500Y-113981666D01*
X106926833Y-113948333D01*
X106893500Y-113915000D01*
G04 #@! TO.C,C6*
X129169333Y-107374500D02*
X129136000Y-107407833D01*
X129036000Y-107441166D01*
X128969333Y-107441166D01*
X128869333Y-107407833D01*
X128802666Y-107341166D01*
X128769333Y-107274500D01*
X128736000Y-107141166D01*
X128736000Y-107041166D01*
X128769333Y-106907833D01*
X128802666Y-106841166D01*
X128869333Y-106774500D01*
X128969333Y-106741166D01*
X129036000Y-106741166D01*
X129136000Y-106774500D01*
X129169333Y-106807833D01*
X129769333Y-106741166D02*
X129636000Y-106741166D01*
X129569333Y-106774500D01*
X129536000Y-106807833D01*
X129469333Y-106907833D01*
X129436000Y-107041166D01*
X129436000Y-107307833D01*
X129469333Y-107374500D01*
X129502666Y-107407833D01*
X129569333Y-107441166D01*
X129702666Y-107441166D01*
X129769333Y-107407833D01*
X129802666Y-107374500D01*
X129836000Y-107307833D01*
X129836000Y-107141166D01*
X129802666Y-107074500D01*
X129769333Y-107041166D01*
X129702666Y-107007833D01*
X129569333Y-107007833D01*
X129502666Y-107041166D01*
X129469333Y-107074500D01*
X129436000Y-107141166D01*
G04 #@! TO.C,C8*
X143190133Y-112416400D02*
X143156800Y-112449733D01*
X143056800Y-112483066D01*
X142990133Y-112483066D01*
X142890133Y-112449733D01*
X142823466Y-112383066D01*
X142790133Y-112316400D01*
X142756800Y-112183066D01*
X142756800Y-112083066D01*
X142790133Y-111949733D01*
X142823466Y-111883066D01*
X142890133Y-111816400D01*
X142990133Y-111783066D01*
X143056800Y-111783066D01*
X143156800Y-111816400D01*
X143190133Y-111849733D01*
X143590133Y-112083066D02*
X143523466Y-112049733D01*
X143490133Y-112016400D01*
X143456800Y-111949733D01*
X143456800Y-111916400D01*
X143490133Y-111849733D01*
X143523466Y-111816400D01*
X143590133Y-111783066D01*
X143723466Y-111783066D01*
X143790133Y-111816400D01*
X143823466Y-111849733D01*
X143856800Y-111916400D01*
X143856800Y-111949733D01*
X143823466Y-112016400D01*
X143790133Y-112049733D01*
X143723466Y-112083066D01*
X143590133Y-112083066D01*
X143523466Y-112116400D01*
X143490133Y-112149733D01*
X143456800Y-112216400D01*
X143456800Y-112349733D01*
X143490133Y-112416400D01*
X143523466Y-112449733D01*
X143590133Y-112483066D01*
X143723466Y-112483066D01*
X143790133Y-112449733D01*
X143823466Y-112416400D01*
X143856800Y-112349733D01*
X143856800Y-112216400D01*
X143823466Y-112149733D01*
X143790133Y-112116400D01*
X143723466Y-112083066D01*
G04 #@! TO.C,C9*
X133550833Y-109978000D02*
X133517500Y-110011333D01*
X133417500Y-110044666D01*
X133350833Y-110044666D01*
X133250833Y-110011333D01*
X133184166Y-109944666D01*
X133150833Y-109878000D01*
X133117500Y-109744666D01*
X133117500Y-109644666D01*
X133150833Y-109511333D01*
X133184166Y-109444666D01*
X133250833Y-109378000D01*
X133350833Y-109344666D01*
X133417500Y-109344666D01*
X133517500Y-109378000D01*
X133550833Y-109411333D01*
X133884166Y-110044666D02*
X134017500Y-110044666D01*
X134084166Y-110011333D01*
X134117500Y-109978000D01*
X134184166Y-109878000D01*
X134217500Y-109744666D01*
X134217500Y-109478000D01*
X134184166Y-109411333D01*
X134150833Y-109378000D01*
X134084166Y-109344666D01*
X133950833Y-109344666D01*
X133884166Y-109378000D01*
X133850833Y-109411333D01*
X133817500Y-109478000D01*
X133817500Y-109644666D01*
X133850833Y-109711333D01*
X133884166Y-109744666D01*
X133950833Y-109778000D01*
X134084166Y-109778000D01*
X134150833Y-109744666D01*
X134184166Y-109711333D01*
X134217500Y-109644666D01*
G04 #@! TO.C,C10*
X131249000Y-115185000D02*
X131215666Y-115218333D01*
X131115666Y-115251666D01*
X131049000Y-115251666D01*
X130949000Y-115218333D01*
X130882333Y-115151666D01*
X130849000Y-115085000D01*
X130815666Y-114951666D01*
X130815666Y-114851666D01*
X130849000Y-114718333D01*
X130882333Y-114651666D01*
X130949000Y-114585000D01*
X131049000Y-114551666D01*
X131115666Y-114551666D01*
X131215666Y-114585000D01*
X131249000Y-114618333D01*
X131915666Y-115251666D02*
X131515666Y-115251666D01*
X131715666Y-115251666D02*
X131715666Y-114551666D01*
X131649000Y-114651666D01*
X131582333Y-114718333D01*
X131515666Y-114751666D01*
X132349000Y-114551666D02*
X132415666Y-114551666D01*
X132482333Y-114585000D01*
X132515666Y-114618333D01*
X132549000Y-114685000D01*
X132582333Y-114818333D01*
X132582333Y-114985000D01*
X132549000Y-115118333D01*
X132515666Y-115185000D01*
X132482333Y-115218333D01*
X132415666Y-115251666D01*
X132349000Y-115251666D01*
X132282333Y-115218333D01*
X132249000Y-115185000D01*
X132215666Y-115118333D01*
X132182333Y-114985000D01*
X132182333Y-114818333D01*
X132215666Y-114685000D01*
X132249000Y-114618333D01*
X132282333Y-114585000D01*
X132349000Y-114551666D01*
G04 #@! TO.C,C11*
X130995000Y-100356500D02*
X130961666Y-100389833D01*
X130861666Y-100423166D01*
X130795000Y-100423166D01*
X130695000Y-100389833D01*
X130628333Y-100323166D01*
X130595000Y-100256500D01*
X130561666Y-100123166D01*
X130561666Y-100023166D01*
X130595000Y-99889833D01*
X130628333Y-99823166D01*
X130695000Y-99756500D01*
X130795000Y-99723166D01*
X130861666Y-99723166D01*
X130961666Y-99756500D01*
X130995000Y-99789833D01*
X131661666Y-100423166D02*
X131261666Y-100423166D01*
X131461666Y-100423166D02*
X131461666Y-99723166D01*
X131395000Y-99823166D01*
X131328333Y-99889833D01*
X131261666Y-99923166D01*
X132328333Y-100423166D02*
X131928333Y-100423166D01*
X132128333Y-100423166D02*
X132128333Y-99723166D01*
X132061666Y-99823166D01*
X131995000Y-99889833D01*
X131928333Y-99923166D01*
G04 #@! TO.C,C14*
X129725000Y-109216000D02*
X129691666Y-109249333D01*
X129591666Y-109282666D01*
X129525000Y-109282666D01*
X129425000Y-109249333D01*
X129358333Y-109182666D01*
X129325000Y-109116000D01*
X129291666Y-108982666D01*
X129291666Y-108882666D01*
X129325000Y-108749333D01*
X129358333Y-108682666D01*
X129425000Y-108616000D01*
X129525000Y-108582666D01*
X129591666Y-108582666D01*
X129691666Y-108616000D01*
X129725000Y-108649333D01*
X130391666Y-109282666D02*
X129991666Y-109282666D01*
X130191666Y-109282666D02*
X130191666Y-108582666D01*
X130125000Y-108682666D01*
X130058333Y-108749333D01*
X129991666Y-108782666D01*
X130991666Y-108816000D02*
X130991666Y-109282666D01*
X130825000Y-108549333D02*
X130658333Y-109049333D01*
X131091666Y-109049333D01*
G04 #@! TO.C,C15*
X114675500Y-113597500D02*
X114642166Y-113630833D01*
X114542166Y-113664166D01*
X114475500Y-113664166D01*
X114375500Y-113630833D01*
X114308833Y-113564166D01*
X114275500Y-113497500D01*
X114242166Y-113364166D01*
X114242166Y-113264166D01*
X114275500Y-113130833D01*
X114308833Y-113064166D01*
X114375500Y-112997500D01*
X114475500Y-112964166D01*
X114542166Y-112964166D01*
X114642166Y-112997500D01*
X114675500Y-113030833D01*
X115342166Y-113664166D02*
X114942166Y-113664166D01*
X115142166Y-113664166D02*
X115142166Y-112964166D01*
X115075500Y-113064166D01*
X115008833Y-113130833D01*
X114942166Y-113164166D01*
X115975500Y-112964166D02*
X115642166Y-112964166D01*
X115608833Y-113297500D01*
X115642166Y-113264166D01*
X115708833Y-113230833D01*
X115875500Y-113230833D01*
X115942166Y-113264166D01*
X115975500Y-113297500D01*
X116008833Y-113364166D01*
X116008833Y-113530833D01*
X115975500Y-113597500D01*
X115942166Y-113630833D01*
X115875500Y-113664166D01*
X115708833Y-113664166D01*
X115642166Y-113630833D01*
X115608833Y-113597500D01*
G04 #@! TO.C,C16*
X116834500Y-113597500D02*
X116801166Y-113630833D01*
X116701166Y-113664166D01*
X116634500Y-113664166D01*
X116534500Y-113630833D01*
X116467833Y-113564166D01*
X116434500Y-113497500D01*
X116401166Y-113364166D01*
X116401166Y-113264166D01*
X116434500Y-113130833D01*
X116467833Y-113064166D01*
X116534500Y-112997500D01*
X116634500Y-112964166D01*
X116701166Y-112964166D01*
X116801166Y-112997500D01*
X116834500Y-113030833D01*
X117501166Y-113664166D02*
X117101166Y-113664166D01*
X117301166Y-113664166D02*
X117301166Y-112964166D01*
X117234500Y-113064166D01*
X117167833Y-113130833D01*
X117101166Y-113164166D01*
X118101166Y-112964166D02*
X117967833Y-112964166D01*
X117901166Y-112997500D01*
X117867833Y-113030833D01*
X117801166Y-113130833D01*
X117767833Y-113264166D01*
X117767833Y-113530833D01*
X117801166Y-113597500D01*
X117834500Y-113630833D01*
X117901166Y-113664166D01*
X118034500Y-113664166D01*
X118101166Y-113630833D01*
X118134500Y-113597500D01*
X118167833Y-113530833D01*
X118167833Y-113364166D01*
X118134500Y-113297500D01*
X118101166Y-113264166D01*
X118034500Y-113230833D01*
X117901166Y-113230833D01*
X117834500Y-113264166D01*
X117801166Y-113297500D01*
X117767833Y-113364166D01*
G04 #@! TO.C,C17*
X108675000Y-97666000D02*
X108708333Y-97699333D01*
X108741666Y-97799333D01*
X108741666Y-97866000D01*
X108708333Y-97966000D01*
X108641666Y-98032666D01*
X108575000Y-98066000D01*
X108441666Y-98099333D01*
X108341666Y-98099333D01*
X108208333Y-98066000D01*
X108141666Y-98032666D01*
X108075000Y-97966000D01*
X108041666Y-97866000D01*
X108041666Y-97799333D01*
X108075000Y-97699333D01*
X108108333Y-97666000D01*
X108741666Y-96999333D02*
X108741666Y-97399333D01*
X108741666Y-97199333D02*
X108041666Y-97199333D01*
X108141666Y-97266000D01*
X108208333Y-97332666D01*
X108241666Y-97399333D01*
X108041666Y-96766000D02*
X108041666Y-96299333D01*
X108741666Y-96599333D01*
G04 #@! TO.C,C18*
X107180000Y-115058000D02*
X107146666Y-115091333D01*
X107046666Y-115124666D01*
X106980000Y-115124666D01*
X106880000Y-115091333D01*
X106813333Y-115024666D01*
X106780000Y-114958000D01*
X106746666Y-114824666D01*
X106746666Y-114724666D01*
X106780000Y-114591333D01*
X106813333Y-114524666D01*
X106880000Y-114458000D01*
X106980000Y-114424666D01*
X107046666Y-114424666D01*
X107146666Y-114458000D01*
X107180000Y-114491333D01*
X107846666Y-115124666D02*
X107446666Y-115124666D01*
X107646666Y-115124666D02*
X107646666Y-114424666D01*
X107580000Y-114524666D01*
X107513333Y-114591333D01*
X107446666Y-114624666D01*
X108246666Y-114724666D02*
X108180000Y-114691333D01*
X108146666Y-114658000D01*
X108113333Y-114591333D01*
X108113333Y-114558000D01*
X108146666Y-114491333D01*
X108180000Y-114458000D01*
X108246666Y-114424666D01*
X108380000Y-114424666D01*
X108446666Y-114458000D01*
X108480000Y-114491333D01*
X108513333Y-114558000D01*
X108513333Y-114591333D01*
X108480000Y-114658000D01*
X108446666Y-114691333D01*
X108380000Y-114724666D01*
X108246666Y-114724666D01*
X108180000Y-114758000D01*
X108146666Y-114791333D01*
X108113333Y-114858000D01*
X108113333Y-114991333D01*
X108146666Y-115058000D01*
X108180000Y-115091333D01*
X108246666Y-115124666D01*
X108380000Y-115124666D01*
X108446666Y-115091333D01*
X108480000Y-115058000D01*
X108513333Y-114991333D01*
X108513333Y-114858000D01*
X108480000Y-114791333D01*
X108446666Y-114758000D01*
X108380000Y-114724666D01*
G04 #@! TO.C,C19*
X109851000Y-111575000D02*
X109884333Y-111608333D01*
X109917666Y-111708333D01*
X109917666Y-111775000D01*
X109884333Y-111875000D01*
X109817666Y-111941666D01*
X109751000Y-111975000D01*
X109617666Y-112008333D01*
X109517666Y-112008333D01*
X109384333Y-111975000D01*
X109317666Y-111941666D01*
X109251000Y-111875000D01*
X109217666Y-111775000D01*
X109217666Y-111708333D01*
X109251000Y-111608333D01*
X109284333Y-111575000D01*
X109917666Y-110908333D02*
X109917666Y-111308333D01*
X109917666Y-111108333D02*
X109217666Y-111108333D01*
X109317666Y-111175000D01*
X109384333Y-111241666D01*
X109417666Y-111308333D01*
X109917666Y-110575000D02*
X109917666Y-110441666D01*
X109884333Y-110375000D01*
X109851000Y-110341666D01*
X109751000Y-110275000D01*
X109617666Y-110241666D01*
X109351000Y-110241666D01*
X109284333Y-110275000D01*
X109251000Y-110308333D01*
X109217666Y-110375000D01*
X109217666Y-110508333D01*
X109251000Y-110575000D01*
X109284333Y-110608333D01*
X109351000Y-110641666D01*
X109517666Y-110641666D01*
X109584333Y-110608333D01*
X109617666Y-110575000D01*
X109651000Y-110508333D01*
X109651000Y-110375000D01*
X109617666Y-110308333D01*
X109584333Y-110275000D01*
X109517666Y-110241666D01*
G04 #@! TO.C,C20*
X112453000Y-113597500D02*
X112419666Y-113630833D01*
X112319666Y-113664166D01*
X112253000Y-113664166D01*
X112153000Y-113630833D01*
X112086333Y-113564166D01*
X112053000Y-113497500D01*
X112019666Y-113364166D01*
X112019666Y-113264166D01*
X112053000Y-113130833D01*
X112086333Y-113064166D01*
X112153000Y-112997500D01*
X112253000Y-112964166D01*
X112319666Y-112964166D01*
X112419666Y-112997500D01*
X112453000Y-113030833D01*
X112719666Y-113030833D02*
X112753000Y-112997500D01*
X112819666Y-112964166D01*
X112986333Y-112964166D01*
X113053000Y-112997500D01*
X113086333Y-113030833D01*
X113119666Y-113097500D01*
X113119666Y-113164166D01*
X113086333Y-113264166D01*
X112686333Y-113664166D01*
X113119666Y-113664166D01*
X113553000Y-112964166D02*
X113619666Y-112964166D01*
X113686333Y-112997500D01*
X113719666Y-113030833D01*
X113753000Y-113097500D01*
X113786333Y-113230833D01*
X113786333Y-113397500D01*
X113753000Y-113530833D01*
X113719666Y-113597500D01*
X113686333Y-113630833D01*
X113619666Y-113664166D01*
X113553000Y-113664166D01*
X113486333Y-113630833D01*
X113453000Y-113597500D01*
X113419666Y-113530833D01*
X113386333Y-113397500D01*
X113386333Y-113230833D01*
X113419666Y-113097500D01*
X113453000Y-113030833D01*
X113486333Y-112997500D01*
X113553000Y-112964166D01*
G04 #@! TO.C,C22*
X115567000Y-116582000D02*
X115533666Y-116615333D01*
X115433666Y-116648666D01*
X115367000Y-116648666D01*
X115267000Y-116615333D01*
X115200333Y-116548666D01*
X115167000Y-116482000D01*
X115133666Y-116348666D01*
X115133666Y-116248666D01*
X115167000Y-116115333D01*
X115200333Y-116048666D01*
X115267000Y-115982000D01*
X115367000Y-115948666D01*
X115433666Y-115948666D01*
X115533666Y-115982000D01*
X115567000Y-116015333D01*
X115833666Y-116015333D02*
X115867000Y-115982000D01*
X115933666Y-115948666D01*
X116100333Y-115948666D01*
X116167000Y-115982000D01*
X116200333Y-116015333D01*
X116233666Y-116082000D01*
X116233666Y-116148666D01*
X116200333Y-116248666D01*
X115800333Y-116648666D01*
X116233666Y-116648666D01*
X116500333Y-116015333D02*
X116533666Y-115982000D01*
X116600333Y-115948666D01*
X116767000Y-115948666D01*
X116833666Y-115982000D01*
X116867000Y-116015333D01*
X116900333Y-116082000D01*
X116900333Y-116148666D01*
X116867000Y-116248666D01*
X116467000Y-116648666D01*
X116900333Y-116648666D01*
G04 #@! TO.C,C23*
X102071000Y-97666000D02*
X102104333Y-97699333D01*
X102137666Y-97799333D01*
X102137666Y-97866000D01*
X102104333Y-97966000D01*
X102037666Y-98032666D01*
X101971000Y-98066000D01*
X101837666Y-98099333D01*
X101737666Y-98099333D01*
X101604333Y-98066000D01*
X101537666Y-98032666D01*
X101471000Y-97966000D01*
X101437666Y-97866000D01*
X101437666Y-97799333D01*
X101471000Y-97699333D01*
X101504333Y-97666000D01*
X101504333Y-97399333D02*
X101471000Y-97366000D01*
X101437666Y-97299333D01*
X101437666Y-97132666D01*
X101471000Y-97066000D01*
X101504333Y-97032666D01*
X101571000Y-96999333D01*
X101637666Y-96999333D01*
X101737666Y-97032666D01*
X102137666Y-97432666D01*
X102137666Y-96999333D01*
X101437666Y-96766000D02*
X101437666Y-96332666D01*
X101704333Y-96566000D01*
X101704333Y-96466000D01*
X101737666Y-96399333D01*
X101771000Y-96366000D01*
X101837666Y-96332666D01*
X102004333Y-96332666D01*
X102071000Y-96366000D01*
X102104333Y-96399333D01*
X102137666Y-96466000D01*
X102137666Y-96666000D01*
X102104333Y-96732666D01*
X102071000Y-96766000D01*
G04 #@! TO.C,C25*
X96770000Y-94874500D02*
X96803333Y-94907833D01*
X96836666Y-95007833D01*
X96836666Y-95074500D01*
X96803333Y-95174500D01*
X96736666Y-95241166D01*
X96670000Y-95274500D01*
X96536666Y-95307833D01*
X96436666Y-95307833D01*
X96303333Y-95274500D01*
X96236666Y-95241166D01*
X96170000Y-95174500D01*
X96136666Y-95074500D01*
X96136666Y-95007833D01*
X96170000Y-94907833D01*
X96203333Y-94874500D01*
X96203333Y-94607833D02*
X96170000Y-94574500D01*
X96136666Y-94507833D01*
X96136666Y-94341166D01*
X96170000Y-94274500D01*
X96203333Y-94241166D01*
X96270000Y-94207833D01*
X96336666Y-94207833D01*
X96436666Y-94241166D01*
X96836666Y-94641166D01*
X96836666Y-94207833D01*
X96136666Y-93574500D02*
X96136666Y-93907833D01*
X96470000Y-93941166D01*
X96436666Y-93907833D01*
X96403333Y-93841166D01*
X96403333Y-93674500D01*
X96436666Y-93607833D01*
X96470000Y-93574500D01*
X96536666Y-93541166D01*
X96703333Y-93541166D01*
X96770000Y-93574500D01*
X96803333Y-93607833D01*
X96836666Y-93674500D01*
X96836666Y-93841166D01*
X96803333Y-93907833D01*
X96770000Y-93941166D01*
G04 #@! TO.C,C26*
X89783500Y-116963000D02*
X89750166Y-116996333D01*
X89650166Y-117029666D01*
X89583500Y-117029666D01*
X89483500Y-116996333D01*
X89416833Y-116929666D01*
X89383500Y-116863000D01*
X89350166Y-116729666D01*
X89350166Y-116629666D01*
X89383500Y-116496333D01*
X89416833Y-116429666D01*
X89483500Y-116363000D01*
X89583500Y-116329666D01*
X89650166Y-116329666D01*
X89750166Y-116363000D01*
X89783500Y-116396333D01*
X90050166Y-116396333D02*
X90083500Y-116363000D01*
X90150166Y-116329666D01*
X90316833Y-116329666D01*
X90383500Y-116363000D01*
X90416833Y-116396333D01*
X90450166Y-116463000D01*
X90450166Y-116529666D01*
X90416833Y-116629666D01*
X90016833Y-117029666D01*
X90450166Y-117029666D01*
X91050166Y-116329666D02*
X90916833Y-116329666D01*
X90850166Y-116363000D01*
X90816833Y-116396333D01*
X90750166Y-116496333D01*
X90716833Y-116629666D01*
X90716833Y-116896333D01*
X90750166Y-116963000D01*
X90783500Y-116996333D01*
X90850166Y-117029666D01*
X90983500Y-117029666D01*
X91050166Y-116996333D01*
X91083500Y-116963000D01*
X91116833Y-116896333D01*
X91116833Y-116729666D01*
X91083500Y-116663000D01*
X91050166Y-116629666D01*
X90983500Y-116596333D01*
X90850166Y-116596333D01*
X90783500Y-116629666D01*
X90750166Y-116663000D01*
X90716833Y-116729666D01*
G04 #@! TO.C,C27*
X89783500Y-118614000D02*
X89750166Y-118647333D01*
X89650166Y-118680666D01*
X89583500Y-118680666D01*
X89483500Y-118647333D01*
X89416833Y-118580666D01*
X89383500Y-118514000D01*
X89350166Y-118380666D01*
X89350166Y-118280666D01*
X89383500Y-118147333D01*
X89416833Y-118080666D01*
X89483500Y-118014000D01*
X89583500Y-117980666D01*
X89650166Y-117980666D01*
X89750166Y-118014000D01*
X89783500Y-118047333D01*
X90050166Y-118047333D02*
X90083500Y-118014000D01*
X90150166Y-117980666D01*
X90316833Y-117980666D01*
X90383500Y-118014000D01*
X90416833Y-118047333D01*
X90450166Y-118114000D01*
X90450166Y-118180666D01*
X90416833Y-118280666D01*
X90016833Y-118680666D01*
X90450166Y-118680666D01*
X90683500Y-117980666D02*
X91150166Y-117980666D01*
X90850166Y-118680666D01*
G04 #@! TO.C,C28*
X89783500Y-120455500D02*
X89750166Y-120488833D01*
X89650166Y-120522166D01*
X89583500Y-120522166D01*
X89483500Y-120488833D01*
X89416833Y-120422166D01*
X89383500Y-120355500D01*
X89350166Y-120222166D01*
X89350166Y-120122166D01*
X89383500Y-119988833D01*
X89416833Y-119922166D01*
X89483500Y-119855500D01*
X89583500Y-119822166D01*
X89650166Y-119822166D01*
X89750166Y-119855500D01*
X89783500Y-119888833D01*
X90050166Y-119888833D02*
X90083500Y-119855500D01*
X90150166Y-119822166D01*
X90316833Y-119822166D01*
X90383500Y-119855500D01*
X90416833Y-119888833D01*
X90450166Y-119955500D01*
X90450166Y-120022166D01*
X90416833Y-120122166D01*
X90016833Y-120522166D01*
X90450166Y-120522166D01*
X90850166Y-120122166D02*
X90783500Y-120088833D01*
X90750166Y-120055500D01*
X90716833Y-119988833D01*
X90716833Y-119955500D01*
X90750166Y-119888833D01*
X90783500Y-119855500D01*
X90850166Y-119822166D01*
X90983500Y-119822166D01*
X91050166Y-119855500D01*
X91083500Y-119888833D01*
X91116833Y-119955500D01*
X91116833Y-119988833D01*
X91083500Y-120055500D01*
X91050166Y-120088833D01*
X90983500Y-120122166D01*
X90850166Y-120122166D01*
X90783500Y-120155500D01*
X90750166Y-120188833D01*
X90716833Y-120255500D01*
X90716833Y-120388833D01*
X90750166Y-120455500D01*
X90783500Y-120488833D01*
X90850166Y-120522166D01*
X90983500Y-120522166D01*
X91050166Y-120488833D01*
X91083500Y-120455500D01*
X91116833Y-120388833D01*
X91116833Y-120255500D01*
X91083500Y-120188833D01*
X91050166Y-120155500D01*
X90983500Y-120122166D01*
G04 #@! TO.C,C29*
X89783500Y-100516500D02*
X89750166Y-100549833D01*
X89650166Y-100583166D01*
X89583500Y-100583166D01*
X89483500Y-100549833D01*
X89416833Y-100483166D01*
X89383500Y-100416500D01*
X89350166Y-100283166D01*
X89350166Y-100183166D01*
X89383500Y-100049833D01*
X89416833Y-99983166D01*
X89483500Y-99916500D01*
X89583500Y-99883166D01*
X89650166Y-99883166D01*
X89750166Y-99916500D01*
X89783500Y-99949833D01*
X90050166Y-99949833D02*
X90083500Y-99916500D01*
X90150166Y-99883166D01*
X90316833Y-99883166D01*
X90383500Y-99916500D01*
X90416833Y-99949833D01*
X90450166Y-100016500D01*
X90450166Y-100083166D01*
X90416833Y-100183166D01*
X90016833Y-100583166D01*
X90450166Y-100583166D01*
X90783500Y-100583166D02*
X90916833Y-100583166D01*
X90983500Y-100549833D01*
X91016833Y-100516500D01*
X91083500Y-100416500D01*
X91116833Y-100283166D01*
X91116833Y-100016500D01*
X91083500Y-99949833D01*
X91050166Y-99916500D01*
X90983500Y-99883166D01*
X90850166Y-99883166D01*
X90783500Y-99916500D01*
X90750166Y-99949833D01*
X90716833Y-100016500D01*
X90716833Y-100183166D01*
X90750166Y-100249833D01*
X90783500Y-100283166D01*
X90850166Y-100316500D01*
X90983500Y-100316500D01*
X91050166Y-100283166D01*
X91083500Y-100249833D01*
X91116833Y-100183166D01*
G04 #@! TO.C,C30*
X89720000Y-113407000D02*
X89686666Y-113440333D01*
X89586666Y-113473666D01*
X89520000Y-113473666D01*
X89420000Y-113440333D01*
X89353333Y-113373666D01*
X89320000Y-113307000D01*
X89286666Y-113173666D01*
X89286666Y-113073666D01*
X89320000Y-112940333D01*
X89353333Y-112873666D01*
X89420000Y-112807000D01*
X89520000Y-112773666D01*
X89586666Y-112773666D01*
X89686666Y-112807000D01*
X89720000Y-112840333D01*
X89953333Y-112773666D02*
X90386666Y-112773666D01*
X90153333Y-113040333D01*
X90253333Y-113040333D01*
X90320000Y-113073666D01*
X90353333Y-113107000D01*
X90386666Y-113173666D01*
X90386666Y-113340333D01*
X90353333Y-113407000D01*
X90320000Y-113440333D01*
X90253333Y-113473666D01*
X90053333Y-113473666D01*
X89986666Y-113440333D01*
X89953333Y-113407000D01*
X90820000Y-112773666D02*
X90886666Y-112773666D01*
X90953333Y-112807000D01*
X90986666Y-112840333D01*
X91020000Y-112907000D01*
X91053333Y-113040333D01*
X91053333Y-113207000D01*
X91020000Y-113340333D01*
X90986666Y-113407000D01*
X90953333Y-113440333D01*
X90886666Y-113473666D01*
X90820000Y-113473666D01*
X90753333Y-113440333D01*
X90720000Y-113407000D01*
X90686666Y-113340333D01*
X90653333Y-113207000D01*
X90653333Y-113040333D01*
X90686666Y-112907000D01*
X90720000Y-112840333D01*
X90753333Y-112807000D01*
X90820000Y-112773666D01*
G04 #@! TO.C,C31*
X121660500Y-100326000D02*
X121627166Y-100359333D01*
X121527166Y-100392666D01*
X121460500Y-100392666D01*
X121360500Y-100359333D01*
X121293833Y-100292666D01*
X121260500Y-100226000D01*
X121227166Y-100092666D01*
X121227166Y-99992666D01*
X121260500Y-99859333D01*
X121293833Y-99792666D01*
X121360500Y-99726000D01*
X121460500Y-99692666D01*
X121527166Y-99692666D01*
X121627166Y-99726000D01*
X121660500Y-99759333D01*
X121893833Y-99692666D02*
X122327166Y-99692666D01*
X122093833Y-99959333D01*
X122193833Y-99959333D01*
X122260500Y-99992666D01*
X122293833Y-100026000D01*
X122327166Y-100092666D01*
X122327166Y-100259333D01*
X122293833Y-100326000D01*
X122260500Y-100359333D01*
X122193833Y-100392666D01*
X121993833Y-100392666D01*
X121927166Y-100359333D01*
X121893833Y-100326000D01*
X122993833Y-100392666D02*
X122593833Y-100392666D01*
X122793833Y-100392666D02*
X122793833Y-99692666D01*
X122727166Y-99792666D01*
X122660500Y-99859333D01*
X122593833Y-99892666D01*
G04 #@! TO.C,C32*
X96387500Y-114169000D02*
X96354166Y-114202333D01*
X96254166Y-114235666D01*
X96187500Y-114235666D01*
X96087500Y-114202333D01*
X96020833Y-114135666D01*
X95987500Y-114069000D01*
X95954166Y-113935666D01*
X95954166Y-113835666D01*
X95987500Y-113702333D01*
X96020833Y-113635666D01*
X96087500Y-113569000D01*
X96187500Y-113535666D01*
X96254166Y-113535666D01*
X96354166Y-113569000D01*
X96387500Y-113602333D01*
X96620833Y-113535666D02*
X97054166Y-113535666D01*
X96820833Y-113802333D01*
X96920833Y-113802333D01*
X96987500Y-113835666D01*
X97020833Y-113869000D01*
X97054166Y-113935666D01*
X97054166Y-114102333D01*
X97020833Y-114169000D01*
X96987500Y-114202333D01*
X96920833Y-114235666D01*
X96720833Y-114235666D01*
X96654166Y-114202333D01*
X96620833Y-114169000D01*
X97320833Y-113602333D02*
X97354166Y-113569000D01*
X97420833Y-113535666D01*
X97587500Y-113535666D01*
X97654166Y-113569000D01*
X97687500Y-113602333D01*
X97720833Y-113669000D01*
X97720833Y-113735666D01*
X97687500Y-113835666D01*
X97287500Y-114235666D01*
X97720833Y-114235666D01*
G04 #@! TO.C,C33*
X89783500Y-106041000D02*
X89750166Y-106074333D01*
X89650166Y-106107666D01*
X89583500Y-106107666D01*
X89483500Y-106074333D01*
X89416833Y-106007666D01*
X89383500Y-105941000D01*
X89350166Y-105807666D01*
X89350166Y-105707666D01*
X89383500Y-105574333D01*
X89416833Y-105507666D01*
X89483500Y-105441000D01*
X89583500Y-105407666D01*
X89650166Y-105407666D01*
X89750166Y-105441000D01*
X89783500Y-105474333D01*
X90016833Y-105407666D02*
X90450166Y-105407666D01*
X90216833Y-105674333D01*
X90316833Y-105674333D01*
X90383500Y-105707666D01*
X90416833Y-105741000D01*
X90450166Y-105807666D01*
X90450166Y-105974333D01*
X90416833Y-106041000D01*
X90383500Y-106074333D01*
X90316833Y-106107666D01*
X90116833Y-106107666D01*
X90050166Y-106074333D01*
X90016833Y-106041000D01*
X90683500Y-105407666D02*
X91116833Y-105407666D01*
X90883500Y-105674333D01*
X90983500Y-105674333D01*
X91050166Y-105707666D01*
X91083500Y-105741000D01*
X91116833Y-105807666D01*
X91116833Y-105974333D01*
X91083500Y-106041000D01*
X91050166Y-106074333D01*
X90983500Y-106107666D01*
X90783500Y-106107666D01*
X90716833Y-106074333D01*
X90683500Y-106041000D01*
G04 #@! TO.C,C34*
X104771000Y-111641000D02*
X104804333Y-111674333D01*
X104837666Y-111774333D01*
X104837666Y-111841000D01*
X104804333Y-111941000D01*
X104737666Y-112007666D01*
X104671000Y-112041000D01*
X104537666Y-112074333D01*
X104437666Y-112074333D01*
X104304333Y-112041000D01*
X104237666Y-112007666D01*
X104171000Y-111941000D01*
X104137666Y-111841000D01*
X104137666Y-111774333D01*
X104171000Y-111674333D01*
X104204333Y-111641000D01*
X104137666Y-111407666D02*
X104137666Y-110974333D01*
X104404333Y-111207666D01*
X104404333Y-111107666D01*
X104437666Y-111041000D01*
X104471000Y-111007666D01*
X104537666Y-110974333D01*
X104704333Y-110974333D01*
X104771000Y-111007666D01*
X104804333Y-111041000D01*
X104837666Y-111107666D01*
X104837666Y-111307666D01*
X104804333Y-111374333D01*
X104771000Y-111407666D01*
X104371000Y-110374333D02*
X104837666Y-110374333D01*
X104104333Y-110541000D02*
X104604333Y-110707666D01*
X104604333Y-110274333D01*
G04 #@! TO.C,C35*
X123629000Y-100326000D02*
X123595666Y-100359333D01*
X123495666Y-100392666D01*
X123429000Y-100392666D01*
X123329000Y-100359333D01*
X123262333Y-100292666D01*
X123229000Y-100226000D01*
X123195666Y-100092666D01*
X123195666Y-99992666D01*
X123229000Y-99859333D01*
X123262333Y-99792666D01*
X123329000Y-99726000D01*
X123429000Y-99692666D01*
X123495666Y-99692666D01*
X123595666Y-99726000D01*
X123629000Y-99759333D01*
X123862333Y-99692666D02*
X124295666Y-99692666D01*
X124062333Y-99959333D01*
X124162333Y-99959333D01*
X124229000Y-99992666D01*
X124262333Y-100026000D01*
X124295666Y-100092666D01*
X124295666Y-100259333D01*
X124262333Y-100326000D01*
X124229000Y-100359333D01*
X124162333Y-100392666D01*
X123962333Y-100392666D01*
X123895666Y-100359333D01*
X123862333Y-100326000D01*
X124929000Y-99692666D02*
X124595666Y-99692666D01*
X124562333Y-100026000D01*
X124595666Y-99992666D01*
X124662333Y-99959333D01*
X124829000Y-99959333D01*
X124895666Y-99992666D01*
X124929000Y-100026000D01*
X124962333Y-100092666D01*
X124962333Y-100259333D01*
X124929000Y-100326000D01*
X124895666Y-100359333D01*
X124829000Y-100392666D01*
X124662333Y-100392666D01*
X124595666Y-100359333D01*
X124562333Y-100326000D01*
G04 #@! TO.C,R1*
X92783833Y-73849666D02*
X92550500Y-73516333D01*
X92383833Y-73849666D02*
X92383833Y-73149666D01*
X92650500Y-73149666D01*
X92717166Y-73183000D01*
X92750500Y-73216333D01*
X92783833Y-73283000D01*
X92783833Y-73383000D01*
X92750500Y-73449666D01*
X92717166Y-73483000D01*
X92650500Y-73516333D01*
X92383833Y-73516333D01*
X93450500Y-73849666D02*
X93050500Y-73849666D01*
X93250500Y-73849666D02*
X93250500Y-73149666D01*
X93183833Y-73249666D01*
X93117166Y-73316333D01*
X93050500Y-73349666D01*
G04 #@! TO.C,R2*
X134058833Y-74929166D02*
X133825500Y-74595833D01*
X133658833Y-74929166D02*
X133658833Y-74229166D01*
X133925500Y-74229166D01*
X133992166Y-74262500D01*
X134025500Y-74295833D01*
X134058833Y-74362500D01*
X134058833Y-74462500D01*
X134025500Y-74529166D01*
X133992166Y-74562500D01*
X133925500Y-74595833D01*
X133658833Y-74595833D01*
X134325500Y-74295833D02*
X134358833Y-74262500D01*
X134425500Y-74229166D01*
X134592166Y-74229166D01*
X134658833Y-74262500D01*
X134692166Y-74295833D01*
X134725500Y-74362500D01*
X134725500Y-74429166D01*
X134692166Y-74529166D01*
X134292166Y-74929166D01*
X134725500Y-74929166D01*
G04 #@! TO.C,R3*
X131625333Y-80517166D02*
X131392000Y-80183833D01*
X131225333Y-80517166D02*
X131225333Y-79817166D01*
X131492000Y-79817166D01*
X131558666Y-79850500D01*
X131592000Y-79883833D01*
X131625333Y-79950500D01*
X131625333Y-80050500D01*
X131592000Y-80117166D01*
X131558666Y-80150500D01*
X131492000Y-80183833D01*
X131225333Y-80183833D01*
X131858666Y-79817166D02*
X132292000Y-79817166D01*
X132058666Y-80083833D01*
X132158666Y-80083833D01*
X132225333Y-80117166D01*
X132258666Y-80150500D01*
X132292000Y-80217166D01*
X132292000Y-80383833D01*
X132258666Y-80450500D01*
X132225333Y-80483833D01*
X132158666Y-80517166D01*
X131958666Y-80517166D01*
X131892000Y-80483833D01*
X131858666Y-80450500D01*
G04 #@! TO.C,R5*
X134058833Y-72325666D02*
X133825500Y-71992333D01*
X133658833Y-72325666D02*
X133658833Y-71625666D01*
X133925500Y-71625666D01*
X133992166Y-71659000D01*
X134025500Y-71692333D01*
X134058833Y-71759000D01*
X134058833Y-71859000D01*
X134025500Y-71925666D01*
X133992166Y-71959000D01*
X133925500Y-71992333D01*
X133658833Y-71992333D01*
X134692166Y-71625666D02*
X134358833Y-71625666D01*
X134325500Y-71959000D01*
X134358833Y-71925666D01*
X134425500Y-71892333D01*
X134592166Y-71892333D01*
X134658833Y-71925666D01*
X134692166Y-71959000D01*
X134725500Y-72025666D01*
X134725500Y-72192333D01*
X134692166Y-72259000D01*
X134658833Y-72292333D01*
X134592166Y-72325666D01*
X134425500Y-72325666D01*
X134358833Y-72292333D01*
X134325500Y-72259000D01*
G04 #@! TO.C,R6*
X131645833Y-85533666D02*
X131412500Y-85200333D01*
X131245833Y-85533666D02*
X131245833Y-84833666D01*
X131512500Y-84833666D01*
X131579166Y-84867000D01*
X131612500Y-84900333D01*
X131645833Y-84967000D01*
X131645833Y-85067000D01*
X131612500Y-85133666D01*
X131579166Y-85167000D01*
X131512500Y-85200333D01*
X131245833Y-85200333D01*
X132245833Y-84833666D02*
X132112500Y-84833666D01*
X132045833Y-84867000D01*
X132012500Y-84900333D01*
X131945833Y-85000333D01*
X131912500Y-85133666D01*
X131912500Y-85400333D01*
X131945833Y-85467000D01*
X131979166Y-85500333D01*
X132045833Y-85533666D01*
X132179166Y-85533666D01*
X132245833Y-85500333D01*
X132279166Y-85467000D01*
X132312500Y-85400333D01*
X132312500Y-85233666D01*
X132279166Y-85167000D01*
X132245833Y-85133666D01*
X132179166Y-85100333D01*
X132045833Y-85100333D01*
X131979166Y-85133666D01*
X131945833Y-85167000D01*
X131912500Y-85233666D01*
G04 #@! TO.C,R7*
X105547333Y-109346166D02*
X105314000Y-109012833D01*
X105147333Y-109346166D02*
X105147333Y-108646166D01*
X105414000Y-108646166D01*
X105480666Y-108679500D01*
X105514000Y-108712833D01*
X105547333Y-108779500D01*
X105547333Y-108879500D01*
X105514000Y-108946166D01*
X105480666Y-108979500D01*
X105414000Y-109012833D01*
X105147333Y-109012833D01*
X105780666Y-108646166D02*
X106247333Y-108646166D01*
X105947333Y-109346166D01*
G04 #@! TO.C,R8*
X141521333Y-80517166D02*
X141288000Y-80183833D01*
X141121333Y-80517166D02*
X141121333Y-79817166D01*
X141388000Y-79817166D01*
X141454666Y-79850500D01*
X141488000Y-79883833D01*
X141521333Y-79950500D01*
X141521333Y-80050500D01*
X141488000Y-80117166D01*
X141454666Y-80150500D01*
X141388000Y-80183833D01*
X141121333Y-80183833D01*
X141921333Y-80117166D02*
X141854666Y-80083833D01*
X141821333Y-80050500D01*
X141788000Y-79983833D01*
X141788000Y-79950500D01*
X141821333Y-79883833D01*
X141854666Y-79850500D01*
X141921333Y-79817166D01*
X142054666Y-79817166D01*
X142121333Y-79850500D01*
X142154666Y-79883833D01*
X142188000Y-79950500D01*
X142188000Y-79983833D01*
X142154666Y-80050500D01*
X142121333Y-80083833D01*
X142054666Y-80117166D01*
X141921333Y-80117166D01*
X141854666Y-80150500D01*
X141821333Y-80183833D01*
X141788000Y-80250500D01*
X141788000Y-80383833D01*
X141821333Y-80450500D01*
X141854666Y-80483833D01*
X141921333Y-80517166D01*
X142054666Y-80517166D01*
X142121333Y-80483833D01*
X142154666Y-80450500D01*
X142188000Y-80383833D01*
X142188000Y-80250500D01*
X142154666Y-80183833D01*
X142121333Y-80150500D01*
X142054666Y-80117166D01*
G04 #@! TO.C,R9*
X141551833Y-71055666D02*
X141318500Y-70722333D01*
X141151833Y-71055666D02*
X141151833Y-70355666D01*
X141418500Y-70355666D01*
X141485166Y-70389000D01*
X141518500Y-70422333D01*
X141551833Y-70489000D01*
X141551833Y-70589000D01*
X141518500Y-70655666D01*
X141485166Y-70689000D01*
X141418500Y-70722333D01*
X141151833Y-70722333D01*
X141885166Y-71055666D02*
X142018500Y-71055666D01*
X142085166Y-71022333D01*
X142118500Y-70989000D01*
X142185166Y-70889000D01*
X142218500Y-70755666D01*
X142218500Y-70489000D01*
X142185166Y-70422333D01*
X142151833Y-70389000D01*
X142085166Y-70355666D01*
X141951833Y-70355666D01*
X141885166Y-70389000D01*
X141851833Y-70422333D01*
X141818500Y-70489000D01*
X141818500Y-70655666D01*
X141851833Y-70722333D01*
X141885166Y-70755666D01*
X141951833Y-70789000D01*
X142085166Y-70789000D01*
X142151833Y-70755666D01*
X142185166Y-70722333D01*
X142218500Y-70655666D01*
G04 #@! TO.C,R10*
X121597000Y-79882166D02*
X121363666Y-79548833D01*
X121197000Y-79882166D02*
X121197000Y-79182166D01*
X121463666Y-79182166D01*
X121530333Y-79215500D01*
X121563666Y-79248833D01*
X121597000Y-79315500D01*
X121597000Y-79415500D01*
X121563666Y-79482166D01*
X121530333Y-79515500D01*
X121463666Y-79548833D01*
X121197000Y-79548833D01*
X122263666Y-79882166D02*
X121863666Y-79882166D01*
X122063666Y-79882166D02*
X122063666Y-79182166D01*
X121997000Y-79282166D01*
X121930333Y-79348833D01*
X121863666Y-79382166D01*
X122697000Y-79182166D02*
X122763666Y-79182166D01*
X122830333Y-79215500D01*
X122863666Y-79248833D01*
X122897000Y-79315500D01*
X122930333Y-79448833D01*
X122930333Y-79615500D01*
X122897000Y-79748833D01*
X122863666Y-79815500D01*
X122830333Y-79848833D01*
X122763666Y-79882166D01*
X122697000Y-79882166D01*
X122630333Y-79848833D01*
X122597000Y-79815500D01*
X122563666Y-79748833D01*
X122530333Y-79615500D01*
X122530333Y-79448833D01*
X122563666Y-79315500D01*
X122597000Y-79248833D01*
X122630333Y-79215500D01*
X122697000Y-79182166D01*
G04 #@! TO.C,R11*
X121597000Y-82231666D02*
X121363666Y-81898333D01*
X121197000Y-82231666D02*
X121197000Y-81531666D01*
X121463666Y-81531666D01*
X121530333Y-81565000D01*
X121563666Y-81598333D01*
X121597000Y-81665000D01*
X121597000Y-81765000D01*
X121563666Y-81831666D01*
X121530333Y-81865000D01*
X121463666Y-81898333D01*
X121197000Y-81898333D01*
X122263666Y-82231666D02*
X121863666Y-82231666D01*
X122063666Y-82231666D02*
X122063666Y-81531666D01*
X121997000Y-81631666D01*
X121930333Y-81698333D01*
X121863666Y-81731666D01*
X122930333Y-82231666D02*
X122530333Y-82231666D01*
X122730333Y-82231666D02*
X122730333Y-81531666D01*
X122663666Y-81631666D01*
X122597000Y-81698333D01*
X122530333Y-81731666D01*
G04 #@! TO.C,R12*
X108262000Y-113727666D02*
X108028666Y-113394333D01*
X107862000Y-113727666D02*
X107862000Y-113027666D01*
X108128666Y-113027666D01*
X108195333Y-113061000D01*
X108228666Y-113094333D01*
X108262000Y-113161000D01*
X108262000Y-113261000D01*
X108228666Y-113327666D01*
X108195333Y-113361000D01*
X108128666Y-113394333D01*
X107862000Y-113394333D01*
X108928666Y-113727666D02*
X108528666Y-113727666D01*
X108728666Y-113727666D02*
X108728666Y-113027666D01*
X108662000Y-113127666D01*
X108595333Y-113194333D01*
X108528666Y-113227666D01*
X109195333Y-113094333D02*
X109228666Y-113061000D01*
X109295333Y-113027666D01*
X109462000Y-113027666D01*
X109528666Y-113061000D01*
X109562000Y-113094333D01*
X109595333Y-113161000D01*
X109595333Y-113227666D01*
X109562000Y-113327666D01*
X109162000Y-113727666D01*
X109595333Y-113727666D01*
G04 #@! TO.C,R13*
X134238166Y-106114000D02*
X133904833Y-106347333D01*
X134238166Y-106514000D02*
X133538166Y-106514000D01*
X133538166Y-106247333D01*
X133571500Y-106180666D01*
X133604833Y-106147333D01*
X133671500Y-106114000D01*
X133771500Y-106114000D01*
X133838166Y-106147333D01*
X133871500Y-106180666D01*
X133904833Y-106247333D01*
X133904833Y-106514000D01*
X134238166Y-105447333D02*
X134238166Y-105847333D01*
X134238166Y-105647333D02*
X133538166Y-105647333D01*
X133638166Y-105714000D01*
X133704833Y-105780666D01*
X133738166Y-105847333D01*
X133538166Y-105214000D02*
X133538166Y-104780666D01*
X133804833Y-105014000D01*
X133804833Y-104914000D01*
X133838166Y-104847333D01*
X133871500Y-104814000D01*
X133938166Y-104780666D01*
X134104833Y-104780666D01*
X134171500Y-104814000D01*
X134204833Y-104847333D01*
X134238166Y-104914000D01*
X134238166Y-105114000D01*
X134204833Y-105180666D01*
X134171500Y-105214000D01*
G04 #@! TO.C,R14*
X119882500Y-65975666D02*
X119649166Y-65642333D01*
X119482500Y-65975666D02*
X119482500Y-65275666D01*
X119749166Y-65275666D01*
X119815833Y-65309000D01*
X119849166Y-65342333D01*
X119882500Y-65409000D01*
X119882500Y-65509000D01*
X119849166Y-65575666D01*
X119815833Y-65609000D01*
X119749166Y-65642333D01*
X119482500Y-65642333D01*
X120549166Y-65975666D02*
X120149166Y-65975666D01*
X120349166Y-65975666D02*
X120349166Y-65275666D01*
X120282500Y-65375666D01*
X120215833Y-65442333D01*
X120149166Y-65475666D01*
X121149166Y-65509000D02*
X121149166Y-65975666D01*
X120982500Y-65242333D02*
X120815833Y-65742333D01*
X121249166Y-65742333D01*
G04 #@! TO.C,R16*
X141218500Y-76262666D02*
X140985166Y-75929333D01*
X140818500Y-76262666D02*
X140818500Y-75562666D01*
X141085166Y-75562666D01*
X141151833Y-75596000D01*
X141185166Y-75629333D01*
X141218500Y-75696000D01*
X141218500Y-75796000D01*
X141185166Y-75862666D01*
X141151833Y-75896000D01*
X141085166Y-75929333D01*
X140818500Y-75929333D01*
X141885166Y-76262666D02*
X141485166Y-76262666D01*
X141685166Y-76262666D02*
X141685166Y-75562666D01*
X141618500Y-75662666D01*
X141551833Y-75729333D01*
X141485166Y-75762666D01*
X142485166Y-75562666D02*
X142351833Y-75562666D01*
X142285166Y-75596000D01*
X142251833Y-75629333D01*
X142185166Y-75729333D01*
X142151833Y-75862666D01*
X142151833Y-76129333D01*
X142185166Y-76196000D01*
X142218500Y-76229333D01*
X142285166Y-76262666D01*
X142418500Y-76262666D01*
X142485166Y-76229333D01*
X142518500Y-76196000D01*
X142551833Y-76129333D01*
X142551833Y-75962666D01*
X142518500Y-75896000D01*
X142485166Y-75862666D01*
X142418500Y-75829333D01*
X142285166Y-75829333D01*
X142218500Y-75862666D01*
X142185166Y-75896000D01*
X142151833Y-75962666D01*
G04 #@! TO.C,R17*
X131376000Y-76516666D02*
X131142666Y-76183333D01*
X130976000Y-76516666D02*
X130976000Y-75816666D01*
X131242666Y-75816666D01*
X131309333Y-75850000D01*
X131342666Y-75883333D01*
X131376000Y-75950000D01*
X131376000Y-76050000D01*
X131342666Y-76116666D01*
X131309333Y-76150000D01*
X131242666Y-76183333D01*
X130976000Y-76183333D01*
X132042666Y-76516666D02*
X131642666Y-76516666D01*
X131842666Y-76516666D02*
X131842666Y-75816666D01*
X131776000Y-75916666D01*
X131709333Y-75983333D01*
X131642666Y-76016666D01*
X132276000Y-75816666D02*
X132742666Y-75816666D01*
X132442666Y-76516666D01*
G04 #@! TO.C,R18*
X141198000Y-85597166D02*
X140964666Y-85263833D01*
X140798000Y-85597166D02*
X140798000Y-84897166D01*
X141064666Y-84897166D01*
X141131333Y-84930500D01*
X141164666Y-84963833D01*
X141198000Y-85030500D01*
X141198000Y-85130500D01*
X141164666Y-85197166D01*
X141131333Y-85230500D01*
X141064666Y-85263833D01*
X140798000Y-85263833D01*
X141864666Y-85597166D02*
X141464666Y-85597166D01*
X141664666Y-85597166D02*
X141664666Y-84897166D01*
X141598000Y-84997166D01*
X141531333Y-85063833D01*
X141464666Y-85097166D01*
X142264666Y-85197166D02*
X142198000Y-85163833D01*
X142164666Y-85130500D01*
X142131333Y-85063833D01*
X142131333Y-85030500D01*
X142164666Y-84963833D01*
X142198000Y-84930500D01*
X142264666Y-84897166D01*
X142398000Y-84897166D01*
X142464666Y-84930500D01*
X142498000Y-84963833D01*
X142531333Y-85030500D01*
X142531333Y-85063833D01*
X142498000Y-85130500D01*
X142464666Y-85163833D01*
X142398000Y-85197166D01*
X142264666Y-85197166D01*
X142198000Y-85230500D01*
X142164666Y-85263833D01*
X142131333Y-85330500D01*
X142131333Y-85463833D01*
X142164666Y-85530500D01*
X142198000Y-85563833D01*
X142264666Y-85597166D01*
X142398000Y-85597166D01*
X142464666Y-85563833D01*
X142498000Y-85530500D01*
X142531333Y-85463833D01*
X142531333Y-85330500D01*
X142498000Y-85263833D01*
X142464666Y-85230500D01*
X142398000Y-85197166D01*
G04 #@! TO.C,R19*
X142958400Y-101916666D02*
X142725066Y-101583333D01*
X142558400Y-101916666D02*
X142558400Y-101216666D01*
X142825066Y-101216666D01*
X142891733Y-101250000D01*
X142925066Y-101283333D01*
X142958400Y-101350000D01*
X142958400Y-101450000D01*
X142925066Y-101516666D01*
X142891733Y-101550000D01*
X142825066Y-101583333D01*
X142558400Y-101583333D01*
X143625066Y-101916666D02*
X143225066Y-101916666D01*
X143425066Y-101916666D02*
X143425066Y-101216666D01*
X143358400Y-101316666D01*
X143291733Y-101383333D01*
X143225066Y-101416666D01*
X143958400Y-101916666D02*
X144091733Y-101916666D01*
X144158400Y-101883333D01*
X144191733Y-101850000D01*
X144258400Y-101750000D01*
X144291733Y-101616666D01*
X144291733Y-101350000D01*
X144258400Y-101283333D01*
X144225066Y-101250000D01*
X144158400Y-101216666D01*
X144025066Y-101216666D01*
X143958400Y-101250000D01*
X143925066Y-101283333D01*
X143891733Y-101350000D01*
X143891733Y-101516666D01*
X143925066Y-101583333D01*
X143958400Y-101616666D01*
X144025066Y-101650000D01*
X144158400Y-101650000D01*
X144225066Y-101616666D01*
X144258400Y-101583333D01*
X144291733Y-101516666D01*
G04 #@! TO.C,R20*
X132900000Y-108076166D02*
X132666666Y-107742833D01*
X132500000Y-108076166D02*
X132500000Y-107376166D01*
X132766666Y-107376166D01*
X132833333Y-107409500D01*
X132866666Y-107442833D01*
X132900000Y-107509500D01*
X132900000Y-107609500D01*
X132866666Y-107676166D01*
X132833333Y-107709500D01*
X132766666Y-107742833D01*
X132500000Y-107742833D01*
X133166666Y-107442833D02*
X133200000Y-107409500D01*
X133266666Y-107376166D01*
X133433333Y-107376166D01*
X133500000Y-107409500D01*
X133533333Y-107442833D01*
X133566666Y-107509500D01*
X133566666Y-107576166D01*
X133533333Y-107676166D01*
X133133333Y-108076166D01*
X133566666Y-108076166D01*
X134000000Y-107376166D02*
X134066666Y-107376166D01*
X134133333Y-107409500D01*
X134166666Y-107442833D01*
X134200000Y-107509500D01*
X134233333Y-107642833D01*
X134233333Y-107809500D01*
X134200000Y-107942833D01*
X134166666Y-108009500D01*
X134133333Y-108042833D01*
X134066666Y-108076166D01*
X134000000Y-108076166D01*
X133933333Y-108042833D01*
X133900000Y-108009500D01*
X133866666Y-107942833D01*
X133833333Y-107809500D01*
X133833333Y-107642833D01*
X133866666Y-107509500D01*
X133900000Y-107442833D01*
X133933333Y-107409500D01*
X134000000Y-107376166D01*
G04 #@! TO.C,R21*
X106357000Y-85470166D02*
X106123666Y-85136833D01*
X105957000Y-85470166D02*
X105957000Y-84770166D01*
X106223666Y-84770166D01*
X106290333Y-84803500D01*
X106323666Y-84836833D01*
X106357000Y-84903500D01*
X106357000Y-85003500D01*
X106323666Y-85070166D01*
X106290333Y-85103500D01*
X106223666Y-85136833D01*
X105957000Y-85136833D01*
X106623666Y-84836833D02*
X106657000Y-84803500D01*
X106723666Y-84770166D01*
X106890333Y-84770166D01*
X106957000Y-84803500D01*
X106990333Y-84836833D01*
X107023666Y-84903500D01*
X107023666Y-84970166D01*
X106990333Y-85070166D01*
X106590333Y-85470166D01*
X107023666Y-85470166D01*
X107690333Y-85470166D02*
X107290333Y-85470166D01*
X107490333Y-85470166D02*
X107490333Y-84770166D01*
X107423666Y-84870166D01*
X107357000Y-84936833D01*
X107290333Y-84970166D01*
G04 #@! TO.C,R22*
X125661000Y-80072666D02*
X125427666Y-79739333D01*
X125261000Y-80072666D02*
X125261000Y-79372666D01*
X125527666Y-79372666D01*
X125594333Y-79406000D01*
X125627666Y-79439333D01*
X125661000Y-79506000D01*
X125661000Y-79606000D01*
X125627666Y-79672666D01*
X125594333Y-79706000D01*
X125527666Y-79739333D01*
X125261000Y-79739333D01*
X125927666Y-79439333D02*
X125961000Y-79406000D01*
X126027666Y-79372666D01*
X126194333Y-79372666D01*
X126261000Y-79406000D01*
X126294333Y-79439333D01*
X126327666Y-79506000D01*
X126327666Y-79572666D01*
X126294333Y-79672666D01*
X125894333Y-80072666D01*
X126327666Y-80072666D01*
X126594333Y-79439333D02*
X126627666Y-79406000D01*
X126694333Y-79372666D01*
X126861000Y-79372666D01*
X126927666Y-79406000D01*
X126961000Y-79439333D01*
X126994333Y-79506000D01*
X126994333Y-79572666D01*
X126961000Y-79672666D01*
X126561000Y-80072666D01*
X126994333Y-80072666D01*
G04 #@! TO.C,R23*
X124561000Y-114045166D02*
X124327666Y-113711833D01*
X124161000Y-114045166D02*
X124161000Y-113345166D01*
X124427666Y-113345166D01*
X124494333Y-113378500D01*
X124527666Y-113411833D01*
X124561000Y-113478500D01*
X124561000Y-113578500D01*
X124527666Y-113645166D01*
X124494333Y-113678500D01*
X124427666Y-113711833D01*
X124161000Y-113711833D01*
X124827666Y-113411833D02*
X124861000Y-113378500D01*
X124927666Y-113345166D01*
X125094333Y-113345166D01*
X125161000Y-113378500D01*
X125194333Y-113411833D01*
X125227666Y-113478500D01*
X125227666Y-113545166D01*
X125194333Y-113645166D01*
X124794333Y-114045166D01*
X125227666Y-114045166D01*
X125461000Y-113345166D02*
X125894333Y-113345166D01*
X125661000Y-113611833D01*
X125761000Y-113611833D01*
X125827666Y-113645166D01*
X125861000Y-113678500D01*
X125894333Y-113745166D01*
X125894333Y-113911833D01*
X125861000Y-113978500D01*
X125827666Y-114011833D01*
X125761000Y-114045166D01*
X125561000Y-114045166D01*
X125494333Y-114011833D01*
X125461000Y-113978500D01*
G04 #@! TO.C,R24*
X105531500Y-108266666D02*
X105298166Y-107933333D01*
X105131500Y-108266666D02*
X105131500Y-107566666D01*
X105398166Y-107566666D01*
X105464833Y-107600000D01*
X105498166Y-107633333D01*
X105531500Y-107700000D01*
X105531500Y-107800000D01*
X105498166Y-107866666D01*
X105464833Y-107900000D01*
X105398166Y-107933333D01*
X105131500Y-107933333D01*
X105798166Y-107633333D02*
X105831500Y-107600000D01*
X105898166Y-107566666D01*
X106064833Y-107566666D01*
X106131500Y-107600000D01*
X106164833Y-107633333D01*
X106198166Y-107700000D01*
X106198166Y-107766666D01*
X106164833Y-107866666D01*
X105764833Y-108266666D01*
X106198166Y-108266666D01*
X106798166Y-107800000D02*
X106798166Y-108266666D01*
X106631500Y-107533333D02*
X106464833Y-108033333D01*
X106898166Y-108033333D01*
G04 #@! TO.C,R25*
X134238166Y-104082000D02*
X133904833Y-104315333D01*
X134238166Y-104482000D02*
X133538166Y-104482000D01*
X133538166Y-104215333D01*
X133571500Y-104148666D01*
X133604833Y-104115333D01*
X133671500Y-104082000D01*
X133771500Y-104082000D01*
X133838166Y-104115333D01*
X133871500Y-104148666D01*
X133904833Y-104215333D01*
X133904833Y-104482000D01*
X133604833Y-103815333D02*
X133571500Y-103782000D01*
X133538166Y-103715333D01*
X133538166Y-103548666D01*
X133571500Y-103482000D01*
X133604833Y-103448666D01*
X133671500Y-103415333D01*
X133738166Y-103415333D01*
X133838166Y-103448666D01*
X134238166Y-103848666D01*
X134238166Y-103415333D01*
X133538166Y-102782000D02*
X133538166Y-103115333D01*
X133871500Y-103148666D01*
X133838166Y-103115333D01*
X133804833Y-103048666D01*
X133804833Y-102882000D01*
X133838166Y-102815333D01*
X133871500Y-102782000D01*
X133938166Y-102748666D01*
X134104833Y-102748666D01*
X134171500Y-102782000D01*
X134204833Y-102815333D01*
X134238166Y-102882000D01*
X134238166Y-103048666D01*
X134204833Y-103115333D01*
X134171500Y-103148666D01*
G04 #@! TO.C,R26*
X134238166Y-102050000D02*
X133904833Y-102283333D01*
X134238166Y-102450000D02*
X133538166Y-102450000D01*
X133538166Y-102183333D01*
X133571500Y-102116666D01*
X133604833Y-102083333D01*
X133671500Y-102050000D01*
X133771500Y-102050000D01*
X133838166Y-102083333D01*
X133871500Y-102116666D01*
X133904833Y-102183333D01*
X133904833Y-102450000D01*
X133604833Y-101783333D02*
X133571500Y-101750000D01*
X133538166Y-101683333D01*
X133538166Y-101516666D01*
X133571500Y-101450000D01*
X133604833Y-101416666D01*
X133671500Y-101383333D01*
X133738166Y-101383333D01*
X133838166Y-101416666D01*
X134238166Y-101816666D01*
X134238166Y-101383333D01*
X133538166Y-100783333D02*
X133538166Y-100916666D01*
X133571500Y-100983333D01*
X133604833Y-101016666D01*
X133704833Y-101083333D01*
X133838166Y-101116666D01*
X134104833Y-101116666D01*
X134171500Y-101083333D01*
X134204833Y-101050000D01*
X134238166Y-100983333D01*
X134238166Y-100850000D01*
X134204833Y-100783333D01*
X134171500Y-100750000D01*
X134104833Y-100716666D01*
X133938166Y-100716666D01*
X133871500Y-100750000D01*
X133838166Y-100783333D01*
X133804833Y-100850000D01*
X133804833Y-100983333D01*
X133838166Y-101050000D01*
X133871500Y-101083333D01*
X133938166Y-101116666D01*
G04 #@! TO.C,R27*
X104706000Y-71881166D02*
X104472666Y-71547833D01*
X104306000Y-71881166D02*
X104306000Y-71181166D01*
X104572666Y-71181166D01*
X104639333Y-71214500D01*
X104672666Y-71247833D01*
X104706000Y-71314500D01*
X104706000Y-71414500D01*
X104672666Y-71481166D01*
X104639333Y-71514500D01*
X104572666Y-71547833D01*
X104306000Y-71547833D01*
X104972666Y-71247833D02*
X105006000Y-71214500D01*
X105072666Y-71181166D01*
X105239333Y-71181166D01*
X105306000Y-71214500D01*
X105339333Y-71247833D01*
X105372666Y-71314500D01*
X105372666Y-71381166D01*
X105339333Y-71481166D01*
X104939333Y-71881166D01*
X105372666Y-71881166D01*
X105606000Y-71181166D02*
X106072666Y-71181166D01*
X105772666Y-71881166D01*
G04 #@! TO.C,R29*
X104706000Y-73786166D02*
X104472666Y-73452833D01*
X104306000Y-73786166D02*
X104306000Y-73086166D01*
X104572666Y-73086166D01*
X104639333Y-73119500D01*
X104672666Y-73152833D01*
X104706000Y-73219500D01*
X104706000Y-73319500D01*
X104672666Y-73386166D01*
X104639333Y-73419500D01*
X104572666Y-73452833D01*
X104306000Y-73452833D01*
X104972666Y-73152833D02*
X105006000Y-73119500D01*
X105072666Y-73086166D01*
X105239333Y-73086166D01*
X105306000Y-73119500D01*
X105339333Y-73152833D01*
X105372666Y-73219500D01*
X105372666Y-73286166D01*
X105339333Y-73386166D01*
X104939333Y-73786166D01*
X105372666Y-73786166D01*
X105706000Y-73786166D02*
X105839333Y-73786166D01*
X105906000Y-73752833D01*
X105939333Y-73719500D01*
X106006000Y-73619500D01*
X106039333Y-73486166D01*
X106039333Y-73219500D01*
X106006000Y-73152833D01*
X105972666Y-73119500D01*
X105906000Y-73086166D01*
X105772666Y-73086166D01*
X105706000Y-73119500D01*
X105672666Y-73152833D01*
X105639333Y-73219500D01*
X105639333Y-73386166D01*
X105672666Y-73452833D01*
X105706000Y-73486166D01*
X105772666Y-73519500D01*
X105906000Y-73519500D01*
X105972666Y-73486166D01*
X106006000Y-73452833D01*
X106039333Y-73386166D01*
G04 #@! TO.C,R30*
X92260000Y-71944666D02*
X92026666Y-71611333D01*
X91860000Y-71944666D02*
X91860000Y-71244666D01*
X92126666Y-71244666D01*
X92193333Y-71278000D01*
X92226666Y-71311333D01*
X92260000Y-71378000D01*
X92260000Y-71478000D01*
X92226666Y-71544666D01*
X92193333Y-71578000D01*
X92126666Y-71611333D01*
X91860000Y-71611333D01*
X92493333Y-71244666D02*
X92926666Y-71244666D01*
X92693333Y-71511333D01*
X92793333Y-71511333D01*
X92860000Y-71544666D01*
X92893333Y-71578000D01*
X92926666Y-71644666D01*
X92926666Y-71811333D01*
X92893333Y-71878000D01*
X92860000Y-71911333D01*
X92793333Y-71944666D01*
X92593333Y-71944666D01*
X92526666Y-71911333D01*
X92493333Y-71878000D01*
X93360000Y-71244666D02*
X93426666Y-71244666D01*
X93493333Y-71278000D01*
X93526666Y-71311333D01*
X93560000Y-71378000D01*
X93593333Y-71511333D01*
X93593333Y-71678000D01*
X93560000Y-71811333D01*
X93526666Y-71878000D01*
X93493333Y-71911333D01*
X93426666Y-71944666D01*
X93360000Y-71944666D01*
X93293333Y-71911333D01*
X93260000Y-71878000D01*
X93226666Y-71811333D01*
X93193333Y-71678000D01*
X93193333Y-71511333D01*
X93226666Y-71378000D01*
X93260000Y-71311333D01*
X93293333Y-71278000D01*
X93360000Y-71244666D01*
G04 #@! TO.C,R31*
X115183500Y-75818166D02*
X114950166Y-75484833D01*
X114783500Y-75818166D02*
X114783500Y-75118166D01*
X115050166Y-75118166D01*
X115116833Y-75151500D01*
X115150166Y-75184833D01*
X115183500Y-75251500D01*
X115183500Y-75351500D01*
X115150166Y-75418166D01*
X115116833Y-75451500D01*
X115050166Y-75484833D01*
X114783500Y-75484833D01*
X115416833Y-75118166D02*
X115850166Y-75118166D01*
X115616833Y-75384833D01*
X115716833Y-75384833D01*
X115783500Y-75418166D01*
X115816833Y-75451500D01*
X115850166Y-75518166D01*
X115850166Y-75684833D01*
X115816833Y-75751500D01*
X115783500Y-75784833D01*
X115716833Y-75818166D01*
X115516833Y-75818166D01*
X115450166Y-75784833D01*
X115416833Y-75751500D01*
X116516833Y-75818166D02*
X116116833Y-75818166D01*
X116316833Y-75818166D02*
X116316833Y-75118166D01*
X116250166Y-75218166D01*
X116183500Y-75284833D01*
X116116833Y-75318166D01*
G04 #@! TO.C,R32*
X107213000Y-121665166D02*
X106979666Y-121331833D01*
X106813000Y-121665166D02*
X106813000Y-120965166D01*
X107079666Y-120965166D01*
X107146333Y-120998500D01*
X107179666Y-121031833D01*
X107213000Y-121098500D01*
X107213000Y-121198500D01*
X107179666Y-121265166D01*
X107146333Y-121298500D01*
X107079666Y-121331833D01*
X106813000Y-121331833D01*
X107446333Y-120965166D02*
X107879666Y-120965166D01*
X107646333Y-121231833D01*
X107746333Y-121231833D01*
X107813000Y-121265166D01*
X107846333Y-121298500D01*
X107879666Y-121365166D01*
X107879666Y-121531833D01*
X107846333Y-121598500D01*
X107813000Y-121631833D01*
X107746333Y-121665166D01*
X107546333Y-121665166D01*
X107479666Y-121631833D01*
X107446333Y-121598500D01*
X108146333Y-121031833D02*
X108179666Y-120998500D01*
X108246333Y-120965166D01*
X108413000Y-120965166D01*
X108479666Y-120998500D01*
X108513000Y-121031833D01*
X108546333Y-121098500D01*
X108546333Y-121165166D01*
X108513000Y-121265166D01*
X108113000Y-121665166D01*
X108546333Y-121665166D01*
G04 #@! TO.C,R33*
X106103000Y-97057666D02*
X105869666Y-96724333D01*
X105703000Y-97057666D02*
X105703000Y-96357666D01*
X105969666Y-96357666D01*
X106036333Y-96391000D01*
X106069666Y-96424333D01*
X106103000Y-96491000D01*
X106103000Y-96591000D01*
X106069666Y-96657666D01*
X106036333Y-96691000D01*
X105969666Y-96724333D01*
X105703000Y-96724333D01*
X106336333Y-96357666D02*
X106769666Y-96357666D01*
X106536333Y-96624333D01*
X106636333Y-96624333D01*
X106703000Y-96657666D01*
X106736333Y-96691000D01*
X106769666Y-96757666D01*
X106769666Y-96924333D01*
X106736333Y-96991000D01*
X106703000Y-97024333D01*
X106636333Y-97057666D01*
X106436333Y-97057666D01*
X106369666Y-97024333D01*
X106336333Y-96991000D01*
X107003000Y-96357666D02*
X107436333Y-96357666D01*
X107203000Y-96624333D01*
X107303000Y-96624333D01*
X107369666Y-96657666D01*
X107403000Y-96691000D01*
X107436333Y-96757666D01*
X107436333Y-96924333D01*
X107403000Y-96991000D01*
X107369666Y-97024333D01*
X107303000Y-97057666D01*
X107103000Y-97057666D01*
X107036333Y-97024333D01*
X107003000Y-96991000D01*
G04 #@! TO.C,R34*
X115755000Y-84771666D02*
X115521666Y-84438333D01*
X115355000Y-84771666D02*
X115355000Y-84071666D01*
X115621666Y-84071666D01*
X115688333Y-84105000D01*
X115721666Y-84138333D01*
X115755000Y-84205000D01*
X115755000Y-84305000D01*
X115721666Y-84371666D01*
X115688333Y-84405000D01*
X115621666Y-84438333D01*
X115355000Y-84438333D01*
X115988333Y-84071666D02*
X116421666Y-84071666D01*
X116188333Y-84338333D01*
X116288333Y-84338333D01*
X116355000Y-84371666D01*
X116388333Y-84405000D01*
X116421666Y-84471666D01*
X116421666Y-84638333D01*
X116388333Y-84705000D01*
X116355000Y-84738333D01*
X116288333Y-84771666D01*
X116088333Y-84771666D01*
X116021666Y-84738333D01*
X115988333Y-84705000D01*
X117021666Y-84305000D02*
X117021666Y-84771666D01*
X116855000Y-84038333D02*
X116688333Y-84538333D01*
X117121666Y-84538333D01*
G04 #@! TO.C,R35*
X95308000Y-85378666D02*
X95074666Y-85045333D01*
X94908000Y-85378666D02*
X94908000Y-84678666D01*
X95174666Y-84678666D01*
X95241333Y-84712000D01*
X95274666Y-84745333D01*
X95308000Y-84812000D01*
X95308000Y-84912000D01*
X95274666Y-84978666D01*
X95241333Y-85012000D01*
X95174666Y-85045333D01*
X94908000Y-85045333D01*
X95541333Y-84678666D02*
X95974666Y-84678666D01*
X95741333Y-84945333D01*
X95841333Y-84945333D01*
X95908000Y-84978666D01*
X95941333Y-85012000D01*
X95974666Y-85078666D01*
X95974666Y-85245333D01*
X95941333Y-85312000D01*
X95908000Y-85345333D01*
X95841333Y-85378666D01*
X95641333Y-85378666D01*
X95574666Y-85345333D01*
X95541333Y-85312000D01*
X96608000Y-84678666D02*
X96274666Y-84678666D01*
X96241333Y-85012000D01*
X96274666Y-84978666D01*
X96341333Y-84945333D01*
X96508000Y-84945333D01*
X96574666Y-84978666D01*
X96608000Y-85012000D01*
X96641333Y-85078666D01*
X96641333Y-85245333D01*
X96608000Y-85312000D01*
X96574666Y-85345333D01*
X96508000Y-85378666D01*
X96341333Y-85378666D01*
X96274666Y-85345333D01*
X96241333Y-85312000D01*
G04 #@! TO.C,R36*
X110040000Y-118045666D02*
X109806666Y-117712333D01*
X109640000Y-118045666D02*
X109640000Y-117345666D01*
X109906666Y-117345666D01*
X109973333Y-117379000D01*
X110006666Y-117412333D01*
X110040000Y-117479000D01*
X110040000Y-117579000D01*
X110006666Y-117645666D01*
X109973333Y-117679000D01*
X109906666Y-117712333D01*
X109640000Y-117712333D01*
X110273333Y-117345666D02*
X110706666Y-117345666D01*
X110473333Y-117612333D01*
X110573333Y-117612333D01*
X110640000Y-117645666D01*
X110673333Y-117679000D01*
X110706666Y-117745666D01*
X110706666Y-117912333D01*
X110673333Y-117979000D01*
X110640000Y-118012333D01*
X110573333Y-118045666D01*
X110373333Y-118045666D01*
X110306666Y-118012333D01*
X110273333Y-117979000D01*
X111306666Y-117345666D02*
X111173333Y-117345666D01*
X111106666Y-117379000D01*
X111073333Y-117412333D01*
X111006666Y-117512333D01*
X110973333Y-117645666D01*
X110973333Y-117912333D01*
X111006666Y-117979000D01*
X111040000Y-118012333D01*
X111106666Y-118045666D01*
X111240000Y-118045666D01*
X111306666Y-118012333D01*
X111340000Y-117979000D01*
X111373333Y-117912333D01*
X111373333Y-117745666D01*
X111340000Y-117679000D01*
X111306666Y-117645666D01*
X111240000Y-117612333D01*
X111106666Y-117612333D01*
X111040000Y-117645666D01*
X111006666Y-117679000D01*
X110973333Y-117745666D01*
G04 #@! TO.C,R37*
X127502500Y-109282666D02*
X127269166Y-108949333D01*
X127102500Y-109282666D02*
X127102500Y-108582666D01*
X127369166Y-108582666D01*
X127435833Y-108616000D01*
X127469166Y-108649333D01*
X127502500Y-108716000D01*
X127502500Y-108816000D01*
X127469166Y-108882666D01*
X127435833Y-108916000D01*
X127369166Y-108949333D01*
X127102500Y-108949333D01*
X127735833Y-108582666D02*
X128169166Y-108582666D01*
X127935833Y-108849333D01*
X128035833Y-108849333D01*
X128102500Y-108882666D01*
X128135833Y-108916000D01*
X128169166Y-108982666D01*
X128169166Y-109149333D01*
X128135833Y-109216000D01*
X128102500Y-109249333D01*
X128035833Y-109282666D01*
X127835833Y-109282666D01*
X127769166Y-109249333D01*
X127735833Y-109216000D01*
X128402500Y-108582666D02*
X128869166Y-108582666D01*
X128569166Y-109282666D01*
G04 #@! TO.C,R38*
X106093000Y-98012666D02*
X105859666Y-97679333D01*
X105693000Y-98012666D02*
X105693000Y-97312666D01*
X105959666Y-97312666D01*
X106026333Y-97346000D01*
X106059666Y-97379333D01*
X106093000Y-97446000D01*
X106093000Y-97546000D01*
X106059666Y-97612666D01*
X106026333Y-97646000D01*
X105959666Y-97679333D01*
X105693000Y-97679333D01*
X106326333Y-97312666D02*
X106759666Y-97312666D01*
X106526333Y-97579333D01*
X106626333Y-97579333D01*
X106693000Y-97612666D01*
X106726333Y-97646000D01*
X106759666Y-97712666D01*
X106759666Y-97879333D01*
X106726333Y-97946000D01*
X106693000Y-97979333D01*
X106626333Y-98012666D01*
X106426333Y-98012666D01*
X106359666Y-97979333D01*
X106326333Y-97946000D01*
X107159666Y-97612666D02*
X107093000Y-97579333D01*
X107059666Y-97546000D01*
X107026333Y-97479333D01*
X107026333Y-97446000D01*
X107059666Y-97379333D01*
X107093000Y-97346000D01*
X107159666Y-97312666D01*
X107293000Y-97312666D01*
X107359666Y-97346000D01*
X107393000Y-97379333D01*
X107426333Y-97446000D01*
X107426333Y-97479333D01*
X107393000Y-97546000D01*
X107359666Y-97579333D01*
X107293000Y-97612666D01*
X107159666Y-97612666D01*
X107093000Y-97646000D01*
X107059666Y-97679333D01*
X107026333Y-97746000D01*
X107026333Y-97879333D01*
X107059666Y-97946000D01*
X107093000Y-97979333D01*
X107159666Y-98012666D01*
X107293000Y-98012666D01*
X107359666Y-97979333D01*
X107393000Y-97946000D01*
X107426333Y-97879333D01*
X107426333Y-97746000D01*
X107393000Y-97679333D01*
X107359666Y-97646000D01*
X107293000Y-97612666D01*
G04 #@! TO.C,R39*
X119120500Y-113664166D02*
X118887166Y-113330833D01*
X118720500Y-113664166D02*
X118720500Y-112964166D01*
X118987166Y-112964166D01*
X119053833Y-112997500D01*
X119087166Y-113030833D01*
X119120500Y-113097500D01*
X119120500Y-113197500D01*
X119087166Y-113264166D01*
X119053833Y-113297500D01*
X118987166Y-113330833D01*
X118720500Y-113330833D01*
X119353833Y-112964166D02*
X119787166Y-112964166D01*
X119553833Y-113230833D01*
X119653833Y-113230833D01*
X119720500Y-113264166D01*
X119753833Y-113297500D01*
X119787166Y-113364166D01*
X119787166Y-113530833D01*
X119753833Y-113597500D01*
X119720500Y-113630833D01*
X119653833Y-113664166D01*
X119453833Y-113664166D01*
X119387166Y-113630833D01*
X119353833Y-113597500D01*
X120120500Y-113664166D02*
X120253833Y-113664166D01*
X120320500Y-113630833D01*
X120353833Y-113597500D01*
X120420500Y-113497500D01*
X120453833Y-113364166D01*
X120453833Y-113097500D01*
X120420500Y-113030833D01*
X120387166Y-112997500D01*
X120320500Y-112964166D01*
X120187166Y-112964166D01*
X120120500Y-112997500D01*
X120087166Y-113030833D01*
X120053833Y-113097500D01*
X120053833Y-113264166D01*
X120087166Y-113330833D01*
X120120500Y-113364166D01*
X120187166Y-113397500D01*
X120320500Y-113397500D01*
X120387166Y-113364166D01*
X120420500Y-113330833D01*
X120453833Y-113264166D01*
G04 #@! TO.C,R40*
X121406500Y-113664166D02*
X121173166Y-113330833D01*
X121006500Y-113664166D02*
X121006500Y-112964166D01*
X121273166Y-112964166D01*
X121339833Y-112997500D01*
X121373166Y-113030833D01*
X121406500Y-113097500D01*
X121406500Y-113197500D01*
X121373166Y-113264166D01*
X121339833Y-113297500D01*
X121273166Y-113330833D01*
X121006500Y-113330833D01*
X122006500Y-113197500D02*
X122006500Y-113664166D01*
X121839833Y-112930833D02*
X121673166Y-113430833D01*
X122106500Y-113430833D01*
X122506500Y-112964166D02*
X122573166Y-112964166D01*
X122639833Y-112997500D01*
X122673166Y-113030833D01*
X122706500Y-113097500D01*
X122739833Y-113230833D01*
X122739833Y-113397500D01*
X122706500Y-113530833D01*
X122673166Y-113597500D01*
X122639833Y-113630833D01*
X122573166Y-113664166D01*
X122506500Y-113664166D01*
X122439833Y-113630833D01*
X122406500Y-113597500D01*
X122373166Y-113530833D01*
X122339833Y-113397500D01*
X122339833Y-113230833D01*
X122373166Y-113097500D01*
X122406500Y-113030833D01*
X122439833Y-112997500D01*
X122506500Y-112964166D01*
G04 #@! TO.C,R41*
X99456000Y-97057666D02*
X99222666Y-96724333D01*
X99056000Y-97057666D02*
X99056000Y-96357666D01*
X99322666Y-96357666D01*
X99389333Y-96391000D01*
X99422666Y-96424333D01*
X99456000Y-96491000D01*
X99456000Y-96591000D01*
X99422666Y-96657666D01*
X99389333Y-96691000D01*
X99322666Y-96724333D01*
X99056000Y-96724333D01*
X100056000Y-96591000D02*
X100056000Y-97057666D01*
X99889333Y-96324333D02*
X99722666Y-96824333D01*
X100156000Y-96824333D01*
X100789333Y-97057666D02*
X100389333Y-97057666D01*
X100589333Y-97057666D02*
X100589333Y-96357666D01*
X100522666Y-96457666D01*
X100456000Y-96524333D01*
X100389333Y-96557666D01*
G04 #@! TO.C,R42*
X119862000Y-116681666D02*
X119628666Y-116348333D01*
X119462000Y-116681666D02*
X119462000Y-115981666D01*
X119728666Y-115981666D01*
X119795333Y-116015000D01*
X119828666Y-116048333D01*
X119862000Y-116115000D01*
X119862000Y-116215000D01*
X119828666Y-116281666D01*
X119795333Y-116315000D01*
X119728666Y-116348333D01*
X119462000Y-116348333D01*
X120462000Y-116215000D02*
X120462000Y-116681666D01*
X120295333Y-115948333D02*
X120128666Y-116448333D01*
X120562000Y-116448333D01*
X120795333Y-116048333D02*
X120828666Y-116015000D01*
X120895333Y-115981666D01*
X121062000Y-115981666D01*
X121128666Y-116015000D01*
X121162000Y-116048333D01*
X121195333Y-116115000D01*
X121195333Y-116181666D01*
X121162000Y-116281666D01*
X120762000Y-116681666D01*
X121195333Y-116681666D01*
G04 #@! TO.C,R43*
X121787500Y-108711166D02*
X121554166Y-108377833D01*
X121387500Y-108711166D02*
X121387500Y-108011166D01*
X121654166Y-108011166D01*
X121720833Y-108044500D01*
X121754166Y-108077833D01*
X121787500Y-108144500D01*
X121787500Y-108244500D01*
X121754166Y-108311166D01*
X121720833Y-108344500D01*
X121654166Y-108377833D01*
X121387500Y-108377833D01*
X122387500Y-108244500D02*
X122387500Y-108711166D01*
X122220833Y-107977833D02*
X122054166Y-108477833D01*
X122487500Y-108477833D01*
X122687500Y-108011166D02*
X123120833Y-108011166D01*
X122887500Y-108277833D01*
X122987500Y-108277833D01*
X123054166Y-108311166D01*
X123087500Y-108344500D01*
X123120833Y-108411166D01*
X123120833Y-108577833D01*
X123087500Y-108644500D01*
X123054166Y-108677833D01*
X122987500Y-108711166D01*
X122787500Y-108711166D01*
X122720833Y-108677833D01*
X122687500Y-108644500D01*
G04 #@! TO.C,R44*
X119120500Y-105663166D02*
X118887166Y-105329833D01*
X118720500Y-105663166D02*
X118720500Y-104963166D01*
X118987166Y-104963166D01*
X119053833Y-104996500D01*
X119087166Y-105029833D01*
X119120500Y-105096500D01*
X119120500Y-105196500D01*
X119087166Y-105263166D01*
X119053833Y-105296500D01*
X118987166Y-105329833D01*
X118720500Y-105329833D01*
X119720500Y-105196500D02*
X119720500Y-105663166D01*
X119553833Y-104929833D02*
X119387166Y-105429833D01*
X119820500Y-105429833D01*
X120387166Y-105196500D02*
X120387166Y-105663166D01*
X120220500Y-104929833D02*
X120053833Y-105429833D01*
X120487166Y-105429833D01*
G04 #@! TO.C,R45*
X99456000Y-98012666D02*
X99222666Y-97679333D01*
X99056000Y-98012666D02*
X99056000Y-97312666D01*
X99322666Y-97312666D01*
X99389333Y-97346000D01*
X99422666Y-97379333D01*
X99456000Y-97446000D01*
X99456000Y-97546000D01*
X99422666Y-97612666D01*
X99389333Y-97646000D01*
X99322666Y-97679333D01*
X99056000Y-97679333D01*
X100056000Y-97546000D02*
X100056000Y-98012666D01*
X99889333Y-97279333D02*
X99722666Y-97779333D01*
X100156000Y-97779333D01*
X100756000Y-97312666D02*
X100422666Y-97312666D01*
X100389333Y-97646000D01*
X100422666Y-97612666D01*
X100489333Y-97579333D01*
X100656000Y-97579333D01*
X100722666Y-97612666D01*
X100756000Y-97646000D01*
X100789333Y-97712666D01*
X100789333Y-97879333D01*
X100756000Y-97946000D01*
X100722666Y-97979333D01*
X100656000Y-98012666D01*
X100489333Y-98012666D01*
X100422666Y-97979333D01*
X100389333Y-97946000D01*
G04 #@! TO.C,R46*
X111310000Y-116681666D02*
X111076666Y-116348333D01*
X110910000Y-116681666D02*
X110910000Y-115981666D01*
X111176666Y-115981666D01*
X111243333Y-116015000D01*
X111276666Y-116048333D01*
X111310000Y-116115000D01*
X111310000Y-116215000D01*
X111276666Y-116281666D01*
X111243333Y-116315000D01*
X111176666Y-116348333D01*
X110910000Y-116348333D01*
X111910000Y-116215000D02*
X111910000Y-116681666D01*
X111743333Y-115948333D02*
X111576666Y-116448333D01*
X112010000Y-116448333D01*
X112576666Y-115981666D02*
X112443333Y-115981666D01*
X112376666Y-116015000D01*
X112343333Y-116048333D01*
X112276666Y-116148333D01*
X112243333Y-116281666D01*
X112243333Y-116548333D01*
X112276666Y-116615000D01*
X112310000Y-116648333D01*
X112376666Y-116681666D01*
X112510000Y-116681666D01*
X112576666Y-116648333D01*
X112610000Y-116615000D01*
X112643333Y-116548333D01*
X112643333Y-116381666D01*
X112610000Y-116315000D01*
X112576666Y-116281666D01*
X112510000Y-116248333D01*
X112376666Y-116248333D01*
X112310000Y-116281666D01*
X112276666Y-116315000D01*
X112243333Y-116381666D01*
G04 #@! TO.C,R47*
X119882500Y-68071166D02*
X119649166Y-67737833D01*
X119482500Y-68071166D02*
X119482500Y-67371166D01*
X119749166Y-67371166D01*
X119815833Y-67404500D01*
X119849166Y-67437833D01*
X119882500Y-67504500D01*
X119882500Y-67604500D01*
X119849166Y-67671166D01*
X119815833Y-67704500D01*
X119749166Y-67737833D01*
X119482500Y-67737833D01*
X120482500Y-67604500D02*
X120482500Y-68071166D01*
X120315833Y-67337833D02*
X120149166Y-67837833D01*
X120582500Y-67837833D01*
X120782500Y-67371166D02*
X121249166Y-67371166D01*
X120949166Y-68071166D01*
G04 #@! TO.C,R48*
X100849000Y-85378666D02*
X100615666Y-85045333D01*
X100449000Y-85378666D02*
X100449000Y-84678666D01*
X100715666Y-84678666D01*
X100782333Y-84712000D01*
X100815666Y-84745333D01*
X100849000Y-84812000D01*
X100849000Y-84912000D01*
X100815666Y-84978666D01*
X100782333Y-85012000D01*
X100715666Y-85045333D01*
X100449000Y-85045333D01*
X101449000Y-84912000D02*
X101449000Y-85378666D01*
X101282333Y-84645333D02*
X101115666Y-85145333D01*
X101549000Y-85145333D01*
X101915666Y-84978666D02*
X101849000Y-84945333D01*
X101815666Y-84912000D01*
X101782333Y-84845333D01*
X101782333Y-84812000D01*
X101815666Y-84745333D01*
X101849000Y-84712000D01*
X101915666Y-84678666D01*
X102049000Y-84678666D01*
X102115666Y-84712000D01*
X102149000Y-84745333D01*
X102182333Y-84812000D01*
X102182333Y-84845333D01*
X102149000Y-84912000D01*
X102115666Y-84945333D01*
X102049000Y-84978666D01*
X101915666Y-84978666D01*
X101849000Y-85012000D01*
X101815666Y-85045333D01*
X101782333Y-85112000D01*
X101782333Y-85245333D01*
X101815666Y-85312000D01*
X101849000Y-85345333D01*
X101915666Y-85378666D01*
X102049000Y-85378666D01*
X102115666Y-85345333D01*
X102149000Y-85312000D01*
X102182333Y-85245333D01*
X102182333Y-85112000D01*
X102149000Y-85045333D01*
X102115666Y-85012000D01*
X102049000Y-84978666D01*
G04 #@! TO.C,R49*
X124454500Y-86740166D02*
X124221166Y-86406833D01*
X124054500Y-86740166D02*
X124054500Y-86040166D01*
X124321166Y-86040166D01*
X124387833Y-86073500D01*
X124421166Y-86106833D01*
X124454500Y-86173500D01*
X124454500Y-86273500D01*
X124421166Y-86340166D01*
X124387833Y-86373500D01*
X124321166Y-86406833D01*
X124054500Y-86406833D01*
X125054500Y-86273500D02*
X125054500Y-86740166D01*
X124887833Y-86006833D02*
X124721166Y-86506833D01*
X125154500Y-86506833D01*
X125454500Y-86740166D02*
X125587833Y-86740166D01*
X125654500Y-86706833D01*
X125687833Y-86673500D01*
X125754500Y-86573500D01*
X125787833Y-86440166D01*
X125787833Y-86173500D01*
X125754500Y-86106833D01*
X125721166Y-86073500D01*
X125654500Y-86040166D01*
X125521166Y-86040166D01*
X125454500Y-86073500D01*
X125421166Y-86106833D01*
X125387833Y-86173500D01*
X125387833Y-86340166D01*
X125421166Y-86406833D01*
X125454500Y-86440166D01*
X125521166Y-86473500D01*
X125654500Y-86473500D01*
X125721166Y-86440166D01*
X125754500Y-86406833D01*
X125787833Y-86340166D01*
G04 #@! TO.C,R50*
X89783500Y-98487666D02*
X89550166Y-98154333D01*
X89383500Y-98487666D02*
X89383500Y-97787666D01*
X89650166Y-97787666D01*
X89716833Y-97821000D01*
X89750166Y-97854333D01*
X89783500Y-97921000D01*
X89783500Y-98021000D01*
X89750166Y-98087666D01*
X89716833Y-98121000D01*
X89650166Y-98154333D01*
X89383500Y-98154333D01*
X90416833Y-97787666D02*
X90083500Y-97787666D01*
X90050166Y-98121000D01*
X90083500Y-98087666D01*
X90150166Y-98054333D01*
X90316833Y-98054333D01*
X90383500Y-98087666D01*
X90416833Y-98121000D01*
X90450166Y-98187666D01*
X90450166Y-98354333D01*
X90416833Y-98421000D01*
X90383500Y-98454333D01*
X90316833Y-98487666D01*
X90150166Y-98487666D01*
X90083500Y-98454333D01*
X90050166Y-98421000D01*
X90883500Y-97787666D02*
X90950166Y-97787666D01*
X91016833Y-97821000D01*
X91050166Y-97854333D01*
X91083500Y-97921000D01*
X91116833Y-98054333D01*
X91116833Y-98221000D01*
X91083500Y-98354333D01*
X91050166Y-98421000D01*
X91016833Y-98454333D01*
X90950166Y-98487666D01*
X90883500Y-98487666D01*
X90816833Y-98454333D01*
X90783500Y-98421000D01*
X90750166Y-98354333D01*
X90716833Y-98221000D01*
X90716833Y-98054333D01*
X90750166Y-97921000D01*
X90783500Y-97854333D01*
X90816833Y-97821000D01*
X90883500Y-97787666D01*
G04 #@! TO.C,R51*
X102295666Y-121665166D02*
X102062332Y-121331833D01*
X101895666Y-121665166D02*
X101895666Y-120965166D01*
X102162332Y-120965166D01*
X102228999Y-120998500D01*
X102262332Y-121031833D01*
X102295666Y-121098500D01*
X102295666Y-121198500D01*
X102262332Y-121265166D01*
X102228999Y-121298500D01*
X102162332Y-121331833D01*
X101895666Y-121331833D01*
X102928999Y-120965166D02*
X102595666Y-120965166D01*
X102562332Y-121298500D01*
X102595666Y-121265166D01*
X102662332Y-121231833D01*
X102828999Y-121231833D01*
X102895666Y-121265166D01*
X102928999Y-121298500D01*
X102962332Y-121365166D01*
X102962332Y-121531833D01*
X102928999Y-121598500D01*
X102895666Y-121631833D01*
X102828999Y-121665166D01*
X102662332Y-121665166D01*
X102595666Y-121631833D01*
X102562332Y-121598500D01*
X103628999Y-121665166D02*
X103228999Y-121665166D01*
X103428999Y-121665166D02*
X103428999Y-120965166D01*
X103362332Y-121065166D01*
X103295666Y-121131833D01*
X103228999Y-121165166D01*
G04 #@! TO.C,R52*
X89783500Y-96646166D02*
X89550166Y-96312833D01*
X89383500Y-96646166D02*
X89383500Y-95946166D01*
X89650166Y-95946166D01*
X89716833Y-95979500D01*
X89750166Y-96012833D01*
X89783500Y-96079500D01*
X89783500Y-96179500D01*
X89750166Y-96246166D01*
X89716833Y-96279500D01*
X89650166Y-96312833D01*
X89383500Y-96312833D01*
X90416833Y-95946166D02*
X90083500Y-95946166D01*
X90050166Y-96279500D01*
X90083500Y-96246166D01*
X90150166Y-96212833D01*
X90316833Y-96212833D01*
X90383500Y-96246166D01*
X90416833Y-96279500D01*
X90450166Y-96346166D01*
X90450166Y-96512833D01*
X90416833Y-96579500D01*
X90383500Y-96612833D01*
X90316833Y-96646166D01*
X90150166Y-96646166D01*
X90083500Y-96612833D01*
X90050166Y-96579500D01*
X90716833Y-96012833D02*
X90750166Y-95979500D01*
X90816833Y-95946166D01*
X90983500Y-95946166D01*
X91050166Y-95979500D01*
X91083500Y-96012833D01*
X91116833Y-96079500D01*
X91116833Y-96146166D01*
X91083500Y-96246166D01*
X90683500Y-96646166D01*
X91116833Y-96646166D01*
G04 #@! TO.C,R53*
X97403500Y-121665166D02*
X97170166Y-121331833D01*
X97003500Y-121665166D02*
X97003500Y-120965166D01*
X97270166Y-120965166D01*
X97336833Y-120998500D01*
X97370166Y-121031833D01*
X97403500Y-121098500D01*
X97403500Y-121198500D01*
X97370166Y-121265166D01*
X97336833Y-121298500D01*
X97270166Y-121331833D01*
X97003500Y-121331833D01*
X98036833Y-120965166D02*
X97703500Y-120965166D01*
X97670166Y-121298500D01*
X97703500Y-121265166D01*
X97770166Y-121231833D01*
X97936833Y-121231833D01*
X98003500Y-121265166D01*
X98036833Y-121298500D01*
X98070166Y-121365166D01*
X98070166Y-121531833D01*
X98036833Y-121598500D01*
X98003500Y-121631833D01*
X97936833Y-121665166D01*
X97770166Y-121665166D01*
X97703500Y-121631833D01*
X97670166Y-121598500D01*
X98303500Y-120965166D02*
X98736833Y-120965166D01*
X98503500Y-121231833D01*
X98603500Y-121231833D01*
X98670166Y-121265166D01*
X98703500Y-121298500D01*
X98736833Y-121365166D01*
X98736833Y-121531833D01*
X98703500Y-121598500D01*
X98670166Y-121631833D01*
X98603500Y-121665166D01*
X98403500Y-121665166D01*
X98336833Y-121631833D01*
X98303500Y-121598500D01*
G04 #@! TO.C,R54*
X89783500Y-102297666D02*
X89550166Y-101964333D01*
X89383500Y-102297666D02*
X89383500Y-101597666D01*
X89650166Y-101597666D01*
X89716833Y-101631000D01*
X89750166Y-101664333D01*
X89783500Y-101731000D01*
X89783500Y-101831000D01*
X89750166Y-101897666D01*
X89716833Y-101931000D01*
X89650166Y-101964333D01*
X89383500Y-101964333D01*
X90416833Y-101597666D02*
X90083500Y-101597666D01*
X90050166Y-101931000D01*
X90083500Y-101897666D01*
X90150166Y-101864333D01*
X90316833Y-101864333D01*
X90383500Y-101897666D01*
X90416833Y-101931000D01*
X90450166Y-101997666D01*
X90450166Y-102164333D01*
X90416833Y-102231000D01*
X90383500Y-102264333D01*
X90316833Y-102297666D01*
X90150166Y-102297666D01*
X90083500Y-102264333D01*
X90050166Y-102231000D01*
X91050166Y-101831000D02*
X91050166Y-102297666D01*
X90883500Y-101564333D02*
X90716833Y-102064333D01*
X91150166Y-102064333D01*
G04 #@! TO.C,R55*
X89783500Y-104202666D02*
X89550166Y-103869333D01*
X89383500Y-104202666D02*
X89383500Y-103502666D01*
X89650166Y-103502666D01*
X89716833Y-103536000D01*
X89750166Y-103569333D01*
X89783500Y-103636000D01*
X89783500Y-103736000D01*
X89750166Y-103802666D01*
X89716833Y-103836000D01*
X89650166Y-103869333D01*
X89383500Y-103869333D01*
X90416833Y-103502666D02*
X90083500Y-103502666D01*
X90050166Y-103836000D01*
X90083500Y-103802666D01*
X90150166Y-103769333D01*
X90316833Y-103769333D01*
X90383500Y-103802666D01*
X90416833Y-103836000D01*
X90450166Y-103902666D01*
X90450166Y-104069333D01*
X90416833Y-104136000D01*
X90383500Y-104169333D01*
X90316833Y-104202666D01*
X90150166Y-104202666D01*
X90083500Y-104169333D01*
X90050166Y-104136000D01*
X91083500Y-103502666D02*
X90750166Y-103502666D01*
X90716833Y-103836000D01*
X90750166Y-103802666D01*
X90816833Y-103769333D01*
X90983500Y-103769333D01*
X91050166Y-103802666D01*
X91083500Y-103836000D01*
X91116833Y-103902666D01*
X91116833Y-104069333D01*
X91083500Y-104136000D01*
X91050166Y-104169333D01*
X90983500Y-104202666D01*
X90816833Y-104202666D01*
X90750166Y-104169333D01*
X90716833Y-104136000D01*
G04 #@! TO.C,R56*
X89783500Y-115251666D02*
X89550166Y-114918333D01*
X89383500Y-115251666D02*
X89383500Y-114551666D01*
X89650166Y-114551666D01*
X89716833Y-114585000D01*
X89750166Y-114618333D01*
X89783500Y-114685000D01*
X89783500Y-114785000D01*
X89750166Y-114851666D01*
X89716833Y-114885000D01*
X89650166Y-114918333D01*
X89383500Y-114918333D01*
X90416833Y-114551666D02*
X90083500Y-114551666D01*
X90050166Y-114885000D01*
X90083500Y-114851666D01*
X90150166Y-114818333D01*
X90316833Y-114818333D01*
X90383500Y-114851666D01*
X90416833Y-114885000D01*
X90450166Y-114951666D01*
X90450166Y-115118333D01*
X90416833Y-115185000D01*
X90383500Y-115218333D01*
X90316833Y-115251666D01*
X90150166Y-115251666D01*
X90083500Y-115218333D01*
X90050166Y-115185000D01*
X91050166Y-114551666D02*
X90916833Y-114551666D01*
X90850166Y-114585000D01*
X90816833Y-114618333D01*
X90750166Y-114718333D01*
X90716833Y-114851666D01*
X90716833Y-115118333D01*
X90750166Y-115185000D01*
X90783500Y-115218333D01*
X90850166Y-115251666D01*
X90983500Y-115251666D01*
X91050166Y-115218333D01*
X91083500Y-115185000D01*
X91116833Y-115118333D01*
X91116833Y-114951666D01*
X91083500Y-114885000D01*
X91050166Y-114851666D01*
X90983500Y-114818333D01*
X90850166Y-114818333D01*
X90783500Y-114851666D01*
X90750166Y-114885000D01*
X90716833Y-114951666D01*
G04 #@! TO.C,R57*
X89783500Y-107885666D02*
X89550166Y-107552333D01*
X89383500Y-107885666D02*
X89383500Y-107185666D01*
X89650166Y-107185666D01*
X89716833Y-107219000D01*
X89750166Y-107252333D01*
X89783500Y-107319000D01*
X89783500Y-107419000D01*
X89750166Y-107485666D01*
X89716833Y-107519000D01*
X89650166Y-107552333D01*
X89383500Y-107552333D01*
X90416833Y-107185666D02*
X90083500Y-107185666D01*
X90050166Y-107519000D01*
X90083500Y-107485666D01*
X90150166Y-107452333D01*
X90316833Y-107452333D01*
X90383500Y-107485666D01*
X90416833Y-107519000D01*
X90450166Y-107585666D01*
X90450166Y-107752333D01*
X90416833Y-107819000D01*
X90383500Y-107852333D01*
X90316833Y-107885666D01*
X90150166Y-107885666D01*
X90083500Y-107852333D01*
X90050166Y-107819000D01*
X90683500Y-107185666D02*
X91150166Y-107185666D01*
X90850166Y-107885666D01*
G04 #@! TO.C,R58*
X89783500Y-109790666D02*
X89550166Y-109457333D01*
X89383500Y-109790666D02*
X89383500Y-109090666D01*
X89650166Y-109090666D01*
X89716833Y-109124000D01*
X89750166Y-109157333D01*
X89783500Y-109224000D01*
X89783500Y-109324000D01*
X89750166Y-109390666D01*
X89716833Y-109424000D01*
X89650166Y-109457333D01*
X89383500Y-109457333D01*
X90416833Y-109090666D02*
X90083500Y-109090666D01*
X90050166Y-109424000D01*
X90083500Y-109390666D01*
X90150166Y-109357333D01*
X90316833Y-109357333D01*
X90383500Y-109390666D01*
X90416833Y-109424000D01*
X90450166Y-109490666D01*
X90450166Y-109657333D01*
X90416833Y-109724000D01*
X90383500Y-109757333D01*
X90316833Y-109790666D01*
X90150166Y-109790666D01*
X90083500Y-109757333D01*
X90050166Y-109724000D01*
X90850166Y-109390666D02*
X90783500Y-109357333D01*
X90750166Y-109324000D01*
X90716833Y-109257333D01*
X90716833Y-109224000D01*
X90750166Y-109157333D01*
X90783500Y-109124000D01*
X90850166Y-109090666D01*
X90983500Y-109090666D01*
X91050166Y-109124000D01*
X91083500Y-109157333D01*
X91116833Y-109224000D01*
X91116833Y-109257333D01*
X91083500Y-109324000D01*
X91050166Y-109357333D01*
X90983500Y-109390666D01*
X90850166Y-109390666D01*
X90783500Y-109424000D01*
X90750166Y-109457333D01*
X90716833Y-109524000D01*
X90716833Y-109657333D01*
X90750166Y-109724000D01*
X90783500Y-109757333D01*
X90850166Y-109790666D01*
X90983500Y-109790666D01*
X91050166Y-109757333D01*
X91083500Y-109724000D01*
X91116833Y-109657333D01*
X91116833Y-109524000D01*
X91083500Y-109457333D01*
X91050166Y-109424000D01*
X90983500Y-109390666D01*
G04 #@! TO.C,R59*
X96387500Y-110552666D02*
X96154166Y-110219333D01*
X95987500Y-110552666D02*
X95987500Y-109852666D01*
X96254166Y-109852666D01*
X96320833Y-109886000D01*
X96354166Y-109919333D01*
X96387500Y-109986000D01*
X96387500Y-110086000D01*
X96354166Y-110152666D01*
X96320833Y-110186000D01*
X96254166Y-110219333D01*
X95987500Y-110219333D01*
X97020833Y-109852666D02*
X96687500Y-109852666D01*
X96654166Y-110186000D01*
X96687500Y-110152666D01*
X96754166Y-110119333D01*
X96920833Y-110119333D01*
X96987500Y-110152666D01*
X97020833Y-110186000D01*
X97054166Y-110252666D01*
X97054166Y-110419333D01*
X97020833Y-110486000D01*
X96987500Y-110519333D01*
X96920833Y-110552666D01*
X96754166Y-110552666D01*
X96687500Y-110519333D01*
X96654166Y-110486000D01*
X97387500Y-110552666D02*
X97520833Y-110552666D01*
X97587500Y-110519333D01*
X97620833Y-110486000D01*
X97687500Y-110386000D01*
X97720833Y-110252666D01*
X97720833Y-109986000D01*
X97687500Y-109919333D01*
X97654166Y-109886000D01*
X97587500Y-109852666D01*
X97454166Y-109852666D01*
X97387500Y-109886000D01*
X97354166Y-109919333D01*
X97320833Y-109986000D01*
X97320833Y-110152666D01*
X97354166Y-110219333D01*
X97387500Y-110252666D01*
X97454166Y-110286000D01*
X97587500Y-110286000D01*
X97654166Y-110252666D01*
X97687500Y-110219333D01*
X97720833Y-110152666D01*
G04 #@! TO.C,R60*
X96387500Y-112457666D02*
X96154166Y-112124333D01*
X95987500Y-112457666D02*
X95987500Y-111757666D01*
X96254166Y-111757666D01*
X96320833Y-111791000D01*
X96354166Y-111824333D01*
X96387500Y-111891000D01*
X96387500Y-111991000D01*
X96354166Y-112057666D01*
X96320833Y-112091000D01*
X96254166Y-112124333D01*
X95987500Y-112124333D01*
X96987500Y-111757666D02*
X96854166Y-111757666D01*
X96787500Y-111791000D01*
X96754166Y-111824333D01*
X96687500Y-111924333D01*
X96654166Y-112057666D01*
X96654166Y-112324333D01*
X96687500Y-112391000D01*
X96720833Y-112424333D01*
X96787500Y-112457666D01*
X96920833Y-112457666D01*
X96987500Y-112424333D01*
X97020833Y-112391000D01*
X97054166Y-112324333D01*
X97054166Y-112157666D01*
X97020833Y-112091000D01*
X96987500Y-112057666D01*
X96920833Y-112024333D01*
X96787500Y-112024333D01*
X96720833Y-112057666D01*
X96687500Y-112091000D01*
X96654166Y-112157666D01*
X97487500Y-111757666D02*
X97554166Y-111757666D01*
X97620833Y-111791000D01*
X97654166Y-111824333D01*
X97687500Y-111891000D01*
X97720833Y-112024333D01*
X97720833Y-112191000D01*
X97687500Y-112324333D01*
X97654166Y-112391000D01*
X97620833Y-112424333D01*
X97554166Y-112457666D01*
X97487500Y-112457666D01*
X97420833Y-112424333D01*
X97387500Y-112391000D01*
X97354166Y-112324333D01*
X97320833Y-112191000D01*
X97320833Y-112024333D01*
X97354166Y-111891000D01*
X97387500Y-111824333D01*
X97420833Y-111791000D01*
X97487500Y-111757666D01*
G04 #@! TO.C,R61*
X89847000Y-111695666D02*
X89613666Y-111362333D01*
X89447000Y-111695666D02*
X89447000Y-110995666D01*
X89713666Y-110995666D01*
X89780333Y-111029000D01*
X89813666Y-111062333D01*
X89847000Y-111129000D01*
X89847000Y-111229000D01*
X89813666Y-111295666D01*
X89780333Y-111329000D01*
X89713666Y-111362333D01*
X89447000Y-111362333D01*
X90447000Y-110995666D02*
X90313666Y-110995666D01*
X90247000Y-111029000D01*
X90213666Y-111062333D01*
X90147000Y-111162333D01*
X90113666Y-111295666D01*
X90113666Y-111562333D01*
X90147000Y-111629000D01*
X90180333Y-111662333D01*
X90247000Y-111695666D01*
X90380333Y-111695666D01*
X90447000Y-111662333D01*
X90480333Y-111629000D01*
X90513666Y-111562333D01*
X90513666Y-111395666D01*
X90480333Y-111329000D01*
X90447000Y-111295666D01*
X90380333Y-111262333D01*
X90247000Y-111262333D01*
X90180333Y-111295666D01*
X90147000Y-111329000D01*
X90113666Y-111395666D01*
X91180333Y-111695666D02*
X90780333Y-111695666D01*
X90980333Y-111695666D02*
X90980333Y-110995666D01*
X90913666Y-111095666D01*
X90847000Y-111162333D01*
X90780333Y-111195666D01*
G04 #@! TO.C,D1*
X135503333Y-113887666D02*
X135503333Y-113187666D01*
X135670000Y-113187666D01*
X135770000Y-113221000D01*
X135836666Y-113287666D01*
X135870000Y-113354333D01*
X135903333Y-113487666D01*
X135903333Y-113587666D01*
X135870000Y-113721000D01*
X135836666Y-113787666D01*
X135770000Y-113854333D01*
X135670000Y-113887666D01*
X135503333Y-113887666D01*
X136570000Y-113887666D02*
X136170000Y-113887666D01*
X136370000Y-113887666D02*
X136370000Y-113187666D01*
X136303333Y-113287666D01*
X136236666Y-113354333D01*
X136170000Y-113387666D01*
G04 #@! TO.C,D2*
X112013166Y-107546666D02*
X111313166Y-107546666D01*
X111313166Y-107380000D01*
X111346500Y-107280000D01*
X111413166Y-107213333D01*
X111479833Y-107180000D01*
X111613166Y-107146666D01*
X111713166Y-107146666D01*
X111846500Y-107180000D01*
X111913166Y-107213333D01*
X111979833Y-107280000D01*
X112013166Y-107380000D01*
X112013166Y-107546666D01*
X111379833Y-106880000D02*
X111346500Y-106846666D01*
X111313166Y-106780000D01*
X111313166Y-106613333D01*
X111346500Y-106546666D01*
X111379833Y-106513333D01*
X111446500Y-106480000D01*
X111513166Y-106480000D01*
X111613166Y-106513333D01*
X112013166Y-106913333D01*
X112013166Y-106480000D01*
G04 #@! TO.C,~*
G04 #@! TD*
M02*
