G04 #@! TF.GenerationSoftware,KiCad,Pcbnew,(5.0.1)-4*
G04 #@! TF.CreationDate,2019-01-08T12:08:18+01:00*
G04 #@! TF.ProjectId,1U HiHat,31552048694861742E6B696361645F70,rev?*
G04 #@! TF.SameCoordinates,Original*
G04 #@! TF.FileFunction,Paste,Bot*
G04 #@! TF.FilePolarity,Positive*
%FSLAX46Y46*%
G04 Gerber Fmt 4.6, Leading zero omitted, Abs format (unit mm)*
G04 Created by KiCad (PCBNEW (5.0.1)-4) date 01/08/19 12:08:18*
%MOMM*%
%LPD*%
G01*
G04 APERTURE LIST*
%ADD10R,3.000000X1.600000*%
%ADD11R,2.600000X1.600000*%
%ADD12C,0.100000*%
%ADD13C,0.950000*%
G04 APERTURE END LIST*
D10*
G04 #@! TO.C,C1*
X116227500Y-80645000D03*
X120627500Y-80645000D03*
G04 #@! TD*
G04 #@! TO.C,C7*
X129758500Y-80645000D03*
X125358500Y-80645000D03*
G04 #@! TD*
D11*
G04 #@! TO.C,C12*
X111782000Y-80200500D03*
X108182000Y-80200500D03*
G04 #@! TD*
D10*
G04 #@! TO.C,C13*
X99273000Y-79810500D03*
X103673000Y-79810500D03*
G04 #@! TD*
D11*
G04 #@! TO.C,C21*
X117227500Y-85979000D03*
X120827500Y-85979000D03*
G04 #@! TD*
G04 #@! TO.C,C24*
X128758500Y-85979000D03*
X125158500Y-85979000D03*
G04 #@! TD*
D12*
G04 #@! TO.C,R4*
G36*
X94113779Y-79035144D02*
X94136834Y-79038563D01*
X94159443Y-79044227D01*
X94181387Y-79052079D01*
X94202457Y-79062044D01*
X94222448Y-79074026D01*
X94241168Y-79087910D01*
X94258438Y-79103562D01*
X94274090Y-79120832D01*
X94287974Y-79139552D01*
X94299956Y-79159543D01*
X94309921Y-79180613D01*
X94317773Y-79202557D01*
X94323437Y-79225166D01*
X94326856Y-79248221D01*
X94328000Y-79271500D01*
X94328000Y-79846500D01*
X94326856Y-79869779D01*
X94323437Y-79892834D01*
X94317773Y-79915443D01*
X94309921Y-79937387D01*
X94299956Y-79958457D01*
X94287974Y-79978448D01*
X94274090Y-79997168D01*
X94258438Y-80014438D01*
X94241168Y-80030090D01*
X94222448Y-80043974D01*
X94202457Y-80055956D01*
X94181387Y-80065921D01*
X94159443Y-80073773D01*
X94136834Y-80079437D01*
X94113779Y-80082856D01*
X94090500Y-80084000D01*
X93615500Y-80084000D01*
X93592221Y-80082856D01*
X93569166Y-80079437D01*
X93546557Y-80073773D01*
X93524613Y-80065921D01*
X93503543Y-80055956D01*
X93483552Y-80043974D01*
X93464832Y-80030090D01*
X93447562Y-80014438D01*
X93431910Y-79997168D01*
X93418026Y-79978448D01*
X93406044Y-79958457D01*
X93396079Y-79937387D01*
X93388227Y-79915443D01*
X93382563Y-79892834D01*
X93379144Y-79869779D01*
X93378000Y-79846500D01*
X93378000Y-79271500D01*
X93379144Y-79248221D01*
X93382563Y-79225166D01*
X93388227Y-79202557D01*
X93396079Y-79180613D01*
X93406044Y-79159543D01*
X93418026Y-79139552D01*
X93431910Y-79120832D01*
X93447562Y-79103562D01*
X93464832Y-79087910D01*
X93483552Y-79074026D01*
X93503543Y-79062044D01*
X93524613Y-79052079D01*
X93546557Y-79044227D01*
X93569166Y-79038563D01*
X93592221Y-79035144D01*
X93615500Y-79034000D01*
X94090500Y-79034000D01*
X94113779Y-79035144D01*
X94113779Y-79035144D01*
G37*
D13*
X93853000Y-79559000D03*
D12*
G36*
X94113779Y-80785144D02*
X94136834Y-80788563D01*
X94159443Y-80794227D01*
X94181387Y-80802079D01*
X94202457Y-80812044D01*
X94222448Y-80824026D01*
X94241168Y-80837910D01*
X94258438Y-80853562D01*
X94274090Y-80870832D01*
X94287974Y-80889552D01*
X94299956Y-80909543D01*
X94309921Y-80930613D01*
X94317773Y-80952557D01*
X94323437Y-80975166D01*
X94326856Y-80998221D01*
X94328000Y-81021500D01*
X94328000Y-81596500D01*
X94326856Y-81619779D01*
X94323437Y-81642834D01*
X94317773Y-81665443D01*
X94309921Y-81687387D01*
X94299956Y-81708457D01*
X94287974Y-81728448D01*
X94274090Y-81747168D01*
X94258438Y-81764438D01*
X94241168Y-81780090D01*
X94222448Y-81793974D01*
X94202457Y-81805956D01*
X94181387Y-81815921D01*
X94159443Y-81823773D01*
X94136834Y-81829437D01*
X94113779Y-81832856D01*
X94090500Y-81834000D01*
X93615500Y-81834000D01*
X93592221Y-81832856D01*
X93569166Y-81829437D01*
X93546557Y-81823773D01*
X93524613Y-81815921D01*
X93503543Y-81805956D01*
X93483552Y-81793974D01*
X93464832Y-81780090D01*
X93447562Y-81764438D01*
X93431910Y-81747168D01*
X93418026Y-81728448D01*
X93406044Y-81708457D01*
X93396079Y-81687387D01*
X93388227Y-81665443D01*
X93382563Y-81642834D01*
X93379144Y-81619779D01*
X93378000Y-81596500D01*
X93378000Y-81021500D01*
X93379144Y-80998221D01*
X93382563Y-80975166D01*
X93388227Y-80952557D01*
X93396079Y-80930613D01*
X93406044Y-80909543D01*
X93418026Y-80889552D01*
X93431910Y-80870832D01*
X93447562Y-80853562D01*
X93464832Y-80837910D01*
X93483552Y-80824026D01*
X93503543Y-80812044D01*
X93524613Y-80802079D01*
X93546557Y-80794227D01*
X93569166Y-80788563D01*
X93592221Y-80785144D01*
X93615500Y-80784000D01*
X94090500Y-80784000D01*
X94113779Y-80785144D01*
X94113779Y-80785144D01*
G37*
D13*
X93853000Y-81309000D03*
G04 #@! TD*
D12*
G04 #@! TO.C,R15*
G36*
X129927779Y-66866644D02*
X129950834Y-66870063D01*
X129973443Y-66875727D01*
X129995387Y-66883579D01*
X130016457Y-66893544D01*
X130036448Y-66905526D01*
X130055168Y-66919410D01*
X130072438Y-66935062D01*
X130088090Y-66952332D01*
X130101974Y-66971052D01*
X130113956Y-66991043D01*
X130123921Y-67012113D01*
X130131773Y-67034057D01*
X130137437Y-67056666D01*
X130140856Y-67079721D01*
X130142000Y-67103000D01*
X130142000Y-67678000D01*
X130140856Y-67701279D01*
X130137437Y-67724334D01*
X130131773Y-67746943D01*
X130123921Y-67768887D01*
X130113956Y-67789957D01*
X130101974Y-67809948D01*
X130088090Y-67828668D01*
X130072438Y-67845938D01*
X130055168Y-67861590D01*
X130036448Y-67875474D01*
X130016457Y-67887456D01*
X129995387Y-67897421D01*
X129973443Y-67905273D01*
X129950834Y-67910937D01*
X129927779Y-67914356D01*
X129904500Y-67915500D01*
X129429500Y-67915500D01*
X129406221Y-67914356D01*
X129383166Y-67910937D01*
X129360557Y-67905273D01*
X129338613Y-67897421D01*
X129317543Y-67887456D01*
X129297552Y-67875474D01*
X129278832Y-67861590D01*
X129261562Y-67845938D01*
X129245910Y-67828668D01*
X129232026Y-67809948D01*
X129220044Y-67789957D01*
X129210079Y-67768887D01*
X129202227Y-67746943D01*
X129196563Y-67724334D01*
X129193144Y-67701279D01*
X129192000Y-67678000D01*
X129192000Y-67103000D01*
X129193144Y-67079721D01*
X129196563Y-67056666D01*
X129202227Y-67034057D01*
X129210079Y-67012113D01*
X129220044Y-66991043D01*
X129232026Y-66971052D01*
X129245910Y-66952332D01*
X129261562Y-66935062D01*
X129278832Y-66919410D01*
X129297552Y-66905526D01*
X129317543Y-66893544D01*
X129338613Y-66883579D01*
X129360557Y-66875727D01*
X129383166Y-66870063D01*
X129406221Y-66866644D01*
X129429500Y-66865500D01*
X129904500Y-66865500D01*
X129927779Y-66866644D01*
X129927779Y-66866644D01*
G37*
D13*
X129667000Y-67390500D03*
D12*
G36*
X129927779Y-65116644D02*
X129950834Y-65120063D01*
X129973443Y-65125727D01*
X129995387Y-65133579D01*
X130016457Y-65143544D01*
X130036448Y-65155526D01*
X130055168Y-65169410D01*
X130072438Y-65185062D01*
X130088090Y-65202332D01*
X130101974Y-65221052D01*
X130113956Y-65241043D01*
X130123921Y-65262113D01*
X130131773Y-65284057D01*
X130137437Y-65306666D01*
X130140856Y-65329721D01*
X130142000Y-65353000D01*
X130142000Y-65928000D01*
X130140856Y-65951279D01*
X130137437Y-65974334D01*
X130131773Y-65996943D01*
X130123921Y-66018887D01*
X130113956Y-66039957D01*
X130101974Y-66059948D01*
X130088090Y-66078668D01*
X130072438Y-66095938D01*
X130055168Y-66111590D01*
X130036448Y-66125474D01*
X130016457Y-66137456D01*
X129995387Y-66147421D01*
X129973443Y-66155273D01*
X129950834Y-66160937D01*
X129927779Y-66164356D01*
X129904500Y-66165500D01*
X129429500Y-66165500D01*
X129406221Y-66164356D01*
X129383166Y-66160937D01*
X129360557Y-66155273D01*
X129338613Y-66147421D01*
X129317543Y-66137456D01*
X129297552Y-66125474D01*
X129278832Y-66111590D01*
X129261562Y-66095938D01*
X129245910Y-66078668D01*
X129232026Y-66059948D01*
X129220044Y-66039957D01*
X129210079Y-66018887D01*
X129202227Y-65996943D01*
X129196563Y-65974334D01*
X129193144Y-65951279D01*
X129192000Y-65928000D01*
X129192000Y-65353000D01*
X129193144Y-65329721D01*
X129196563Y-65306666D01*
X129202227Y-65284057D01*
X129210079Y-65262113D01*
X129220044Y-65241043D01*
X129232026Y-65221052D01*
X129245910Y-65202332D01*
X129261562Y-65185062D01*
X129278832Y-65169410D01*
X129297552Y-65155526D01*
X129317543Y-65143544D01*
X129338613Y-65133579D01*
X129360557Y-65125727D01*
X129383166Y-65120063D01*
X129406221Y-65116644D01*
X129429500Y-65115500D01*
X129904500Y-65115500D01*
X129927779Y-65116644D01*
X129927779Y-65116644D01*
G37*
D13*
X129667000Y-65640500D03*
G04 #@! TD*
D12*
G04 #@! TO.C,R28*
G36*
X91446779Y-80785144D02*
X91469834Y-80788563D01*
X91492443Y-80794227D01*
X91514387Y-80802079D01*
X91535457Y-80812044D01*
X91555448Y-80824026D01*
X91574168Y-80837910D01*
X91591438Y-80853562D01*
X91607090Y-80870832D01*
X91620974Y-80889552D01*
X91632956Y-80909543D01*
X91642921Y-80930613D01*
X91650773Y-80952557D01*
X91656437Y-80975166D01*
X91659856Y-80998221D01*
X91661000Y-81021500D01*
X91661000Y-81596500D01*
X91659856Y-81619779D01*
X91656437Y-81642834D01*
X91650773Y-81665443D01*
X91642921Y-81687387D01*
X91632956Y-81708457D01*
X91620974Y-81728448D01*
X91607090Y-81747168D01*
X91591438Y-81764438D01*
X91574168Y-81780090D01*
X91555448Y-81793974D01*
X91535457Y-81805956D01*
X91514387Y-81815921D01*
X91492443Y-81823773D01*
X91469834Y-81829437D01*
X91446779Y-81832856D01*
X91423500Y-81834000D01*
X90948500Y-81834000D01*
X90925221Y-81832856D01*
X90902166Y-81829437D01*
X90879557Y-81823773D01*
X90857613Y-81815921D01*
X90836543Y-81805956D01*
X90816552Y-81793974D01*
X90797832Y-81780090D01*
X90780562Y-81764438D01*
X90764910Y-81747168D01*
X90751026Y-81728448D01*
X90739044Y-81708457D01*
X90729079Y-81687387D01*
X90721227Y-81665443D01*
X90715563Y-81642834D01*
X90712144Y-81619779D01*
X90711000Y-81596500D01*
X90711000Y-81021500D01*
X90712144Y-80998221D01*
X90715563Y-80975166D01*
X90721227Y-80952557D01*
X90729079Y-80930613D01*
X90739044Y-80909543D01*
X90751026Y-80889552D01*
X90764910Y-80870832D01*
X90780562Y-80853562D01*
X90797832Y-80837910D01*
X90816552Y-80824026D01*
X90836543Y-80812044D01*
X90857613Y-80802079D01*
X90879557Y-80794227D01*
X90902166Y-80788563D01*
X90925221Y-80785144D01*
X90948500Y-80784000D01*
X91423500Y-80784000D01*
X91446779Y-80785144D01*
X91446779Y-80785144D01*
G37*
D13*
X91186000Y-81309000D03*
D12*
G36*
X91446779Y-79035144D02*
X91469834Y-79038563D01*
X91492443Y-79044227D01*
X91514387Y-79052079D01*
X91535457Y-79062044D01*
X91555448Y-79074026D01*
X91574168Y-79087910D01*
X91591438Y-79103562D01*
X91607090Y-79120832D01*
X91620974Y-79139552D01*
X91632956Y-79159543D01*
X91642921Y-79180613D01*
X91650773Y-79202557D01*
X91656437Y-79225166D01*
X91659856Y-79248221D01*
X91661000Y-79271500D01*
X91661000Y-79846500D01*
X91659856Y-79869779D01*
X91656437Y-79892834D01*
X91650773Y-79915443D01*
X91642921Y-79937387D01*
X91632956Y-79958457D01*
X91620974Y-79978448D01*
X91607090Y-79997168D01*
X91591438Y-80014438D01*
X91574168Y-80030090D01*
X91555448Y-80043974D01*
X91535457Y-80055956D01*
X91514387Y-80065921D01*
X91492443Y-80073773D01*
X91469834Y-80079437D01*
X91446779Y-80082856D01*
X91423500Y-80084000D01*
X90948500Y-80084000D01*
X90925221Y-80082856D01*
X90902166Y-80079437D01*
X90879557Y-80073773D01*
X90857613Y-80065921D01*
X90836543Y-80055956D01*
X90816552Y-80043974D01*
X90797832Y-80030090D01*
X90780562Y-80014438D01*
X90764910Y-79997168D01*
X90751026Y-79978448D01*
X90739044Y-79958457D01*
X90729079Y-79937387D01*
X90721227Y-79915443D01*
X90715563Y-79892834D01*
X90712144Y-79869779D01*
X90711000Y-79846500D01*
X90711000Y-79271500D01*
X90712144Y-79248221D01*
X90715563Y-79225166D01*
X90721227Y-79202557D01*
X90729079Y-79180613D01*
X90739044Y-79159543D01*
X90751026Y-79139552D01*
X90764910Y-79120832D01*
X90780562Y-79103562D01*
X90797832Y-79087910D01*
X90816552Y-79074026D01*
X90836543Y-79062044D01*
X90857613Y-79052079D01*
X90879557Y-79044227D01*
X90902166Y-79038563D01*
X90925221Y-79035144D01*
X90948500Y-79034000D01*
X91423500Y-79034000D01*
X91446779Y-79035144D01*
X91446779Y-79035144D01*
G37*
D13*
X91186000Y-79559000D03*
G04 #@! TD*
M02*
