G04 #@! TF.GenerationSoftware,KiCad,Pcbnew,(5.0.1)-4*
G04 #@! TF.CreationDate,2019-01-08T12:08:18+01:00*
G04 #@! TF.ProjectId,1U HiHat,31552048694861742E6B696361645F70,rev?*
G04 #@! TF.SameCoordinates,Original*
G04 #@! TF.FileFunction,Copper,L2,Bot,Signal*
G04 #@! TF.FilePolarity,Positive*
%FSLAX46Y46*%
G04 Gerber Fmt 4.6, Leading zero omitted, Abs format (unit mm)*
G04 Created by KiCad (PCBNEW (5.0.1)-4) date 01/08/19 12:08:18*
%MOMM*%
%LPD*%
G01*
G04 APERTURE LIST*
G04 #@! TA.AperFunction,WasherPad*
%ADD10C,2.800000*%
G04 #@! TD*
G04 #@! TA.AperFunction,ComponentPad*
%ADD11C,1.930400*%
G04 #@! TD*
G04 #@! TA.AperFunction,ComponentPad*
%ADD12R,1.700000X1.700000*%
G04 #@! TD*
G04 #@! TA.AperFunction,ComponentPad*
%ADD13O,1.700000X1.700000*%
G04 #@! TD*
G04 #@! TA.AperFunction,ComponentPad*
%ADD14C,2.667000*%
G04 #@! TD*
G04 #@! TA.AperFunction,ComponentPad*
%ADD15C,1.803400*%
G04 #@! TD*
G04 #@! TA.AperFunction,SMDPad,CuDef*
%ADD16R,3.000000X1.600000*%
G04 #@! TD*
G04 #@! TA.AperFunction,SMDPad,CuDef*
%ADD17R,2.600000X1.600000*%
G04 #@! TD*
G04 #@! TA.AperFunction,Conductor*
%ADD18C,0.100000*%
G04 #@! TD*
G04 #@! TA.AperFunction,SMDPad,CuDef*
%ADD19C,0.950000*%
G04 #@! TD*
G04 #@! TA.AperFunction,ViaPad*
%ADD20C,0.800000*%
G04 #@! TD*
G04 #@! TA.AperFunction,Conductor*
%ADD21C,0.250000*%
G04 #@! TD*
G04 #@! TA.AperFunction,Conductor*
%ADD22C,0.127000*%
G04 #@! TD*
G04 #@! TA.AperFunction,Conductor*
%ADD23C,0.170000*%
G04 #@! TD*
G04 APERTURE END LIST*
D10*
G04 #@! TO.P,J1,*
G04 #@! TO.N,*
X137668000Y-77978000D03*
D11*
G04 #@! TO.P,J1,TN*
G04 #@! TO.N,Net-(J1-PadTN)*
X134315200Y-77978000D03*
G04 #@! TO.P,J1,S*
G04 #@! TO.N,GND*
X131902200Y-77978000D03*
G04 #@! TO.P,J1,T*
G04 #@! TO.N,Net-(J1-PadT)*
X142875000Y-77978000D03*
G04 #@! TD*
D10*
G04 #@! TO.P,J2,*
G04 #@! TO.N,*
X137668000Y-87376000D03*
D11*
G04 #@! TO.P,J2,TN*
G04 #@! TO.N,Net-(J2-PadTN)*
X134315200Y-87376000D03*
G04 #@! TO.P,J2,S*
G04 #@! TO.N,GND*
X131902200Y-87376000D03*
G04 #@! TO.P,J2,T*
G04 #@! TO.N,Net-(J2-PadT)*
X142875000Y-87376000D03*
G04 #@! TD*
D10*
G04 #@! TO.P,J3,*
G04 #@! TO.N,*
X137668000Y-68580000D03*
D11*
G04 #@! TO.P,J3,TN*
G04 #@! TO.N,Net-(J3-PadTN)*
X134315200Y-68580000D03*
G04 #@! TO.P,J3,S*
G04 #@! TO.N,GND*
X131902200Y-68580000D03*
G04 #@! TO.P,J3,T*
G04 #@! TO.N,Net-(J3-PadT)*
X142875000Y-68580000D03*
G04 #@! TD*
D10*
G04 #@! TO.P,J4,*
G04 #@! TO.N,*
X107696000Y-87376000D03*
D11*
G04 #@! TO.P,J4,TN*
G04 #@! TO.N,Net-(J4-PadTN)*
X104343200Y-87376000D03*
G04 #@! TO.P,J4,S*
G04 #@! TO.N,GND*
X101930200Y-87376000D03*
G04 #@! TO.P,J4,T*
G04 #@! TO.N,Net-(J4-PadT)*
X112903000Y-87376000D03*
G04 #@! TD*
D10*
G04 #@! TO.P,J5,*
G04 #@! TO.N,*
X96164400Y-87376000D03*
D11*
G04 #@! TO.P,J5,TN*
G04 #@! TO.N,Net-(J5-PadTN)*
X99517200Y-87376000D03*
G04 #@! TO.P,J5,S*
G04 #@! TO.N,GND*
X101930200Y-87376000D03*
G04 #@! TO.P,J5,T*
G04 #@! TO.N,Net-(J5-PadT)*
X90957400Y-87376000D03*
G04 #@! TD*
D12*
G04 #@! TO.P,J6,1*
G04 #@! TO.N,CH_LVL1*
X116840000Y-90297000D03*
D13*
G04 #@! TO.P,J6,2*
G04 #@! TO.N,CH_LVL2*
X119380000Y-90297000D03*
G04 #@! TO.P,J6,3*
G04 #@! TO.N,OH_LVL1*
X121920000Y-90297000D03*
G04 #@! TO.P,J6,4*
G04 #@! TO.N,OH_LVL2*
X124460000Y-90297000D03*
G04 #@! TO.P,J6,5*
G04 #@! TO.N,TO_OH*
X127000000Y-90297000D03*
G04 #@! TO.P,J6,6*
G04 #@! TO.N,TO_CH*
X129540000Y-90297000D03*
G04 #@! TD*
D12*
G04 #@! TO.P,J7,1*
G04 #@! TO.N,CH_LVL1*
X116840000Y-120015000D03*
D13*
G04 #@! TO.P,J7,2*
G04 #@! TO.N,CH_LVL2*
X119380000Y-120015000D03*
G04 #@! TO.P,J7,3*
G04 #@! TO.N,OH_LVL1*
X121920000Y-120015000D03*
G04 #@! TO.P,J7,4*
G04 #@! TO.N,OH_LVL2*
X124460000Y-120015000D03*
G04 #@! TO.P,J7,5*
G04 #@! TO.N,TO_OH*
X127000000Y-120015000D03*
G04 #@! TO.P,J7,6*
G04 #@! TO.N,TO_CH*
X129540000Y-120015000D03*
G04 #@! TD*
D12*
G04 #@! TO.P,J8,1*
G04 #@! TO.N,GND*
X119380000Y-96926400D03*
D13*
G04 #@! TO.P,J8,2*
G04 #@! TO.N,+12V*
X119380000Y-99466400D03*
G04 #@! TO.P,J8,3*
G04 #@! TO.N,-12V*
X119380000Y-102006400D03*
G04 #@! TD*
D12*
G04 #@! TO.P,J9,1*
G04 #@! TO.N,GND*
X115569837Y-66675000D03*
D13*
G04 #@! TO.P,J9,2*
G04 #@! TO.N,+12V*
X115569837Y-69215000D03*
G04 #@! TO.P,J9,3*
G04 #@! TO.N,-12V*
X115569837Y-71755000D03*
G04 #@! TD*
G04 #@! TO.P,J10,3*
G04 #@! TO.N,-12V*
X115619837Y-102006400D03*
G04 #@! TO.P,J10,2*
G04 #@! TO.N,+12V*
X115619837Y-99466400D03*
D12*
G04 #@! TO.P,J10,1*
G04 #@! TO.N,GND*
X115619837Y-96926400D03*
G04 #@! TD*
D14*
G04 #@! TO.P,Decay,5*
G04 #@! TO.N,N/C*
X118795637Y-69597843D03*
G04 #@! TO.P,Decay,4*
X127584037Y-69597843D03*
D15*
G04 #@! TO.P,Decay,1*
G04 #@! TO.N,+12V*
X125729837Y-76608243D03*
G04 #@! TO.P,Decay,2*
G04 #@! TO.N,Net-(P1-Pad2)*
X123189837Y-76608243D03*
G04 #@! TO.P,Decay,3*
X120649837Y-76608243D03*
G04 #@! TD*
D14*
G04 #@! TO.P,OH Lvl,5*
G04 #@! TO.N,N/C*
X103555637Y-69597843D03*
G04 #@! TO.P,OH Lvl,4*
X112344037Y-69597843D03*
D15*
G04 #@! TO.P,OH Lvl,1*
G04 #@! TO.N,Net-(C1-Pad1)*
X110489837Y-76608243D03*
G04 #@! TO.P,OH Lvl,2*
G04 #@! TO.N,OH_LVL2*
X107949837Y-76608243D03*
G04 #@! TO.P,OH Lvl,3*
X105409837Y-76608243D03*
G04 #@! TD*
G04 #@! TO.P,CH Lvl,3*
G04 #@! TO.N,CH_LVL2*
X92963837Y-76608243D03*
G04 #@! TO.P,CH Lvl,2*
X95503837Y-76608243D03*
G04 #@! TO.P,CH Lvl,1*
G04 #@! TO.N,Net-(C13-Pad1)*
X98043837Y-76608243D03*
D14*
G04 #@! TO.P,CH Lvl,4*
G04 #@! TO.N,N/C*
X99898037Y-69597843D03*
G04 #@! TO.P,CH Lvl,5*
X91109637Y-69597843D03*
G04 #@! TD*
D16*
G04 #@! TO.P,C1,1*
G04 #@! TO.N,Net-(C1-Pad1)*
X116227500Y-80645000D03*
G04 #@! TO.P,C1,2*
G04 #@! TO.N,OH_LVL1*
X120627500Y-80645000D03*
G04 #@! TD*
G04 #@! TO.P,C7,2*
G04 #@! TO.N,GND*
X129758500Y-80645000D03*
G04 #@! TO.P,C7,1*
G04 #@! TO.N,Net-(C7-Pad1)*
X125358500Y-80645000D03*
G04 #@! TD*
D17*
G04 #@! TO.P,C12,1*
G04 #@! TO.N,Net-(C12-Pad1)*
X111782000Y-80200500D03*
G04 #@! TO.P,C12,2*
G04 #@! TO.N,GND*
X108182000Y-80200500D03*
G04 #@! TD*
D16*
G04 #@! TO.P,C13,1*
G04 #@! TO.N,Net-(C13-Pad1)*
X99273000Y-79810500D03*
G04 #@! TO.P,C13,2*
G04 #@! TO.N,CH_LVL1*
X103673000Y-79810500D03*
G04 #@! TD*
D17*
G04 #@! TO.P,C21,2*
G04 #@! TO.N,GND*
X117227500Y-85979000D03*
G04 #@! TO.P,C21,1*
G04 #@! TO.N,Net-(C21-Pad1)*
X120827500Y-85979000D03*
G04 #@! TD*
G04 #@! TO.P,C24,1*
G04 #@! TO.N,Net-(C24-Pad1)*
X128758500Y-85979000D03*
G04 #@! TO.P,C24,2*
G04 #@! TO.N,GND*
X125158500Y-85979000D03*
G04 #@! TD*
D18*
G04 #@! TO.N,OH_LVL2*
G04 #@! TO.C,R4*
G36*
X94113779Y-79035144D02*
X94136834Y-79038563D01*
X94159443Y-79044227D01*
X94181387Y-79052079D01*
X94202457Y-79062044D01*
X94222448Y-79074026D01*
X94241168Y-79087910D01*
X94258438Y-79103562D01*
X94274090Y-79120832D01*
X94287974Y-79139552D01*
X94299956Y-79159543D01*
X94309921Y-79180613D01*
X94317773Y-79202557D01*
X94323437Y-79225166D01*
X94326856Y-79248221D01*
X94328000Y-79271500D01*
X94328000Y-79846500D01*
X94326856Y-79869779D01*
X94323437Y-79892834D01*
X94317773Y-79915443D01*
X94309921Y-79937387D01*
X94299956Y-79958457D01*
X94287974Y-79978448D01*
X94274090Y-79997168D01*
X94258438Y-80014438D01*
X94241168Y-80030090D01*
X94222448Y-80043974D01*
X94202457Y-80055956D01*
X94181387Y-80065921D01*
X94159443Y-80073773D01*
X94136834Y-80079437D01*
X94113779Y-80082856D01*
X94090500Y-80084000D01*
X93615500Y-80084000D01*
X93592221Y-80082856D01*
X93569166Y-80079437D01*
X93546557Y-80073773D01*
X93524613Y-80065921D01*
X93503543Y-80055956D01*
X93483552Y-80043974D01*
X93464832Y-80030090D01*
X93447562Y-80014438D01*
X93431910Y-79997168D01*
X93418026Y-79978448D01*
X93406044Y-79958457D01*
X93396079Y-79937387D01*
X93388227Y-79915443D01*
X93382563Y-79892834D01*
X93379144Y-79869779D01*
X93378000Y-79846500D01*
X93378000Y-79271500D01*
X93379144Y-79248221D01*
X93382563Y-79225166D01*
X93388227Y-79202557D01*
X93396079Y-79180613D01*
X93406044Y-79159543D01*
X93418026Y-79139552D01*
X93431910Y-79120832D01*
X93447562Y-79103562D01*
X93464832Y-79087910D01*
X93483552Y-79074026D01*
X93503543Y-79062044D01*
X93524613Y-79052079D01*
X93546557Y-79044227D01*
X93569166Y-79038563D01*
X93592221Y-79035144D01*
X93615500Y-79034000D01*
X94090500Y-79034000D01*
X94113779Y-79035144D01*
X94113779Y-79035144D01*
G37*
D19*
G04 #@! TD*
G04 #@! TO.P,R4,1*
G04 #@! TO.N,OH_LVL2*
X93853000Y-79559000D03*
D18*
G04 #@! TO.N,Net-(J4-PadT)*
G04 #@! TO.C,R4*
G36*
X94113779Y-80785144D02*
X94136834Y-80788563D01*
X94159443Y-80794227D01*
X94181387Y-80802079D01*
X94202457Y-80812044D01*
X94222448Y-80824026D01*
X94241168Y-80837910D01*
X94258438Y-80853562D01*
X94274090Y-80870832D01*
X94287974Y-80889552D01*
X94299956Y-80909543D01*
X94309921Y-80930613D01*
X94317773Y-80952557D01*
X94323437Y-80975166D01*
X94326856Y-80998221D01*
X94328000Y-81021500D01*
X94328000Y-81596500D01*
X94326856Y-81619779D01*
X94323437Y-81642834D01*
X94317773Y-81665443D01*
X94309921Y-81687387D01*
X94299956Y-81708457D01*
X94287974Y-81728448D01*
X94274090Y-81747168D01*
X94258438Y-81764438D01*
X94241168Y-81780090D01*
X94222448Y-81793974D01*
X94202457Y-81805956D01*
X94181387Y-81815921D01*
X94159443Y-81823773D01*
X94136834Y-81829437D01*
X94113779Y-81832856D01*
X94090500Y-81834000D01*
X93615500Y-81834000D01*
X93592221Y-81832856D01*
X93569166Y-81829437D01*
X93546557Y-81823773D01*
X93524613Y-81815921D01*
X93503543Y-81805956D01*
X93483552Y-81793974D01*
X93464832Y-81780090D01*
X93447562Y-81764438D01*
X93431910Y-81747168D01*
X93418026Y-81728448D01*
X93406044Y-81708457D01*
X93396079Y-81687387D01*
X93388227Y-81665443D01*
X93382563Y-81642834D01*
X93379144Y-81619779D01*
X93378000Y-81596500D01*
X93378000Y-81021500D01*
X93379144Y-80998221D01*
X93382563Y-80975166D01*
X93388227Y-80952557D01*
X93396079Y-80930613D01*
X93406044Y-80909543D01*
X93418026Y-80889552D01*
X93431910Y-80870832D01*
X93447562Y-80853562D01*
X93464832Y-80837910D01*
X93483552Y-80824026D01*
X93503543Y-80812044D01*
X93524613Y-80802079D01*
X93546557Y-80794227D01*
X93569166Y-80788563D01*
X93592221Y-80785144D01*
X93615500Y-80784000D01*
X94090500Y-80784000D01*
X94113779Y-80785144D01*
X94113779Y-80785144D01*
G37*
D19*
G04 #@! TD*
G04 #@! TO.P,R4,2*
G04 #@! TO.N,Net-(J4-PadT)*
X93853000Y-81309000D03*
D18*
G04 #@! TO.N,+12V*
G04 #@! TO.C,R15*
G36*
X129927779Y-66866644D02*
X129950834Y-66870063D01*
X129973443Y-66875727D01*
X129995387Y-66883579D01*
X130016457Y-66893544D01*
X130036448Y-66905526D01*
X130055168Y-66919410D01*
X130072438Y-66935062D01*
X130088090Y-66952332D01*
X130101974Y-66971052D01*
X130113956Y-66991043D01*
X130123921Y-67012113D01*
X130131773Y-67034057D01*
X130137437Y-67056666D01*
X130140856Y-67079721D01*
X130142000Y-67103000D01*
X130142000Y-67678000D01*
X130140856Y-67701279D01*
X130137437Y-67724334D01*
X130131773Y-67746943D01*
X130123921Y-67768887D01*
X130113956Y-67789957D01*
X130101974Y-67809948D01*
X130088090Y-67828668D01*
X130072438Y-67845938D01*
X130055168Y-67861590D01*
X130036448Y-67875474D01*
X130016457Y-67887456D01*
X129995387Y-67897421D01*
X129973443Y-67905273D01*
X129950834Y-67910937D01*
X129927779Y-67914356D01*
X129904500Y-67915500D01*
X129429500Y-67915500D01*
X129406221Y-67914356D01*
X129383166Y-67910937D01*
X129360557Y-67905273D01*
X129338613Y-67897421D01*
X129317543Y-67887456D01*
X129297552Y-67875474D01*
X129278832Y-67861590D01*
X129261562Y-67845938D01*
X129245910Y-67828668D01*
X129232026Y-67809948D01*
X129220044Y-67789957D01*
X129210079Y-67768887D01*
X129202227Y-67746943D01*
X129196563Y-67724334D01*
X129193144Y-67701279D01*
X129192000Y-67678000D01*
X129192000Y-67103000D01*
X129193144Y-67079721D01*
X129196563Y-67056666D01*
X129202227Y-67034057D01*
X129210079Y-67012113D01*
X129220044Y-66991043D01*
X129232026Y-66971052D01*
X129245910Y-66952332D01*
X129261562Y-66935062D01*
X129278832Y-66919410D01*
X129297552Y-66905526D01*
X129317543Y-66893544D01*
X129338613Y-66883579D01*
X129360557Y-66875727D01*
X129383166Y-66870063D01*
X129406221Y-66866644D01*
X129429500Y-66865500D01*
X129904500Y-66865500D01*
X129927779Y-66866644D01*
X129927779Y-66866644D01*
G37*
D19*
G04 #@! TD*
G04 #@! TO.P,R15,1*
G04 #@! TO.N,+12V*
X129667000Y-67390500D03*
D18*
G04 #@! TO.N,Net-(C7-Pad1)*
G04 #@! TO.C,R15*
G36*
X129927779Y-65116644D02*
X129950834Y-65120063D01*
X129973443Y-65125727D01*
X129995387Y-65133579D01*
X130016457Y-65143544D01*
X130036448Y-65155526D01*
X130055168Y-65169410D01*
X130072438Y-65185062D01*
X130088090Y-65202332D01*
X130101974Y-65221052D01*
X130113956Y-65241043D01*
X130123921Y-65262113D01*
X130131773Y-65284057D01*
X130137437Y-65306666D01*
X130140856Y-65329721D01*
X130142000Y-65353000D01*
X130142000Y-65928000D01*
X130140856Y-65951279D01*
X130137437Y-65974334D01*
X130131773Y-65996943D01*
X130123921Y-66018887D01*
X130113956Y-66039957D01*
X130101974Y-66059948D01*
X130088090Y-66078668D01*
X130072438Y-66095938D01*
X130055168Y-66111590D01*
X130036448Y-66125474D01*
X130016457Y-66137456D01*
X129995387Y-66147421D01*
X129973443Y-66155273D01*
X129950834Y-66160937D01*
X129927779Y-66164356D01*
X129904500Y-66165500D01*
X129429500Y-66165500D01*
X129406221Y-66164356D01*
X129383166Y-66160937D01*
X129360557Y-66155273D01*
X129338613Y-66147421D01*
X129317543Y-66137456D01*
X129297552Y-66125474D01*
X129278832Y-66111590D01*
X129261562Y-66095938D01*
X129245910Y-66078668D01*
X129232026Y-66059948D01*
X129220044Y-66039957D01*
X129210079Y-66018887D01*
X129202227Y-65996943D01*
X129196563Y-65974334D01*
X129193144Y-65951279D01*
X129192000Y-65928000D01*
X129192000Y-65353000D01*
X129193144Y-65329721D01*
X129196563Y-65306666D01*
X129202227Y-65284057D01*
X129210079Y-65262113D01*
X129220044Y-65241043D01*
X129232026Y-65221052D01*
X129245910Y-65202332D01*
X129261562Y-65185062D01*
X129278832Y-65169410D01*
X129297552Y-65155526D01*
X129317543Y-65143544D01*
X129338613Y-65133579D01*
X129360557Y-65125727D01*
X129383166Y-65120063D01*
X129406221Y-65116644D01*
X129429500Y-65115500D01*
X129904500Y-65115500D01*
X129927779Y-65116644D01*
X129927779Y-65116644D01*
G37*
D19*
G04 #@! TD*
G04 #@! TO.P,R15,2*
G04 #@! TO.N,Net-(C7-Pad1)*
X129667000Y-65640500D03*
D18*
G04 #@! TO.N,Net-(J5-PadT)*
G04 #@! TO.C,R28*
G36*
X91446779Y-80785144D02*
X91469834Y-80788563D01*
X91492443Y-80794227D01*
X91514387Y-80802079D01*
X91535457Y-80812044D01*
X91555448Y-80824026D01*
X91574168Y-80837910D01*
X91591438Y-80853562D01*
X91607090Y-80870832D01*
X91620974Y-80889552D01*
X91632956Y-80909543D01*
X91642921Y-80930613D01*
X91650773Y-80952557D01*
X91656437Y-80975166D01*
X91659856Y-80998221D01*
X91661000Y-81021500D01*
X91661000Y-81596500D01*
X91659856Y-81619779D01*
X91656437Y-81642834D01*
X91650773Y-81665443D01*
X91642921Y-81687387D01*
X91632956Y-81708457D01*
X91620974Y-81728448D01*
X91607090Y-81747168D01*
X91591438Y-81764438D01*
X91574168Y-81780090D01*
X91555448Y-81793974D01*
X91535457Y-81805956D01*
X91514387Y-81815921D01*
X91492443Y-81823773D01*
X91469834Y-81829437D01*
X91446779Y-81832856D01*
X91423500Y-81834000D01*
X90948500Y-81834000D01*
X90925221Y-81832856D01*
X90902166Y-81829437D01*
X90879557Y-81823773D01*
X90857613Y-81815921D01*
X90836543Y-81805956D01*
X90816552Y-81793974D01*
X90797832Y-81780090D01*
X90780562Y-81764438D01*
X90764910Y-81747168D01*
X90751026Y-81728448D01*
X90739044Y-81708457D01*
X90729079Y-81687387D01*
X90721227Y-81665443D01*
X90715563Y-81642834D01*
X90712144Y-81619779D01*
X90711000Y-81596500D01*
X90711000Y-81021500D01*
X90712144Y-80998221D01*
X90715563Y-80975166D01*
X90721227Y-80952557D01*
X90729079Y-80930613D01*
X90739044Y-80909543D01*
X90751026Y-80889552D01*
X90764910Y-80870832D01*
X90780562Y-80853562D01*
X90797832Y-80837910D01*
X90816552Y-80824026D01*
X90836543Y-80812044D01*
X90857613Y-80802079D01*
X90879557Y-80794227D01*
X90902166Y-80788563D01*
X90925221Y-80785144D01*
X90948500Y-80784000D01*
X91423500Y-80784000D01*
X91446779Y-80785144D01*
X91446779Y-80785144D01*
G37*
D19*
G04 #@! TD*
G04 #@! TO.P,R28,2*
G04 #@! TO.N,Net-(J5-PadT)*
X91186000Y-81309000D03*
D18*
G04 #@! TO.N,CH_LVL2*
G04 #@! TO.C,R28*
G36*
X91446779Y-79035144D02*
X91469834Y-79038563D01*
X91492443Y-79044227D01*
X91514387Y-79052079D01*
X91535457Y-79062044D01*
X91555448Y-79074026D01*
X91574168Y-79087910D01*
X91591438Y-79103562D01*
X91607090Y-79120832D01*
X91620974Y-79139552D01*
X91632956Y-79159543D01*
X91642921Y-79180613D01*
X91650773Y-79202557D01*
X91656437Y-79225166D01*
X91659856Y-79248221D01*
X91661000Y-79271500D01*
X91661000Y-79846500D01*
X91659856Y-79869779D01*
X91656437Y-79892834D01*
X91650773Y-79915443D01*
X91642921Y-79937387D01*
X91632956Y-79958457D01*
X91620974Y-79978448D01*
X91607090Y-79997168D01*
X91591438Y-80014438D01*
X91574168Y-80030090D01*
X91555448Y-80043974D01*
X91535457Y-80055956D01*
X91514387Y-80065921D01*
X91492443Y-80073773D01*
X91469834Y-80079437D01*
X91446779Y-80082856D01*
X91423500Y-80084000D01*
X90948500Y-80084000D01*
X90925221Y-80082856D01*
X90902166Y-80079437D01*
X90879557Y-80073773D01*
X90857613Y-80065921D01*
X90836543Y-80055956D01*
X90816552Y-80043974D01*
X90797832Y-80030090D01*
X90780562Y-80014438D01*
X90764910Y-79997168D01*
X90751026Y-79978448D01*
X90739044Y-79958457D01*
X90729079Y-79937387D01*
X90721227Y-79915443D01*
X90715563Y-79892834D01*
X90712144Y-79869779D01*
X90711000Y-79846500D01*
X90711000Y-79271500D01*
X90712144Y-79248221D01*
X90715563Y-79225166D01*
X90721227Y-79202557D01*
X90729079Y-79180613D01*
X90739044Y-79159543D01*
X90751026Y-79139552D01*
X90764910Y-79120832D01*
X90780562Y-79103562D01*
X90797832Y-79087910D01*
X90816552Y-79074026D01*
X90836543Y-79062044D01*
X90857613Y-79052079D01*
X90879557Y-79044227D01*
X90902166Y-79038563D01*
X90925221Y-79035144D01*
X90948500Y-79034000D01*
X91423500Y-79034000D01*
X91446779Y-79035144D01*
X91446779Y-79035144D01*
G37*
D19*
G04 #@! TD*
G04 #@! TO.P,R28,1*
G04 #@! TO.N,CH_LVL2*
X91186000Y-79559000D03*
D20*
G04 #@! TO.N,Net-(C1-Pad1)*
X115094798Y-79280798D03*
G04 #@! TO.N,NOISE*
X105219500Y-120396000D03*
X101282500Y-115316000D03*
X102933500Y-113411000D03*
X105791000Y-115673500D03*
G04 #@! TO.N,Net-(C5-Pad1)*
X106553000Y-114046000D03*
X106553000Y-103632000D03*
G04 #@! TO.N,GND*
X100139500Y-121094500D03*
X99504500Y-117157500D03*
X103822500Y-99377500D03*
X110363000Y-95059500D03*
X91503500Y-104902000D03*
X95377000Y-98742500D03*
X102171500Y-96075500D03*
X96774000Y-113220500D03*
X110744000Y-113220500D03*
X127127000Y-108712000D03*
X114554000Y-108902500D03*
X139890500Y-79883000D03*
X108775500Y-80137000D03*
X93662500Y-85471000D03*
X102362000Y-77978000D03*
X102870000Y-72961500D03*
G04 #@! TO.N,-12V*
X133413500Y-100584000D03*
G04 #@! TO.N,Net-(C7-Pad1)*
X128460500Y-65468500D03*
X123444999Y-84328000D03*
G04 #@! TO.N,Net-(C8-Pad2)*
X110236000Y-103378000D03*
X138303000Y-104394000D03*
G04 #@! TO.N,Net-(C10-Pad1)*
X142430500Y-114935000D03*
X142557500Y-105918000D03*
X139573000Y-100393500D03*
X136906000Y-100520500D03*
G04 #@! TO.N,+12V*
X109982000Y-120396000D03*
X109093000Y-109728000D03*
G04 #@! TO.N,Net-(C12-Pad1)*
X112268000Y-73723500D03*
X113411000Y-82677000D03*
G04 #@! TO.N,Net-(C13-Pad1)*
X97155000Y-81216500D03*
G04 #@! TO.N,Net-(C17-Pad1)*
X105727500Y-106934000D03*
X106616500Y-99504500D03*
G04 #@! TO.N,Net-(C18-Pad1)*
X113665000Y-116586000D03*
X114617500Y-106299000D03*
G04 #@! TO.N,Net-(C19-Pad2)*
X108775500Y-111125000D03*
X112776000Y-105069000D03*
G04 #@! TO.N,Net-(C24-Pad1)*
X127952500Y-87630000D03*
G04 #@! TO.N,Net-(C25-Pad1)*
X101155500Y-99441000D03*
X96520000Y-98996500D03*
G04 #@! TO.N,Net-(C26-Pad1)*
X95567500Y-120777000D03*
X95250000Y-116649500D03*
G04 #@! TO.N,Net-(C26-Pad2)*
X96417403Y-117562903D03*
X96266000Y-114998500D03*
X100520500Y-119253000D03*
X100203000Y-115824000D03*
G04 #@! TO.N,Net-(C30-Pad2)*
X95629952Y-104646952D03*
X96139000Y-110871000D03*
G04 #@! TO.N,+5V*
X99885500Y-108204000D03*
X99949000Y-106172000D03*
G04 #@! TO.N,Net-(P1-Pad2)*
X117792500Y-76517500D03*
G04 #@! TO.N,Net-(Q8-Pad1)*
X97536000Y-65405000D03*
X105156000Y-65722500D03*
G04 #@! TO.N,Net-(Q7-Pad3)*
X112967466Y-65658034D03*
X111823500Y-67119500D03*
G04 #@! TO.N,Net-(R50-Pad1)*
X102235000Y-100330000D03*
X90805000Y-100012500D03*
G04 #@! TO.N,Net-(R54-Pad1)*
X90805000Y-101409500D03*
X96647000Y-101028500D03*
G04 #@! TO.N,Net-(R57-Pad1)*
X90741500Y-103124000D03*
X96964500Y-103124000D03*
G04 #@! TO.N,OH_LVL1*
X131445000Y-113538000D03*
X130492500Y-105283000D03*
G04 #@! TO.N,OH_LVL2*
X127584848Y-113297348D03*
X127444500Y-116840000D03*
X121666000Y-88582500D03*
X98107500Y-74231500D03*
X101600000Y-74104500D03*
G04 #@! TO.N,TO_OH*
X133794500Y-115697000D03*
X134175500Y-112268000D03*
G04 #@! TO.N,CH_LVL1*
X128945000Y-103632000D03*
X127595000Y-103695500D03*
G04 #@! TO.N,CH_LVL2*
X129620000Y-105791000D03*
X124523500Y-105283000D03*
G04 #@! TO.N,TO_CH*
X114340000Y-113411000D03*
G04 #@! TO.N,Net-(C21-Pad1)*
X121412000Y-84010500D03*
G04 #@! TO.N,Net-(J2-PadT)*
X134175500Y-81407000D03*
G04 #@! TO.N,Net-(Q10-Pad1)*
X116395500Y-78105000D03*
X120015000Y-78168500D03*
G04 #@! TO.N,Net-(Q11-Pad1)*
X101346000Y-82423000D03*
X98044000Y-83629500D03*
G04 #@! TO.N,Net-(Q14-Pad1)*
X117157500Y-68135500D03*
X113919000Y-81661000D03*
X109855000Y-82486500D03*
X109918500Y-84542000D03*
G04 #@! TD*
D21*
G04 #@! TO.N,Net-(C1-Pad1)*
X115094798Y-79512298D02*
X116227500Y-80645000D01*
X115094798Y-79280798D02*
X115094798Y-79512298D01*
G04 #@! TO.N,NOISE*
X101282500Y-115316000D02*
X102933500Y-113665000D01*
X102933500Y-113665000D02*
X102933500Y-113411000D01*
X105219500Y-116245000D02*
X105219500Y-120396000D01*
X105791000Y-115673500D02*
X105219500Y-116245000D01*
X101640000Y-115673500D02*
X101282500Y-115316000D01*
X105791000Y-115673500D02*
X101640000Y-115673500D01*
G04 #@! TO.N,Net-(C5-Pad1)*
X106553000Y-114046000D02*
X106553000Y-103632000D01*
G04 #@! TO.N,-12V*
X116821918Y-102006400D02*
X119380000Y-102006400D01*
X115619837Y-102006400D02*
X116821918Y-102006400D01*
X119380000Y-102006400D02*
X131991100Y-102006400D01*
X131991100Y-102006400D02*
X133413500Y-100584000D01*
G04 #@! TO.N,Net-(C7-Pad1)*
X123396819Y-80645000D02*
X123170009Y-80871810D01*
X125358500Y-80645000D02*
X123396819Y-80645000D01*
X123170009Y-80871810D02*
X123170009Y-84053010D01*
X123170009Y-84053010D02*
X123444999Y-84328000D01*
X128632500Y-65640500D02*
X128460500Y-65468500D01*
X129667000Y-65640500D02*
X128632500Y-65640500D01*
X125358500Y-79595000D02*
X125358500Y-80645000D01*
X129667000Y-65640500D02*
X130242000Y-65640500D01*
X130242000Y-65640500D02*
X130417010Y-65815510D01*
X130417010Y-65815510D02*
X130417010Y-71211572D01*
X130417010Y-71211572D02*
X126906538Y-74722044D01*
X126906538Y-74722044D02*
X126906538Y-78046962D01*
X126906538Y-78046962D02*
X125358500Y-79595000D01*
G04 #@! TO.N,Net-(C8-Pad2)*
X110236000Y-103378000D02*
X111252000Y-104394000D01*
X111252000Y-104394000D02*
X138303000Y-104394000D01*
G04 #@! TO.N,Net-(C10-Pad1)*
X142430500Y-114935000D02*
X142430500Y-106045000D01*
X142430500Y-106045000D02*
X142557500Y-105918000D01*
X139573000Y-100393500D02*
X137033000Y-100393500D01*
X137033000Y-100393500D02*
X136906000Y-100520500D01*
G04 #@! TO.N,+12V*
X116821918Y-99466400D02*
X119380000Y-99466400D01*
X115619837Y-99466400D02*
X116821918Y-99466400D01*
X109982000Y-120396000D02*
X109982000Y-110617000D01*
X109982000Y-110617000D02*
X109093000Y-109728000D01*
X129667000Y-67730500D02*
X129667000Y-67105500D01*
X129667000Y-71395884D02*
X129667000Y-67730500D01*
X125729837Y-75333047D02*
X129667000Y-71395884D01*
X125729837Y-76608243D02*
X125729837Y-75333047D01*
G04 #@! TO.N,Net-(C12-Pad1)*
X111782000Y-74209500D02*
X111782000Y-80200500D01*
X112268000Y-73723500D02*
X111782000Y-74209500D01*
X111782000Y-81048000D02*
X111782000Y-80200500D01*
X113411000Y-82677000D02*
X111782000Y-81048000D01*
G04 #@! TO.N,Net-(C13-Pad1)*
X99273000Y-80860500D02*
X99273000Y-79810500D01*
X97155000Y-81216500D02*
X98917000Y-81216500D01*
X98917000Y-81216500D02*
X99273000Y-80860500D01*
G04 #@! TO.N,Net-(C17-Pad1)*
X105727500Y-106934000D02*
X105727500Y-100393500D01*
X105727500Y-100393500D02*
X106616500Y-99504500D01*
G04 #@! TO.N,Net-(C18-Pad1)*
X113665000Y-116586000D02*
X113665000Y-107251500D01*
X113665000Y-107251500D02*
X114617500Y-106299000D01*
G04 #@! TO.N,Net-(C19-Pad2)*
X108375501Y-110725001D02*
X108375501Y-105809999D01*
X108775500Y-111125000D02*
X108375501Y-110725001D01*
X108375501Y-105809999D02*
X109116500Y-105069000D01*
X109116500Y-105069000D02*
X112776000Y-105069000D01*
G04 #@! TO.N,Net-(C24-Pad1)*
X127952500Y-86785000D02*
X128758500Y-85979000D01*
X127952500Y-87630000D02*
X127952500Y-86785000D01*
G04 #@! TO.N,Net-(C25-Pad1)*
X101155500Y-99441000D02*
X96964500Y-99441000D01*
X96964500Y-99441000D02*
X96520000Y-98996500D01*
G04 #@! TO.N,Net-(C26-Pad1)*
X95567500Y-120777000D02*
X95567500Y-116967000D01*
X95567500Y-116967000D02*
X95250000Y-116649500D01*
G04 #@! TO.N,Net-(C26-Pad2)*
X96417403Y-117562903D02*
X96417403Y-115149903D01*
X96417403Y-115149903D02*
X96266000Y-114998500D01*
X100520500Y-119253000D02*
X100520500Y-116141500D01*
X100520500Y-116141500D02*
X100203000Y-115824000D01*
G04 #@! TO.N,Net-(C30-Pad2)*
X95629952Y-104646952D02*
X96139000Y-105156000D01*
X96139000Y-105156000D02*
X96139000Y-110871000D01*
G04 #@! TO.N,+5V*
X99885500Y-108204000D02*
X99885500Y-106235500D01*
X99885500Y-106235500D02*
X99949000Y-106172000D01*
G04 #@! TO.N,Net-(P1-Pad2)*
X120649837Y-76608243D02*
X123189837Y-76608243D01*
X120649837Y-76608243D02*
X117883243Y-76608243D01*
X117883243Y-76608243D02*
X117792500Y-76517500D01*
G04 #@! TO.N,Net-(Q8-Pad1)*
X97536000Y-65405000D02*
X104838500Y-65405000D01*
X104838500Y-65405000D02*
X105156000Y-65722500D01*
G04 #@! TO.N,Net-(Q7-Pad3)*
X112967466Y-65658034D02*
X112967466Y-65975534D01*
X112967466Y-65975534D02*
X111823500Y-67119500D01*
G04 #@! TO.N,Net-(R50-Pad1)*
X102235000Y-100330000D02*
X91122500Y-100330000D01*
X91122500Y-100330000D02*
X90805000Y-100012500D01*
G04 #@! TO.N,Net-(R54-Pad1)*
X90805000Y-101409500D02*
X96266000Y-101409500D01*
X96266000Y-101409500D02*
X96647000Y-101028500D01*
G04 #@! TO.N,Net-(R57-Pad1)*
X90741500Y-103124000D02*
X96964500Y-103124000D01*
G04 #@! TO.N,OH_LVL1*
X131445000Y-113538000D02*
X130492500Y-112585500D01*
X130492500Y-112585500D02*
X130492500Y-105283000D01*
X122377500Y-80645000D02*
X120627500Y-80645000D01*
X122769999Y-81037499D02*
X122377500Y-80645000D01*
X122769999Y-89447001D02*
X122769999Y-81037499D01*
X121920000Y-90297000D02*
X122769999Y-89447001D01*
G04 #@! TO.N,OH_LVL2*
X127584848Y-113297348D02*
X127584848Y-116699652D01*
X127584848Y-116699652D02*
X127444500Y-116840000D01*
X107949837Y-76608243D02*
X109918500Y-78576906D01*
X109918500Y-78576906D02*
X109918500Y-81153000D01*
X117235998Y-88582500D02*
X121666000Y-88582500D01*
X109918500Y-81153000D02*
X109918500Y-81265002D01*
X109918500Y-81265002D02*
X117235998Y-88582500D01*
X106685033Y-76608243D02*
X107949837Y-76608243D01*
X105409837Y-76608243D02*
X106685033Y-76608243D01*
X94352072Y-79059928D02*
X95755572Y-79059928D01*
X93853000Y-79559000D02*
X94352072Y-79059928D01*
X96867136Y-75471864D02*
X98107500Y-74231500D01*
X95755572Y-79059928D02*
X96867136Y-77948364D01*
X96867136Y-77948364D02*
X96867136Y-75471864D01*
X102906094Y-74104500D02*
X105409837Y-76608243D01*
X101600000Y-74104500D02*
X102906094Y-74104500D01*
G04 #@! TO.N,TO_OH*
X133794500Y-115697000D02*
X133794500Y-112649000D01*
X133794500Y-112649000D02*
X134175500Y-112268000D01*
G04 #@! TO.N,CH_LVL1*
X128945000Y-103632000D02*
X127658500Y-103632000D01*
X127658500Y-103632000D02*
X127595000Y-103695500D01*
X103673000Y-84432500D02*
X103673000Y-79810500D01*
X115740000Y-90297000D02*
X114681000Y-89238000D01*
X116840000Y-90297000D02*
X115740000Y-90297000D01*
X114681000Y-89238000D02*
X114681000Y-86741000D01*
X114681000Y-86741000D02*
X113157000Y-85217000D01*
X113157000Y-85217000D02*
X104457500Y-85217000D01*
X104457500Y-85217000D02*
X103673000Y-84432500D01*
G04 #@! TO.N,CH_LVL2*
X129620000Y-105791000D02*
X129112000Y-105283000D01*
X129112000Y-105283000D02*
X124523500Y-105283000D01*
X91186000Y-78386080D02*
X92963837Y-76608243D01*
X91186000Y-79559000D02*
X91186000Y-78386080D01*
X94239033Y-76608243D02*
X95503837Y-76608243D01*
X92963837Y-76608243D02*
X94239033Y-76608243D01*
G04 #@! TO.N,TO_CH*
X129540000Y-120015000D02*
X127508000Y-117983000D01*
X127508000Y-117983000D02*
X116078000Y-117983000D01*
X116078000Y-117983000D02*
X114340000Y-116245000D01*
X114340000Y-116245000D02*
X114340000Y-113411000D01*
G04 #@! TO.N,Net-(C21-Pad1)*
X121412000Y-85394500D02*
X120827500Y-85979000D01*
X121412000Y-84010500D02*
X121412000Y-85394500D01*
G04 #@! TO.N,Net-(J2-PadT)*
X141909801Y-86410801D02*
X141909801Y-84442301D01*
X142875000Y-87376000D02*
X141909801Y-86410801D01*
X141909801Y-84442301D02*
X138874500Y-81407000D01*
X138874500Y-81407000D02*
X134175500Y-81407000D01*
G04 #@! TO.N,Net-(J4-PadT)*
X111538002Y-87376000D02*
X109379002Y-89535000D01*
X112903000Y-87376000D02*
X111538002Y-87376000D01*
X92744500Y-81309000D02*
X93853000Y-81309000D01*
X109379002Y-89535000D02*
X93408500Y-89535000D01*
X93408500Y-89535000D02*
X92265500Y-88392000D01*
X92265500Y-88392000D02*
X92265500Y-81788000D01*
X92265500Y-81788000D02*
X92744500Y-81309000D01*
G04 #@! TO.N,Net-(J5-PadT)*
X91186000Y-87147400D02*
X90957400Y-87376000D01*
X91186000Y-81309000D02*
X91186000Y-87147400D01*
G04 #@! TO.N,Net-(Q10-Pad1)*
X116395500Y-78105000D02*
X119951500Y-78105000D01*
X119951500Y-78105000D02*
X120015000Y-78168500D01*
G04 #@! TO.N,Net-(Q11-Pad1)*
X101346000Y-82423000D02*
X99250500Y-82423000D01*
X99250500Y-82423000D02*
X98044000Y-83629500D01*
G04 #@! TO.N,Net-(Q14-Pad1)*
X116757501Y-68535499D02*
X116757501Y-76663499D01*
X117157500Y-68135500D02*
X116757501Y-68535499D01*
X116757501Y-76663499D02*
X113919000Y-79502000D01*
X113919000Y-79502000D02*
X113919000Y-81661000D01*
X109855000Y-82486500D02*
X109855000Y-84478500D01*
X109855000Y-84478500D02*
X109918500Y-84542000D01*
G04 #@! TD*
D22*
G04 #@! TO.N,GND*
G36*
X144387501Y-91809500D02*
X121373345Y-91809500D01*
X121335429Y-91817042D01*
X121335428Y-91817042D01*
X121141024Y-91855711D01*
X121141023Y-91855711D01*
X121092889Y-91875649D01*
X120999536Y-91914317D01*
X120999535Y-91914318D01*
X120854092Y-92011500D01*
X120091620Y-92011500D01*
X120033577Y-91953457D01*
X119733111Y-91829000D01*
X119407889Y-91829000D01*
X119107423Y-91953457D01*
X119049380Y-92011500D01*
X118059620Y-92011500D01*
X118001577Y-91953457D01*
X117701111Y-91829000D01*
X117375889Y-91829000D01*
X117075423Y-91953457D01*
X117017380Y-92011500D01*
X116027620Y-92011500D01*
X115969577Y-91953457D01*
X115669111Y-91829000D01*
X115343889Y-91829000D01*
X115043423Y-91953457D01*
X114985380Y-92011500D01*
X114349908Y-92011500D01*
X114204465Y-91914318D01*
X114204464Y-91914317D01*
X114111111Y-91875649D01*
X114062977Y-91855711D01*
X114062976Y-91855711D01*
X113868573Y-91817042D01*
X113868571Y-91817042D01*
X113830655Y-91809500D01*
X89292500Y-91809500D01*
X89292500Y-87120855D01*
X89674700Y-87120855D01*
X89674700Y-87631145D01*
X89869979Y-88102591D01*
X90230809Y-88463421D01*
X90702255Y-88658700D01*
X91212545Y-88658700D01*
X91683991Y-88463421D01*
X91823000Y-88324412D01*
X91823000Y-88348418D01*
X91814331Y-88392000D01*
X91823000Y-88435581D01*
X91848674Y-88564654D01*
X91946475Y-88711025D01*
X91983428Y-88735716D01*
X93064786Y-89817074D01*
X93089475Y-89854025D01*
X93235845Y-89951826D01*
X93364918Y-89977500D01*
X93408499Y-89986169D01*
X93452080Y-89977500D01*
X109335420Y-89977500D01*
X109379002Y-89986169D01*
X109422584Y-89977500D01*
X109551657Y-89951826D01*
X109698027Y-89854025D01*
X109722718Y-89817072D01*
X111704754Y-87835036D01*
X111815579Y-88102591D01*
X112176409Y-88463421D01*
X112647855Y-88658700D01*
X113158145Y-88658700D01*
X113629591Y-88463421D01*
X113990421Y-88102591D01*
X114185700Y-87631145D01*
X114185700Y-87120855D01*
X114009372Y-86695161D01*
X114238501Y-86924290D01*
X114238500Y-89194418D01*
X114229831Y-89238000D01*
X114238500Y-89281581D01*
X114264174Y-89410654D01*
X114361975Y-89557025D01*
X114398928Y-89581716D01*
X115396286Y-90579074D01*
X115420975Y-90616025D01*
X115567345Y-90713826D01*
X115666280Y-90733505D01*
X115666280Y-91147000D01*
X115690922Y-91270882D01*
X115761095Y-91375905D01*
X115866118Y-91446078D01*
X115990000Y-91470720D01*
X117690000Y-91470720D01*
X117813882Y-91446078D01*
X117918905Y-91375905D01*
X117989078Y-91270882D01*
X118013720Y-91147000D01*
X118013720Y-90297000D01*
X118189628Y-90297000D01*
X118280240Y-90752536D01*
X118538280Y-91138720D01*
X118924464Y-91396760D01*
X119265015Y-91464500D01*
X119494985Y-91464500D01*
X119835536Y-91396760D01*
X120221720Y-91138720D01*
X120479760Y-90752536D01*
X120570372Y-90297000D01*
X120479760Y-89841464D01*
X120221720Y-89455280D01*
X119835536Y-89197240D01*
X119494985Y-89129500D01*
X119265015Y-89129500D01*
X118924464Y-89197240D01*
X118538280Y-89455280D01*
X118280240Y-89841464D01*
X118189628Y-90297000D01*
X118013720Y-90297000D01*
X118013720Y-89447000D01*
X117989078Y-89323118D01*
X117918905Y-89218095D01*
X117813882Y-89147922D01*
X117690000Y-89123280D01*
X115990000Y-89123280D01*
X115866118Y-89147922D01*
X115761095Y-89218095D01*
X115690922Y-89323118D01*
X115666280Y-89447000D01*
X115666280Y-89597491D01*
X115123500Y-89054712D01*
X115123500Y-87095791D01*
X116892284Y-88864575D01*
X116916973Y-88901525D01*
X117047786Y-88988931D01*
X117063343Y-88999326D01*
X117235998Y-89033669D01*
X117279580Y-89025000D01*
X121093802Y-89025000D01*
X121259569Y-89190767D01*
X121392034Y-89245636D01*
X121078280Y-89455280D01*
X120820240Y-89841464D01*
X120729628Y-90297000D01*
X120820240Y-90752536D01*
X121078280Y-91138720D01*
X121464464Y-91396760D01*
X121805015Y-91464500D01*
X122034985Y-91464500D01*
X122375536Y-91396760D01*
X122761720Y-91138720D01*
X123019760Y-90752536D01*
X123110372Y-90297000D01*
X123269628Y-90297000D01*
X123360240Y-90752536D01*
X123618280Y-91138720D01*
X124004464Y-91396760D01*
X124345015Y-91464500D01*
X124574985Y-91464500D01*
X124915536Y-91396760D01*
X125301720Y-91138720D01*
X125559760Y-90752536D01*
X125650372Y-90297000D01*
X125809628Y-90297000D01*
X125900240Y-90752536D01*
X126158280Y-91138720D01*
X126544464Y-91396760D01*
X126885015Y-91464500D01*
X127114985Y-91464500D01*
X127455536Y-91396760D01*
X127841720Y-91138720D01*
X128099760Y-90752536D01*
X128190372Y-90297000D01*
X128349628Y-90297000D01*
X128440240Y-90752536D01*
X128698280Y-91138720D01*
X129084464Y-91396760D01*
X129425015Y-91464500D01*
X129654985Y-91464500D01*
X129995536Y-91396760D01*
X130381720Y-91138720D01*
X130639760Y-90752536D01*
X130730372Y-90297000D01*
X130639760Y-89841464D01*
X130381720Y-89455280D01*
X129995536Y-89197240D01*
X129654985Y-89129500D01*
X129425015Y-89129500D01*
X129084464Y-89197240D01*
X128698280Y-89455280D01*
X128440240Y-89841464D01*
X128349628Y-90297000D01*
X128190372Y-90297000D01*
X128099760Y-89841464D01*
X127841720Y-89455280D01*
X127455536Y-89197240D01*
X127114985Y-89129500D01*
X126885015Y-89129500D01*
X126544464Y-89197240D01*
X126158280Y-89455280D01*
X125900240Y-89841464D01*
X125809628Y-90297000D01*
X125650372Y-90297000D01*
X125559760Y-89841464D01*
X125301720Y-89455280D01*
X124915536Y-89197240D01*
X124574985Y-89129500D01*
X124345015Y-89129500D01*
X124004464Y-89197240D01*
X123618280Y-89455280D01*
X123360240Y-89841464D01*
X123269628Y-90297000D01*
X123110372Y-90297000D01*
X123019760Y-89841464D01*
X123012376Y-89830413D01*
X123052074Y-89790715D01*
X123089024Y-89766026D01*
X123186825Y-89619656D01*
X123212499Y-89490583D01*
X123212499Y-89490582D01*
X123221168Y-89447002D01*
X123212499Y-89403421D01*
X123212499Y-86156375D01*
X123495000Y-86156375D01*
X123495000Y-86851304D01*
X123550339Y-86984906D01*
X123652593Y-87087160D01*
X123786195Y-87142500D01*
X124981125Y-87142500D01*
X125072000Y-87051625D01*
X125072000Y-86065500D01*
X125245000Y-86065500D01*
X125245000Y-87051625D01*
X125335875Y-87142500D01*
X126530805Y-87142500D01*
X126664407Y-87087160D01*
X126766661Y-86984906D01*
X126822000Y-86851304D01*
X126822000Y-86156375D01*
X126731125Y-86065500D01*
X125245000Y-86065500D01*
X125072000Y-86065500D01*
X123585875Y-86065500D01*
X123495000Y-86156375D01*
X123212499Y-86156375D01*
X123212499Y-85008312D01*
X123302279Y-85045500D01*
X123520348Y-85045500D01*
X123495000Y-85106696D01*
X123495000Y-85801625D01*
X123585875Y-85892500D01*
X125072000Y-85892500D01*
X125072000Y-84906375D01*
X125245000Y-84906375D01*
X125245000Y-85892500D01*
X126731125Y-85892500D01*
X126822000Y-85801625D01*
X126822000Y-85179000D01*
X127134780Y-85179000D01*
X127134780Y-86779000D01*
X127159422Y-86902882D01*
X127229595Y-87007905D01*
X127334618Y-87078078D01*
X127458500Y-87102720D01*
X127465082Y-87102720D01*
X127344233Y-87223569D01*
X127235000Y-87487280D01*
X127235000Y-87772720D01*
X127344233Y-88036431D01*
X127546069Y-88238267D01*
X127809780Y-88347500D01*
X128095220Y-88347500D01*
X128140486Y-88328750D01*
X131071779Y-88328750D01*
X131177514Y-88520607D01*
X131670700Y-88710805D01*
X132199129Y-88697790D01*
X132626886Y-88520607D01*
X132732621Y-88328750D01*
X131902200Y-87498329D01*
X131071779Y-88328750D01*
X128140486Y-88328750D01*
X128358931Y-88238267D01*
X128560767Y-88036431D01*
X128670000Y-87772720D01*
X128670000Y-87487280D01*
X128560767Y-87223569D01*
X128481698Y-87144500D01*
X130567395Y-87144500D01*
X130580410Y-87672929D01*
X130757593Y-88100686D01*
X130949450Y-88206421D01*
X131779871Y-87376000D01*
X132024529Y-87376000D01*
X132854950Y-88206421D01*
X133046807Y-88100686D01*
X133133682Y-87875419D01*
X133227779Y-88102591D01*
X133588609Y-88463421D01*
X134060055Y-88658700D01*
X134570345Y-88658700D01*
X135041791Y-88463421D01*
X135402621Y-88102591D01*
X135597900Y-87631145D01*
X135597900Y-87120855D01*
X135562076Y-87034368D01*
X135950500Y-87034368D01*
X135950500Y-87717632D01*
X136211974Y-88348886D01*
X136695114Y-88832026D01*
X137326368Y-89093500D01*
X138009632Y-89093500D01*
X138640886Y-88832026D01*
X139124026Y-88348886D01*
X139385500Y-87717632D01*
X139385500Y-87034368D01*
X139124026Y-86403114D01*
X138640886Y-85919974D01*
X138009632Y-85658500D01*
X137326368Y-85658500D01*
X136695114Y-85919974D01*
X136211974Y-86403114D01*
X135950500Y-87034368D01*
X135562076Y-87034368D01*
X135402621Y-86649409D01*
X135041791Y-86288579D01*
X134570345Y-86093300D01*
X134060055Y-86093300D01*
X133588609Y-86288579D01*
X133227779Y-86649409D01*
X133136899Y-86868814D01*
X133046807Y-86651314D01*
X132854950Y-86545579D01*
X132024529Y-87376000D01*
X131779871Y-87376000D01*
X130949450Y-86545579D01*
X130757593Y-86651314D01*
X130567395Y-87144500D01*
X128481698Y-87144500D01*
X128439918Y-87102720D01*
X130058500Y-87102720D01*
X130182382Y-87078078D01*
X130287405Y-87007905D01*
X130357578Y-86902882D01*
X130382220Y-86779000D01*
X130382220Y-86423250D01*
X131071779Y-86423250D01*
X131902200Y-87253671D01*
X132732621Y-86423250D01*
X132626886Y-86231393D01*
X132133700Y-86041195D01*
X131605271Y-86054210D01*
X131177514Y-86231393D01*
X131071779Y-86423250D01*
X130382220Y-86423250D01*
X130382220Y-85179000D01*
X130357578Y-85055118D01*
X130287405Y-84950095D01*
X130182382Y-84879922D01*
X130058500Y-84855280D01*
X127458500Y-84855280D01*
X127334618Y-84879922D01*
X127229595Y-84950095D01*
X127159422Y-85055118D01*
X127134780Y-85179000D01*
X126822000Y-85179000D01*
X126822000Y-85106696D01*
X126766661Y-84973094D01*
X126664407Y-84870840D01*
X126530805Y-84815500D01*
X125335875Y-84815500D01*
X125245000Y-84906375D01*
X125072000Y-84906375D01*
X124981125Y-84815500D01*
X123972197Y-84815500D01*
X124053266Y-84734431D01*
X124162499Y-84470720D01*
X124162499Y-84185280D01*
X124053266Y-83921569D01*
X123851430Y-83719733D01*
X123612509Y-83620768D01*
X123612509Y-81648334D01*
X123629595Y-81673905D01*
X123734618Y-81744078D01*
X123858500Y-81768720D01*
X126858500Y-81768720D01*
X126982382Y-81744078D01*
X127087405Y-81673905D01*
X127157578Y-81568882D01*
X127182220Y-81445000D01*
X127182220Y-80822375D01*
X127895000Y-80822375D01*
X127895000Y-81517304D01*
X127950339Y-81650906D01*
X128052593Y-81753160D01*
X128186195Y-81808500D01*
X129581125Y-81808500D01*
X129672000Y-81717625D01*
X129672000Y-80731500D01*
X129845000Y-80731500D01*
X129845000Y-81717625D01*
X129935875Y-81808500D01*
X131330805Y-81808500D01*
X131464407Y-81753160D01*
X131566661Y-81650906D01*
X131622000Y-81517304D01*
X131622000Y-81264280D01*
X133458000Y-81264280D01*
X133458000Y-81549720D01*
X133567233Y-81813431D01*
X133769069Y-82015267D01*
X134032780Y-82124500D01*
X134318220Y-82124500D01*
X134581931Y-82015267D01*
X134747698Y-81849500D01*
X138691212Y-81849500D01*
X141467302Y-84625591D01*
X141467301Y-86367219D01*
X141458632Y-86410801D01*
X141467301Y-86454382D01*
X141492975Y-86583455D01*
X141590776Y-86729826D01*
X141627729Y-86754517D01*
X141709975Y-86836763D01*
X141592300Y-87120855D01*
X141592300Y-87631145D01*
X141787579Y-88102591D01*
X142148409Y-88463421D01*
X142619855Y-88658700D01*
X143130145Y-88658700D01*
X143601591Y-88463421D01*
X143962421Y-88102591D01*
X144157700Y-87631145D01*
X144157700Y-87120855D01*
X143962421Y-86649409D01*
X143601591Y-86288579D01*
X143130145Y-86093300D01*
X142619855Y-86093300D01*
X142352301Y-86204124D01*
X142352301Y-84485883D01*
X142360970Y-84442301D01*
X142326627Y-84269646D01*
X142305326Y-84237767D01*
X142228826Y-84123276D01*
X142191876Y-84098587D01*
X139218216Y-81124928D01*
X139193525Y-81087975D01*
X139047155Y-80990174D01*
X138918082Y-80964500D01*
X138874500Y-80955831D01*
X138830918Y-80964500D01*
X134747698Y-80964500D01*
X134581931Y-80798733D01*
X134318220Y-80689500D01*
X134032780Y-80689500D01*
X133769069Y-80798733D01*
X133567233Y-81000569D01*
X133458000Y-81264280D01*
X131622000Y-81264280D01*
X131622000Y-80822375D01*
X131531125Y-80731500D01*
X129845000Y-80731500D01*
X129672000Y-80731500D01*
X127985875Y-80731500D01*
X127895000Y-80822375D01*
X127182220Y-80822375D01*
X127182220Y-79845000D01*
X127167838Y-79772696D01*
X127895000Y-79772696D01*
X127895000Y-80467625D01*
X127985875Y-80558500D01*
X129672000Y-80558500D01*
X129672000Y-79572375D01*
X129845000Y-79572375D01*
X129845000Y-80558500D01*
X131531125Y-80558500D01*
X131622000Y-80467625D01*
X131622000Y-79772696D01*
X131566661Y-79639094D01*
X131464407Y-79536840D01*
X131330805Y-79481500D01*
X129935875Y-79481500D01*
X129845000Y-79572375D01*
X129672000Y-79572375D01*
X129581125Y-79481500D01*
X128186195Y-79481500D01*
X128052593Y-79536840D01*
X127950339Y-79639094D01*
X127895000Y-79772696D01*
X127167838Y-79772696D01*
X127157578Y-79721118D01*
X127087405Y-79616095D01*
X126982382Y-79545922D01*
X126858500Y-79521280D01*
X126058008Y-79521280D01*
X126648538Y-78930750D01*
X131071779Y-78930750D01*
X131177514Y-79122607D01*
X131670700Y-79312805D01*
X132199129Y-79299790D01*
X132626886Y-79122607D01*
X132732621Y-78930750D01*
X131902200Y-78100329D01*
X131071779Y-78930750D01*
X126648538Y-78930750D01*
X127188613Y-78390676D01*
X127225563Y-78365987D01*
X127323364Y-78219617D01*
X127349038Y-78090544D01*
X127357707Y-78046963D01*
X127349038Y-78003382D01*
X127349038Y-77746500D01*
X130567395Y-77746500D01*
X130580410Y-78274929D01*
X130757593Y-78702686D01*
X130949450Y-78808421D01*
X131779871Y-77978000D01*
X132024529Y-77978000D01*
X132854950Y-78808421D01*
X133046807Y-78702686D01*
X133133682Y-78477419D01*
X133227779Y-78704591D01*
X133588609Y-79065421D01*
X134060055Y-79260700D01*
X134570345Y-79260700D01*
X135041791Y-79065421D01*
X135402621Y-78704591D01*
X135597900Y-78233145D01*
X135597900Y-77722855D01*
X135562076Y-77636368D01*
X135950500Y-77636368D01*
X135950500Y-78319632D01*
X136211974Y-78950886D01*
X136695114Y-79434026D01*
X137326368Y-79695500D01*
X138009632Y-79695500D01*
X138640886Y-79434026D01*
X139124026Y-78950886D01*
X139385500Y-78319632D01*
X139385500Y-77722855D01*
X141592300Y-77722855D01*
X141592300Y-78233145D01*
X141787579Y-78704591D01*
X142148409Y-79065421D01*
X142619855Y-79260700D01*
X143130145Y-79260700D01*
X143601591Y-79065421D01*
X143962421Y-78704591D01*
X144157700Y-78233145D01*
X144157700Y-77722855D01*
X143962421Y-77251409D01*
X143601591Y-76890579D01*
X143130145Y-76695300D01*
X142619855Y-76695300D01*
X142148409Y-76890579D01*
X141787579Y-77251409D01*
X141592300Y-77722855D01*
X139385500Y-77722855D01*
X139385500Y-77636368D01*
X139124026Y-77005114D01*
X138640886Y-76521974D01*
X138009632Y-76260500D01*
X137326368Y-76260500D01*
X136695114Y-76521974D01*
X136211974Y-77005114D01*
X135950500Y-77636368D01*
X135562076Y-77636368D01*
X135402621Y-77251409D01*
X135041791Y-76890579D01*
X134570345Y-76695300D01*
X134060055Y-76695300D01*
X133588609Y-76890579D01*
X133227779Y-77251409D01*
X133136899Y-77470814D01*
X133046807Y-77253314D01*
X132854950Y-77147579D01*
X132024529Y-77978000D01*
X131779871Y-77978000D01*
X130949450Y-77147579D01*
X130757593Y-77253314D01*
X130567395Y-77746500D01*
X127349038Y-77746500D01*
X127349038Y-77025250D01*
X131071779Y-77025250D01*
X131902200Y-77855671D01*
X132732621Y-77025250D01*
X132626886Y-76833393D01*
X132133700Y-76643195D01*
X131605271Y-76656210D01*
X131177514Y-76833393D01*
X131071779Y-77025250D01*
X127349038Y-77025250D01*
X127349038Y-74905332D01*
X130699085Y-71555286D01*
X130736035Y-71530597D01*
X130833836Y-71384227D01*
X130859510Y-71255154D01*
X130868179Y-71211573D01*
X130859510Y-71167992D01*
X130859510Y-69532750D01*
X131071779Y-69532750D01*
X131177514Y-69724607D01*
X131670700Y-69914805D01*
X132199129Y-69901790D01*
X132626886Y-69724607D01*
X132732621Y-69532750D01*
X131902200Y-68702329D01*
X131071779Y-69532750D01*
X130859510Y-69532750D01*
X130859510Y-69360854D01*
X130949450Y-69410421D01*
X131779871Y-68580000D01*
X132024529Y-68580000D01*
X132854950Y-69410421D01*
X133046807Y-69304686D01*
X133133682Y-69079419D01*
X133227779Y-69306591D01*
X133588609Y-69667421D01*
X134060055Y-69862700D01*
X134570345Y-69862700D01*
X135041791Y-69667421D01*
X135402621Y-69306591D01*
X135597900Y-68835145D01*
X135597900Y-68324855D01*
X135562076Y-68238368D01*
X135950500Y-68238368D01*
X135950500Y-68921632D01*
X136211974Y-69552886D01*
X136695114Y-70036026D01*
X137326368Y-70297500D01*
X138009632Y-70297500D01*
X138640886Y-70036026D01*
X139124026Y-69552886D01*
X139385500Y-68921632D01*
X139385500Y-68324855D01*
X141592300Y-68324855D01*
X141592300Y-68835145D01*
X141787579Y-69306591D01*
X142148409Y-69667421D01*
X142619855Y-69862700D01*
X143130145Y-69862700D01*
X143601591Y-69667421D01*
X143962421Y-69306591D01*
X144157700Y-68835145D01*
X144157700Y-68324855D01*
X143962421Y-67853409D01*
X143601591Y-67492579D01*
X143130145Y-67297300D01*
X142619855Y-67297300D01*
X142148409Y-67492579D01*
X141787579Y-67853409D01*
X141592300Y-68324855D01*
X139385500Y-68324855D01*
X139385500Y-68238368D01*
X139124026Y-67607114D01*
X138640886Y-67123974D01*
X138009632Y-66862500D01*
X137326368Y-66862500D01*
X136695114Y-67123974D01*
X136211974Y-67607114D01*
X135950500Y-68238368D01*
X135562076Y-68238368D01*
X135402621Y-67853409D01*
X135041791Y-67492579D01*
X134570345Y-67297300D01*
X134060055Y-67297300D01*
X133588609Y-67492579D01*
X133227779Y-67853409D01*
X133136899Y-68072814D01*
X133046807Y-67855314D01*
X132854950Y-67749579D01*
X132024529Y-68580000D01*
X131779871Y-68580000D01*
X130949450Y-67749579D01*
X130859510Y-67799146D01*
X130859510Y-67627250D01*
X131071779Y-67627250D01*
X131902200Y-68457671D01*
X132732621Y-67627250D01*
X132626886Y-67435393D01*
X132133700Y-67245195D01*
X131605271Y-67258210D01*
X131177514Y-67435393D01*
X131071779Y-67627250D01*
X130859510Y-67627250D01*
X130859510Y-65859092D01*
X130868179Y-65815510D01*
X130833836Y-65642855D01*
X130812698Y-65611220D01*
X130736035Y-65496485D01*
X130699084Y-65471796D01*
X130585716Y-65358428D01*
X130561025Y-65321475D01*
X130443880Y-65243201D01*
X130423000Y-65138230D01*
X130301342Y-64956158D01*
X130119270Y-64834500D01*
X129904500Y-64791780D01*
X129429500Y-64791780D01*
X129214730Y-64834500D01*
X129032658Y-64956158D01*
X129004699Y-64998001D01*
X128866931Y-64860233D01*
X128603220Y-64751000D01*
X128317780Y-64751000D01*
X128054069Y-64860233D01*
X127852233Y-65062069D01*
X127743000Y-65325780D01*
X127743000Y-65611220D01*
X127852233Y-65874931D01*
X128054069Y-66076767D01*
X128317780Y-66186000D01*
X128603220Y-66186000D01*
X128851883Y-66083000D01*
X128899111Y-66083000D01*
X128911000Y-66142770D01*
X129032658Y-66324842D01*
X129214730Y-66446500D01*
X129429500Y-66489220D01*
X129904500Y-66489220D01*
X129974510Y-66475294D01*
X129974510Y-66555706D01*
X129904500Y-66541780D01*
X129429500Y-66541780D01*
X129214730Y-66584500D01*
X129032658Y-66706158D01*
X128911000Y-66888230D01*
X128868280Y-67103000D01*
X128868280Y-67678000D01*
X128911000Y-67892770D01*
X129032658Y-68074842D01*
X129214730Y-68196500D01*
X129224501Y-68198444D01*
X129224501Y-69244002D01*
X128983687Y-68662627D01*
X128519253Y-68198193D01*
X127912441Y-67946843D01*
X127255633Y-67946843D01*
X126648821Y-68198193D01*
X126184387Y-68662627D01*
X125933037Y-69269439D01*
X125933037Y-69926247D01*
X126184387Y-70533059D01*
X126648821Y-70997493D01*
X127255633Y-71248843D01*
X127912441Y-71248843D01*
X128519253Y-70997493D01*
X128983687Y-70533059D01*
X129224500Y-69951685D01*
X129224500Y-71212595D01*
X125447763Y-74989333D01*
X125410813Y-75014022D01*
X125334700Y-75127933D01*
X125313011Y-75160393D01*
X125278668Y-75333047D01*
X125287338Y-75376634D01*
X125287338Y-75471879D01*
X125039215Y-75574655D01*
X124696249Y-75917621D01*
X124510637Y-76365729D01*
X124510637Y-76850757D01*
X124696249Y-77298865D01*
X125039215Y-77641831D01*
X125487323Y-77827443D01*
X125972351Y-77827443D01*
X126420459Y-77641831D01*
X126464039Y-77598251D01*
X126464039Y-77863672D01*
X125076428Y-79251284D01*
X125039475Y-79275975D01*
X124941675Y-79422345D01*
X124941674Y-79422346D01*
X124921995Y-79521280D01*
X123858500Y-79521280D01*
X123734618Y-79545922D01*
X123629595Y-79616095D01*
X123559422Y-79721118D01*
X123534780Y-79845000D01*
X123534780Y-80202500D01*
X123440401Y-80202500D01*
X123396819Y-80193831D01*
X123353237Y-80202500D01*
X123224164Y-80228174D01*
X123077794Y-80325975D01*
X123053104Y-80362926D01*
X122887937Y-80528094D01*
X122887005Y-80528717D01*
X122721216Y-80362928D01*
X122696525Y-80325975D01*
X122550155Y-80228174D01*
X122451220Y-80208495D01*
X122451220Y-79845000D01*
X122426578Y-79721118D01*
X122356405Y-79616095D01*
X122251382Y-79545922D01*
X122127500Y-79521280D01*
X119127500Y-79521280D01*
X119003618Y-79545922D01*
X118898595Y-79616095D01*
X118828422Y-79721118D01*
X118803780Y-79845000D01*
X118803780Y-81445000D01*
X118828422Y-81568882D01*
X118898595Y-81673905D01*
X119003618Y-81744078D01*
X119127500Y-81768720D01*
X122127500Y-81768720D01*
X122251382Y-81744078D01*
X122327500Y-81693218D01*
X122327500Y-84930781D01*
X122251382Y-84879922D01*
X122127500Y-84855280D01*
X121854500Y-84855280D01*
X121854500Y-84582698D01*
X122020267Y-84416931D01*
X122129500Y-84153220D01*
X122129500Y-83867780D01*
X122020267Y-83604069D01*
X121818431Y-83402233D01*
X121554720Y-83293000D01*
X121269280Y-83293000D01*
X121005569Y-83402233D01*
X120803733Y-83604069D01*
X120694500Y-83867780D01*
X120694500Y-84153220D01*
X120803733Y-84416931D01*
X120969500Y-84582698D01*
X120969501Y-84855280D01*
X119527500Y-84855280D01*
X119403618Y-84879922D01*
X119298595Y-84950095D01*
X119228422Y-85055118D01*
X119203780Y-85179000D01*
X119203780Y-86779000D01*
X119228422Y-86902882D01*
X119298595Y-87007905D01*
X119403618Y-87078078D01*
X119527500Y-87102720D01*
X122127500Y-87102720D01*
X122251382Y-87078078D01*
X122327499Y-87027219D01*
X122327499Y-88304582D01*
X122274267Y-88176069D01*
X122072431Y-87974233D01*
X121808720Y-87865000D01*
X121523280Y-87865000D01*
X121259569Y-87974233D01*
X121093802Y-88140000D01*
X117419287Y-88140000D01*
X116421787Y-87142500D01*
X117050125Y-87142500D01*
X117141000Y-87051625D01*
X117141000Y-86065500D01*
X117314000Y-86065500D01*
X117314000Y-87051625D01*
X117404875Y-87142500D01*
X118599805Y-87142500D01*
X118733407Y-87087160D01*
X118835661Y-86984906D01*
X118891000Y-86851304D01*
X118891000Y-86156375D01*
X118800125Y-86065500D01*
X117314000Y-86065500D01*
X117141000Y-86065500D01*
X115654875Y-86065500D01*
X115564000Y-86156375D01*
X115564000Y-86284713D01*
X114385983Y-85106696D01*
X115564000Y-85106696D01*
X115564000Y-85801625D01*
X115654875Y-85892500D01*
X117141000Y-85892500D01*
X117141000Y-84906375D01*
X117314000Y-84906375D01*
X117314000Y-85892500D01*
X118800125Y-85892500D01*
X118891000Y-85801625D01*
X118891000Y-85106696D01*
X118835661Y-84973094D01*
X118733407Y-84870840D01*
X118599805Y-84815500D01*
X117404875Y-84815500D01*
X117314000Y-84906375D01*
X117141000Y-84906375D01*
X117050125Y-84815500D01*
X115855195Y-84815500D01*
X115721593Y-84870840D01*
X115619339Y-84973094D01*
X115564000Y-85106696D01*
X114385983Y-85106696D01*
X110603506Y-81324220D01*
X111434374Y-81324220D01*
X111462975Y-81367025D01*
X111499928Y-81391716D01*
X112693500Y-82585289D01*
X112693500Y-82819720D01*
X112802733Y-83083431D01*
X113004569Y-83285267D01*
X113268280Y-83394500D01*
X113553720Y-83394500D01*
X113817431Y-83285267D01*
X114019267Y-83083431D01*
X114128500Y-82819720D01*
X114128500Y-82534280D01*
X114063644Y-82377703D01*
X114325431Y-82269267D01*
X114527267Y-82067431D01*
X114636500Y-81803720D01*
X114636500Y-81750619D01*
X114727500Y-81768720D01*
X117727500Y-81768720D01*
X117851382Y-81744078D01*
X117956405Y-81673905D01*
X118026578Y-81568882D01*
X118051220Y-81445000D01*
X118051220Y-79845000D01*
X118026578Y-79721118D01*
X117956405Y-79616095D01*
X117851382Y-79545922D01*
X117727500Y-79521280D01*
X115771804Y-79521280D01*
X115812298Y-79423518D01*
X115812298Y-79138078D01*
X115703065Y-78874367D01*
X115501229Y-78672531D01*
X115411447Y-78635342D01*
X115713460Y-78333329D01*
X115787233Y-78511431D01*
X115989069Y-78713267D01*
X116252780Y-78822500D01*
X116538220Y-78822500D01*
X116801931Y-78713267D01*
X116967698Y-78547500D01*
X119395371Y-78547500D01*
X119406733Y-78574931D01*
X119608569Y-78776767D01*
X119872280Y-78886000D01*
X120157720Y-78886000D01*
X120421431Y-78776767D01*
X120623267Y-78574931D01*
X120732500Y-78311220D01*
X120732500Y-78025780D01*
X120650346Y-77827443D01*
X120892351Y-77827443D01*
X121340459Y-77641831D01*
X121683425Y-77298865D01*
X121786200Y-77050743D01*
X122053474Y-77050743D01*
X122156249Y-77298865D01*
X122499215Y-77641831D01*
X122947323Y-77827443D01*
X123432351Y-77827443D01*
X123880459Y-77641831D01*
X124223425Y-77298865D01*
X124409037Y-76850757D01*
X124409037Y-76365729D01*
X124223425Y-75917621D01*
X123880459Y-75574655D01*
X123432351Y-75389043D01*
X122947323Y-75389043D01*
X122499215Y-75574655D01*
X122156249Y-75917621D01*
X122053474Y-76165743D01*
X121786200Y-76165743D01*
X121683425Y-75917621D01*
X121340459Y-75574655D01*
X120892351Y-75389043D01*
X120407323Y-75389043D01*
X119959215Y-75574655D01*
X119616249Y-75917621D01*
X119513474Y-76165743D01*
X118423414Y-76165743D01*
X118400767Y-76111069D01*
X118198931Y-75909233D01*
X117935220Y-75800000D01*
X117649780Y-75800000D01*
X117386069Y-75909233D01*
X117200001Y-76095301D01*
X117200001Y-70059907D01*
X117395987Y-70533059D01*
X117860421Y-70997493D01*
X118467233Y-71248843D01*
X119124041Y-71248843D01*
X119730853Y-70997493D01*
X120195287Y-70533059D01*
X120446637Y-69926247D01*
X120446637Y-69269439D01*
X120195287Y-68662627D01*
X119730853Y-68198193D01*
X119124041Y-67946843D01*
X118467233Y-67946843D01*
X117875000Y-68192154D01*
X117875000Y-67992780D01*
X117765767Y-67729069D01*
X117563931Y-67527233D01*
X117300220Y-67418000D01*
X117014780Y-67418000D01*
X116783337Y-67513867D01*
X116783337Y-66852375D01*
X116692462Y-66761500D01*
X115656337Y-66761500D01*
X115656337Y-67797625D01*
X115747212Y-67888500D01*
X116483194Y-67888500D01*
X116440000Y-67992780D01*
X116440000Y-68215456D01*
X116438476Y-68216474D01*
X116366059Y-68324855D01*
X116357733Y-68337316D01*
X116025373Y-68115240D01*
X115684822Y-68047500D01*
X115454852Y-68047500D01*
X115114301Y-68115240D01*
X114728117Y-68373280D01*
X114470077Y-68759464D01*
X114379465Y-69215000D01*
X114470077Y-69670536D01*
X114728117Y-70056720D01*
X115114301Y-70314760D01*
X115454852Y-70382500D01*
X115684822Y-70382500D01*
X116025373Y-70314760D01*
X116315001Y-70121237D01*
X116315001Y-70848764D01*
X116025373Y-70655240D01*
X115684822Y-70587500D01*
X115454852Y-70587500D01*
X115114301Y-70655240D01*
X114728117Y-70913280D01*
X114470077Y-71299464D01*
X114379465Y-71755000D01*
X114470077Y-72210536D01*
X114728117Y-72596720D01*
X115114301Y-72854760D01*
X115454852Y-72922500D01*
X115684822Y-72922500D01*
X116025373Y-72854760D01*
X116315002Y-72661236D01*
X116315002Y-76480208D01*
X113636928Y-79158284D01*
X113599975Y-79182975D01*
X113502942Y-79328196D01*
X113502174Y-79329346D01*
X113467831Y-79502000D01*
X113476500Y-79545582D01*
X113476501Y-81088801D01*
X113310733Y-81254569D01*
X113201500Y-81518280D01*
X113201500Y-81803720D01*
X113228364Y-81868575D01*
X112684008Y-81324220D01*
X113082000Y-81324220D01*
X113205882Y-81299578D01*
X113310905Y-81229405D01*
X113381078Y-81124382D01*
X113405720Y-81000500D01*
X113405720Y-79400500D01*
X113381078Y-79276618D01*
X113310905Y-79171595D01*
X113205882Y-79101422D01*
X113082000Y-79076780D01*
X112224500Y-79076780D01*
X112224500Y-74441000D01*
X112410720Y-74441000D01*
X112674431Y-74331767D01*
X112876267Y-74129931D01*
X112985500Y-73866220D01*
X112985500Y-73580780D01*
X112876267Y-73317069D01*
X112674431Y-73115233D01*
X112410720Y-73006000D01*
X112125280Y-73006000D01*
X111861569Y-73115233D01*
X111659733Y-73317069D01*
X111550500Y-73580780D01*
X111550500Y-73815212D01*
X111499928Y-73865784D01*
X111462975Y-73890475D01*
X111365175Y-74036845D01*
X111365174Y-74036846D01*
X111330831Y-74209500D01*
X111339500Y-74253082D01*
X111339500Y-75733696D01*
X111180459Y-75574655D01*
X110732351Y-75389043D01*
X110247323Y-75389043D01*
X109799215Y-75574655D01*
X109456249Y-75917621D01*
X109270637Y-76365729D01*
X109270637Y-76850757D01*
X109456249Y-77298865D01*
X109799215Y-77641831D01*
X110247323Y-77827443D01*
X110732351Y-77827443D01*
X111180459Y-77641831D01*
X111339501Y-77482789D01*
X111339501Y-79076780D01*
X110482000Y-79076780D01*
X110361000Y-79100849D01*
X110361000Y-78620488D01*
X110369669Y-78576906D01*
X110335326Y-78404251D01*
X110237525Y-78257881D01*
X110200575Y-78233192D01*
X109066262Y-77098879D01*
X109169037Y-76850757D01*
X109169037Y-76365729D01*
X108983425Y-75917621D01*
X108640459Y-75574655D01*
X108192351Y-75389043D01*
X107707323Y-75389043D01*
X107259215Y-75574655D01*
X106916249Y-75917621D01*
X106813474Y-76165743D01*
X106546200Y-76165743D01*
X106443425Y-75917621D01*
X106100459Y-75574655D01*
X105652351Y-75389043D01*
X105167323Y-75389043D01*
X104919201Y-75491818D01*
X103249810Y-73822428D01*
X103225119Y-73785475D01*
X103078749Y-73687674D01*
X102949676Y-73662000D01*
X102906094Y-73653331D01*
X102862512Y-73662000D01*
X102172198Y-73662000D01*
X102006431Y-73496233D01*
X101742720Y-73387000D01*
X101457280Y-73387000D01*
X101193569Y-73496233D01*
X100991733Y-73698069D01*
X100882500Y-73961780D01*
X100882500Y-74247220D01*
X100991733Y-74510931D01*
X101193569Y-74712767D01*
X101457280Y-74822000D01*
X101742720Y-74822000D01*
X102006431Y-74712767D01*
X102172198Y-74547000D01*
X102722806Y-74547000D01*
X104293412Y-76117607D01*
X104190637Y-76365729D01*
X104190637Y-76850757D01*
X104376249Y-77298865D01*
X104719215Y-77641831D01*
X105167323Y-77827443D01*
X105652351Y-77827443D01*
X106100459Y-77641831D01*
X106443425Y-77298865D01*
X106546200Y-77050743D01*
X106813474Y-77050743D01*
X106916249Y-77298865D01*
X107259215Y-77641831D01*
X107707323Y-77827443D01*
X108192351Y-77827443D01*
X108440473Y-77724668D01*
X109476000Y-78760195D01*
X109476000Y-79037000D01*
X108359375Y-79037000D01*
X108268500Y-79127875D01*
X108268500Y-80114000D01*
X108288500Y-80114000D01*
X108288500Y-80287000D01*
X108268500Y-80287000D01*
X108268500Y-81273125D01*
X108359375Y-81364000D01*
X109487023Y-81364000D01*
X109501674Y-81437657D01*
X109599475Y-81584027D01*
X109636428Y-81608718D01*
X109796710Y-81769000D01*
X109712280Y-81769000D01*
X109448569Y-81878233D01*
X109246733Y-82080069D01*
X109137500Y-82343780D01*
X109137500Y-82629220D01*
X109246733Y-82892931D01*
X109412500Y-83058698D01*
X109412501Y-84033301D01*
X109310233Y-84135569D01*
X109201000Y-84399280D01*
X109201000Y-84684720D01*
X109238188Y-84774500D01*
X104640790Y-84774500D01*
X104115500Y-84249212D01*
X104115500Y-80934220D01*
X105173000Y-80934220D01*
X105296882Y-80909578D01*
X105401905Y-80839405D01*
X105472078Y-80734382D01*
X105496720Y-80610500D01*
X105496720Y-80377875D01*
X106518500Y-80377875D01*
X106518500Y-81072804D01*
X106573839Y-81206406D01*
X106676093Y-81308660D01*
X106809695Y-81364000D01*
X108004625Y-81364000D01*
X108095500Y-81273125D01*
X108095500Y-80287000D01*
X106609375Y-80287000D01*
X106518500Y-80377875D01*
X105496720Y-80377875D01*
X105496720Y-79328196D01*
X106518500Y-79328196D01*
X106518500Y-80023125D01*
X106609375Y-80114000D01*
X108095500Y-80114000D01*
X108095500Y-79127875D01*
X108004625Y-79037000D01*
X106809695Y-79037000D01*
X106676093Y-79092340D01*
X106573839Y-79194594D01*
X106518500Y-79328196D01*
X105496720Y-79328196D01*
X105496720Y-79010500D01*
X105472078Y-78886618D01*
X105401905Y-78781595D01*
X105296882Y-78711422D01*
X105173000Y-78686780D01*
X102173000Y-78686780D01*
X102049118Y-78711422D01*
X101944095Y-78781595D01*
X101873922Y-78886618D01*
X101849280Y-79010500D01*
X101849280Y-80610500D01*
X101873922Y-80734382D01*
X101944095Y-80839405D01*
X102049118Y-80909578D01*
X102173000Y-80934220D01*
X103230501Y-80934220D01*
X103230500Y-84388918D01*
X103221831Y-84432500D01*
X103230500Y-84476081D01*
X103256174Y-84605154D01*
X103353975Y-84751525D01*
X103390928Y-84776216D01*
X104113787Y-85499077D01*
X104138475Y-85536025D01*
X104284845Y-85633826D01*
X104457500Y-85668169D01*
X104501082Y-85659500D01*
X107351954Y-85659500D01*
X106723114Y-85919974D01*
X106239974Y-86403114D01*
X105978500Y-87034368D01*
X105978500Y-87717632D01*
X106239974Y-88348886D01*
X106723114Y-88832026D01*
X107351954Y-89092500D01*
X96508446Y-89092500D01*
X97137286Y-88832026D01*
X97620426Y-88348886D01*
X97881900Y-87717632D01*
X97881900Y-87120855D01*
X98234500Y-87120855D01*
X98234500Y-87631145D01*
X98429779Y-88102591D01*
X98790609Y-88463421D01*
X99262055Y-88658700D01*
X99772345Y-88658700D01*
X100243791Y-88463421D01*
X100378462Y-88328750D01*
X101099779Y-88328750D01*
X101205514Y-88520607D01*
X101698700Y-88710805D01*
X102227129Y-88697790D01*
X102654886Y-88520607D01*
X102760621Y-88328750D01*
X101930200Y-87498329D01*
X101099779Y-88328750D01*
X100378462Y-88328750D01*
X100604621Y-88102591D01*
X100695501Y-87883186D01*
X100785593Y-88100686D01*
X100977450Y-88206421D01*
X101807871Y-87376000D01*
X102052529Y-87376000D01*
X102882950Y-88206421D01*
X103074807Y-88100686D01*
X103161682Y-87875419D01*
X103255779Y-88102591D01*
X103616609Y-88463421D01*
X104088055Y-88658700D01*
X104598345Y-88658700D01*
X105069791Y-88463421D01*
X105430621Y-88102591D01*
X105625900Y-87631145D01*
X105625900Y-87120855D01*
X105430621Y-86649409D01*
X105069791Y-86288579D01*
X104598345Y-86093300D01*
X104088055Y-86093300D01*
X103616609Y-86288579D01*
X103255779Y-86649409D01*
X103164899Y-86868814D01*
X103074807Y-86651314D01*
X102882950Y-86545579D01*
X102052529Y-87376000D01*
X101807871Y-87376000D01*
X100977450Y-86545579D01*
X100785593Y-86651314D01*
X100698718Y-86876581D01*
X100604621Y-86649409D01*
X100378462Y-86423250D01*
X101099779Y-86423250D01*
X101930200Y-87253671D01*
X102760621Y-86423250D01*
X102654886Y-86231393D01*
X102161700Y-86041195D01*
X101633271Y-86054210D01*
X101205514Y-86231393D01*
X101099779Y-86423250D01*
X100378462Y-86423250D01*
X100243791Y-86288579D01*
X99772345Y-86093300D01*
X99262055Y-86093300D01*
X98790609Y-86288579D01*
X98429779Y-86649409D01*
X98234500Y-87120855D01*
X97881900Y-87120855D01*
X97881900Y-87034368D01*
X97620426Y-86403114D01*
X97137286Y-85919974D01*
X96506032Y-85658500D01*
X95822768Y-85658500D01*
X95191514Y-85919974D01*
X94708374Y-86403114D01*
X94446900Y-87034368D01*
X94446900Y-87717632D01*
X94708374Y-88348886D01*
X95191514Y-88832026D01*
X95820354Y-89092500D01*
X93591789Y-89092500D01*
X92708000Y-88208712D01*
X92708000Y-83486780D01*
X97326500Y-83486780D01*
X97326500Y-83772220D01*
X97435733Y-84035931D01*
X97637569Y-84237767D01*
X97901280Y-84347000D01*
X98186720Y-84347000D01*
X98450431Y-84237767D01*
X98652267Y-84035931D01*
X98761500Y-83772220D01*
X98761500Y-83537789D01*
X99433790Y-82865500D01*
X100773802Y-82865500D01*
X100939569Y-83031267D01*
X101203280Y-83140500D01*
X101488720Y-83140500D01*
X101752431Y-83031267D01*
X101954267Y-82829431D01*
X102063500Y-82565720D01*
X102063500Y-82280280D01*
X101954267Y-82016569D01*
X101752431Y-81814733D01*
X101488720Y-81705500D01*
X101203280Y-81705500D01*
X100939569Y-81814733D01*
X100773802Y-81980500D01*
X99294082Y-81980500D01*
X99250500Y-81971831D01*
X99206918Y-81980500D01*
X99077845Y-82006174D01*
X98931475Y-82103975D01*
X98906787Y-82140923D01*
X98135711Y-82912000D01*
X97901280Y-82912000D01*
X97637569Y-83021233D01*
X97435733Y-83223069D01*
X97326500Y-83486780D01*
X92708000Y-83486780D01*
X92708000Y-81971288D01*
X92927789Y-81751500D01*
X93085111Y-81751500D01*
X93097000Y-81811270D01*
X93218658Y-81993342D01*
X93400730Y-82115000D01*
X93615500Y-82157720D01*
X94090500Y-82157720D01*
X94305270Y-82115000D01*
X94487342Y-81993342D01*
X94609000Y-81811270D01*
X94651720Y-81596500D01*
X94651720Y-81073780D01*
X96437500Y-81073780D01*
X96437500Y-81359220D01*
X96546733Y-81622931D01*
X96748569Y-81824767D01*
X97012280Y-81934000D01*
X97297720Y-81934000D01*
X97561431Y-81824767D01*
X97727198Y-81659000D01*
X98873418Y-81659000D01*
X98917000Y-81667669D01*
X98960582Y-81659000D01*
X99089655Y-81633326D01*
X99236025Y-81535525D01*
X99260716Y-81498572D01*
X99555075Y-81204214D01*
X99592025Y-81179525D01*
X99689826Y-81033155D01*
X99709505Y-80934220D01*
X100773000Y-80934220D01*
X100896882Y-80909578D01*
X101001905Y-80839405D01*
X101072078Y-80734382D01*
X101096720Y-80610500D01*
X101096720Y-79010500D01*
X101072078Y-78886618D01*
X101001905Y-78781595D01*
X100896882Y-78711422D01*
X100773000Y-78686780D01*
X97773000Y-78686780D01*
X97649118Y-78711422D01*
X97544095Y-78781595D01*
X97473922Y-78886618D01*
X97449280Y-79010500D01*
X97449280Y-80561778D01*
X97297720Y-80499000D01*
X97012280Y-80499000D01*
X96748569Y-80608233D01*
X96546733Y-80810069D01*
X96437500Y-81073780D01*
X94651720Y-81073780D01*
X94651720Y-81021500D01*
X94609000Y-80806730D01*
X94487342Y-80624658D01*
X94305270Y-80503000D01*
X94090500Y-80460280D01*
X93615500Y-80460280D01*
X93400730Y-80503000D01*
X93218658Y-80624658D01*
X93097000Y-80806730D01*
X93085111Y-80866500D01*
X92788080Y-80866500D01*
X92744499Y-80857831D01*
X92700918Y-80866500D01*
X92571845Y-80892174D01*
X92425475Y-80989975D01*
X92400785Y-81026926D01*
X91984720Y-81442992D01*
X91984720Y-81021500D01*
X91942000Y-80806730D01*
X91820342Y-80624658D01*
X91638270Y-80503000D01*
X91423500Y-80460280D01*
X90948500Y-80460280D01*
X90733730Y-80503000D01*
X90551658Y-80624658D01*
X90430000Y-80806730D01*
X90387280Y-81021500D01*
X90387280Y-81596500D01*
X90430000Y-81811270D01*
X90551658Y-81993342D01*
X90733730Y-82115000D01*
X90743500Y-82116943D01*
X90743501Y-86093300D01*
X90702255Y-86093300D01*
X90230809Y-86288579D01*
X89869979Y-86649409D01*
X89674700Y-87120855D01*
X89292500Y-87120855D01*
X89292500Y-79271500D01*
X90387280Y-79271500D01*
X90387280Y-79846500D01*
X90430000Y-80061270D01*
X90551658Y-80243342D01*
X90733730Y-80365000D01*
X90948500Y-80407720D01*
X91423500Y-80407720D01*
X91638270Y-80365000D01*
X91820342Y-80243342D01*
X91942000Y-80061270D01*
X91984720Y-79846500D01*
X91984720Y-79271500D01*
X91942000Y-79056730D01*
X91820342Y-78874658D01*
X91638270Y-78753000D01*
X91628500Y-78751057D01*
X91628500Y-78569368D01*
X92473201Y-77724668D01*
X92721323Y-77827443D01*
X93206351Y-77827443D01*
X93654459Y-77641831D01*
X93997425Y-77298865D01*
X94100200Y-77050743D01*
X94367474Y-77050743D01*
X94470249Y-77298865D01*
X94813215Y-77641831D01*
X95261323Y-77827443D01*
X95746351Y-77827443D01*
X96194459Y-77641831D01*
X96424636Y-77411654D01*
X96424636Y-77765075D01*
X95572284Y-78617428D01*
X94395652Y-78617428D01*
X94352071Y-78608759D01*
X94308490Y-78617428D01*
X94179417Y-78643102D01*
X94078878Y-78710280D01*
X93615500Y-78710280D01*
X93400730Y-78753000D01*
X93218658Y-78874658D01*
X93097000Y-79056730D01*
X93054280Y-79271500D01*
X93054280Y-79846500D01*
X93097000Y-80061270D01*
X93218658Y-80243342D01*
X93400730Y-80365000D01*
X93615500Y-80407720D01*
X94090500Y-80407720D01*
X94305270Y-80365000D01*
X94487342Y-80243342D01*
X94609000Y-80061270D01*
X94651720Y-79846500D01*
X94651720Y-79502428D01*
X95711990Y-79502428D01*
X95755572Y-79511097D01*
X95799154Y-79502428D01*
X95928227Y-79476754D01*
X96074597Y-79378953D01*
X96099288Y-79342000D01*
X97149211Y-78292078D01*
X97186161Y-78267389D01*
X97283962Y-78121019D01*
X97309636Y-77991946D01*
X97309636Y-77991945D01*
X97318305Y-77948364D01*
X97309636Y-77904782D01*
X97309636Y-77598252D01*
X97353215Y-77641831D01*
X97801323Y-77827443D01*
X98286351Y-77827443D01*
X98734459Y-77641831D01*
X99077425Y-77298865D01*
X99263037Y-76850757D01*
X99263037Y-76365729D01*
X99077425Y-75917621D01*
X98734459Y-75574655D01*
X98286351Y-75389043D01*
X97801323Y-75389043D01*
X97416239Y-75548550D01*
X98015789Y-74949000D01*
X98250220Y-74949000D01*
X98513931Y-74839767D01*
X98715767Y-74637931D01*
X98825000Y-74374220D01*
X98825000Y-74088780D01*
X98715767Y-73825069D01*
X98513931Y-73623233D01*
X98250220Y-73514000D01*
X97964780Y-73514000D01*
X97701069Y-73623233D01*
X97499233Y-73825069D01*
X97390000Y-74088780D01*
X97390000Y-74323211D01*
X96585062Y-75128150D01*
X96548112Y-75152839D01*
X96471999Y-75266750D01*
X96450310Y-75299210D01*
X96415967Y-75471864D01*
X96424637Y-75515451D01*
X96424637Y-75804833D01*
X96194459Y-75574655D01*
X95746351Y-75389043D01*
X95261323Y-75389043D01*
X94813215Y-75574655D01*
X94470249Y-75917621D01*
X94367474Y-76165743D01*
X94100200Y-76165743D01*
X93997425Y-75917621D01*
X93654459Y-75574655D01*
X93206351Y-75389043D01*
X92721323Y-75389043D01*
X92273215Y-75574655D01*
X91930249Y-75917621D01*
X91744637Y-76365729D01*
X91744637Y-76850757D01*
X91847412Y-77098879D01*
X90903926Y-78042366D01*
X90866976Y-78067055D01*
X90804819Y-78160080D01*
X90769174Y-78213426D01*
X90734831Y-78386080D01*
X90743501Y-78429667D01*
X90743501Y-78751057D01*
X90733730Y-78753000D01*
X90551658Y-78874658D01*
X90430000Y-79056730D01*
X90387280Y-79271500D01*
X89292500Y-79271500D01*
X89292500Y-69269439D01*
X89458637Y-69269439D01*
X89458637Y-69926247D01*
X89709987Y-70533059D01*
X90174421Y-70997493D01*
X90781233Y-71248843D01*
X91438041Y-71248843D01*
X92044853Y-70997493D01*
X92509287Y-70533059D01*
X92760637Y-69926247D01*
X92760637Y-69269439D01*
X98247037Y-69269439D01*
X98247037Y-69926247D01*
X98498387Y-70533059D01*
X98962821Y-70997493D01*
X99569633Y-71248843D01*
X100226441Y-71248843D01*
X100833253Y-70997493D01*
X101297687Y-70533059D01*
X101549037Y-69926247D01*
X101549037Y-69269439D01*
X101904637Y-69269439D01*
X101904637Y-69926247D01*
X102155987Y-70533059D01*
X102620421Y-70997493D01*
X103227233Y-71248843D01*
X103884041Y-71248843D01*
X104490853Y-70997493D01*
X104955287Y-70533059D01*
X105206637Y-69926247D01*
X105206637Y-69269439D01*
X110693037Y-69269439D01*
X110693037Y-69926247D01*
X110944387Y-70533059D01*
X111408821Y-70997493D01*
X112015633Y-71248843D01*
X112672441Y-71248843D01*
X113279253Y-70997493D01*
X113743687Y-70533059D01*
X113995037Y-69926247D01*
X113995037Y-69269439D01*
X113743687Y-68662627D01*
X113279253Y-68198193D01*
X112672441Y-67946843D01*
X112015633Y-67946843D01*
X111408821Y-68198193D01*
X110944387Y-68662627D01*
X110693037Y-69269439D01*
X105206637Y-69269439D01*
X104955287Y-68662627D01*
X104490853Y-68198193D01*
X103884041Y-67946843D01*
X103227233Y-67946843D01*
X102620421Y-68198193D01*
X102155987Y-68662627D01*
X101904637Y-69269439D01*
X101549037Y-69269439D01*
X101297687Y-68662627D01*
X100833253Y-68198193D01*
X100226441Y-67946843D01*
X99569633Y-67946843D01*
X98962821Y-68198193D01*
X98498387Y-68662627D01*
X98247037Y-69269439D01*
X92760637Y-69269439D01*
X92509287Y-68662627D01*
X92044853Y-68198193D01*
X91438041Y-67946843D01*
X90781233Y-67946843D01*
X90174421Y-68198193D01*
X89709987Y-68662627D01*
X89458637Y-69269439D01*
X89292500Y-69269439D01*
X89292500Y-66976780D01*
X111106000Y-66976780D01*
X111106000Y-67262220D01*
X111215233Y-67525931D01*
X111417069Y-67727767D01*
X111680780Y-67837000D01*
X111966220Y-67837000D01*
X112229931Y-67727767D01*
X112431767Y-67525931D01*
X112541000Y-67262220D01*
X112541000Y-67027788D01*
X112716413Y-66852375D01*
X114356337Y-66852375D01*
X114356337Y-67597304D01*
X114411676Y-67730906D01*
X114513930Y-67833160D01*
X114647532Y-67888500D01*
X115392462Y-67888500D01*
X115483337Y-67797625D01*
X115483337Y-66761500D01*
X114447212Y-66761500D01*
X114356337Y-66852375D01*
X112716413Y-66852375D01*
X113249540Y-66319248D01*
X113255199Y-66315467D01*
X113373897Y-66266301D01*
X113575733Y-66064465D01*
X113684966Y-65800754D01*
X113684966Y-65752696D01*
X114356337Y-65752696D01*
X114356337Y-66497625D01*
X114447212Y-66588500D01*
X115483337Y-66588500D01*
X115483337Y-65552375D01*
X115656337Y-65552375D01*
X115656337Y-66588500D01*
X116692462Y-66588500D01*
X116783337Y-66497625D01*
X116783337Y-65752696D01*
X116727998Y-65619094D01*
X116625744Y-65516840D01*
X116492142Y-65461500D01*
X115747212Y-65461500D01*
X115656337Y-65552375D01*
X115483337Y-65552375D01*
X115392462Y-65461500D01*
X114647532Y-65461500D01*
X114513930Y-65516840D01*
X114411676Y-65619094D01*
X114356337Y-65752696D01*
X113684966Y-65752696D01*
X113684966Y-65515314D01*
X113575733Y-65251603D01*
X113373897Y-65049767D01*
X113110186Y-64940534D01*
X112824746Y-64940534D01*
X112561035Y-65049767D01*
X112359199Y-65251603D01*
X112249966Y-65515314D01*
X112249966Y-65800754D01*
X112328020Y-65989192D01*
X111915212Y-66402000D01*
X111680780Y-66402000D01*
X111417069Y-66511233D01*
X111215233Y-66713069D01*
X111106000Y-66976780D01*
X89292500Y-66976780D01*
X89292500Y-65262280D01*
X96818500Y-65262280D01*
X96818500Y-65547720D01*
X96927733Y-65811431D01*
X97129569Y-66013267D01*
X97393280Y-66122500D01*
X97678720Y-66122500D01*
X97942431Y-66013267D01*
X98108198Y-65847500D01*
X104438500Y-65847500D01*
X104438500Y-65865220D01*
X104547733Y-66128931D01*
X104749569Y-66330767D01*
X105013280Y-66440000D01*
X105298720Y-66440000D01*
X105562431Y-66330767D01*
X105764267Y-66128931D01*
X105873500Y-65865220D01*
X105873500Y-65579780D01*
X105764267Y-65316069D01*
X105562431Y-65114233D01*
X105298720Y-65005000D01*
X105036337Y-65005000D01*
X105011155Y-64988174D01*
X104882082Y-64962500D01*
X104838500Y-64953831D01*
X104794918Y-64962500D01*
X98108198Y-64962500D01*
X97942431Y-64796733D01*
X97678720Y-64687500D01*
X97393280Y-64687500D01*
X97129569Y-64796733D01*
X96927733Y-64998569D01*
X96818500Y-65262280D01*
X89292500Y-65262280D01*
X89292500Y-63892500D01*
X144387500Y-63892500D01*
X144387501Y-91809500D01*
X144387501Y-91809500D01*
G37*
X144387501Y-91809500D02*
X121373345Y-91809500D01*
X121335429Y-91817042D01*
X121335428Y-91817042D01*
X121141024Y-91855711D01*
X121141023Y-91855711D01*
X121092889Y-91875649D01*
X120999536Y-91914317D01*
X120999535Y-91914318D01*
X120854092Y-92011500D01*
X120091620Y-92011500D01*
X120033577Y-91953457D01*
X119733111Y-91829000D01*
X119407889Y-91829000D01*
X119107423Y-91953457D01*
X119049380Y-92011500D01*
X118059620Y-92011500D01*
X118001577Y-91953457D01*
X117701111Y-91829000D01*
X117375889Y-91829000D01*
X117075423Y-91953457D01*
X117017380Y-92011500D01*
X116027620Y-92011500D01*
X115969577Y-91953457D01*
X115669111Y-91829000D01*
X115343889Y-91829000D01*
X115043423Y-91953457D01*
X114985380Y-92011500D01*
X114349908Y-92011500D01*
X114204465Y-91914318D01*
X114204464Y-91914317D01*
X114111111Y-91875649D01*
X114062977Y-91855711D01*
X114062976Y-91855711D01*
X113868573Y-91817042D01*
X113868571Y-91817042D01*
X113830655Y-91809500D01*
X89292500Y-91809500D01*
X89292500Y-87120855D01*
X89674700Y-87120855D01*
X89674700Y-87631145D01*
X89869979Y-88102591D01*
X90230809Y-88463421D01*
X90702255Y-88658700D01*
X91212545Y-88658700D01*
X91683991Y-88463421D01*
X91823000Y-88324412D01*
X91823000Y-88348418D01*
X91814331Y-88392000D01*
X91823000Y-88435581D01*
X91848674Y-88564654D01*
X91946475Y-88711025D01*
X91983428Y-88735716D01*
X93064786Y-89817074D01*
X93089475Y-89854025D01*
X93235845Y-89951826D01*
X93364918Y-89977500D01*
X93408499Y-89986169D01*
X93452080Y-89977500D01*
X109335420Y-89977500D01*
X109379002Y-89986169D01*
X109422584Y-89977500D01*
X109551657Y-89951826D01*
X109698027Y-89854025D01*
X109722718Y-89817072D01*
X111704754Y-87835036D01*
X111815579Y-88102591D01*
X112176409Y-88463421D01*
X112647855Y-88658700D01*
X113158145Y-88658700D01*
X113629591Y-88463421D01*
X113990421Y-88102591D01*
X114185700Y-87631145D01*
X114185700Y-87120855D01*
X114009372Y-86695161D01*
X114238501Y-86924290D01*
X114238500Y-89194418D01*
X114229831Y-89238000D01*
X114238500Y-89281581D01*
X114264174Y-89410654D01*
X114361975Y-89557025D01*
X114398928Y-89581716D01*
X115396286Y-90579074D01*
X115420975Y-90616025D01*
X115567345Y-90713826D01*
X115666280Y-90733505D01*
X115666280Y-91147000D01*
X115690922Y-91270882D01*
X115761095Y-91375905D01*
X115866118Y-91446078D01*
X115990000Y-91470720D01*
X117690000Y-91470720D01*
X117813882Y-91446078D01*
X117918905Y-91375905D01*
X117989078Y-91270882D01*
X118013720Y-91147000D01*
X118013720Y-90297000D01*
X118189628Y-90297000D01*
X118280240Y-90752536D01*
X118538280Y-91138720D01*
X118924464Y-91396760D01*
X119265015Y-91464500D01*
X119494985Y-91464500D01*
X119835536Y-91396760D01*
X120221720Y-91138720D01*
X120479760Y-90752536D01*
X120570372Y-90297000D01*
X120479760Y-89841464D01*
X120221720Y-89455280D01*
X119835536Y-89197240D01*
X119494985Y-89129500D01*
X119265015Y-89129500D01*
X118924464Y-89197240D01*
X118538280Y-89455280D01*
X118280240Y-89841464D01*
X118189628Y-90297000D01*
X118013720Y-90297000D01*
X118013720Y-89447000D01*
X117989078Y-89323118D01*
X117918905Y-89218095D01*
X117813882Y-89147922D01*
X117690000Y-89123280D01*
X115990000Y-89123280D01*
X115866118Y-89147922D01*
X115761095Y-89218095D01*
X115690922Y-89323118D01*
X115666280Y-89447000D01*
X115666280Y-89597491D01*
X115123500Y-89054712D01*
X115123500Y-87095791D01*
X116892284Y-88864575D01*
X116916973Y-88901525D01*
X117047786Y-88988931D01*
X117063343Y-88999326D01*
X117235998Y-89033669D01*
X117279580Y-89025000D01*
X121093802Y-89025000D01*
X121259569Y-89190767D01*
X121392034Y-89245636D01*
X121078280Y-89455280D01*
X120820240Y-89841464D01*
X120729628Y-90297000D01*
X120820240Y-90752536D01*
X121078280Y-91138720D01*
X121464464Y-91396760D01*
X121805015Y-91464500D01*
X122034985Y-91464500D01*
X122375536Y-91396760D01*
X122761720Y-91138720D01*
X123019760Y-90752536D01*
X123110372Y-90297000D01*
X123269628Y-90297000D01*
X123360240Y-90752536D01*
X123618280Y-91138720D01*
X124004464Y-91396760D01*
X124345015Y-91464500D01*
X124574985Y-91464500D01*
X124915536Y-91396760D01*
X125301720Y-91138720D01*
X125559760Y-90752536D01*
X125650372Y-90297000D01*
X125809628Y-90297000D01*
X125900240Y-90752536D01*
X126158280Y-91138720D01*
X126544464Y-91396760D01*
X126885015Y-91464500D01*
X127114985Y-91464500D01*
X127455536Y-91396760D01*
X127841720Y-91138720D01*
X128099760Y-90752536D01*
X128190372Y-90297000D01*
X128349628Y-90297000D01*
X128440240Y-90752536D01*
X128698280Y-91138720D01*
X129084464Y-91396760D01*
X129425015Y-91464500D01*
X129654985Y-91464500D01*
X129995536Y-91396760D01*
X130381720Y-91138720D01*
X130639760Y-90752536D01*
X130730372Y-90297000D01*
X130639760Y-89841464D01*
X130381720Y-89455280D01*
X129995536Y-89197240D01*
X129654985Y-89129500D01*
X129425015Y-89129500D01*
X129084464Y-89197240D01*
X128698280Y-89455280D01*
X128440240Y-89841464D01*
X128349628Y-90297000D01*
X128190372Y-90297000D01*
X128099760Y-89841464D01*
X127841720Y-89455280D01*
X127455536Y-89197240D01*
X127114985Y-89129500D01*
X126885015Y-89129500D01*
X126544464Y-89197240D01*
X126158280Y-89455280D01*
X125900240Y-89841464D01*
X125809628Y-90297000D01*
X125650372Y-90297000D01*
X125559760Y-89841464D01*
X125301720Y-89455280D01*
X124915536Y-89197240D01*
X124574985Y-89129500D01*
X124345015Y-89129500D01*
X124004464Y-89197240D01*
X123618280Y-89455280D01*
X123360240Y-89841464D01*
X123269628Y-90297000D01*
X123110372Y-90297000D01*
X123019760Y-89841464D01*
X123012376Y-89830413D01*
X123052074Y-89790715D01*
X123089024Y-89766026D01*
X123186825Y-89619656D01*
X123212499Y-89490583D01*
X123212499Y-89490582D01*
X123221168Y-89447002D01*
X123212499Y-89403421D01*
X123212499Y-86156375D01*
X123495000Y-86156375D01*
X123495000Y-86851304D01*
X123550339Y-86984906D01*
X123652593Y-87087160D01*
X123786195Y-87142500D01*
X124981125Y-87142500D01*
X125072000Y-87051625D01*
X125072000Y-86065500D01*
X125245000Y-86065500D01*
X125245000Y-87051625D01*
X125335875Y-87142500D01*
X126530805Y-87142500D01*
X126664407Y-87087160D01*
X126766661Y-86984906D01*
X126822000Y-86851304D01*
X126822000Y-86156375D01*
X126731125Y-86065500D01*
X125245000Y-86065500D01*
X125072000Y-86065500D01*
X123585875Y-86065500D01*
X123495000Y-86156375D01*
X123212499Y-86156375D01*
X123212499Y-85008312D01*
X123302279Y-85045500D01*
X123520348Y-85045500D01*
X123495000Y-85106696D01*
X123495000Y-85801625D01*
X123585875Y-85892500D01*
X125072000Y-85892500D01*
X125072000Y-84906375D01*
X125245000Y-84906375D01*
X125245000Y-85892500D01*
X126731125Y-85892500D01*
X126822000Y-85801625D01*
X126822000Y-85179000D01*
X127134780Y-85179000D01*
X127134780Y-86779000D01*
X127159422Y-86902882D01*
X127229595Y-87007905D01*
X127334618Y-87078078D01*
X127458500Y-87102720D01*
X127465082Y-87102720D01*
X127344233Y-87223569D01*
X127235000Y-87487280D01*
X127235000Y-87772720D01*
X127344233Y-88036431D01*
X127546069Y-88238267D01*
X127809780Y-88347500D01*
X128095220Y-88347500D01*
X128140486Y-88328750D01*
X131071779Y-88328750D01*
X131177514Y-88520607D01*
X131670700Y-88710805D01*
X132199129Y-88697790D01*
X132626886Y-88520607D01*
X132732621Y-88328750D01*
X131902200Y-87498329D01*
X131071779Y-88328750D01*
X128140486Y-88328750D01*
X128358931Y-88238267D01*
X128560767Y-88036431D01*
X128670000Y-87772720D01*
X128670000Y-87487280D01*
X128560767Y-87223569D01*
X128481698Y-87144500D01*
X130567395Y-87144500D01*
X130580410Y-87672929D01*
X130757593Y-88100686D01*
X130949450Y-88206421D01*
X131779871Y-87376000D01*
X132024529Y-87376000D01*
X132854950Y-88206421D01*
X133046807Y-88100686D01*
X133133682Y-87875419D01*
X133227779Y-88102591D01*
X133588609Y-88463421D01*
X134060055Y-88658700D01*
X134570345Y-88658700D01*
X135041791Y-88463421D01*
X135402621Y-88102591D01*
X135597900Y-87631145D01*
X135597900Y-87120855D01*
X135562076Y-87034368D01*
X135950500Y-87034368D01*
X135950500Y-87717632D01*
X136211974Y-88348886D01*
X136695114Y-88832026D01*
X137326368Y-89093500D01*
X138009632Y-89093500D01*
X138640886Y-88832026D01*
X139124026Y-88348886D01*
X139385500Y-87717632D01*
X139385500Y-87034368D01*
X139124026Y-86403114D01*
X138640886Y-85919974D01*
X138009632Y-85658500D01*
X137326368Y-85658500D01*
X136695114Y-85919974D01*
X136211974Y-86403114D01*
X135950500Y-87034368D01*
X135562076Y-87034368D01*
X135402621Y-86649409D01*
X135041791Y-86288579D01*
X134570345Y-86093300D01*
X134060055Y-86093300D01*
X133588609Y-86288579D01*
X133227779Y-86649409D01*
X133136899Y-86868814D01*
X133046807Y-86651314D01*
X132854950Y-86545579D01*
X132024529Y-87376000D01*
X131779871Y-87376000D01*
X130949450Y-86545579D01*
X130757593Y-86651314D01*
X130567395Y-87144500D01*
X128481698Y-87144500D01*
X128439918Y-87102720D01*
X130058500Y-87102720D01*
X130182382Y-87078078D01*
X130287405Y-87007905D01*
X130357578Y-86902882D01*
X130382220Y-86779000D01*
X130382220Y-86423250D01*
X131071779Y-86423250D01*
X131902200Y-87253671D01*
X132732621Y-86423250D01*
X132626886Y-86231393D01*
X132133700Y-86041195D01*
X131605271Y-86054210D01*
X131177514Y-86231393D01*
X131071779Y-86423250D01*
X130382220Y-86423250D01*
X130382220Y-85179000D01*
X130357578Y-85055118D01*
X130287405Y-84950095D01*
X130182382Y-84879922D01*
X130058500Y-84855280D01*
X127458500Y-84855280D01*
X127334618Y-84879922D01*
X127229595Y-84950095D01*
X127159422Y-85055118D01*
X127134780Y-85179000D01*
X126822000Y-85179000D01*
X126822000Y-85106696D01*
X126766661Y-84973094D01*
X126664407Y-84870840D01*
X126530805Y-84815500D01*
X125335875Y-84815500D01*
X125245000Y-84906375D01*
X125072000Y-84906375D01*
X124981125Y-84815500D01*
X123972197Y-84815500D01*
X124053266Y-84734431D01*
X124162499Y-84470720D01*
X124162499Y-84185280D01*
X124053266Y-83921569D01*
X123851430Y-83719733D01*
X123612509Y-83620768D01*
X123612509Y-81648334D01*
X123629595Y-81673905D01*
X123734618Y-81744078D01*
X123858500Y-81768720D01*
X126858500Y-81768720D01*
X126982382Y-81744078D01*
X127087405Y-81673905D01*
X127157578Y-81568882D01*
X127182220Y-81445000D01*
X127182220Y-80822375D01*
X127895000Y-80822375D01*
X127895000Y-81517304D01*
X127950339Y-81650906D01*
X128052593Y-81753160D01*
X128186195Y-81808500D01*
X129581125Y-81808500D01*
X129672000Y-81717625D01*
X129672000Y-80731500D01*
X129845000Y-80731500D01*
X129845000Y-81717625D01*
X129935875Y-81808500D01*
X131330805Y-81808500D01*
X131464407Y-81753160D01*
X131566661Y-81650906D01*
X131622000Y-81517304D01*
X131622000Y-81264280D01*
X133458000Y-81264280D01*
X133458000Y-81549720D01*
X133567233Y-81813431D01*
X133769069Y-82015267D01*
X134032780Y-82124500D01*
X134318220Y-82124500D01*
X134581931Y-82015267D01*
X134747698Y-81849500D01*
X138691212Y-81849500D01*
X141467302Y-84625591D01*
X141467301Y-86367219D01*
X141458632Y-86410801D01*
X141467301Y-86454382D01*
X141492975Y-86583455D01*
X141590776Y-86729826D01*
X141627729Y-86754517D01*
X141709975Y-86836763D01*
X141592300Y-87120855D01*
X141592300Y-87631145D01*
X141787579Y-88102591D01*
X142148409Y-88463421D01*
X142619855Y-88658700D01*
X143130145Y-88658700D01*
X143601591Y-88463421D01*
X143962421Y-88102591D01*
X144157700Y-87631145D01*
X144157700Y-87120855D01*
X143962421Y-86649409D01*
X143601591Y-86288579D01*
X143130145Y-86093300D01*
X142619855Y-86093300D01*
X142352301Y-86204124D01*
X142352301Y-84485883D01*
X142360970Y-84442301D01*
X142326627Y-84269646D01*
X142305326Y-84237767D01*
X142228826Y-84123276D01*
X142191876Y-84098587D01*
X139218216Y-81124928D01*
X139193525Y-81087975D01*
X139047155Y-80990174D01*
X138918082Y-80964500D01*
X138874500Y-80955831D01*
X138830918Y-80964500D01*
X134747698Y-80964500D01*
X134581931Y-80798733D01*
X134318220Y-80689500D01*
X134032780Y-80689500D01*
X133769069Y-80798733D01*
X133567233Y-81000569D01*
X133458000Y-81264280D01*
X131622000Y-81264280D01*
X131622000Y-80822375D01*
X131531125Y-80731500D01*
X129845000Y-80731500D01*
X129672000Y-80731500D01*
X127985875Y-80731500D01*
X127895000Y-80822375D01*
X127182220Y-80822375D01*
X127182220Y-79845000D01*
X127167838Y-79772696D01*
X127895000Y-79772696D01*
X127895000Y-80467625D01*
X127985875Y-80558500D01*
X129672000Y-80558500D01*
X129672000Y-79572375D01*
X129845000Y-79572375D01*
X129845000Y-80558500D01*
X131531125Y-80558500D01*
X131622000Y-80467625D01*
X131622000Y-79772696D01*
X131566661Y-79639094D01*
X131464407Y-79536840D01*
X131330805Y-79481500D01*
X129935875Y-79481500D01*
X129845000Y-79572375D01*
X129672000Y-79572375D01*
X129581125Y-79481500D01*
X128186195Y-79481500D01*
X128052593Y-79536840D01*
X127950339Y-79639094D01*
X127895000Y-79772696D01*
X127167838Y-79772696D01*
X127157578Y-79721118D01*
X127087405Y-79616095D01*
X126982382Y-79545922D01*
X126858500Y-79521280D01*
X126058008Y-79521280D01*
X126648538Y-78930750D01*
X131071779Y-78930750D01*
X131177514Y-79122607D01*
X131670700Y-79312805D01*
X132199129Y-79299790D01*
X132626886Y-79122607D01*
X132732621Y-78930750D01*
X131902200Y-78100329D01*
X131071779Y-78930750D01*
X126648538Y-78930750D01*
X127188613Y-78390676D01*
X127225563Y-78365987D01*
X127323364Y-78219617D01*
X127349038Y-78090544D01*
X127357707Y-78046963D01*
X127349038Y-78003382D01*
X127349038Y-77746500D01*
X130567395Y-77746500D01*
X130580410Y-78274929D01*
X130757593Y-78702686D01*
X130949450Y-78808421D01*
X131779871Y-77978000D01*
X132024529Y-77978000D01*
X132854950Y-78808421D01*
X133046807Y-78702686D01*
X133133682Y-78477419D01*
X133227779Y-78704591D01*
X133588609Y-79065421D01*
X134060055Y-79260700D01*
X134570345Y-79260700D01*
X135041791Y-79065421D01*
X135402621Y-78704591D01*
X135597900Y-78233145D01*
X135597900Y-77722855D01*
X135562076Y-77636368D01*
X135950500Y-77636368D01*
X135950500Y-78319632D01*
X136211974Y-78950886D01*
X136695114Y-79434026D01*
X137326368Y-79695500D01*
X138009632Y-79695500D01*
X138640886Y-79434026D01*
X139124026Y-78950886D01*
X139385500Y-78319632D01*
X139385500Y-77722855D01*
X141592300Y-77722855D01*
X141592300Y-78233145D01*
X141787579Y-78704591D01*
X142148409Y-79065421D01*
X142619855Y-79260700D01*
X143130145Y-79260700D01*
X143601591Y-79065421D01*
X143962421Y-78704591D01*
X144157700Y-78233145D01*
X144157700Y-77722855D01*
X143962421Y-77251409D01*
X143601591Y-76890579D01*
X143130145Y-76695300D01*
X142619855Y-76695300D01*
X142148409Y-76890579D01*
X141787579Y-77251409D01*
X141592300Y-77722855D01*
X139385500Y-77722855D01*
X139385500Y-77636368D01*
X139124026Y-77005114D01*
X138640886Y-76521974D01*
X138009632Y-76260500D01*
X137326368Y-76260500D01*
X136695114Y-76521974D01*
X136211974Y-77005114D01*
X135950500Y-77636368D01*
X135562076Y-77636368D01*
X135402621Y-77251409D01*
X135041791Y-76890579D01*
X134570345Y-76695300D01*
X134060055Y-76695300D01*
X133588609Y-76890579D01*
X133227779Y-77251409D01*
X133136899Y-77470814D01*
X133046807Y-77253314D01*
X132854950Y-77147579D01*
X132024529Y-77978000D01*
X131779871Y-77978000D01*
X130949450Y-77147579D01*
X130757593Y-77253314D01*
X130567395Y-77746500D01*
X127349038Y-77746500D01*
X127349038Y-77025250D01*
X131071779Y-77025250D01*
X131902200Y-77855671D01*
X132732621Y-77025250D01*
X132626886Y-76833393D01*
X132133700Y-76643195D01*
X131605271Y-76656210D01*
X131177514Y-76833393D01*
X131071779Y-77025250D01*
X127349038Y-77025250D01*
X127349038Y-74905332D01*
X130699085Y-71555286D01*
X130736035Y-71530597D01*
X130833836Y-71384227D01*
X130859510Y-71255154D01*
X130868179Y-71211573D01*
X130859510Y-71167992D01*
X130859510Y-69532750D01*
X131071779Y-69532750D01*
X131177514Y-69724607D01*
X131670700Y-69914805D01*
X132199129Y-69901790D01*
X132626886Y-69724607D01*
X132732621Y-69532750D01*
X131902200Y-68702329D01*
X131071779Y-69532750D01*
X130859510Y-69532750D01*
X130859510Y-69360854D01*
X130949450Y-69410421D01*
X131779871Y-68580000D01*
X132024529Y-68580000D01*
X132854950Y-69410421D01*
X133046807Y-69304686D01*
X133133682Y-69079419D01*
X133227779Y-69306591D01*
X133588609Y-69667421D01*
X134060055Y-69862700D01*
X134570345Y-69862700D01*
X135041791Y-69667421D01*
X135402621Y-69306591D01*
X135597900Y-68835145D01*
X135597900Y-68324855D01*
X135562076Y-68238368D01*
X135950500Y-68238368D01*
X135950500Y-68921632D01*
X136211974Y-69552886D01*
X136695114Y-70036026D01*
X137326368Y-70297500D01*
X138009632Y-70297500D01*
X138640886Y-70036026D01*
X139124026Y-69552886D01*
X139385500Y-68921632D01*
X139385500Y-68324855D01*
X141592300Y-68324855D01*
X141592300Y-68835145D01*
X141787579Y-69306591D01*
X142148409Y-69667421D01*
X142619855Y-69862700D01*
X143130145Y-69862700D01*
X143601591Y-69667421D01*
X143962421Y-69306591D01*
X144157700Y-68835145D01*
X144157700Y-68324855D01*
X143962421Y-67853409D01*
X143601591Y-67492579D01*
X143130145Y-67297300D01*
X142619855Y-67297300D01*
X142148409Y-67492579D01*
X141787579Y-67853409D01*
X141592300Y-68324855D01*
X139385500Y-68324855D01*
X139385500Y-68238368D01*
X139124026Y-67607114D01*
X138640886Y-67123974D01*
X138009632Y-66862500D01*
X137326368Y-66862500D01*
X136695114Y-67123974D01*
X136211974Y-67607114D01*
X135950500Y-68238368D01*
X135562076Y-68238368D01*
X135402621Y-67853409D01*
X135041791Y-67492579D01*
X134570345Y-67297300D01*
X134060055Y-67297300D01*
X133588609Y-67492579D01*
X133227779Y-67853409D01*
X133136899Y-68072814D01*
X133046807Y-67855314D01*
X132854950Y-67749579D01*
X132024529Y-68580000D01*
X131779871Y-68580000D01*
X130949450Y-67749579D01*
X130859510Y-67799146D01*
X130859510Y-67627250D01*
X131071779Y-67627250D01*
X131902200Y-68457671D01*
X132732621Y-67627250D01*
X132626886Y-67435393D01*
X132133700Y-67245195D01*
X131605271Y-67258210D01*
X131177514Y-67435393D01*
X131071779Y-67627250D01*
X130859510Y-67627250D01*
X130859510Y-65859092D01*
X130868179Y-65815510D01*
X130833836Y-65642855D01*
X130812698Y-65611220D01*
X130736035Y-65496485D01*
X130699084Y-65471796D01*
X130585716Y-65358428D01*
X130561025Y-65321475D01*
X130443880Y-65243201D01*
X130423000Y-65138230D01*
X130301342Y-64956158D01*
X130119270Y-64834500D01*
X129904500Y-64791780D01*
X129429500Y-64791780D01*
X129214730Y-64834500D01*
X129032658Y-64956158D01*
X129004699Y-64998001D01*
X128866931Y-64860233D01*
X128603220Y-64751000D01*
X128317780Y-64751000D01*
X128054069Y-64860233D01*
X127852233Y-65062069D01*
X127743000Y-65325780D01*
X127743000Y-65611220D01*
X127852233Y-65874931D01*
X128054069Y-66076767D01*
X128317780Y-66186000D01*
X128603220Y-66186000D01*
X128851883Y-66083000D01*
X128899111Y-66083000D01*
X128911000Y-66142770D01*
X129032658Y-66324842D01*
X129214730Y-66446500D01*
X129429500Y-66489220D01*
X129904500Y-66489220D01*
X129974510Y-66475294D01*
X129974510Y-66555706D01*
X129904500Y-66541780D01*
X129429500Y-66541780D01*
X129214730Y-66584500D01*
X129032658Y-66706158D01*
X128911000Y-66888230D01*
X128868280Y-67103000D01*
X128868280Y-67678000D01*
X128911000Y-67892770D01*
X129032658Y-68074842D01*
X129214730Y-68196500D01*
X129224501Y-68198444D01*
X129224501Y-69244002D01*
X128983687Y-68662627D01*
X128519253Y-68198193D01*
X127912441Y-67946843D01*
X127255633Y-67946843D01*
X126648821Y-68198193D01*
X126184387Y-68662627D01*
X125933037Y-69269439D01*
X125933037Y-69926247D01*
X126184387Y-70533059D01*
X126648821Y-70997493D01*
X127255633Y-71248843D01*
X127912441Y-71248843D01*
X128519253Y-70997493D01*
X128983687Y-70533059D01*
X129224500Y-69951685D01*
X129224500Y-71212595D01*
X125447763Y-74989333D01*
X125410813Y-75014022D01*
X125334700Y-75127933D01*
X125313011Y-75160393D01*
X125278668Y-75333047D01*
X125287338Y-75376634D01*
X125287338Y-75471879D01*
X125039215Y-75574655D01*
X124696249Y-75917621D01*
X124510637Y-76365729D01*
X124510637Y-76850757D01*
X124696249Y-77298865D01*
X125039215Y-77641831D01*
X125487323Y-77827443D01*
X125972351Y-77827443D01*
X126420459Y-77641831D01*
X126464039Y-77598251D01*
X126464039Y-77863672D01*
X125076428Y-79251284D01*
X125039475Y-79275975D01*
X124941675Y-79422345D01*
X124941674Y-79422346D01*
X124921995Y-79521280D01*
X123858500Y-79521280D01*
X123734618Y-79545922D01*
X123629595Y-79616095D01*
X123559422Y-79721118D01*
X123534780Y-79845000D01*
X123534780Y-80202500D01*
X123440401Y-80202500D01*
X123396819Y-80193831D01*
X123353237Y-80202500D01*
X123224164Y-80228174D01*
X123077794Y-80325975D01*
X123053104Y-80362926D01*
X122887937Y-80528094D01*
X122887005Y-80528717D01*
X122721216Y-80362928D01*
X122696525Y-80325975D01*
X122550155Y-80228174D01*
X122451220Y-80208495D01*
X122451220Y-79845000D01*
X122426578Y-79721118D01*
X122356405Y-79616095D01*
X122251382Y-79545922D01*
X122127500Y-79521280D01*
X119127500Y-79521280D01*
X119003618Y-79545922D01*
X118898595Y-79616095D01*
X118828422Y-79721118D01*
X118803780Y-79845000D01*
X118803780Y-81445000D01*
X118828422Y-81568882D01*
X118898595Y-81673905D01*
X119003618Y-81744078D01*
X119127500Y-81768720D01*
X122127500Y-81768720D01*
X122251382Y-81744078D01*
X122327500Y-81693218D01*
X122327500Y-84930781D01*
X122251382Y-84879922D01*
X122127500Y-84855280D01*
X121854500Y-84855280D01*
X121854500Y-84582698D01*
X122020267Y-84416931D01*
X122129500Y-84153220D01*
X122129500Y-83867780D01*
X122020267Y-83604069D01*
X121818431Y-83402233D01*
X121554720Y-83293000D01*
X121269280Y-83293000D01*
X121005569Y-83402233D01*
X120803733Y-83604069D01*
X120694500Y-83867780D01*
X120694500Y-84153220D01*
X120803733Y-84416931D01*
X120969500Y-84582698D01*
X120969501Y-84855280D01*
X119527500Y-84855280D01*
X119403618Y-84879922D01*
X119298595Y-84950095D01*
X119228422Y-85055118D01*
X119203780Y-85179000D01*
X119203780Y-86779000D01*
X119228422Y-86902882D01*
X119298595Y-87007905D01*
X119403618Y-87078078D01*
X119527500Y-87102720D01*
X122127500Y-87102720D01*
X122251382Y-87078078D01*
X122327499Y-87027219D01*
X122327499Y-88304582D01*
X122274267Y-88176069D01*
X122072431Y-87974233D01*
X121808720Y-87865000D01*
X121523280Y-87865000D01*
X121259569Y-87974233D01*
X121093802Y-88140000D01*
X117419287Y-88140000D01*
X116421787Y-87142500D01*
X117050125Y-87142500D01*
X117141000Y-87051625D01*
X117141000Y-86065500D01*
X117314000Y-86065500D01*
X117314000Y-87051625D01*
X117404875Y-87142500D01*
X118599805Y-87142500D01*
X118733407Y-87087160D01*
X118835661Y-86984906D01*
X118891000Y-86851304D01*
X118891000Y-86156375D01*
X118800125Y-86065500D01*
X117314000Y-86065500D01*
X117141000Y-86065500D01*
X115654875Y-86065500D01*
X115564000Y-86156375D01*
X115564000Y-86284713D01*
X114385983Y-85106696D01*
X115564000Y-85106696D01*
X115564000Y-85801625D01*
X115654875Y-85892500D01*
X117141000Y-85892500D01*
X117141000Y-84906375D01*
X117314000Y-84906375D01*
X117314000Y-85892500D01*
X118800125Y-85892500D01*
X118891000Y-85801625D01*
X118891000Y-85106696D01*
X118835661Y-84973094D01*
X118733407Y-84870840D01*
X118599805Y-84815500D01*
X117404875Y-84815500D01*
X117314000Y-84906375D01*
X117141000Y-84906375D01*
X117050125Y-84815500D01*
X115855195Y-84815500D01*
X115721593Y-84870840D01*
X115619339Y-84973094D01*
X115564000Y-85106696D01*
X114385983Y-85106696D01*
X110603506Y-81324220D01*
X111434374Y-81324220D01*
X111462975Y-81367025D01*
X111499928Y-81391716D01*
X112693500Y-82585289D01*
X112693500Y-82819720D01*
X112802733Y-83083431D01*
X113004569Y-83285267D01*
X113268280Y-83394500D01*
X113553720Y-83394500D01*
X113817431Y-83285267D01*
X114019267Y-83083431D01*
X114128500Y-82819720D01*
X114128500Y-82534280D01*
X114063644Y-82377703D01*
X114325431Y-82269267D01*
X114527267Y-82067431D01*
X114636500Y-81803720D01*
X114636500Y-81750619D01*
X114727500Y-81768720D01*
X117727500Y-81768720D01*
X117851382Y-81744078D01*
X117956405Y-81673905D01*
X118026578Y-81568882D01*
X118051220Y-81445000D01*
X118051220Y-79845000D01*
X118026578Y-79721118D01*
X117956405Y-79616095D01*
X117851382Y-79545922D01*
X117727500Y-79521280D01*
X115771804Y-79521280D01*
X115812298Y-79423518D01*
X115812298Y-79138078D01*
X115703065Y-78874367D01*
X115501229Y-78672531D01*
X115411447Y-78635342D01*
X115713460Y-78333329D01*
X115787233Y-78511431D01*
X115989069Y-78713267D01*
X116252780Y-78822500D01*
X116538220Y-78822500D01*
X116801931Y-78713267D01*
X116967698Y-78547500D01*
X119395371Y-78547500D01*
X119406733Y-78574931D01*
X119608569Y-78776767D01*
X119872280Y-78886000D01*
X120157720Y-78886000D01*
X120421431Y-78776767D01*
X120623267Y-78574931D01*
X120732500Y-78311220D01*
X120732500Y-78025780D01*
X120650346Y-77827443D01*
X120892351Y-77827443D01*
X121340459Y-77641831D01*
X121683425Y-77298865D01*
X121786200Y-77050743D01*
X122053474Y-77050743D01*
X122156249Y-77298865D01*
X122499215Y-77641831D01*
X122947323Y-77827443D01*
X123432351Y-77827443D01*
X123880459Y-77641831D01*
X124223425Y-77298865D01*
X124409037Y-76850757D01*
X124409037Y-76365729D01*
X124223425Y-75917621D01*
X123880459Y-75574655D01*
X123432351Y-75389043D01*
X122947323Y-75389043D01*
X122499215Y-75574655D01*
X122156249Y-75917621D01*
X122053474Y-76165743D01*
X121786200Y-76165743D01*
X121683425Y-75917621D01*
X121340459Y-75574655D01*
X120892351Y-75389043D01*
X120407323Y-75389043D01*
X119959215Y-75574655D01*
X119616249Y-75917621D01*
X119513474Y-76165743D01*
X118423414Y-76165743D01*
X118400767Y-76111069D01*
X118198931Y-75909233D01*
X117935220Y-75800000D01*
X117649780Y-75800000D01*
X117386069Y-75909233D01*
X117200001Y-76095301D01*
X117200001Y-70059907D01*
X117395987Y-70533059D01*
X117860421Y-70997493D01*
X118467233Y-71248843D01*
X119124041Y-71248843D01*
X119730853Y-70997493D01*
X120195287Y-70533059D01*
X120446637Y-69926247D01*
X120446637Y-69269439D01*
X120195287Y-68662627D01*
X119730853Y-68198193D01*
X119124041Y-67946843D01*
X118467233Y-67946843D01*
X117875000Y-68192154D01*
X117875000Y-67992780D01*
X117765767Y-67729069D01*
X117563931Y-67527233D01*
X117300220Y-67418000D01*
X117014780Y-67418000D01*
X116783337Y-67513867D01*
X116783337Y-66852375D01*
X116692462Y-66761500D01*
X115656337Y-66761500D01*
X115656337Y-67797625D01*
X115747212Y-67888500D01*
X116483194Y-67888500D01*
X116440000Y-67992780D01*
X116440000Y-68215456D01*
X116438476Y-68216474D01*
X116366059Y-68324855D01*
X116357733Y-68337316D01*
X116025373Y-68115240D01*
X115684822Y-68047500D01*
X115454852Y-68047500D01*
X115114301Y-68115240D01*
X114728117Y-68373280D01*
X114470077Y-68759464D01*
X114379465Y-69215000D01*
X114470077Y-69670536D01*
X114728117Y-70056720D01*
X115114301Y-70314760D01*
X115454852Y-70382500D01*
X115684822Y-70382500D01*
X116025373Y-70314760D01*
X116315001Y-70121237D01*
X116315001Y-70848764D01*
X116025373Y-70655240D01*
X115684822Y-70587500D01*
X115454852Y-70587500D01*
X115114301Y-70655240D01*
X114728117Y-70913280D01*
X114470077Y-71299464D01*
X114379465Y-71755000D01*
X114470077Y-72210536D01*
X114728117Y-72596720D01*
X115114301Y-72854760D01*
X115454852Y-72922500D01*
X115684822Y-72922500D01*
X116025373Y-72854760D01*
X116315002Y-72661236D01*
X116315002Y-76480208D01*
X113636928Y-79158284D01*
X113599975Y-79182975D01*
X113502942Y-79328196D01*
X113502174Y-79329346D01*
X113467831Y-79502000D01*
X113476500Y-79545582D01*
X113476501Y-81088801D01*
X113310733Y-81254569D01*
X113201500Y-81518280D01*
X113201500Y-81803720D01*
X113228364Y-81868575D01*
X112684008Y-81324220D01*
X113082000Y-81324220D01*
X113205882Y-81299578D01*
X113310905Y-81229405D01*
X113381078Y-81124382D01*
X113405720Y-81000500D01*
X113405720Y-79400500D01*
X113381078Y-79276618D01*
X113310905Y-79171595D01*
X113205882Y-79101422D01*
X113082000Y-79076780D01*
X112224500Y-79076780D01*
X112224500Y-74441000D01*
X112410720Y-74441000D01*
X112674431Y-74331767D01*
X112876267Y-74129931D01*
X112985500Y-73866220D01*
X112985500Y-73580780D01*
X112876267Y-73317069D01*
X112674431Y-73115233D01*
X112410720Y-73006000D01*
X112125280Y-73006000D01*
X111861569Y-73115233D01*
X111659733Y-73317069D01*
X111550500Y-73580780D01*
X111550500Y-73815212D01*
X111499928Y-73865784D01*
X111462975Y-73890475D01*
X111365175Y-74036845D01*
X111365174Y-74036846D01*
X111330831Y-74209500D01*
X111339500Y-74253082D01*
X111339500Y-75733696D01*
X111180459Y-75574655D01*
X110732351Y-75389043D01*
X110247323Y-75389043D01*
X109799215Y-75574655D01*
X109456249Y-75917621D01*
X109270637Y-76365729D01*
X109270637Y-76850757D01*
X109456249Y-77298865D01*
X109799215Y-77641831D01*
X110247323Y-77827443D01*
X110732351Y-77827443D01*
X111180459Y-77641831D01*
X111339501Y-77482789D01*
X111339501Y-79076780D01*
X110482000Y-79076780D01*
X110361000Y-79100849D01*
X110361000Y-78620488D01*
X110369669Y-78576906D01*
X110335326Y-78404251D01*
X110237525Y-78257881D01*
X110200575Y-78233192D01*
X109066262Y-77098879D01*
X109169037Y-76850757D01*
X109169037Y-76365729D01*
X108983425Y-75917621D01*
X108640459Y-75574655D01*
X108192351Y-75389043D01*
X107707323Y-75389043D01*
X107259215Y-75574655D01*
X106916249Y-75917621D01*
X106813474Y-76165743D01*
X106546200Y-76165743D01*
X106443425Y-75917621D01*
X106100459Y-75574655D01*
X105652351Y-75389043D01*
X105167323Y-75389043D01*
X104919201Y-75491818D01*
X103249810Y-73822428D01*
X103225119Y-73785475D01*
X103078749Y-73687674D01*
X102949676Y-73662000D01*
X102906094Y-73653331D01*
X102862512Y-73662000D01*
X102172198Y-73662000D01*
X102006431Y-73496233D01*
X101742720Y-73387000D01*
X101457280Y-73387000D01*
X101193569Y-73496233D01*
X100991733Y-73698069D01*
X100882500Y-73961780D01*
X100882500Y-74247220D01*
X100991733Y-74510931D01*
X101193569Y-74712767D01*
X101457280Y-74822000D01*
X101742720Y-74822000D01*
X102006431Y-74712767D01*
X102172198Y-74547000D01*
X102722806Y-74547000D01*
X104293412Y-76117607D01*
X104190637Y-76365729D01*
X104190637Y-76850757D01*
X104376249Y-77298865D01*
X104719215Y-77641831D01*
X105167323Y-77827443D01*
X105652351Y-77827443D01*
X106100459Y-77641831D01*
X106443425Y-77298865D01*
X106546200Y-77050743D01*
X106813474Y-77050743D01*
X106916249Y-77298865D01*
X107259215Y-77641831D01*
X107707323Y-77827443D01*
X108192351Y-77827443D01*
X108440473Y-77724668D01*
X109476000Y-78760195D01*
X109476000Y-79037000D01*
X108359375Y-79037000D01*
X108268500Y-79127875D01*
X108268500Y-80114000D01*
X108288500Y-80114000D01*
X108288500Y-80287000D01*
X108268500Y-80287000D01*
X108268500Y-81273125D01*
X108359375Y-81364000D01*
X109487023Y-81364000D01*
X109501674Y-81437657D01*
X109599475Y-81584027D01*
X109636428Y-81608718D01*
X109796710Y-81769000D01*
X109712280Y-81769000D01*
X109448569Y-81878233D01*
X109246733Y-82080069D01*
X109137500Y-82343780D01*
X109137500Y-82629220D01*
X109246733Y-82892931D01*
X109412500Y-83058698D01*
X109412501Y-84033301D01*
X109310233Y-84135569D01*
X109201000Y-84399280D01*
X109201000Y-84684720D01*
X109238188Y-84774500D01*
X104640790Y-84774500D01*
X104115500Y-84249212D01*
X104115500Y-80934220D01*
X105173000Y-80934220D01*
X105296882Y-80909578D01*
X105401905Y-80839405D01*
X105472078Y-80734382D01*
X105496720Y-80610500D01*
X105496720Y-80377875D01*
X106518500Y-80377875D01*
X106518500Y-81072804D01*
X106573839Y-81206406D01*
X106676093Y-81308660D01*
X106809695Y-81364000D01*
X108004625Y-81364000D01*
X108095500Y-81273125D01*
X108095500Y-80287000D01*
X106609375Y-80287000D01*
X106518500Y-80377875D01*
X105496720Y-80377875D01*
X105496720Y-79328196D01*
X106518500Y-79328196D01*
X106518500Y-80023125D01*
X106609375Y-80114000D01*
X108095500Y-80114000D01*
X108095500Y-79127875D01*
X108004625Y-79037000D01*
X106809695Y-79037000D01*
X106676093Y-79092340D01*
X106573839Y-79194594D01*
X106518500Y-79328196D01*
X105496720Y-79328196D01*
X105496720Y-79010500D01*
X105472078Y-78886618D01*
X105401905Y-78781595D01*
X105296882Y-78711422D01*
X105173000Y-78686780D01*
X102173000Y-78686780D01*
X102049118Y-78711422D01*
X101944095Y-78781595D01*
X101873922Y-78886618D01*
X101849280Y-79010500D01*
X101849280Y-80610500D01*
X101873922Y-80734382D01*
X101944095Y-80839405D01*
X102049118Y-80909578D01*
X102173000Y-80934220D01*
X103230501Y-80934220D01*
X103230500Y-84388918D01*
X103221831Y-84432500D01*
X103230500Y-84476081D01*
X103256174Y-84605154D01*
X103353975Y-84751525D01*
X103390928Y-84776216D01*
X104113787Y-85499077D01*
X104138475Y-85536025D01*
X104284845Y-85633826D01*
X104457500Y-85668169D01*
X104501082Y-85659500D01*
X107351954Y-85659500D01*
X106723114Y-85919974D01*
X106239974Y-86403114D01*
X105978500Y-87034368D01*
X105978500Y-87717632D01*
X106239974Y-88348886D01*
X106723114Y-88832026D01*
X107351954Y-89092500D01*
X96508446Y-89092500D01*
X97137286Y-88832026D01*
X97620426Y-88348886D01*
X97881900Y-87717632D01*
X97881900Y-87120855D01*
X98234500Y-87120855D01*
X98234500Y-87631145D01*
X98429779Y-88102591D01*
X98790609Y-88463421D01*
X99262055Y-88658700D01*
X99772345Y-88658700D01*
X100243791Y-88463421D01*
X100378462Y-88328750D01*
X101099779Y-88328750D01*
X101205514Y-88520607D01*
X101698700Y-88710805D01*
X102227129Y-88697790D01*
X102654886Y-88520607D01*
X102760621Y-88328750D01*
X101930200Y-87498329D01*
X101099779Y-88328750D01*
X100378462Y-88328750D01*
X100604621Y-88102591D01*
X100695501Y-87883186D01*
X100785593Y-88100686D01*
X100977450Y-88206421D01*
X101807871Y-87376000D01*
X102052529Y-87376000D01*
X102882950Y-88206421D01*
X103074807Y-88100686D01*
X103161682Y-87875419D01*
X103255779Y-88102591D01*
X103616609Y-88463421D01*
X104088055Y-88658700D01*
X104598345Y-88658700D01*
X105069791Y-88463421D01*
X105430621Y-88102591D01*
X105625900Y-87631145D01*
X105625900Y-87120855D01*
X105430621Y-86649409D01*
X105069791Y-86288579D01*
X104598345Y-86093300D01*
X104088055Y-86093300D01*
X103616609Y-86288579D01*
X103255779Y-86649409D01*
X103164899Y-86868814D01*
X103074807Y-86651314D01*
X102882950Y-86545579D01*
X102052529Y-87376000D01*
X101807871Y-87376000D01*
X100977450Y-86545579D01*
X100785593Y-86651314D01*
X100698718Y-86876581D01*
X100604621Y-86649409D01*
X100378462Y-86423250D01*
X101099779Y-86423250D01*
X101930200Y-87253671D01*
X102760621Y-86423250D01*
X102654886Y-86231393D01*
X102161700Y-86041195D01*
X101633271Y-86054210D01*
X101205514Y-86231393D01*
X101099779Y-86423250D01*
X100378462Y-86423250D01*
X100243791Y-86288579D01*
X99772345Y-86093300D01*
X99262055Y-86093300D01*
X98790609Y-86288579D01*
X98429779Y-86649409D01*
X98234500Y-87120855D01*
X97881900Y-87120855D01*
X97881900Y-87034368D01*
X97620426Y-86403114D01*
X97137286Y-85919974D01*
X96506032Y-85658500D01*
X95822768Y-85658500D01*
X95191514Y-85919974D01*
X94708374Y-86403114D01*
X94446900Y-87034368D01*
X94446900Y-87717632D01*
X94708374Y-88348886D01*
X95191514Y-88832026D01*
X95820354Y-89092500D01*
X93591789Y-89092500D01*
X92708000Y-88208712D01*
X92708000Y-83486780D01*
X97326500Y-83486780D01*
X97326500Y-83772220D01*
X97435733Y-84035931D01*
X97637569Y-84237767D01*
X97901280Y-84347000D01*
X98186720Y-84347000D01*
X98450431Y-84237767D01*
X98652267Y-84035931D01*
X98761500Y-83772220D01*
X98761500Y-83537789D01*
X99433790Y-82865500D01*
X100773802Y-82865500D01*
X100939569Y-83031267D01*
X101203280Y-83140500D01*
X101488720Y-83140500D01*
X101752431Y-83031267D01*
X101954267Y-82829431D01*
X102063500Y-82565720D01*
X102063500Y-82280280D01*
X101954267Y-82016569D01*
X101752431Y-81814733D01*
X101488720Y-81705500D01*
X101203280Y-81705500D01*
X100939569Y-81814733D01*
X100773802Y-81980500D01*
X99294082Y-81980500D01*
X99250500Y-81971831D01*
X99206918Y-81980500D01*
X99077845Y-82006174D01*
X98931475Y-82103975D01*
X98906787Y-82140923D01*
X98135711Y-82912000D01*
X97901280Y-82912000D01*
X97637569Y-83021233D01*
X97435733Y-83223069D01*
X97326500Y-83486780D01*
X92708000Y-83486780D01*
X92708000Y-81971288D01*
X92927789Y-81751500D01*
X93085111Y-81751500D01*
X93097000Y-81811270D01*
X93218658Y-81993342D01*
X93400730Y-82115000D01*
X93615500Y-82157720D01*
X94090500Y-82157720D01*
X94305270Y-82115000D01*
X94487342Y-81993342D01*
X94609000Y-81811270D01*
X94651720Y-81596500D01*
X94651720Y-81073780D01*
X96437500Y-81073780D01*
X96437500Y-81359220D01*
X96546733Y-81622931D01*
X96748569Y-81824767D01*
X97012280Y-81934000D01*
X97297720Y-81934000D01*
X97561431Y-81824767D01*
X97727198Y-81659000D01*
X98873418Y-81659000D01*
X98917000Y-81667669D01*
X98960582Y-81659000D01*
X99089655Y-81633326D01*
X99236025Y-81535525D01*
X99260716Y-81498572D01*
X99555075Y-81204214D01*
X99592025Y-81179525D01*
X99689826Y-81033155D01*
X99709505Y-80934220D01*
X100773000Y-80934220D01*
X100896882Y-80909578D01*
X101001905Y-80839405D01*
X101072078Y-80734382D01*
X101096720Y-80610500D01*
X101096720Y-79010500D01*
X101072078Y-78886618D01*
X101001905Y-78781595D01*
X100896882Y-78711422D01*
X100773000Y-78686780D01*
X97773000Y-78686780D01*
X97649118Y-78711422D01*
X97544095Y-78781595D01*
X97473922Y-78886618D01*
X97449280Y-79010500D01*
X97449280Y-80561778D01*
X97297720Y-80499000D01*
X97012280Y-80499000D01*
X96748569Y-80608233D01*
X96546733Y-80810069D01*
X96437500Y-81073780D01*
X94651720Y-81073780D01*
X94651720Y-81021500D01*
X94609000Y-80806730D01*
X94487342Y-80624658D01*
X94305270Y-80503000D01*
X94090500Y-80460280D01*
X93615500Y-80460280D01*
X93400730Y-80503000D01*
X93218658Y-80624658D01*
X93097000Y-80806730D01*
X93085111Y-80866500D01*
X92788080Y-80866500D01*
X92744499Y-80857831D01*
X92700918Y-80866500D01*
X92571845Y-80892174D01*
X92425475Y-80989975D01*
X92400785Y-81026926D01*
X91984720Y-81442992D01*
X91984720Y-81021500D01*
X91942000Y-80806730D01*
X91820342Y-80624658D01*
X91638270Y-80503000D01*
X91423500Y-80460280D01*
X90948500Y-80460280D01*
X90733730Y-80503000D01*
X90551658Y-80624658D01*
X90430000Y-80806730D01*
X90387280Y-81021500D01*
X90387280Y-81596500D01*
X90430000Y-81811270D01*
X90551658Y-81993342D01*
X90733730Y-82115000D01*
X90743500Y-82116943D01*
X90743501Y-86093300D01*
X90702255Y-86093300D01*
X90230809Y-86288579D01*
X89869979Y-86649409D01*
X89674700Y-87120855D01*
X89292500Y-87120855D01*
X89292500Y-79271500D01*
X90387280Y-79271500D01*
X90387280Y-79846500D01*
X90430000Y-80061270D01*
X90551658Y-80243342D01*
X90733730Y-80365000D01*
X90948500Y-80407720D01*
X91423500Y-80407720D01*
X91638270Y-80365000D01*
X91820342Y-80243342D01*
X91942000Y-80061270D01*
X91984720Y-79846500D01*
X91984720Y-79271500D01*
X91942000Y-79056730D01*
X91820342Y-78874658D01*
X91638270Y-78753000D01*
X91628500Y-78751057D01*
X91628500Y-78569368D01*
X92473201Y-77724668D01*
X92721323Y-77827443D01*
X93206351Y-77827443D01*
X93654459Y-77641831D01*
X93997425Y-77298865D01*
X94100200Y-77050743D01*
X94367474Y-77050743D01*
X94470249Y-77298865D01*
X94813215Y-77641831D01*
X95261323Y-77827443D01*
X95746351Y-77827443D01*
X96194459Y-77641831D01*
X96424636Y-77411654D01*
X96424636Y-77765075D01*
X95572284Y-78617428D01*
X94395652Y-78617428D01*
X94352071Y-78608759D01*
X94308490Y-78617428D01*
X94179417Y-78643102D01*
X94078878Y-78710280D01*
X93615500Y-78710280D01*
X93400730Y-78753000D01*
X93218658Y-78874658D01*
X93097000Y-79056730D01*
X93054280Y-79271500D01*
X93054280Y-79846500D01*
X93097000Y-80061270D01*
X93218658Y-80243342D01*
X93400730Y-80365000D01*
X93615500Y-80407720D01*
X94090500Y-80407720D01*
X94305270Y-80365000D01*
X94487342Y-80243342D01*
X94609000Y-80061270D01*
X94651720Y-79846500D01*
X94651720Y-79502428D01*
X95711990Y-79502428D01*
X95755572Y-79511097D01*
X95799154Y-79502428D01*
X95928227Y-79476754D01*
X96074597Y-79378953D01*
X96099288Y-79342000D01*
X97149211Y-78292078D01*
X97186161Y-78267389D01*
X97283962Y-78121019D01*
X97309636Y-77991946D01*
X97309636Y-77991945D01*
X97318305Y-77948364D01*
X97309636Y-77904782D01*
X97309636Y-77598252D01*
X97353215Y-77641831D01*
X97801323Y-77827443D01*
X98286351Y-77827443D01*
X98734459Y-77641831D01*
X99077425Y-77298865D01*
X99263037Y-76850757D01*
X99263037Y-76365729D01*
X99077425Y-75917621D01*
X98734459Y-75574655D01*
X98286351Y-75389043D01*
X97801323Y-75389043D01*
X97416239Y-75548550D01*
X98015789Y-74949000D01*
X98250220Y-74949000D01*
X98513931Y-74839767D01*
X98715767Y-74637931D01*
X98825000Y-74374220D01*
X98825000Y-74088780D01*
X98715767Y-73825069D01*
X98513931Y-73623233D01*
X98250220Y-73514000D01*
X97964780Y-73514000D01*
X97701069Y-73623233D01*
X97499233Y-73825069D01*
X97390000Y-74088780D01*
X97390000Y-74323211D01*
X96585062Y-75128150D01*
X96548112Y-75152839D01*
X96471999Y-75266750D01*
X96450310Y-75299210D01*
X96415967Y-75471864D01*
X96424637Y-75515451D01*
X96424637Y-75804833D01*
X96194459Y-75574655D01*
X95746351Y-75389043D01*
X95261323Y-75389043D01*
X94813215Y-75574655D01*
X94470249Y-75917621D01*
X94367474Y-76165743D01*
X94100200Y-76165743D01*
X93997425Y-75917621D01*
X93654459Y-75574655D01*
X93206351Y-75389043D01*
X92721323Y-75389043D01*
X92273215Y-75574655D01*
X91930249Y-75917621D01*
X91744637Y-76365729D01*
X91744637Y-76850757D01*
X91847412Y-77098879D01*
X90903926Y-78042366D01*
X90866976Y-78067055D01*
X90804819Y-78160080D01*
X90769174Y-78213426D01*
X90734831Y-78386080D01*
X90743501Y-78429667D01*
X90743501Y-78751057D01*
X90733730Y-78753000D01*
X90551658Y-78874658D01*
X90430000Y-79056730D01*
X90387280Y-79271500D01*
X89292500Y-79271500D01*
X89292500Y-69269439D01*
X89458637Y-69269439D01*
X89458637Y-69926247D01*
X89709987Y-70533059D01*
X90174421Y-70997493D01*
X90781233Y-71248843D01*
X91438041Y-71248843D01*
X92044853Y-70997493D01*
X92509287Y-70533059D01*
X92760637Y-69926247D01*
X92760637Y-69269439D01*
X98247037Y-69269439D01*
X98247037Y-69926247D01*
X98498387Y-70533059D01*
X98962821Y-70997493D01*
X99569633Y-71248843D01*
X100226441Y-71248843D01*
X100833253Y-70997493D01*
X101297687Y-70533059D01*
X101549037Y-69926247D01*
X101549037Y-69269439D01*
X101904637Y-69269439D01*
X101904637Y-69926247D01*
X102155987Y-70533059D01*
X102620421Y-70997493D01*
X103227233Y-71248843D01*
X103884041Y-71248843D01*
X104490853Y-70997493D01*
X104955287Y-70533059D01*
X105206637Y-69926247D01*
X105206637Y-69269439D01*
X110693037Y-69269439D01*
X110693037Y-69926247D01*
X110944387Y-70533059D01*
X111408821Y-70997493D01*
X112015633Y-71248843D01*
X112672441Y-71248843D01*
X113279253Y-70997493D01*
X113743687Y-70533059D01*
X113995037Y-69926247D01*
X113995037Y-69269439D01*
X113743687Y-68662627D01*
X113279253Y-68198193D01*
X112672441Y-67946843D01*
X112015633Y-67946843D01*
X111408821Y-68198193D01*
X110944387Y-68662627D01*
X110693037Y-69269439D01*
X105206637Y-69269439D01*
X104955287Y-68662627D01*
X104490853Y-68198193D01*
X103884041Y-67946843D01*
X103227233Y-67946843D01*
X102620421Y-68198193D01*
X102155987Y-68662627D01*
X101904637Y-69269439D01*
X101549037Y-69269439D01*
X101297687Y-68662627D01*
X100833253Y-68198193D01*
X100226441Y-67946843D01*
X99569633Y-67946843D01*
X98962821Y-68198193D01*
X98498387Y-68662627D01*
X98247037Y-69269439D01*
X92760637Y-69269439D01*
X92509287Y-68662627D01*
X92044853Y-68198193D01*
X91438041Y-67946843D01*
X90781233Y-67946843D01*
X90174421Y-68198193D01*
X89709987Y-68662627D01*
X89458637Y-69269439D01*
X89292500Y-69269439D01*
X89292500Y-66976780D01*
X111106000Y-66976780D01*
X111106000Y-67262220D01*
X111215233Y-67525931D01*
X111417069Y-67727767D01*
X111680780Y-67837000D01*
X111966220Y-67837000D01*
X112229931Y-67727767D01*
X112431767Y-67525931D01*
X112541000Y-67262220D01*
X112541000Y-67027788D01*
X112716413Y-66852375D01*
X114356337Y-66852375D01*
X114356337Y-67597304D01*
X114411676Y-67730906D01*
X114513930Y-67833160D01*
X114647532Y-67888500D01*
X115392462Y-67888500D01*
X115483337Y-67797625D01*
X115483337Y-66761500D01*
X114447212Y-66761500D01*
X114356337Y-66852375D01*
X112716413Y-66852375D01*
X113249540Y-66319248D01*
X113255199Y-66315467D01*
X113373897Y-66266301D01*
X113575733Y-66064465D01*
X113684966Y-65800754D01*
X113684966Y-65752696D01*
X114356337Y-65752696D01*
X114356337Y-66497625D01*
X114447212Y-66588500D01*
X115483337Y-66588500D01*
X115483337Y-65552375D01*
X115656337Y-65552375D01*
X115656337Y-66588500D01*
X116692462Y-66588500D01*
X116783337Y-66497625D01*
X116783337Y-65752696D01*
X116727998Y-65619094D01*
X116625744Y-65516840D01*
X116492142Y-65461500D01*
X115747212Y-65461500D01*
X115656337Y-65552375D01*
X115483337Y-65552375D01*
X115392462Y-65461500D01*
X114647532Y-65461500D01*
X114513930Y-65516840D01*
X114411676Y-65619094D01*
X114356337Y-65752696D01*
X113684966Y-65752696D01*
X113684966Y-65515314D01*
X113575733Y-65251603D01*
X113373897Y-65049767D01*
X113110186Y-64940534D01*
X112824746Y-64940534D01*
X112561035Y-65049767D01*
X112359199Y-65251603D01*
X112249966Y-65515314D01*
X112249966Y-65800754D01*
X112328020Y-65989192D01*
X111915212Y-66402000D01*
X111680780Y-66402000D01*
X111417069Y-66511233D01*
X111215233Y-66713069D01*
X111106000Y-66976780D01*
X89292500Y-66976780D01*
X89292500Y-65262280D01*
X96818500Y-65262280D01*
X96818500Y-65547720D01*
X96927733Y-65811431D01*
X97129569Y-66013267D01*
X97393280Y-66122500D01*
X97678720Y-66122500D01*
X97942431Y-66013267D01*
X98108198Y-65847500D01*
X104438500Y-65847500D01*
X104438500Y-65865220D01*
X104547733Y-66128931D01*
X104749569Y-66330767D01*
X105013280Y-66440000D01*
X105298720Y-66440000D01*
X105562431Y-66330767D01*
X105764267Y-66128931D01*
X105873500Y-65865220D01*
X105873500Y-65579780D01*
X105764267Y-65316069D01*
X105562431Y-65114233D01*
X105298720Y-65005000D01*
X105036337Y-65005000D01*
X105011155Y-64988174D01*
X104882082Y-64962500D01*
X104838500Y-64953831D01*
X104794918Y-64962500D01*
X98108198Y-64962500D01*
X97942431Y-64796733D01*
X97678720Y-64687500D01*
X97393280Y-64687500D01*
X97129569Y-64796733D01*
X96927733Y-64998569D01*
X96818500Y-65262280D01*
X89292500Y-65262280D01*
X89292500Y-63892500D01*
X144387500Y-63892500D01*
X144387501Y-91809500D01*
D23*
G36*
X115031245Y-93357770D02*
X115339613Y-93485500D01*
X115673387Y-93485500D01*
X115981755Y-93357770D01*
X116036525Y-93303000D01*
X117008475Y-93303000D01*
X117063245Y-93357770D01*
X117371613Y-93485500D01*
X117705387Y-93485500D01*
X118013755Y-93357770D01*
X118068525Y-93303000D01*
X119040475Y-93303000D01*
X119095245Y-93357770D01*
X119403613Y-93485500D01*
X119737387Y-93485500D01*
X120045755Y-93357770D01*
X120100525Y-93303000D01*
X120712345Y-93303000D01*
X120765673Y-93356327D01*
X120822783Y-93413438D01*
X120987590Y-93523559D01*
X121136829Y-93585376D01*
X121136830Y-93585376D01*
X121331233Y-93624045D01*
X121331235Y-93624045D01*
X121371228Y-93632000D01*
X144366000Y-93632000D01*
X144366001Y-121506000D01*
X95738638Y-121506000D01*
X95986110Y-121403494D01*
X96193994Y-121195610D01*
X96306500Y-120923996D01*
X96306500Y-120630004D01*
X96193994Y-120358390D01*
X96031500Y-120195896D01*
X96031500Y-118202945D01*
X96270407Y-118301903D01*
X96564399Y-118301903D01*
X96836013Y-118189397D01*
X97043897Y-117981513D01*
X97156403Y-117709899D01*
X97156403Y-117415907D01*
X97043897Y-117144293D01*
X96881403Y-116981799D01*
X96881403Y-115677004D01*
X99464000Y-115677004D01*
X99464000Y-115970996D01*
X99576506Y-116242610D01*
X99784390Y-116450494D01*
X100056004Y-116563000D01*
X100056501Y-116563000D01*
X100056500Y-118671896D01*
X99894006Y-118834390D01*
X99781500Y-119106004D01*
X99781500Y-119399996D01*
X99894006Y-119671610D01*
X100101890Y-119879494D01*
X100373504Y-119992000D01*
X100667496Y-119992000D01*
X100939110Y-119879494D01*
X101146994Y-119671610D01*
X101259500Y-119399996D01*
X101259500Y-119106004D01*
X101146994Y-118834390D01*
X100984500Y-118671896D01*
X100984500Y-116187194D01*
X100993589Y-116141500D01*
X100984500Y-116095805D01*
X100984500Y-116095802D01*
X100962097Y-115983172D01*
X101135504Y-116055000D01*
X101375778Y-116055000D01*
X101458956Y-116110578D01*
X101594302Y-116137500D01*
X101594305Y-116137500D01*
X101639999Y-116146589D01*
X101685694Y-116137500D01*
X104767793Y-116137500D01*
X104755500Y-116199303D01*
X104755500Y-116199306D01*
X104746411Y-116245000D01*
X104755500Y-116290694D01*
X104755501Y-119814895D01*
X104593006Y-119977390D01*
X104480500Y-120249004D01*
X104480500Y-120542996D01*
X104593006Y-120814610D01*
X104800890Y-121022494D01*
X105072504Y-121135000D01*
X105366496Y-121135000D01*
X105638110Y-121022494D01*
X105845994Y-120814610D01*
X105958500Y-120542996D01*
X105958500Y-120249004D01*
X105845994Y-119977390D01*
X105683500Y-119814896D01*
X105683500Y-116437194D01*
X105708194Y-116412500D01*
X105937996Y-116412500D01*
X106209610Y-116299994D01*
X106417494Y-116092110D01*
X106530000Y-115820496D01*
X106530000Y-115526504D01*
X106417494Y-115254890D01*
X106209610Y-115047006D01*
X105937996Y-114934500D01*
X105644004Y-114934500D01*
X105372390Y-115047006D01*
X105209896Y-115209500D01*
X102045194Y-115209500D01*
X103121806Y-114132889D01*
X103352110Y-114037494D01*
X103559994Y-113829610D01*
X103672500Y-113557996D01*
X103672500Y-113264004D01*
X103559994Y-112992390D01*
X103352110Y-112784506D01*
X103080496Y-112672000D01*
X102786504Y-112672000D01*
X102514890Y-112784506D01*
X102307006Y-112992390D01*
X102194500Y-113264004D01*
X102194500Y-113557996D01*
X102250094Y-113692211D01*
X101365306Y-114577000D01*
X101135504Y-114577000D01*
X100863890Y-114689506D01*
X100656006Y-114897390D01*
X100544862Y-115165716D01*
X100349996Y-115085000D01*
X100056004Y-115085000D01*
X99784390Y-115197506D01*
X99576506Y-115405390D01*
X99464000Y-115677004D01*
X96881403Y-115677004D01*
X96881403Y-115428201D01*
X96892494Y-115417110D01*
X97005000Y-115145496D01*
X97005000Y-114851504D01*
X96892494Y-114579890D01*
X96684610Y-114372006D01*
X96412996Y-114259500D01*
X96119004Y-114259500D01*
X95847390Y-114372006D01*
X95639506Y-114579890D01*
X95527000Y-114851504D01*
X95527000Y-115145496D01*
X95639506Y-115417110D01*
X95847390Y-115624994D01*
X95953404Y-115668906D01*
X95953403Y-116416566D01*
X95876494Y-116230890D01*
X95668610Y-116023006D01*
X95396996Y-115910500D01*
X95103004Y-115910500D01*
X94831390Y-116023006D01*
X94623506Y-116230890D01*
X94511000Y-116502504D01*
X94511000Y-116796496D01*
X94623506Y-117068110D01*
X94831390Y-117275994D01*
X95103004Y-117388500D01*
X95103501Y-117388500D01*
X95103500Y-120195896D01*
X94941006Y-120358390D01*
X94828500Y-120630004D01*
X94828500Y-120923996D01*
X94941006Y-121195610D01*
X95148890Y-121403494D01*
X95396362Y-121506000D01*
X89314000Y-121506000D01*
X89314000Y-104499956D01*
X94890952Y-104499956D01*
X94890952Y-104793948D01*
X95003458Y-105065562D01*
X95211342Y-105273446D01*
X95482956Y-105385952D01*
X95675000Y-105385952D01*
X95675001Y-110289895D01*
X95512506Y-110452390D01*
X95400000Y-110724004D01*
X95400000Y-111017996D01*
X95512506Y-111289610D01*
X95720390Y-111497494D01*
X95992004Y-111610000D01*
X96285996Y-111610000D01*
X96557610Y-111497494D01*
X96765494Y-111289610D01*
X96878000Y-111017996D01*
X96878000Y-110724004D01*
X96765494Y-110452390D01*
X96603000Y-110289896D01*
X96603000Y-108057004D01*
X99146500Y-108057004D01*
X99146500Y-108350996D01*
X99259006Y-108622610D01*
X99466890Y-108830494D01*
X99738504Y-108943000D01*
X100032496Y-108943000D01*
X100304110Y-108830494D01*
X100511994Y-108622610D01*
X100624500Y-108350996D01*
X100624500Y-108057004D01*
X100511994Y-107785390D01*
X100349500Y-107622896D01*
X100349500Y-106805995D01*
X100367610Y-106798494D01*
X100379100Y-106787004D01*
X104988500Y-106787004D01*
X104988500Y-107080996D01*
X105101006Y-107352610D01*
X105308890Y-107560494D01*
X105580504Y-107673000D01*
X105874496Y-107673000D01*
X106089001Y-107584149D01*
X106089000Y-113464896D01*
X105926506Y-113627390D01*
X105814000Y-113899004D01*
X105814000Y-114192996D01*
X105926506Y-114464610D01*
X106134390Y-114672494D01*
X106406004Y-114785000D01*
X106699996Y-114785000D01*
X106971610Y-114672494D01*
X107179494Y-114464610D01*
X107292000Y-114192996D01*
X107292000Y-113899004D01*
X107179494Y-113627390D01*
X107017000Y-113464896D01*
X107017000Y-105809999D01*
X107902412Y-105809999D01*
X107911502Y-105855698D01*
X107911501Y-110679307D01*
X107902412Y-110725001D01*
X107911501Y-110770695D01*
X107911501Y-110770698D01*
X107938423Y-110906044D01*
X108036500Y-111052827D01*
X108036500Y-111271996D01*
X108149006Y-111543610D01*
X108356890Y-111751494D01*
X108628504Y-111864000D01*
X108922496Y-111864000D01*
X109194110Y-111751494D01*
X109401994Y-111543610D01*
X109514500Y-111271996D01*
X109514500Y-110978004D01*
X109401994Y-110706390D01*
X109194110Y-110498506D01*
X109118048Y-110467000D01*
X109175805Y-110467000D01*
X109518001Y-110809197D01*
X109518000Y-119814896D01*
X109355506Y-119977390D01*
X109243000Y-120249004D01*
X109243000Y-120542996D01*
X109355506Y-120814610D01*
X109563390Y-121022494D01*
X109835004Y-121135000D01*
X110128996Y-121135000D01*
X110400610Y-121022494D01*
X110608494Y-120814610D01*
X110721000Y-120542996D01*
X110721000Y-120249004D01*
X110608494Y-119977390D01*
X110446000Y-119814896D01*
X110446000Y-119165000D01*
X115644359Y-119165000D01*
X115644359Y-120865000D01*
X115670669Y-120997271D01*
X115745595Y-121109405D01*
X115857729Y-121184331D01*
X115990000Y-121210641D01*
X117690000Y-121210641D01*
X117822271Y-121184331D01*
X117934405Y-121109405D01*
X118009331Y-120997271D01*
X118035641Y-120865000D01*
X118035641Y-120015000D01*
X118167707Y-120015000D01*
X118259987Y-120478924D01*
X118522779Y-120872221D01*
X118916076Y-121135013D01*
X119262898Y-121204000D01*
X119497102Y-121204000D01*
X119843924Y-121135013D01*
X120237221Y-120872221D01*
X120500013Y-120478924D01*
X120592293Y-120015000D01*
X120707707Y-120015000D01*
X120799987Y-120478924D01*
X121062779Y-120872221D01*
X121456076Y-121135013D01*
X121802898Y-121204000D01*
X122037102Y-121204000D01*
X122383924Y-121135013D01*
X122777221Y-120872221D01*
X123040013Y-120478924D01*
X123132293Y-120015000D01*
X123247707Y-120015000D01*
X123339987Y-120478924D01*
X123602779Y-120872221D01*
X123996076Y-121135013D01*
X124342898Y-121204000D01*
X124577102Y-121204000D01*
X124923924Y-121135013D01*
X125317221Y-120872221D01*
X125580013Y-120478924D01*
X125672293Y-120015000D01*
X125787707Y-120015000D01*
X125879987Y-120478924D01*
X126142779Y-120872221D01*
X126536076Y-121135013D01*
X126882898Y-121204000D01*
X127117102Y-121204000D01*
X127463924Y-121135013D01*
X127857221Y-120872221D01*
X128120013Y-120478924D01*
X128212293Y-120015000D01*
X128120013Y-119551076D01*
X127857221Y-119157779D01*
X127463924Y-118894987D01*
X127117102Y-118826000D01*
X126882898Y-118826000D01*
X126536076Y-118894987D01*
X126142779Y-119157779D01*
X125879987Y-119551076D01*
X125787707Y-120015000D01*
X125672293Y-120015000D01*
X125580013Y-119551076D01*
X125317221Y-119157779D01*
X124923924Y-118894987D01*
X124577102Y-118826000D01*
X124342898Y-118826000D01*
X123996076Y-118894987D01*
X123602779Y-119157779D01*
X123339987Y-119551076D01*
X123247707Y-120015000D01*
X123132293Y-120015000D01*
X123040013Y-119551076D01*
X122777221Y-119157779D01*
X122383924Y-118894987D01*
X122037102Y-118826000D01*
X121802898Y-118826000D01*
X121456076Y-118894987D01*
X121062779Y-119157779D01*
X120799987Y-119551076D01*
X120707707Y-120015000D01*
X120592293Y-120015000D01*
X120500013Y-119551076D01*
X120237221Y-119157779D01*
X119843924Y-118894987D01*
X119497102Y-118826000D01*
X119262898Y-118826000D01*
X118916076Y-118894987D01*
X118522779Y-119157779D01*
X118259987Y-119551076D01*
X118167707Y-120015000D01*
X118035641Y-120015000D01*
X118035641Y-119165000D01*
X118009331Y-119032729D01*
X117934405Y-118920595D01*
X117822271Y-118845669D01*
X117690000Y-118819359D01*
X115990000Y-118819359D01*
X115857729Y-118845669D01*
X115745595Y-118920595D01*
X115670669Y-119032729D01*
X115644359Y-119165000D01*
X110446000Y-119165000D01*
X110446000Y-116439004D01*
X112926000Y-116439004D01*
X112926000Y-116732996D01*
X113038506Y-117004610D01*
X113246390Y-117212494D01*
X113518004Y-117325000D01*
X113811996Y-117325000D01*
X114083610Y-117212494D01*
X114291494Y-117004610D01*
X114335991Y-116897185D01*
X115717589Y-118278784D01*
X115743475Y-118317525D01*
X115896956Y-118420078D01*
X116032302Y-118447000D01*
X116032305Y-118447000D01*
X116077999Y-118456089D01*
X116123694Y-118447000D01*
X127315806Y-118447000D01*
X128419969Y-119551164D01*
X128327707Y-120015000D01*
X128419987Y-120478924D01*
X128682779Y-120872221D01*
X129076076Y-121135013D01*
X129422898Y-121204000D01*
X129657102Y-121204000D01*
X130003924Y-121135013D01*
X130397221Y-120872221D01*
X130660013Y-120478924D01*
X130752293Y-120015000D01*
X130660013Y-119551076D01*
X130397221Y-119157779D01*
X130003924Y-118894987D01*
X129657102Y-118826000D01*
X129422898Y-118826000D01*
X129076164Y-118894969D01*
X127868413Y-117687219D01*
X127842525Y-117648475D01*
X127689044Y-117545922D01*
X127677093Y-117543545D01*
X127863110Y-117466494D01*
X128070994Y-117258610D01*
X128183500Y-116986996D01*
X128183500Y-116693004D01*
X128070994Y-116421390D01*
X128048848Y-116399244D01*
X128048848Y-115550004D01*
X133055500Y-115550004D01*
X133055500Y-115843996D01*
X133168006Y-116115610D01*
X133375890Y-116323494D01*
X133647504Y-116436000D01*
X133941496Y-116436000D01*
X134213110Y-116323494D01*
X134420994Y-116115610D01*
X134533500Y-115843996D01*
X134533500Y-115550004D01*
X134420994Y-115278390D01*
X134258500Y-115115896D01*
X134258500Y-114788004D01*
X141691500Y-114788004D01*
X141691500Y-115081996D01*
X141804006Y-115353610D01*
X142011890Y-115561494D01*
X142283504Y-115674000D01*
X142577496Y-115674000D01*
X142849110Y-115561494D01*
X143056994Y-115353610D01*
X143169500Y-115081996D01*
X143169500Y-114788004D01*
X143056994Y-114516390D01*
X142894500Y-114353896D01*
X142894500Y-106578298D01*
X142976110Y-106544494D01*
X143183994Y-106336610D01*
X143296500Y-106064996D01*
X143296500Y-105771004D01*
X143183994Y-105499390D01*
X142976110Y-105291506D01*
X142704496Y-105179000D01*
X142410504Y-105179000D01*
X142138890Y-105291506D01*
X141931006Y-105499390D01*
X141818500Y-105771004D01*
X141818500Y-106064996D01*
X141931006Y-106336610D01*
X141966501Y-106372105D01*
X141966500Y-114353896D01*
X141804006Y-114516390D01*
X141691500Y-114788004D01*
X134258500Y-114788004D01*
X134258500Y-113007000D01*
X134322496Y-113007000D01*
X134594110Y-112894494D01*
X134801994Y-112686610D01*
X134914500Y-112414996D01*
X134914500Y-112121004D01*
X134801994Y-111849390D01*
X134594110Y-111641506D01*
X134322496Y-111529000D01*
X134028504Y-111529000D01*
X133756890Y-111641506D01*
X133549006Y-111849390D01*
X133436500Y-112121004D01*
X133436500Y-112349609D01*
X133434090Y-112353216D01*
X133357422Y-112467957D01*
X133321411Y-112649000D01*
X133330501Y-112694699D01*
X133330500Y-115115896D01*
X133168006Y-115278390D01*
X133055500Y-115550004D01*
X128048848Y-115550004D01*
X128048848Y-113878452D01*
X128211342Y-113715958D01*
X128323848Y-113444344D01*
X128323848Y-113150352D01*
X128211342Y-112878738D01*
X128003458Y-112670854D01*
X127731844Y-112558348D01*
X127437852Y-112558348D01*
X127166238Y-112670854D01*
X126958354Y-112878738D01*
X126845848Y-113150352D01*
X126845848Y-113444344D01*
X126958354Y-113715958D01*
X127120848Y-113878452D01*
X127120849Y-116174173D01*
X127025890Y-116213506D01*
X126818006Y-116421390D01*
X126705500Y-116693004D01*
X126705500Y-116986996D01*
X126818006Y-117258610D01*
X127025890Y-117466494D01*
X127152651Y-117519000D01*
X116270195Y-117519000D01*
X114804000Y-116052806D01*
X114804000Y-113992104D01*
X114966494Y-113829610D01*
X115079000Y-113557996D01*
X115079000Y-113264004D01*
X114966494Y-112992390D01*
X114758610Y-112784506D01*
X114486996Y-112672000D01*
X114193004Y-112672000D01*
X114129000Y-112698511D01*
X114129000Y-107443694D01*
X114534695Y-107038000D01*
X114764496Y-107038000D01*
X115036110Y-106925494D01*
X115243994Y-106717610D01*
X115356500Y-106445996D01*
X115356500Y-106152004D01*
X115243994Y-105880390D01*
X115036110Y-105672506D01*
X114764496Y-105560000D01*
X114470504Y-105560000D01*
X114198890Y-105672506D01*
X113991006Y-105880390D01*
X113878500Y-106152004D01*
X113878500Y-106381805D01*
X113369217Y-106891089D01*
X113330476Y-106916975D01*
X113304590Y-106955716D01*
X113227922Y-107070457D01*
X113191911Y-107251500D01*
X113201001Y-107297199D01*
X113201000Y-116004896D01*
X113038506Y-116167390D01*
X112926000Y-116439004D01*
X110446000Y-116439004D01*
X110446000Y-110662694D01*
X110455089Y-110617000D01*
X110446000Y-110571305D01*
X110446000Y-110571302D01*
X110419078Y-110435956D01*
X110388689Y-110390476D01*
X110342411Y-110321215D01*
X110342409Y-110321213D01*
X110316525Y-110282475D01*
X110277787Y-110256591D01*
X109832000Y-109810805D01*
X109832000Y-109581004D01*
X109719494Y-109309390D01*
X109511610Y-109101506D01*
X109239996Y-108989000D01*
X108946004Y-108989000D01*
X108839501Y-109033115D01*
X108839501Y-106002193D01*
X109308696Y-105533000D01*
X112194896Y-105533000D01*
X112357390Y-105695494D01*
X112629004Y-105808000D01*
X112922996Y-105808000D01*
X113194610Y-105695494D01*
X113402494Y-105487610D01*
X113515000Y-105215996D01*
X113515000Y-104922004D01*
X113488489Y-104858000D01*
X123903396Y-104858000D01*
X123897006Y-104864390D01*
X123784500Y-105136004D01*
X123784500Y-105429996D01*
X123897006Y-105701610D01*
X124104890Y-105909494D01*
X124376504Y-106022000D01*
X124670496Y-106022000D01*
X124942110Y-105909494D01*
X125104604Y-105747000D01*
X128881000Y-105747000D01*
X128881000Y-105937996D01*
X128993506Y-106209610D01*
X129201390Y-106417494D01*
X129473004Y-106530000D01*
X129766996Y-106530000D01*
X130028501Y-106421681D01*
X130028500Y-112539806D01*
X130019411Y-112585500D01*
X130028500Y-112631194D01*
X130028500Y-112631197D01*
X130055422Y-112766543D01*
X130157975Y-112920025D01*
X130196719Y-112945913D01*
X130706000Y-113455195D01*
X130706000Y-113684996D01*
X130818506Y-113956610D01*
X131026390Y-114164494D01*
X131298004Y-114277000D01*
X131591996Y-114277000D01*
X131863610Y-114164494D01*
X132071494Y-113956610D01*
X132184000Y-113684996D01*
X132184000Y-113391004D01*
X132071494Y-113119390D01*
X131863610Y-112911506D01*
X131591996Y-112799000D01*
X131362195Y-112799000D01*
X130956500Y-112393306D01*
X130956500Y-105864104D01*
X131118994Y-105701610D01*
X131231500Y-105429996D01*
X131231500Y-105136004D01*
X131118994Y-104864390D01*
X131112604Y-104858000D01*
X137721896Y-104858000D01*
X137884390Y-105020494D01*
X138156004Y-105133000D01*
X138449996Y-105133000D01*
X138721610Y-105020494D01*
X138929494Y-104812610D01*
X139042000Y-104540996D01*
X139042000Y-104247004D01*
X138929494Y-103975390D01*
X138721610Y-103767506D01*
X138449996Y-103655000D01*
X138156004Y-103655000D01*
X137884390Y-103767506D01*
X137721896Y-103930000D01*
X129621452Y-103930000D01*
X129684000Y-103778996D01*
X129684000Y-103485004D01*
X129571494Y-103213390D01*
X129363610Y-103005506D01*
X129091996Y-102893000D01*
X128798004Y-102893000D01*
X128526390Y-103005506D01*
X128363896Y-103168000D01*
X128112604Y-103168000D01*
X128013610Y-103069006D01*
X127741996Y-102956500D01*
X127448004Y-102956500D01*
X127176390Y-103069006D01*
X126968506Y-103276890D01*
X126856000Y-103548504D01*
X126856000Y-103842496D01*
X126892245Y-103930000D01*
X111444195Y-103930000D01*
X110975000Y-103460806D01*
X110975000Y-103231004D01*
X110862494Y-102959390D01*
X110654610Y-102751506D01*
X110382996Y-102639000D01*
X110089004Y-102639000D01*
X109817390Y-102751506D01*
X109609506Y-102959390D01*
X109497000Y-103231004D01*
X109497000Y-103524996D01*
X109609506Y-103796610D01*
X109817390Y-104004494D01*
X110089004Y-104117000D01*
X110318806Y-104117000D01*
X110806805Y-104605000D01*
X109162194Y-104605000D01*
X109116500Y-104595911D01*
X109070805Y-104605000D01*
X109070802Y-104605000D01*
X108935456Y-104631922D01*
X108820715Y-104708589D01*
X108820713Y-104708591D01*
X108781975Y-104734475D01*
X108756091Y-104773213D01*
X108079717Y-105449588D01*
X108040977Y-105475474D01*
X108015091Y-105514215D01*
X107938423Y-105628956D01*
X107902412Y-105809999D01*
X107017000Y-105809999D01*
X107017000Y-104213104D01*
X107179494Y-104050610D01*
X107292000Y-103778996D01*
X107292000Y-103485004D01*
X107179494Y-103213390D01*
X106971610Y-103005506D01*
X106699996Y-102893000D01*
X106406004Y-102893000D01*
X106191500Y-102981850D01*
X106191500Y-102006400D01*
X114407544Y-102006400D01*
X114499824Y-102470324D01*
X114762616Y-102863621D01*
X115155913Y-103126413D01*
X115502735Y-103195400D01*
X115736939Y-103195400D01*
X116083761Y-103126413D01*
X116477058Y-102863621D01*
X116739799Y-102470400D01*
X118260038Y-102470400D01*
X118522779Y-102863621D01*
X118916076Y-103126413D01*
X119262898Y-103195400D01*
X119497102Y-103195400D01*
X119843924Y-103126413D01*
X120237221Y-102863621D01*
X120499962Y-102470400D01*
X131945406Y-102470400D01*
X131991100Y-102479489D01*
X132036794Y-102470400D01*
X132036798Y-102470400D01*
X132172144Y-102443478D01*
X132325625Y-102340925D01*
X132351513Y-102302181D01*
X133330695Y-101323000D01*
X133560496Y-101323000D01*
X133832110Y-101210494D01*
X134039994Y-101002610D01*
X134152500Y-100730996D01*
X134152500Y-100437004D01*
X134126198Y-100373504D01*
X136167000Y-100373504D01*
X136167000Y-100667496D01*
X136279506Y-100939110D01*
X136487390Y-101146994D01*
X136759004Y-101259500D01*
X137052996Y-101259500D01*
X137324610Y-101146994D01*
X137532494Y-100939110D01*
X137566298Y-100857500D01*
X138991896Y-100857500D01*
X139154390Y-101019994D01*
X139426004Y-101132500D01*
X139719996Y-101132500D01*
X139991610Y-101019994D01*
X140199494Y-100812110D01*
X140312000Y-100540496D01*
X140312000Y-100246504D01*
X140199494Y-99974890D01*
X139991610Y-99767006D01*
X139719996Y-99654500D01*
X139426004Y-99654500D01*
X139154390Y-99767006D01*
X138991896Y-99929500D01*
X137360104Y-99929500D01*
X137324610Y-99894006D01*
X137052996Y-99781500D01*
X136759004Y-99781500D01*
X136487390Y-99894006D01*
X136279506Y-100101890D01*
X136167000Y-100373504D01*
X134126198Y-100373504D01*
X134039994Y-100165390D01*
X133832110Y-99957506D01*
X133560496Y-99845000D01*
X133266504Y-99845000D01*
X132994890Y-99957506D01*
X132787006Y-100165390D01*
X132674500Y-100437004D01*
X132674500Y-100666805D01*
X131798906Y-101542400D01*
X120499962Y-101542400D01*
X120237221Y-101149179D01*
X119843924Y-100886387D01*
X119497102Y-100817400D01*
X119262898Y-100817400D01*
X118916076Y-100886387D01*
X118522779Y-101149179D01*
X118260038Y-101542400D01*
X116739799Y-101542400D01*
X116477058Y-101149179D01*
X116083761Y-100886387D01*
X115736939Y-100817400D01*
X115502735Y-100817400D01*
X115155913Y-100886387D01*
X114762616Y-101149179D01*
X114499824Y-101542476D01*
X114407544Y-102006400D01*
X106191500Y-102006400D01*
X106191500Y-100585694D01*
X106533695Y-100243500D01*
X106763496Y-100243500D01*
X107035110Y-100130994D01*
X107242994Y-99923110D01*
X107355500Y-99651496D01*
X107355500Y-99466400D01*
X114407544Y-99466400D01*
X114499824Y-99930324D01*
X114762616Y-100323621D01*
X115155913Y-100586413D01*
X115502735Y-100655400D01*
X115736939Y-100655400D01*
X116083761Y-100586413D01*
X116477058Y-100323621D01*
X116739799Y-99930400D01*
X118260038Y-99930400D01*
X118522779Y-100323621D01*
X118916076Y-100586413D01*
X119262898Y-100655400D01*
X119497102Y-100655400D01*
X119843924Y-100586413D01*
X120237221Y-100323621D01*
X120500013Y-99930324D01*
X120592293Y-99466400D01*
X120500013Y-99002476D01*
X120237221Y-98609179D01*
X119843924Y-98346387D01*
X119497102Y-98277400D01*
X119262898Y-98277400D01*
X118916076Y-98346387D01*
X118522779Y-98609179D01*
X118260038Y-99002400D01*
X116739799Y-99002400D01*
X116477058Y-98609179D01*
X116083761Y-98346387D01*
X115736939Y-98277400D01*
X115502735Y-98277400D01*
X115155913Y-98346387D01*
X114762616Y-98609179D01*
X114499824Y-99002476D01*
X114407544Y-99466400D01*
X107355500Y-99466400D01*
X107355500Y-99357504D01*
X107242994Y-99085890D01*
X107035110Y-98878006D01*
X106763496Y-98765500D01*
X106469504Y-98765500D01*
X106197890Y-98878006D01*
X105990006Y-99085890D01*
X105877500Y-99357504D01*
X105877500Y-99587305D01*
X105431717Y-100033089D01*
X105392976Y-100058975D01*
X105367090Y-100097716D01*
X105290422Y-100212457D01*
X105254411Y-100393500D01*
X105263501Y-100439199D01*
X105263500Y-106352896D01*
X105101006Y-106515390D01*
X104988500Y-106787004D01*
X100379100Y-106787004D01*
X100575494Y-106590610D01*
X100688000Y-106318996D01*
X100688000Y-106025004D01*
X100575494Y-105753390D01*
X100367610Y-105545506D01*
X100095996Y-105433000D01*
X99802004Y-105433000D01*
X99530390Y-105545506D01*
X99322506Y-105753390D01*
X99210000Y-106025004D01*
X99210000Y-106318996D01*
X99322506Y-106590610D01*
X99421501Y-106689605D01*
X99421500Y-107622896D01*
X99259006Y-107785390D01*
X99146500Y-108057004D01*
X96603000Y-108057004D01*
X96603000Y-105201698D01*
X96612090Y-105156000D01*
X96576078Y-104974956D01*
X96499411Y-104860216D01*
X96473525Y-104821475D01*
X96434784Y-104795589D01*
X96368952Y-104729757D01*
X96368952Y-104499956D01*
X96256446Y-104228342D01*
X96048562Y-104020458D01*
X95776948Y-103907952D01*
X95482956Y-103907952D01*
X95211342Y-104020458D01*
X95003458Y-104228342D01*
X94890952Y-104499956D01*
X89314000Y-104499956D01*
X89314000Y-102977004D01*
X90002500Y-102977004D01*
X90002500Y-103270996D01*
X90115006Y-103542610D01*
X90322890Y-103750494D01*
X90594504Y-103863000D01*
X90888496Y-103863000D01*
X91160110Y-103750494D01*
X91322604Y-103588000D01*
X96383396Y-103588000D01*
X96545890Y-103750494D01*
X96817504Y-103863000D01*
X97111496Y-103863000D01*
X97383110Y-103750494D01*
X97590994Y-103542610D01*
X97703500Y-103270996D01*
X97703500Y-102977004D01*
X97590994Y-102705390D01*
X97383110Y-102497506D01*
X97111496Y-102385000D01*
X96817504Y-102385000D01*
X96545890Y-102497506D01*
X96383396Y-102660000D01*
X91322604Y-102660000D01*
X91160110Y-102497506D01*
X90888496Y-102385000D01*
X90594504Y-102385000D01*
X90322890Y-102497506D01*
X90115006Y-102705390D01*
X90002500Y-102977004D01*
X89314000Y-102977004D01*
X89314000Y-99865504D01*
X90066000Y-99865504D01*
X90066000Y-100159496D01*
X90178506Y-100431110D01*
X90386390Y-100638994D01*
X90560228Y-100711000D01*
X90386390Y-100783006D01*
X90178506Y-100990890D01*
X90066000Y-101262504D01*
X90066000Y-101556496D01*
X90178506Y-101828110D01*
X90386390Y-102035994D01*
X90658004Y-102148500D01*
X90951996Y-102148500D01*
X91223610Y-102035994D01*
X91386104Y-101873500D01*
X96220306Y-101873500D01*
X96266000Y-101882589D01*
X96311694Y-101873500D01*
X96311698Y-101873500D01*
X96447044Y-101846578D01*
X96565392Y-101767500D01*
X96793996Y-101767500D01*
X97065610Y-101654994D01*
X97273494Y-101447110D01*
X97386000Y-101175496D01*
X97386000Y-100881504D01*
X97349755Y-100794000D01*
X101653896Y-100794000D01*
X101816390Y-100956494D01*
X102088004Y-101069000D01*
X102381996Y-101069000D01*
X102653610Y-100956494D01*
X102861494Y-100748610D01*
X102974000Y-100476996D01*
X102974000Y-100183004D01*
X102861494Y-99911390D01*
X102653610Y-99703506D01*
X102381996Y-99591000D01*
X102088004Y-99591000D01*
X101852922Y-99688374D01*
X101894500Y-99587996D01*
X101894500Y-99294004D01*
X101781994Y-99022390D01*
X101574110Y-98814506D01*
X101302496Y-98702000D01*
X101008504Y-98702000D01*
X100736890Y-98814506D01*
X100574396Y-98977000D01*
X97259000Y-98977000D01*
X97259000Y-98849504D01*
X97146494Y-98577890D01*
X96938610Y-98370006D01*
X96666996Y-98257500D01*
X96373004Y-98257500D01*
X96101390Y-98370006D01*
X95893506Y-98577890D01*
X95781000Y-98849504D01*
X95781000Y-99143496D01*
X95893506Y-99415110D01*
X96101390Y-99622994D01*
X96373004Y-99735500D01*
X96602805Y-99735500D01*
X96604089Y-99736784D01*
X96629975Y-99775525D01*
X96765380Y-99866000D01*
X91544000Y-99866000D01*
X91544000Y-99865504D01*
X91431494Y-99593890D01*
X91223610Y-99386006D01*
X90951996Y-99273500D01*
X90658004Y-99273500D01*
X90386390Y-99386006D01*
X90178506Y-99593890D01*
X90066000Y-99865504D01*
X89314000Y-99865504D01*
X89314000Y-97062650D01*
X114484837Y-97062650D01*
X114484837Y-97833090D01*
X114528226Y-97937840D01*
X114608397Y-98018011D01*
X114713147Y-98061400D01*
X115483587Y-98061400D01*
X115554837Y-97990150D01*
X115554837Y-96991400D01*
X115684837Y-96991400D01*
X115684837Y-97990150D01*
X115756087Y-98061400D01*
X116526527Y-98061400D01*
X116631277Y-98018011D01*
X116711448Y-97937840D01*
X116754837Y-97833090D01*
X116754837Y-97062650D01*
X118245000Y-97062650D01*
X118245000Y-97833090D01*
X118288389Y-97937840D01*
X118368560Y-98018011D01*
X118473310Y-98061400D01*
X119243750Y-98061400D01*
X119315000Y-97990150D01*
X119315000Y-96991400D01*
X119445000Y-96991400D01*
X119445000Y-97990150D01*
X119516250Y-98061400D01*
X120286690Y-98061400D01*
X120391440Y-98018011D01*
X120471611Y-97937840D01*
X120515000Y-97833090D01*
X120515000Y-97062650D01*
X120443750Y-96991400D01*
X119445000Y-96991400D01*
X119315000Y-96991400D01*
X118316250Y-96991400D01*
X118245000Y-97062650D01*
X116754837Y-97062650D01*
X116683587Y-96991400D01*
X115684837Y-96991400D01*
X115554837Y-96991400D01*
X114556087Y-96991400D01*
X114484837Y-97062650D01*
X89314000Y-97062650D01*
X89314000Y-96019710D01*
X114484837Y-96019710D01*
X114484837Y-96790150D01*
X114556087Y-96861400D01*
X115554837Y-96861400D01*
X115554837Y-95862650D01*
X115684837Y-95862650D01*
X115684837Y-96861400D01*
X116683587Y-96861400D01*
X116754837Y-96790150D01*
X116754837Y-96019710D01*
X118245000Y-96019710D01*
X118245000Y-96790150D01*
X118316250Y-96861400D01*
X119315000Y-96861400D01*
X119315000Y-95862650D01*
X119445000Y-95862650D01*
X119445000Y-96861400D01*
X120443750Y-96861400D01*
X120515000Y-96790150D01*
X120515000Y-96019710D01*
X120471611Y-95914960D01*
X120391440Y-95834789D01*
X120286690Y-95791400D01*
X119516250Y-95791400D01*
X119445000Y-95862650D01*
X119315000Y-95862650D01*
X119243750Y-95791400D01*
X118473310Y-95791400D01*
X118368560Y-95834789D01*
X118288389Y-95914960D01*
X118245000Y-96019710D01*
X116754837Y-96019710D01*
X116711448Y-95914960D01*
X116631277Y-95834789D01*
X116526527Y-95791400D01*
X115756087Y-95791400D01*
X115684837Y-95862650D01*
X115554837Y-95862650D01*
X115483587Y-95791400D01*
X114713147Y-95791400D01*
X114608397Y-95834789D01*
X114528226Y-95914960D01*
X114484837Y-96019710D01*
X89314000Y-96019710D01*
X89314000Y-93632000D01*
X113832772Y-93632000D01*
X113872765Y-93624045D01*
X113872767Y-93624045D01*
X114067171Y-93585376D01*
X114216410Y-93523559D01*
X114381217Y-93413438D01*
X114438327Y-93356327D01*
X114491655Y-93303000D01*
X114976475Y-93303000D01*
X115031245Y-93357770D01*
X115031245Y-93357770D01*
G37*
X115031245Y-93357770D02*
X115339613Y-93485500D01*
X115673387Y-93485500D01*
X115981755Y-93357770D01*
X116036525Y-93303000D01*
X117008475Y-93303000D01*
X117063245Y-93357770D01*
X117371613Y-93485500D01*
X117705387Y-93485500D01*
X118013755Y-93357770D01*
X118068525Y-93303000D01*
X119040475Y-93303000D01*
X119095245Y-93357770D01*
X119403613Y-93485500D01*
X119737387Y-93485500D01*
X120045755Y-93357770D01*
X120100525Y-93303000D01*
X120712345Y-93303000D01*
X120765673Y-93356327D01*
X120822783Y-93413438D01*
X120987590Y-93523559D01*
X121136829Y-93585376D01*
X121136830Y-93585376D01*
X121331233Y-93624045D01*
X121331235Y-93624045D01*
X121371228Y-93632000D01*
X144366000Y-93632000D01*
X144366001Y-121506000D01*
X95738638Y-121506000D01*
X95986110Y-121403494D01*
X96193994Y-121195610D01*
X96306500Y-120923996D01*
X96306500Y-120630004D01*
X96193994Y-120358390D01*
X96031500Y-120195896D01*
X96031500Y-118202945D01*
X96270407Y-118301903D01*
X96564399Y-118301903D01*
X96836013Y-118189397D01*
X97043897Y-117981513D01*
X97156403Y-117709899D01*
X97156403Y-117415907D01*
X97043897Y-117144293D01*
X96881403Y-116981799D01*
X96881403Y-115677004D01*
X99464000Y-115677004D01*
X99464000Y-115970996D01*
X99576506Y-116242610D01*
X99784390Y-116450494D01*
X100056004Y-116563000D01*
X100056501Y-116563000D01*
X100056500Y-118671896D01*
X99894006Y-118834390D01*
X99781500Y-119106004D01*
X99781500Y-119399996D01*
X99894006Y-119671610D01*
X100101890Y-119879494D01*
X100373504Y-119992000D01*
X100667496Y-119992000D01*
X100939110Y-119879494D01*
X101146994Y-119671610D01*
X101259500Y-119399996D01*
X101259500Y-119106004D01*
X101146994Y-118834390D01*
X100984500Y-118671896D01*
X100984500Y-116187194D01*
X100993589Y-116141500D01*
X100984500Y-116095805D01*
X100984500Y-116095802D01*
X100962097Y-115983172D01*
X101135504Y-116055000D01*
X101375778Y-116055000D01*
X101458956Y-116110578D01*
X101594302Y-116137500D01*
X101594305Y-116137500D01*
X101639999Y-116146589D01*
X101685694Y-116137500D01*
X104767793Y-116137500D01*
X104755500Y-116199303D01*
X104755500Y-116199306D01*
X104746411Y-116245000D01*
X104755500Y-116290694D01*
X104755501Y-119814895D01*
X104593006Y-119977390D01*
X104480500Y-120249004D01*
X104480500Y-120542996D01*
X104593006Y-120814610D01*
X104800890Y-121022494D01*
X105072504Y-121135000D01*
X105366496Y-121135000D01*
X105638110Y-121022494D01*
X105845994Y-120814610D01*
X105958500Y-120542996D01*
X105958500Y-120249004D01*
X105845994Y-119977390D01*
X105683500Y-119814896D01*
X105683500Y-116437194D01*
X105708194Y-116412500D01*
X105937996Y-116412500D01*
X106209610Y-116299994D01*
X106417494Y-116092110D01*
X106530000Y-115820496D01*
X106530000Y-115526504D01*
X106417494Y-115254890D01*
X106209610Y-115047006D01*
X105937996Y-114934500D01*
X105644004Y-114934500D01*
X105372390Y-115047006D01*
X105209896Y-115209500D01*
X102045194Y-115209500D01*
X103121806Y-114132889D01*
X103352110Y-114037494D01*
X103559994Y-113829610D01*
X103672500Y-113557996D01*
X103672500Y-113264004D01*
X103559994Y-112992390D01*
X103352110Y-112784506D01*
X103080496Y-112672000D01*
X102786504Y-112672000D01*
X102514890Y-112784506D01*
X102307006Y-112992390D01*
X102194500Y-113264004D01*
X102194500Y-113557996D01*
X102250094Y-113692211D01*
X101365306Y-114577000D01*
X101135504Y-114577000D01*
X100863890Y-114689506D01*
X100656006Y-114897390D01*
X100544862Y-115165716D01*
X100349996Y-115085000D01*
X100056004Y-115085000D01*
X99784390Y-115197506D01*
X99576506Y-115405390D01*
X99464000Y-115677004D01*
X96881403Y-115677004D01*
X96881403Y-115428201D01*
X96892494Y-115417110D01*
X97005000Y-115145496D01*
X97005000Y-114851504D01*
X96892494Y-114579890D01*
X96684610Y-114372006D01*
X96412996Y-114259500D01*
X96119004Y-114259500D01*
X95847390Y-114372006D01*
X95639506Y-114579890D01*
X95527000Y-114851504D01*
X95527000Y-115145496D01*
X95639506Y-115417110D01*
X95847390Y-115624994D01*
X95953404Y-115668906D01*
X95953403Y-116416566D01*
X95876494Y-116230890D01*
X95668610Y-116023006D01*
X95396996Y-115910500D01*
X95103004Y-115910500D01*
X94831390Y-116023006D01*
X94623506Y-116230890D01*
X94511000Y-116502504D01*
X94511000Y-116796496D01*
X94623506Y-117068110D01*
X94831390Y-117275994D01*
X95103004Y-117388500D01*
X95103501Y-117388500D01*
X95103500Y-120195896D01*
X94941006Y-120358390D01*
X94828500Y-120630004D01*
X94828500Y-120923996D01*
X94941006Y-121195610D01*
X95148890Y-121403494D01*
X95396362Y-121506000D01*
X89314000Y-121506000D01*
X89314000Y-104499956D01*
X94890952Y-104499956D01*
X94890952Y-104793948D01*
X95003458Y-105065562D01*
X95211342Y-105273446D01*
X95482956Y-105385952D01*
X95675000Y-105385952D01*
X95675001Y-110289895D01*
X95512506Y-110452390D01*
X95400000Y-110724004D01*
X95400000Y-111017996D01*
X95512506Y-111289610D01*
X95720390Y-111497494D01*
X95992004Y-111610000D01*
X96285996Y-111610000D01*
X96557610Y-111497494D01*
X96765494Y-111289610D01*
X96878000Y-111017996D01*
X96878000Y-110724004D01*
X96765494Y-110452390D01*
X96603000Y-110289896D01*
X96603000Y-108057004D01*
X99146500Y-108057004D01*
X99146500Y-108350996D01*
X99259006Y-108622610D01*
X99466890Y-108830494D01*
X99738504Y-108943000D01*
X100032496Y-108943000D01*
X100304110Y-108830494D01*
X100511994Y-108622610D01*
X100624500Y-108350996D01*
X100624500Y-108057004D01*
X100511994Y-107785390D01*
X100349500Y-107622896D01*
X100349500Y-106805995D01*
X100367610Y-106798494D01*
X100379100Y-106787004D01*
X104988500Y-106787004D01*
X104988500Y-107080996D01*
X105101006Y-107352610D01*
X105308890Y-107560494D01*
X105580504Y-107673000D01*
X105874496Y-107673000D01*
X106089001Y-107584149D01*
X106089000Y-113464896D01*
X105926506Y-113627390D01*
X105814000Y-113899004D01*
X105814000Y-114192996D01*
X105926506Y-114464610D01*
X106134390Y-114672494D01*
X106406004Y-114785000D01*
X106699996Y-114785000D01*
X106971610Y-114672494D01*
X107179494Y-114464610D01*
X107292000Y-114192996D01*
X107292000Y-113899004D01*
X107179494Y-113627390D01*
X107017000Y-113464896D01*
X107017000Y-105809999D01*
X107902412Y-105809999D01*
X107911502Y-105855698D01*
X107911501Y-110679307D01*
X107902412Y-110725001D01*
X107911501Y-110770695D01*
X107911501Y-110770698D01*
X107938423Y-110906044D01*
X108036500Y-111052827D01*
X108036500Y-111271996D01*
X108149006Y-111543610D01*
X108356890Y-111751494D01*
X108628504Y-111864000D01*
X108922496Y-111864000D01*
X109194110Y-111751494D01*
X109401994Y-111543610D01*
X109514500Y-111271996D01*
X109514500Y-110978004D01*
X109401994Y-110706390D01*
X109194110Y-110498506D01*
X109118048Y-110467000D01*
X109175805Y-110467000D01*
X109518001Y-110809197D01*
X109518000Y-119814896D01*
X109355506Y-119977390D01*
X109243000Y-120249004D01*
X109243000Y-120542996D01*
X109355506Y-120814610D01*
X109563390Y-121022494D01*
X109835004Y-121135000D01*
X110128996Y-121135000D01*
X110400610Y-121022494D01*
X110608494Y-120814610D01*
X110721000Y-120542996D01*
X110721000Y-120249004D01*
X110608494Y-119977390D01*
X110446000Y-119814896D01*
X110446000Y-119165000D01*
X115644359Y-119165000D01*
X115644359Y-120865000D01*
X115670669Y-120997271D01*
X115745595Y-121109405D01*
X115857729Y-121184331D01*
X115990000Y-121210641D01*
X117690000Y-121210641D01*
X117822271Y-121184331D01*
X117934405Y-121109405D01*
X118009331Y-120997271D01*
X118035641Y-120865000D01*
X118035641Y-120015000D01*
X118167707Y-120015000D01*
X118259987Y-120478924D01*
X118522779Y-120872221D01*
X118916076Y-121135013D01*
X119262898Y-121204000D01*
X119497102Y-121204000D01*
X119843924Y-121135013D01*
X120237221Y-120872221D01*
X120500013Y-120478924D01*
X120592293Y-120015000D01*
X120707707Y-120015000D01*
X120799987Y-120478924D01*
X121062779Y-120872221D01*
X121456076Y-121135013D01*
X121802898Y-121204000D01*
X122037102Y-121204000D01*
X122383924Y-121135013D01*
X122777221Y-120872221D01*
X123040013Y-120478924D01*
X123132293Y-120015000D01*
X123247707Y-120015000D01*
X123339987Y-120478924D01*
X123602779Y-120872221D01*
X123996076Y-121135013D01*
X124342898Y-121204000D01*
X124577102Y-121204000D01*
X124923924Y-121135013D01*
X125317221Y-120872221D01*
X125580013Y-120478924D01*
X125672293Y-120015000D01*
X125787707Y-120015000D01*
X125879987Y-120478924D01*
X126142779Y-120872221D01*
X126536076Y-121135013D01*
X126882898Y-121204000D01*
X127117102Y-121204000D01*
X127463924Y-121135013D01*
X127857221Y-120872221D01*
X128120013Y-120478924D01*
X128212293Y-120015000D01*
X128120013Y-119551076D01*
X127857221Y-119157779D01*
X127463924Y-118894987D01*
X127117102Y-118826000D01*
X126882898Y-118826000D01*
X126536076Y-118894987D01*
X126142779Y-119157779D01*
X125879987Y-119551076D01*
X125787707Y-120015000D01*
X125672293Y-120015000D01*
X125580013Y-119551076D01*
X125317221Y-119157779D01*
X124923924Y-118894987D01*
X124577102Y-118826000D01*
X124342898Y-118826000D01*
X123996076Y-118894987D01*
X123602779Y-119157779D01*
X123339987Y-119551076D01*
X123247707Y-120015000D01*
X123132293Y-120015000D01*
X123040013Y-119551076D01*
X122777221Y-119157779D01*
X122383924Y-118894987D01*
X122037102Y-118826000D01*
X121802898Y-118826000D01*
X121456076Y-118894987D01*
X121062779Y-119157779D01*
X120799987Y-119551076D01*
X120707707Y-120015000D01*
X120592293Y-120015000D01*
X120500013Y-119551076D01*
X120237221Y-119157779D01*
X119843924Y-118894987D01*
X119497102Y-118826000D01*
X119262898Y-118826000D01*
X118916076Y-118894987D01*
X118522779Y-119157779D01*
X118259987Y-119551076D01*
X118167707Y-120015000D01*
X118035641Y-120015000D01*
X118035641Y-119165000D01*
X118009331Y-119032729D01*
X117934405Y-118920595D01*
X117822271Y-118845669D01*
X117690000Y-118819359D01*
X115990000Y-118819359D01*
X115857729Y-118845669D01*
X115745595Y-118920595D01*
X115670669Y-119032729D01*
X115644359Y-119165000D01*
X110446000Y-119165000D01*
X110446000Y-116439004D01*
X112926000Y-116439004D01*
X112926000Y-116732996D01*
X113038506Y-117004610D01*
X113246390Y-117212494D01*
X113518004Y-117325000D01*
X113811996Y-117325000D01*
X114083610Y-117212494D01*
X114291494Y-117004610D01*
X114335991Y-116897185D01*
X115717589Y-118278784D01*
X115743475Y-118317525D01*
X115896956Y-118420078D01*
X116032302Y-118447000D01*
X116032305Y-118447000D01*
X116077999Y-118456089D01*
X116123694Y-118447000D01*
X127315806Y-118447000D01*
X128419969Y-119551164D01*
X128327707Y-120015000D01*
X128419987Y-120478924D01*
X128682779Y-120872221D01*
X129076076Y-121135013D01*
X129422898Y-121204000D01*
X129657102Y-121204000D01*
X130003924Y-121135013D01*
X130397221Y-120872221D01*
X130660013Y-120478924D01*
X130752293Y-120015000D01*
X130660013Y-119551076D01*
X130397221Y-119157779D01*
X130003924Y-118894987D01*
X129657102Y-118826000D01*
X129422898Y-118826000D01*
X129076164Y-118894969D01*
X127868413Y-117687219D01*
X127842525Y-117648475D01*
X127689044Y-117545922D01*
X127677093Y-117543545D01*
X127863110Y-117466494D01*
X128070994Y-117258610D01*
X128183500Y-116986996D01*
X128183500Y-116693004D01*
X128070994Y-116421390D01*
X128048848Y-116399244D01*
X128048848Y-115550004D01*
X133055500Y-115550004D01*
X133055500Y-115843996D01*
X133168006Y-116115610D01*
X133375890Y-116323494D01*
X133647504Y-116436000D01*
X133941496Y-116436000D01*
X134213110Y-116323494D01*
X134420994Y-116115610D01*
X134533500Y-115843996D01*
X134533500Y-115550004D01*
X134420994Y-115278390D01*
X134258500Y-115115896D01*
X134258500Y-114788004D01*
X141691500Y-114788004D01*
X141691500Y-115081996D01*
X141804006Y-115353610D01*
X142011890Y-115561494D01*
X142283504Y-115674000D01*
X142577496Y-115674000D01*
X142849110Y-115561494D01*
X143056994Y-115353610D01*
X143169500Y-115081996D01*
X143169500Y-114788004D01*
X143056994Y-114516390D01*
X142894500Y-114353896D01*
X142894500Y-106578298D01*
X142976110Y-106544494D01*
X143183994Y-106336610D01*
X143296500Y-106064996D01*
X143296500Y-105771004D01*
X143183994Y-105499390D01*
X142976110Y-105291506D01*
X142704496Y-105179000D01*
X142410504Y-105179000D01*
X142138890Y-105291506D01*
X141931006Y-105499390D01*
X141818500Y-105771004D01*
X141818500Y-106064996D01*
X141931006Y-106336610D01*
X141966501Y-106372105D01*
X141966500Y-114353896D01*
X141804006Y-114516390D01*
X141691500Y-114788004D01*
X134258500Y-114788004D01*
X134258500Y-113007000D01*
X134322496Y-113007000D01*
X134594110Y-112894494D01*
X134801994Y-112686610D01*
X134914500Y-112414996D01*
X134914500Y-112121004D01*
X134801994Y-111849390D01*
X134594110Y-111641506D01*
X134322496Y-111529000D01*
X134028504Y-111529000D01*
X133756890Y-111641506D01*
X133549006Y-111849390D01*
X133436500Y-112121004D01*
X133436500Y-112349609D01*
X133434090Y-112353216D01*
X133357422Y-112467957D01*
X133321411Y-112649000D01*
X133330501Y-112694699D01*
X133330500Y-115115896D01*
X133168006Y-115278390D01*
X133055500Y-115550004D01*
X128048848Y-115550004D01*
X128048848Y-113878452D01*
X128211342Y-113715958D01*
X128323848Y-113444344D01*
X128323848Y-113150352D01*
X128211342Y-112878738D01*
X128003458Y-112670854D01*
X127731844Y-112558348D01*
X127437852Y-112558348D01*
X127166238Y-112670854D01*
X126958354Y-112878738D01*
X126845848Y-113150352D01*
X126845848Y-113444344D01*
X126958354Y-113715958D01*
X127120848Y-113878452D01*
X127120849Y-116174173D01*
X127025890Y-116213506D01*
X126818006Y-116421390D01*
X126705500Y-116693004D01*
X126705500Y-116986996D01*
X126818006Y-117258610D01*
X127025890Y-117466494D01*
X127152651Y-117519000D01*
X116270195Y-117519000D01*
X114804000Y-116052806D01*
X114804000Y-113992104D01*
X114966494Y-113829610D01*
X115079000Y-113557996D01*
X115079000Y-113264004D01*
X114966494Y-112992390D01*
X114758610Y-112784506D01*
X114486996Y-112672000D01*
X114193004Y-112672000D01*
X114129000Y-112698511D01*
X114129000Y-107443694D01*
X114534695Y-107038000D01*
X114764496Y-107038000D01*
X115036110Y-106925494D01*
X115243994Y-106717610D01*
X115356500Y-106445996D01*
X115356500Y-106152004D01*
X115243994Y-105880390D01*
X115036110Y-105672506D01*
X114764496Y-105560000D01*
X114470504Y-105560000D01*
X114198890Y-105672506D01*
X113991006Y-105880390D01*
X113878500Y-106152004D01*
X113878500Y-106381805D01*
X113369217Y-106891089D01*
X113330476Y-106916975D01*
X113304590Y-106955716D01*
X113227922Y-107070457D01*
X113191911Y-107251500D01*
X113201001Y-107297199D01*
X113201000Y-116004896D01*
X113038506Y-116167390D01*
X112926000Y-116439004D01*
X110446000Y-116439004D01*
X110446000Y-110662694D01*
X110455089Y-110617000D01*
X110446000Y-110571305D01*
X110446000Y-110571302D01*
X110419078Y-110435956D01*
X110388689Y-110390476D01*
X110342411Y-110321215D01*
X110342409Y-110321213D01*
X110316525Y-110282475D01*
X110277787Y-110256591D01*
X109832000Y-109810805D01*
X109832000Y-109581004D01*
X109719494Y-109309390D01*
X109511610Y-109101506D01*
X109239996Y-108989000D01*
X108946004Y-108989000D01*
X108839501Y-109033115D01*
X108839501Y-106002193D01*
X109308696Y-105533000D01*
X112194896Y-105533000D01*
X112357390Y-105695494D01*
X112629004Y-105808000D01*
X112922996Y-105808000D01*
X113194610Y-105695494D01*
X113402494Y-105487610D01*
X113515000Y-105215996D01*
X113515000Y-104922004D01*
X113488489Y-104858000D01*
X123903396Y-104858000D01*
X123897006Y-104864390D01*
X123784500Y-105136004D01*
X123784500Y-105429996D01*
X123897006Y-105701610D01*
X124104890Y-105909494D01*
X124376504Y-106022000D01*
X124670496Y-106022000D01*
X124942110Y-105909494D01*
X125104604Y-105747000D01*
X128881000Y-105747000D01*
X128881000Y-105937996D01*
X128993506Y-106209610D01*
X129201390Y-106417494D01*
X129473004Y-106530000D01*
X129766996Y-106530000D01*
X130028501Y-106421681D01*
X130028500Y-112539806D01*
X130019411Y-112585500D01*
X130028500Y-112631194D01*
X130028500Y-112631197D01*
X130055422Y-112766543D01*
X130157975Y-112920025D01*
X130196719Y-112945913D01*
X130706000Y-113455195D01*
X130706000Y-113684996D01*
X130818506Y-113956610D01*
X131026390Y-114164494D01*
X131298004Y-114277000D01*
X131591996Y-114277000D01*
X131863610Y-114164494D01*
X132071494Y-113956610D01*
X132184000Y-113684996D01*
X132184000Y-113391004D01*
X132071494Y-113119390D01*
X131863610Y-112911506D01*
X131591996Y-112799000D01*
X131362195Y-112799000D01*
X130956500Y-112393306D01*
X130956500Y-105864104D01*
X131118994Y-105701610D01*
X131231500Y-105429996D01*
X131231500Y-105136004D01*
X131118994Y-104864390D01*
X131112604Y-104858000D01*
X137721896Y-104858000D01*
X137884390Y-105020494D01*
X138156004Y-105133000D01*
X138449996Y-105133000D01*
X138721610Y-105020494D01*
X138929494Y-104812610D01*
X139042000Y-104540996D01*
X139042000Y-104247004D01*
X138929494Y-103975390D01*
X138721610Y-103767506D01*
X138449996Y-103655000D01*
X138156004Y-103655000D01*
X137884390Y-103767506D01*
X137721896Y-103930000D01*
X129621452Y-103930000D01*
X129684000Y-103778996D01*
X129684000Y-103485004D01*
X129571494Y-103213390D01*
X129363610Y-103005506D01*
X129091996Y-102893000D01*
X128798004Y-102893000D01*
X128526390Y-103005506D01*
X128363896Y-103168000D01*
X128112604Y-103168000D01*
X128013610Y-103069006D01*
X127741996Y-102956500D01*
X127448004Y-102956500D01*
X127176390Y-103069006D01*
X126968506Y-103276890D01*
X126856000Y-103548504D01*
X126856000Y-103842496D01*
X126892245Y-103930000D01*
X111444195Y-103930000D01*
X110975000Y-103460806D01*
X110975000Y-103231004D01*
X110862494Y-102959390D01*
X110654610Y-102751506D01*
X110382996Y-102639000D01*
X110089004Y-102639000D01*
X109817390Y-102751506D01*
X109609506Y-102959390D01*
X109497000Y-103231004D01*
X109497000Y-103524996D01*
X109609506Y-103796610D01*
X109817390Y-104004494D01*
X110089004Y-104117000D01*
X110318806Y-104117000D01*
X110806805Y-104605000D01*
X109162194Y-104605000D01*
X109116500Y-104595911D01*
X109070805Y-104605000D01*
X109070802Y-104605000D01*
X108935456Y-104631922D01*
X108820715Y-104708589D01*
X108820713Y-104708591D01*
X108781975Y-104734475D01*
X108756091Y-104773213D01*
X108079717Y-105449588D01*
X108040977Y-105475474D01*
X108015091Y-105514215D01*
X107938423Y-105628956D01*
X107902412Y-105809999D01*
X107017000Y-105809999D01*
X107017000Y-104213104D01*
X107179494Y-104050610D01*
X107292000Y-103778996D01*
X107292000Y-103485004D01*
X107179494Y-103213390D01*
X106971610Y-103005506D01*
X106699996Y-102893000D01*
X106406004Y-102893000D01*
X106191500Y-102981850D01*
X106191500Y-102006400D01*
X114407544Y-102006400D01*
X114499824Y-102470324D01*
X114762616Y-102863621D01*
X115155913Y-103126413D01*
X115502735Y-103195400D01*
X115736939Y-103195400D01*
X116083761Y-103126413D01*
X116477058Y-102863621D01*
X116739799Y-102470400D01*
X118260038Y-102470400D01*
X118522779Y-102863621D01*
X118916076Y-103126413D01*
X119262898Y-103195400D01*
X119497102Y-103195400D01*
X119843924Y-103126413D01*
X120237221Y-102863621D01*
X120499962Y-102470400D01*
X131945406Y-102470400D01*
X131991100Y-102479489D01*
X132036794Y-102470400D01*
X132036798Y-102470400D01*
X132172144Y-102443478D01*
X132325625Y-102340925D01*
X132351513Y-102302181D01*
X133330695Y-101323000D01*
X133560496Y-101323000D01*
X133832110Y-101210494D01*
X134039994Y-101002610D01*
X134152500Y-100730996D01*
X134152500Y-100437004D01*
X134126198Y-100373504D01*
X136167000Y-100373504D01*
X136167000Y-100667496D01*
X136279506Y-100939110D01*
X136487390Y-101146994D01*
X136759004Y-101259500D01*
X137052996Y-101259500D01*
X137324610Y-101146994D01*
X137532494Y-100939110D01*
X137566298Y-100857500D01*
X138991896Y-100857500D01*
X139154390Y-101019994D01*
X139426004Y-101132500D01*
X139719996Y-101132500D01*
X139991610Y-101019994D01*
X140199494Y-100812110D01*
X140312000Y-100540496D01*
X140312000Y-100246504D01*
X140199494Y-99974890D01*
X139991610Y-99767006D01*
X139719996Y-99654500D01*
X139426004Y-99654500D01*
X139154390Y-99767006D01*
X138991896Y-99929500D01*
X137360104Y-99929500D01*
X137324610Y-99894006D01*
X137052996Y-99781500D01*
X136759004Y-99781500D01*
X136487390Y-99894006D01*
X136279506Y-100101890D01*
X136167000Y-100373504D01*
X134126198Y-100373504D01*
X134039994Y-100165390D01*
X133832110Y-99957506D01*
X133560496Y-99845000D01*
X133266504Y-99845000D01*
X132994890Y-99957506D01*
X132787006Y-100165390D01*
X132674500Y-100437004D01*
X132674500Y-100666805D01*
X131798906Y-101542400D01*
X120499962Y-101542400D01*
X120237221Y-101149179D01*
X119843924Y-100886387D01*
X119497102Y-100817400D01*
X119262898Y-100817400D01*
X118916076Y-100886387D01*
X118522779Y-101149179D01*
X118260038Y-101542400D01*
X116739799Y-101542400D01*
X116477058Y-101149179D01*
X116083761Y-100886387D01*
X115736939Y-100817400D01*
X115502735Y-100817400D01*
X115155913Y-100886387D01*
X114762616Y-101149179D01*
X114499824Y-101542476D01*
X114407544Y-102006400D01*
X106191500Y-102006400D01*
X106191500Y-100585694D01*
X106533695Y-100243500D01*
X106763496Y-100243500D01*
X107035110Y-100130994D01*
X107242994Y-99923110D01*
X107355500Y-99651496D01*
X107355500Y-99466400D01*
X114407544Y-99466400D01*
X114499824Y-99930324D01*
X114762616Y-100323621D01*
X115155913Y-100586413D01*
X115502735Y-100655400D01*
X115736939Y-100655400D01*
X116083761Y-100586413D01*
X116477058Y-100323621D01*
X116739799Y-99930400D01*
X118260038Y-99930400D01*
X118522779Y-100323621D01*
X118916076Y-100586413D01*
X119262898Y-100655400D01*
X119497102Y-100655400D01*
X119843924Y-100586413D01*
X120237221Y-100323621D01*
X120500013Y-99930324D01*
X120592293Y-99466400D01*
X120500013Y-99002476D01*
X120237221Y-98609179D01*
X119843924Y-98346387D01*
X119497102Y-98277400D01*
X119262898Y-98277400D01*
X118916076Y-98346387D01*
X118522779Y-98609179D01*
X118260038Y-99002400D01*
X116739799Y-99002400D01*
X116477058Y-98609179D01*
X116083761Y-98346387D01*
X115736939Y-98277400D01*
X115502735Y-98277400D01*
X115155913Y-98346387D01*
X114762616Y-98609179D01*
X114499824Y-99002476D01*
X114407544Y-99466400D01*
X107355500Y-99466400D01*
X107355500Y-99357504D01*
X107242994Y-99085890D01*
X107035110Y-98878006D01*
X106763496Y-98765500D01*
X106469504Y-98765500D01*
X106197890Y-98878006D01*
X105990006Y-99085890D01*
X105877500Y-99357504D01*
X105877500Y-99587305D01*
X105431717Y-100033089D01*
X105392976Y-100058975D01*
X105367090Y-100097716D01*
X105290422Y-100212457D01*
X105254411Y-100393500D01*
X105263501Y-100439199D01*
X105263500Y-106352896D01*
X105101006Y-106515390D01*
X104988500Y-106787004D01*
X100379100Y-106787004D01*
X100575494Y-106590610D01*
X100688000Y-106318996D01*
X100688000Y-106025004D01*
X100575494Y-105753390D01*
X100367610Y-105545506D01*
X100095996Y-105433000D01*
X99802004Y-105433000D01*
X99530390Y-105545506D01*
X99322506Y-105753390D01*
X99210000Y-106025004D01*
X99210000Y-106318996D01*
X99322506Y-106590610D01*
X99421501Y-106689605D01*
X99421500Y-107622896D01*
X99259006Y-107785390D01*
X99146500Y-108057004D01*
X96603000Y-108057004D01*
X96603000Y-105201698D01*
X96612090Y-105156000D01*
X96576078Y-104974956D01*
X96499411Y-104860216D01*
X96473525Y-104821475D01*
X96434784Y-104795589D01*
X96368952Y-104729757D01*
X96368952Y-104499956D01*
X96256446Y-104228342D01*
X96048562Y-104020458D01*
X95776948Y-103907952D01*
X95482956Y-103907952D01*
X95211342Y-104020458D01*
X95003458Y-104228342D01*
X94890952Y-104499956D01*
X89314000Y-104499956D01*
X89314000Y-102977004D01*
X90002500Y-102977004D01*
X90002500Y-103270996D01*
X90115006Y-103542610D01*
X90322890Y-103750494D01*
X90594504Y-103863000D01*
X90888496Y-103863000D01*
X91160110Y-103750494D01*
X91322604Y-103588000D01*
X96383396Y-103588000D01*
X96545890Y-103750494D01*
X96817504Y-103863000D01*
X97111496Y-103863000D01*
X97383110Y-103750494D01*
X97590994Y-103542610D01*
X97703500Y-103270996D01*
X97703500Y-102977004D01*
X97590994Y-102705390D01*
X97383110Y-102497506D01*
X97111496Y-102385000D01*
X96817504Y-102385000D01*
X96545890Y-102497506D01*
X96383396Y-102660000D01*
X91322604Y-102660000D01*
X91160110Y-102497506D01*
X90888496Y-102385000D01*
X90594504Y-102385000D01*
X90322890Y-102497506D01*
X90115006Y-102705390D01*
X90002500Y-102977004D01*
X89314000Y-102977004D01*
X89314000Y-99865504D01*
X90066000Y-99865504D01*
X90066000Y-100159496D01*
X90178506Y-100431110D01*
X90386390Y-100638994D01*
X90560228Y-100711000D01*
X90386390Y-100783006D01*
X90178506Y-100990890D01*
X90066000Y-101262504D01*
X90066000Y-101556496D01*
X90178506Y-101828110D01*
X90386390Y-102035994D01*
X90658004Y-102148500D01*
X90951996Y-102148500D01*
X91223610Y-102035994D01*
X91386104Y-101873500D01*
X96220306Y-101873500D01*
X96266000Y-101882589D01*
X96311694Y-101873500D01*
X96311698Y-101873500D01*
X96447044Y-101846578D01*
X96565392Y-101767500D01*
X96793996Y-101767500D01*
X97065610Y-101654994D01*
X97273494Y-101447110D01*
X97386000Y-101175496D01*
X97386000Y-100881504D01*
X97349755Y-100794000D01*
X101653896Y-100794000D01*
X101816390Y-100956494D01*
X102088004Y-101069000D01*
X102381996Y-101069000D01*
X102653610Y-100956494D01*
X102861494Y-100748610D01*
X102974000Y-100476996D01*
X102974000Y-100183004D01*
X102861494Y-99911390D01*
X102653610Y-99703506D01*
X102381996Y-99591000D01*
X102088004Y-99591000D01*
X101852922Y-99688374D01*
X101894500Y-99587996D01*
X101894500Y-99294004D01*
X101781994Y-99022390D01*
X101574110Y-98814506D01*
X101302496Y-98702000D01*
X101008504Y-98702000D01*
X100736890Y-98814506D01*
X100574396Y-98977000D01*
X97259000Y-98977000D01*
X97259000Y-98849504D01*
X97146494Y-98577890D01*
X96938610Y-98370006D01*
X96666996Y-98257500D01*
X96373004Y-98257500D01*
X96101390Y-98370006D01*
X95893506Y-98577890D01*
X95781000Y-98849504D01*
X95781000Y-99143496D01*
X95893506Y-99415110D01*
X96101390Y-99622994D01*
X96373004Y-99735500D01*
X96602805Y-99735500D01*
X96604089Y-99736784D01*
X96629975Y-99775525D01*
X96765380Y-99866000D01*
X91544000Y-99866000D01*
X91544000Y-99865504D01*
X91431494Y-99593890D01*
X91223610Y-99386006D01*
X90951996Y-99273500D01*
X90658004Y-99273500D01*
X90386390Y-99386006D01*
X90178506Y-99593890D01*
X90066000Y-99865504D01*
X89314000Y-99865504D01*
X89314000Y-97062650D01*
X114484837Y-97062650D01*
X114484837Y-97833090D01*
X114528226Y-97937840D01*
X114608397Y-98018011D01*
X114713147Y-98061400D01*
X115483587Y-98061400D01*
X115554837Y-97990150D01*
X115554837Y-96991400D01*
X115684837Y-96991400D01*
X115684837Y-97990150D01*
X115756087Y-98061400D01*
X116526527Y-98061400D01*
X116631277Y-98018011D01*
X116711448Y-97937840D01*
X116754837Y-97833090D01*
X116754837Y-97062650D01*
X118245000Y-97062650D01*
X118245000Y-97833090D01*
X118288389Y-97937840D01*
X118368560Y-98018011D01*
X118473310Y-98061400D01*
X119243750Y-98061400D01*
X119315000Y-97990150D01*
X119315000Y-96991400D01*
X119445000Y-96991400D01*
X119445000Y-97990150D01*
X119516250Y-98061400D01*
X120286690Y-98061400D01*
X120391440Y-98018011D01*
X120471611Y-97937840D01*
X120515000Y-97833090D01*
X120515000Y-97062650D01*
X120443750Y-96991400D01*
X119445000Y-96991400D01*
X119315000Y-96991400D01*
X118316250Y-96991400D01*
X118245000Y-97062650D01*
X116754837Y-97062650D01*
X116683587Y-96991400D01*
X115684837Y-96991400D01*
X115554837Y-96991400D01*
X114556087Y-96991400D01*
X114484837Y-97062650D01*
X89314000Y-97062650D01*
X89314000Y-96019710D01*
X114484837Y-96019710D01*
X114484837Y-96790150D01*
X114556087Y-96861400D01*
X115554837Y-96861400D01*
X115554837Y-95862650D01*
X115684837Y-95862650D01*
X115684837Y-96861400D01*
X116683587Y-96861400D01*
X116754837Y-96790150D01*
X116754837Y-96019710D01*
X118245000Y-96019710D01*
X118245000Y-96790150D01*
X118316250Y-96861400D01*
X119315000Y-96861400D01*
X119315000Y-95862650D01*
X119445000Y-95862650D01*
X119445000Y-96861400D01*
X120443750Y-96861400D01*
X120515000Y-96790150D01*
X120515000Y-96019710D01*
X120471611Y-95914960D01*
X120391440Y-95834789D01*
X120286690Y-95791400D01*
X119516250Y-95791400D01*
X119445000Y-95862650D01*
X119315000Y-95862650D01*
X119243750Y-95791400D01*
X118473310Y-95791400D01*
X118368560Y-95834789D01*
X118288389Y-95914960D01*
X118245000Y-96019710D01*
X116754837Y-96019710D01*
X116711448Y-95914960D01*
X116631277Y-95834789D01*
X116526527Y-95791400D01*
X115756087Y-95791400D01*
X115684837Y-95862650D01*
X115554837Y-95862650D01*
X115483587Y-95791400D01*
X114713147Y-95791400D01*
X114608397Y-95834789D01*
X114528226Y-95914960D01*
X114484837Y-96019710D01*
X89314000Y-96019710D01*
X89314000Y-93632000D01*
X113832772Y-93632000D01*
X113872765Y-93624045D01*
X113872767Y-93624045D01*
X114067171Y-93585376D01*
X114216410Y-93523559D01*
X114381217Y-93413438D01*
X114438327Y-93356327D01*
X114491655Y-93303000D01*
X114976475Y-93303000D01*
X115031245Y-93357770D01*
G04 #@! TD*
M02*
