M48
;DRILL file {KiCad (5.0.1)-4} date 01/08/19 12:08:21
;FORMAT={-:-/ absolute / inch / decimal}
FMAT,2
INCH,TZ
T1C0.0157
T2C0.0350
T3C0.0394
T4C0.0450
T5C0.0810
%
G90
G05
M72
T1
X3.5725Y-4.06
X3.575Y-3.9375
X3.575Y-3.9925
X3.6025Y-4.13
X3.6875Y-3.365
X3.75Y-4.5925
X3.755Y-3.8875
X3.7625Y-4.755
X3.765Y-4.12
X3.785Y-4.365
X3.79Y-4.5275
X3.796Y-4.6285
X3.8Y-3.8975
X3.805Y-3.9775
X3.81Y-4.4575
X3.8175Y-4.06
X3.825Y-3.1975
X3.84Y-2.575
X3.86Y-3.2925
X3.8625Y-2.9225
X3.9175Y-4.6125
X3.9325Y-4.26
X3.935Y-4.18
X3.9425Y-4.7675
X3.945Y-4.56
X3.9575Y-4.695
X3.9825Y-3.915
X3.9875Y-4.54
X3.99Y-3.245
X4.Y-2.9175
X4.0225Y-3.7825
X4.025Y-3.95
X4.03Y-3.07
X4.05Y-2.8725
X4.0525Y-4.465
X4.0875Y-3.9125
X4.14Y-2.5875
X4.1425Y-4.74
X4.1625Y-4.21
X4.165Y-4.5541
X4.195Y-4.08
X4.195Y-4.49
X4.1975Y-3.9175
X4.2825Y-3.155
X4.2825Y-4.375
X4.295Y-4.32
X4.325Y-3.2475
X4.3275Y-3.3284
X4.33Y-4.74
X4.34Y-4.07
X4.345Y-3.7425
X4.36Y-4.4575
X4.4025Y-2.6425
X4.42Y-2.9025
X4.44Y-4.1366
X4.4475Y-2.585
X4.465Y-3.255
X4.475Y-4.59
X4.485Y-3.215
X4.5016Y-4.465
X4.51Y-4.2875
X4.5125Y-4.185
X4.5313Y-3.1213
X4.5825Y-3.075
X4.6125Y-2.6825
X4.6375Y-3.0125
X4.725Y-3.0775
X4.78Y-3.3075
X4.79Y-3.4875
X4.86Y-3.32
X4.9025Y-4.145
X5.005Y-4.28
X5.0175Y-4.6
X5.023Y-4.4605
X5.0234Y-4.0825
X5.0375Y-3.45
X5.0575Y-2.5775
X5.0766Y-4.08
X5.1031Y-4.165
X5.1375Y-4.145
X5.175Y-4.47
X5.2525Y-3.96
X5.2675Y-4.555
X5.2825Y-3.205
X5.2825Y-4.42
X5.39Y-3.9575
X5.445Y-4.11
X5.495Y-3.9525
X5.5075Y-3.145
X5.6075Y-4.525
X5.6125Y-4.17
T2
X5.193Y-3.44
X4.15Y-3.0161
X4.25Y-3.0161
X4.35Y-3.0161
X4.013Y-3.44
X3.66Y-3.0161
X3.76Y-3.0161
X3.86Y-3.0161
X4.013Y-3.44
X5.193Y-3.07
X4.75Y-3.0161
X4.85Y-3.0161
X4.95Y-3.0161
X5.193Y-2.7
T3
X4.55Y-2.625
X4.55Y-2.725
X4.55Y-2.825
X4.6Y-3.555
X4.7Y-3.555
X4.8Y-3.555
X4.9Y-3.555
X5.Y-3.555
X5.1Y-3.555
X4.552Y-3.816
X4.552Y-3.916
X4.552Y-4.016
X4.7Y-3.816
X4.7Y-3.916
X4.7Y-4.016
X4.6Y-4.725
X4.7Y-4.725
X4.8Y-4.725
X4.9Y-4.725
X5.Y-4.725
X5.1Y-4.725
T4
X5.288Y-3.44
X5.625Y-3.44
X3.581Y-3.44
X3.918Y-3.44
X4.108Y-3.44
X4.445Y-3.44
X5.288Y-3.07
X5.625Y-3.07
X5.288Y-2.7
X5.625Y-2.7
T5
X4.077Y-2.7401
X4.423Y-2.7401
X3.587Y-2.7401
X3.933Y-2.7401
X4.677Y-2.7401
X5.023Y-2.7401
T0
M30
