G04 #@! TF.GenerationSoftware,KiCad,Pcbnew,(5.0.1)-4*
G04 #@! TF.CreationDate,2019-01-08T12:08:18+01:00*
G04 #@! TF.ProjectId,1U HiHat,31552048694861742E6B696361645F70,rev?*
G04 #@! TF.SameCoordinates,Original*
G04 #@! TF.FileFunction,Legend,Bot*
G04 #@! TF.FilePolarity,Positive*
%FSLAX46Y46*%
G04 Gerber Fmt 4.6, Leading zero omitted, Abs format (unit mm)*
G04 Created by KiCad (PCBNEW (5.0.1)-4) date 01/08/19 12:08:18*
%MOMM*%
%LPD*%
G01*
G04 APERTURE LIST*
%ADD10C,0.127000*%
%ADD11C,0.254000*%
%ADD12C,0.120000*%
%ADD13C,0.150000*%
%ADD14C,0.152400*%
G04 APERTURE END LIST*
D10*
G04 #@! TO.C,J1*
X139966700Y-77978000D02*
G75*
G03X139966700Y-77978000I-2286000J0D01*
G01*
X139255500Y-77978000D02*
G75*
G03X139255500Y-77978000I-1574800J0D01*
G01*
D11*
X133172200Y-82423000D02*
X133172200Y-73533000D01*
X143840200Y-82423000D02*
X133172200Y-82423000D01*
X143840200Y-73533000D02*
X143840200Y-82423000D01*
X133172200Y-73533000D02*
X143840200Y-73533000D01*
D10*
G04 #@! TO.C,J2*
X139966700Y-87376000D02*
G75*
G03X139966700Y-87376000I-2286000J0D01*
G01*
X139255500Y-87376000D02*
G75*
G03X139255500Y-87376000I-1574800J0D01*
G01*
D11*
X133172200Y-91821000D02*
X133172200Y-82931000D01*
X143840200Y-91821000D02*
X133172200Y-91821000D01*
X143840200Y-82931000D02*
X143840200Y-91821000D01*
X133172200Y-82931000D02*
X143840200Y-82931000D01*
D10*
G04 #@! TO.C,J3*
X139966700Y-68580000D02*
G75*
G03X139966700Y-68580000I-2286000J0D01*
G01*
X139255500Y-68580000D02*
G75*
G03X139255500Y-68580000I-1574800J0D01*
G01*
D11*
X133172200Y-73025000D02*
X133172200Y-64135000D01*
X143840200Y-73025000D02*
X133172200Y-73025000D01*
X143840200Y-64135000D02*
X143840200Y-73025000D01*
X133172200Y-64135000D02*
X143840200Y-64135000D01*
D10*
G04 #@! TO.C,J4*
X109994700Y-87376000D02*
G75*
G03X109994700Y-87376000I-2286000J0D01*
G01*
X109283500Y-87376000D02*
G75*
G03X109283500Y-87376000I-1574800J0D01*
G01*
D11*
X103200200Y-91821000D02*
X103200200Y-82931000D01*
X113868200Y-91821000D02*
X103200200Y-91821000D01*
X113868200Y-82931000D02*
X113868200Y-91821000D01*
X103200200Y-82931000D02*
X113868200Y-82931000D01*
D10*
G04 #@! TO.C,J5*
X98437700Y-87376000D02*
G75*
G03X98437700Y-87376000I-2286000J0D01*
G01*
X97726500Y-87376000D02*
G75*
G03X97726500Y-87376000I-1574800J0D01*
G01*
D11*
X100660200Y-82931000D02*
X100660200Y-91821000D01*
X89992200Y-82931000D02*
X100660200Y-82931000D01*
X89992200Y-91821000D02*
X89992200Y-82931000D01*
X100660200Y-91821000D02*
X89992200Y-91821000D01*
D12*
G04 #@! TO.C,J7*
X130870000Y-118685000D02*
X130870000Y-121345000D01*
X118110000Y-118685000D02*
X130870000Y-118685000D01*
X118110000Y-121345000D02*
X130870000Y-121345000D01*
X118110000Y-118685000D02*
X118110000Y-121345000D01*
X116840000Y-118685000D02*
X115510000Y-118685000D01*
X115510000Y-118685000D02*
X115510000Y-120015000D01*
G04 #@! TO.C,J10*
X116949837Y-95596400D02*
X115619837Y-95596400D01*
X116949837Y-96926400D02*
X116949837Y-95596400D01*
X116949837Y-98196400D02*
X114289837Y-98196400D01*
X114289837Y-98196400D02*
X114289837Y-103336400D01*
X116949837Y-98196400D02*
X116949837Y-103336400D01*
X116949837Y-103336400D02*
X114289837Y-103336400D01*
D10*
G04 #@! TO.C,Decay*
X126689837Y-69597843D02*
G75*
G03X126689837Y-69597843I-3500000J0D01*
G01*
X118335837Y-74587943D02*
G75*
G03X119099737Y-75097843I636900J127000D01*
G01*
X127279937Y-75097843D02*
X119099737Y-75097843D01*
X127279937Y-75097843D02*
G75*
G03X128043837Y-74587943I127000J636900D01*
G01*
X128043837Y-64607743D02*
X128043837Y-74587943D01*
X128043837Y-64607743D02*
G75*
G03X127279937Y-64097843I-636900J-127000D01*
G01*
X119099737Y-64097843D02*
X127279937Y-64097843D01*
X119099737Y-64097843D02*
G75*
G03X118335837Y-64607743I-127000J-636900D01*
G01*
X118335837Y-74587943D02*
X118335837Y-64607743D01*
D13*
X121539000Y-71755000D02*
G75*
G02X124841000Y-71755000I1651000J2159000D01*
G01*
X124841000Y-71755000D02*
X121539000Y-71755000D01*
D10*
G04 #@! TO.C,OH Lvl*
X111449837Y-69597843D02*
G75*
G03X111449837Y-69597843I-3500000J0D01*
G01*
X103095837Y-74587943D02*
G75*
G03X103859737Y-75097843I636900J127000D01*
G01*
X112039937Y-75097843D02*
X103859737Y-75097843D01*
X112039937Y-75097843D02*
G75*
G03X112803837Y-74587943I127000J636900D01*
G01*
X112803837Y-64607743D02*
X112803837Y-74587943D01*
X112803837Y-64607743D02*
G75*
G03X112039937Y-64097843I-636900J-127000D01*
G01*
X103859737Y-64097843D02*
X112039937Y-64097843D01*
X103859737Y-64097843D02*
G75*
G03X103095837Y-64607743I-127000J-636900D01*
G01*
X103095837Y-74587943D02*
X103095837Y-64607743D01*
D13*
X106299000Y-71755000D02*
G75*
G02X109601000Y-71755000I1651000J2159000D01*
G01*
X109601000Y-71755000D02*
X106299000Y-71755000D01*
G04 #@! TO.C,CH Lvl*
X97155000Y-71755000D02*
X93853000Y-71755000D01*
X93853000Y-71755000D02*
G75*
G02X97155000Y-71755000I1651000J2159000D01*
G01*
D10*
X90649837Y-74587943D02*
X90649837Y-64607743D01*
X91413737Y-64097843D02*
G75*
G03X90649837Y-64607743I-127000J-636900D01*
G01*
X91413737Y-64097843D02*
X99593937Y-64097843D01*
X100357837Y-64607743D02*
G75*
G03X99593937Y-64097843I-636900J-127000D01*
G01*
X100357837Y-64607743D02*
X100357837Y-74587943D01*
X99593937Y-75097843D02*
G75*
G03X100357837Y-74587943I127000J636900D01*
G01*
X99593937Y-75097843D02*
X91413737Y-75097843D01*
X90649837Y-74587943D02*
G75*
G03X91413737Y-75097843I636900J127000D01*
G01*
X99003837Y-69597843D02*
G75*
G03X99003837Y-69597843I-3500000J0D01*
G01*
D12*
G04 #@! TO.C,C1*
X121187500Y-77885000D02*
X121187500Y-79585000D01*
X121187500Y-83405000D02*
X121187500Y-81705000D01*
X116731937Y-83405000D02*
X121187500Y-83405000D01*
X116731937Y-77885000D02*
X121187500Y-77885000D01*
X115667500Y-78949437D02*
X115667500Y-79585000D01*
X115667500Y-82340563D02*
X115667500Y-81705000D01*
X115667500Y-82340563D02*
X116731937Y-83405000D01*
X115667500Y-78949437D02*
X116731937Y-77885000D01*
X114802500Y-82330000D02*
X115427500Y-82330000D01*
X115115000Y-82642500D02*
X115115000Y-82017500D01*
G04 #@! TO.C,C7*
X124246000Y-82642500D02*
X124246000Y-82017500D01*
X123933500Y-82330000D02*
X124558500Y-82330000D01*
X124798500Y-78949437D02*
X125862937Y-77885000D01*
X124798500Y-82340563D02*
X125862937Y-83405000D01*
X124798500Y-82340563D02*
X124798500Y-81705000D01*
X124798500Y-78949437D02*
X124798500Y-79585000D01*
X125862937Y-77885000D02*
X130318500Y-77885000D01*
X125862937Y-83405000D02*
X130318500Y-83405000D01*
X130318500Y-83405000D02*
X130318500Y-81705000D01*
X130318500Y-77885000D02*
X130318500Y-79585000D01*
G04 #@! TO.C,C12*
X107722000Y-82460500D02*
X107722000Y-81260500D01*
X107722000Y-77940500D02*
X107722000Y-79140500D01*
X111177563Y-77940500D02*
X107722000Y-77940500D01*
X111177563Y-82460500D02*
X107722000Y-82460500D01*
X112242000Y-81396063D02*
X112242000Y-81260500D01*
X112242000Y-79004937D02*
X112242000Y-79140500D01*
X112242000Y-79004937D02*
X111177563Y-77940500D01*
X112242000Y-81396063D02*
X111177563Y-82460500D01*
X112982000Y-78640500D02*
X112482000Y-78640500D01*
X112732000Y-78390500D02*
X112732000Y-78890500D01*
G04 #@! TO.C,C13*
X104233000Y-77050500D02*
X104233000Y-78750500D01*
X104233000Y-82570500D02*
X104233000Y-80870500D01*
X99777437Y-82570500D02*
X104233000Y-82570500D01*
X99777437Y-77050500D02*
X104233000Y-77050500D01*
X98713000Y-78114937D02*
X98713000Y-78750500D01*
X98713000Y-81506063D02*
X98713000Y-80870500D01*
X98713000Y-81506063D02*
X99777437Y-82570500D01*
X98713000Y-78114937D02*
X99777437Y-77050500D01*
X97848000Y-81495500D02*
X98473000Y-81495500D01*
X98160500Y-81808000D02*
X98160500Y-81183000D01*
G04 #@! TO.C,C21*
X121777500Y-84169000D02*
X121777500Y-84669000D01*
X122027500Y-84419000D02*
X121527500Y-84419000D01*
X121287500Y-87174563D02*
X120223063Y-88239000D01*
X121287500Y-84783437D02*
X120223063Y-83719000D01*
X121287500Y-84783437D02*
X121287500Y-84919000D01*
X121287500Y-87174563D02*
X121287500Y-87039000D01*
X120223063Y-88239000D02*
X116767500Y-88239000D01*
X120223063Y-83719000D02*
X116767500Y-83719000D01*
X116767500Y-83719000D02*
X116767500Y-84919000D01*
X116767500Y-88239000D02*
X116767500Y-87039000D01*
G04 #@! TO.C,C24*
X124698500Y-88239000D02*
X124698500Y-87039000D01*
X124698500Y-83719000D02*
X124698500Y-84919000D01*
X128154063Y-83719000D02*
X124698500Y-83719000D01*
X128154063Y-88239000D02*
X124698500Y-88239000D01*
X129218500Y-87174563D02*
X129218500Y-87039000D01*
X129218500Y-84783437D02*
X129218500Y-84919000D01*
X129218500Y-84783437D02*
X128154063Y-83719000D01*
X129218500Y-87174563D02*
X128154063Y-88239000D01*
X129958500Y-84419000D02*
X129458500Y-84419000D01*
X129708500Y-84169000D02*
X129708500Y-84669000D01*
G04 #@! TO.C,R4*
X93343000Y-80262733D02*
X93343000Y-80605267D01*
X94363000Y-80262733D02*
X94363000Y-80605267D01*
G04 #@! TO.C,R15*
X130177000Y-66686767D02*
X130177000Y-66344233D01*
X129157000Y-66686767D02*
X129157000Y-66344233D01*
G04 #@! TO.C,R28*
X91696000Y-80262733D02*
X91696000Y-80605267D01*
X90676000Y-80262733D02*
X90676000Y-80605267D01*
G04 #@! TO.C,J1*
D14*
X134904963Y-80524047D02*
X134904963Y-81385833D01*
X134962416Y-81558190D01*
X135077320Y-81673095D01*
X135249678Y-81730547D01*
X135364582Y-81730547D01*
X133698463Y-81730547D02*
X134387892Y-81730547D01*
X134043178Y-81730547D02*
X134043178Y-80524047D01*
X134158082Y-80696404D01*
X134272987Y-80811309D01*
X134387892Y-80868761D01*
X132057866Y-79596260D02*
X132057866Y-79729593D01*
X132091200Y-79796260D01*
X132157866Y-79862926D01*
X132291200Y-79896260D01*
X132524533Y-79896260D01*
X132657866Y-79862926D01*
X132724533Y-79796260D01*
X132757866Y-79729593D01*
X132757866Y-79596260D01*
X132724533Y-79529593D01*
X132657866Y-79462926D01*
X132524533Y-79429593D01*
X132291200Y-79429593D01*
X132157866Y-79462926D01*
X132091200Y-79529593D01*
X132057866Y-79596260D01*
X132757866Y-80196260D02*
X132057866Y-80196260D01*
X132391200Y-80196260D02*
X132391200Y-80596260D01*
X132757866Y-80596260D02*
X132057866Y-80596260D01*
X132824533Y-80762926D02*
X132824533Y-81296260D01*
X132057866Y-81362926D02*
X132057866Y-81762926D01*
X132757866Y-81562926D02*
X132057866Y-81562926D01*
X132757866Y-82396260D02*
X132424533Y-82162926D01*
X132757866Y-81996260D02*
X132057866Y-81996260D01*
X132057866Y-82262926D01*
X132091200Y-82329593D01*
X132124533Y-82362926D01*
X132191200Y-82396260D01*
X132291200Y-82396260D01*
X132357866Y-82362926D01*
X132391200Y-82329593D01*
X132424533Y-82262926D01*
X132424533Y-81996260D01*
X132757866Y-82696260D02*
X132057866Y-82696260D01*
X132091200Y-83396260D02*
X132057866Y-83329593D01*
X132057866Y-83229593D01*
X132091200Y-83129593D01*
X132157866Y-83062926D01*
X132224533Y-83029593D01*
X132357866Y-82996260D01*
X132457866Y-82996260D01*
X132591200Y-83029593D01*
X132657866Y-83062926D01*
X132724533Y-83129593D01*
X132757866Y-83229593D01*
X132757866Y-83296260D01*
X132724533Y-83396260D01*
X132691200Y-83429593D01*
X132457866Y-83429593D01*
X132457866Y-83296260D01*
G04 #@! TO.C,J2*
X134904963Y-89922047D02*
X134904963Y-90783833D01*
X134962416Y-90956190D01*
X135077320Y-91071095D01*
X135249678Y-91128547D01*
X135364582Y-91128547D01*
X134387892Y-90036952D02*
X134330440Y-89979500D01*
X134215535Y-89922047D01*
X133928273Y-89922047D01*
X133813368Y-89979500D01*
X133755916Y-90036952D01*
X133698463Y-90151857D01*
X133698463Y-90266761D01*
X133755916Y-90439119D01*
X134445344Y-91128547D01*
X133698463Y-91128547D01*
D12*
X132591200Y-88838285D02*
X132591200Y-89124000D01*
X132762628Y-88781142D02*
X132162628Y-88981142D01*
X132762628Y-89181142D01*
X132705485Y-89724000D02*
X132734057Y-89695428D01*
X132762628Y-89609714D01*
X132762628Y-89552571D01*
X132734057Y-89466857D01*
X132676914Y-89409714D01*
X132619771Y-89381142D01*
X132505485Y-89352571D01*
X132419771Y-89352571D01*
X132305485Y-89381142D01*
X132248342Y-89409714D01*
X132191200Y-89466857D01*
X132162628Y-89552571D01*
X132162628Y-89609714D01*
X132191200Y-89695428D01*
X132219771Y-89724000D01*
X132705485Y-90324000D02*
X132734057Y-90295428D01*
X132762628Y-90209714D01*
X132762628Y-90152571D01*
X132734057Y-90066857D01*
X132676914Y-90009714D01*
X132619771Y-89981142D01*
X132505485Y-89952571D01*
X132419771Y-89952571D01*
X132305485Y-89981142D01*
X132248342Y-90009714D01*
X132191200Y-90066857D01*
X132162628Y-90152571D01*
X132162628Y-90209714D01*
X132191200Y-90295428D01*
X132219771Y-90324000D01*
X132448342Y-90581142D02*
X132448342Y-90781142D01*
X132762628Y-90866857D02*
X132762628Y-90581142D01*
X132162628Y-90581142D01*
X132162628Y-90866857D01*
X132762628Y-91124000D02*
X132162628Y-91124000D01*
X132762628Y-91466857D01*
X132162628Y-91466857D01*
X132162628Y-91666857D02*
X132162628Y-92009714D01*
X132762628Y-91838285D02*
X132162628Y-91838285D01*
G04 #@! TO.C,J3*
D14*
X134904963Y-71126047D02*
X134904963Y-71987833D01*
X134962416Y-72160190D01*
X135077320Y-72275095D01*
X135249678Y-72332547D01*
X135364582Y-72332547D01*
X134445344Y-71126047D02*
X133698463Y-71126047D01*
X134100630Y-71585666D01*
X133928273Y-71585666D01*
X133813368Y-71643119D01*
X133755916Y-71700571D01*
X133698463Y-71815476D01*
X133698463Y-72102738D01*
X133755916Y-72217642D01*
X133813368Y-72275095D01*
X133928273Y-72332547D01*
X134272987Y-72332547D01*
X134387892Y-72275095D01*
X134445344Y-72217642D01*
X132691200Y-70312526D02*
X132724533Y-70279193D01*
X132757866Y-70179193D01*
X132757866Y-70112526D01*
X132724533Y-70012526D01*
X132657866Y-69945860D01*
X132591200Y-69912526D01*
X132457866Y-69879193D01*
X132357866Y-69879193D01*
X132224533Y-69912526D01*
X132157866Y-69945860D01*
X132091200Y-70012526D01*
X132057866Y-70112526D01*
X132057866Y-70179193D01*
X132091200Y-70279193D01*
X132124533Y-70312526D01*
X132757866Y-70612526D02*
X132057866Y-70612526D01*
X132391200Y-70612526D02*
X132391200Y-71012526D01*
X132757866Y-71012526D02*
X132057866Y-71012526D01*
X132824533Y-71179193D02*
X132824533Y-71712526D01*
X132057866Y-71779193D02*
X132057866Y-72179193D01*
X132757866Y-71979193D02*
X132057866Y-71979193D01*
X132757866Y-72812526D02*
X132424533Y-72579193D01*
X132757866Y-72412526D02*
X132057866Y-72412526D01*
X132057866Y-72679193D01*
X132091200Y-72745860D01*
X132124533Y-72779193D01*
X132191200Y-72812526D01*
X132291200Y-72812526D01*
X132357866Y-72779193D01*
X132391200Y-72745860D01*
X132424533Y-72679193D01*
X132424533Y-72412526D01*
X132757866Y-73112526D02*
X132057866Y-73112526D01*
X132091200Y-73812526D02*
X132057866Y-73745860D01*
X132057866Y-73645860D01*
X132091200Y-73545860D01*
X132157866Y-73479193D01*
X132224533Y-73445860D01*
X132357866Y-73412526D01*
X132457866Y-73412526D01*
X132591200Y-73445860D01*
X132657866Y-73479193D01*
X132724533Y-73545860D01*
X132757866Y-73645860D01*
X132757866Y-73712526D01*
X132724533Y-73812526D01*
X132691200Y-73845860D01*
X132457866Y-73845860D01*
X132457866Y-73712526D01*
G04 #@! TO.C,J4*
X105186963Y-89922047D02*
X105186963Y-90783833D01*
X105244416Y-90956190D01*
X105359320Y-91071095D01*
X105531678Y-91128547D01*
X105646582Y-91128547D01*
X104095368Y-90324214D02*
X104095368Y-91128547D01*
X104382630Y-89864595D02*
X104669892Y-90726380D01*
X103923011Y-90726380D01*
D12*
X114230228Y-88777942D02*
X114230228Y-88892228D01*
X114258800Y-88949371D01*
X114315942Y-89006514D01*
X114430228Y-89035085D01*
X114630228Y-89035085D01*
X114744514Y-89006514D01*
X114801657Y-88949371D01*
X114830228Y-88892228D01*
X114830228Y-88777942D01*
X114801657Y-88720800D01*
X114744514Y-88663657D01*
X114630228Y-88635085D01*
X114430228Y-88635085D01*
X114315942Y-88663657D01*
X114258800Y-88720800D01*
X114230228Y-88777942D01*
X114830228Y-89292228D02*
X114230228Y-89292228D01*
X114515942Y-89292228D02*
X114515942Y-89635085D01*
X114830228Y-89635085D02*
X114230228Y-89635085D01*
X114887371Y-89777942D02*
X114887371Y-90235085D01*
X114230228Y-90492228D02*
X114230228Y-90606514D01*
X114258800Y-90663657D01*
X114315942Y-90720800D01*
X114430228Y-90749371D01*
X114630228Y-90749371D01*
X114744514Y-90720800D01*
X114801657Y-90663657D01*
X114830228Y-90606514D01*
X114830228Y-90492228D01*
X114801657Y-90435085D01*
X114744514Y-90377942D01*
X114630228Y-90349371D01*
X114430228Y-90349371D01*
X114315942Y-90377942D01*
X114258800Y-90435085D01*
X114230228Y-90492228D01*
X114230228Y-91006514D02*
X114715942Y-91006514D01*
X114773085Y-91035085D01*
X114801657Y-91063657D01*
X114830228Y-91120800D01*
X114830228Y-91235085D01*
X114801657Y-91292228D01*
X114773085Y-91320800D01*
X114715942Y-91349371D01*
X114230228Y-91349371D01*
X114230228Y-91549371D02*
X114230228Y-91892228D01*
X114830228Y-91720800D02*
X114230228Y-91720800D01*
G04 #@! TO.C,J5*
D14*
X99268763Y-89922047D02*
X99268763Y-90783833D01*
X99326216Y-90956190D01*
X99441120Y-91071095D01*
X99613478Y-91128547D01*
X99728382Y-91128547D01*
X98119716Y-89922047D02*
X98694240Y-89922047D01*
X98751692Y-90496571D01*
X98694240Y-90439119D01*
X98579335Y-90381666D01*
X98292073Y-90381666D01*
X98177168Y-90439119D01*
X98119716Y-90496571D01*
X98062263Y-90611476D01*
X98062263Y-90898738D01*
X98119716Y-91013642D01*
X98177168Y-91071095D01*
X98292073Y-91128547D01*
X98579335Y-91128547D01*
X98694240Y-91071095D01*
X98751692Y-91013642D01*
D12*
X101565085Y-89057314D02*
X101593657Y-89028742D01*
X101622228Y-88943028D01*
X101622228Y-88885885D01*
X101593657Y-88800171D01*
X101536514Y-88743028D01*
X101479371Y-88714457D01*
X101365085Y-88685885D01*
X101279371Y-88685885D01*
X101165085Y-88714457D01*
X101107942Y-88743028D01*
X101050800Y-88800171D01*
X101022228Y-88885885D01*
X101022228Y-88943028D01*
X101050800Y-89028742D01*
X101079371Y-89057314D01*
X101622228Y-89314457D02*
X101022228Y-89314457D01*
X101307942Y-89314457D02*
X101307942Y-89657314D01*
X101622228Y-89657314D02*
X101022228Y-89657314D01*
X101679371Y-89800171D02*
X101679371Y-90257314D01*
X101022228Y-90514457D02*
X101022228Y-90628742D01*
X101050800Y-90685885D01*
X101107942Y-90743028D01*
X101222228Y-90771600D01*
X101422228Y-90771600D01*
X101536514Y-90743028D01*
X101593657Y-90685885D01*
X101622228Y-90628742D01*
X101622228Y-90514457D01*
X101593657Y-90457314D01*
X101536514Y-90400171D01*
X101422228Y-90371600D01*
X101222228Y-90371600D01*
X101107942Y-90400171D01*
X101050800Y-90457314D01*
X101022228Y-90514457D01*
X101022228Y-91028742D02*
X101507942Y-91028742D01*
X101565085Y-91057314D01*
X101593657Y-91085885D01*
X101622228Y-91143028D01*
X101622228Y-91257314D01*
X101593657Y-91314457D01*
X101565085Y-91343028D01*
X101507942Y-91371600D01*
X101022228Y-91371600D01*
X101022228Y-91571600D02*
X101022228Y-91914457D01*
X101622228Y-91743028D02*
X101022228Y-91743028D01*
G04 #@! TO.C,J7*
X114126666Y-119781666D02*
X114626666Y-119781666D01*
X114726666Y-119748333D01*
X114793333Y-119681666D01*
X114826666Y-119581666D01*
X114826666Y-119515000D01*
X114126666Y-120048333D02*
X114126666Y-120515000D01*
X114826666Y-120215000D01*
G04 #@! TO.C,J10*
X116186503Y-94213066D02*
X116186503Y-94713066D01*
X116219837Y-94813066D01*
X116286503Y-94879733D01*
X116386503Y-94913066D01*
X116453170Y-94913066D01*
X115486503Y-94913066D02*
X115886503Y-94913066D01*
X115686503Y-94913066D02*
X115686503Y-94213066D01*
X115753170Y-94313066D01*
X115819837Y-94379733D01*
X115886503Y-94413066D01*
X115053170Y-94213066D02*
X114986503Y-94213066D01*
X114919837Y-94246400D01*
X114886503Y-94279733D01*
X114853170Y-94346400D01*
X114819837Y-94479733D01*
X114819837Y-94646400D01*
X114853170Y-94779733D01*
X114886503Y-94846400D01*
X114919837Y-94879733D01*
X114986503Y-94913066D01*
X115053170Y-94913066D01*
X115119837Y-94879733D01*
X115153170Y-94846400D01*
X115186503Y-94779733D01*
X115219837Y-94646400D01*
X115219837Y-94479733D01*
X115186503Y-94346400D01*
X115153170Y-94279733D01*
X115119837Y-94246400D01*
X115053170Y-94213066D01*
G04 #@! TO.C,Decay*
X117972685Y-71528971D02*
X117222685Y-71528971D01*
X117222685Y-71707542D01*
X117258400Y-71814685D01*
X117329828Y-71886114D01*
X117401257Y-71921828D01*
X117544114Y-71957542D01*
X117651257Y-71957542D01*
X117794114Y-71921828D01*
X117865542Y-71886114D01*
X117936971Y-71814685D01*
X117972685Y-71707542D01*
X117972685Y-71528971D01*
X117936971Y-72564685D02*
X117972685Y-72493257D01*
X117972685Y-72350400D01*
X117936971Y-72278971D01*
X117865542Y-72243257D01*
X117579828Y-72243257D01*
X117508400Y-72278971D01*
X117472685Y-72350400D01*
X117472685Y-72493257D01*
X117508400Y-72564685D01*
X117579828Y-72600400D01*
X117651257Y-72600400D01*
X117722685Y-72243257D01*
X117936971Y-73243257D02*
X117972685Y-73171828D01*
X117972685Y-73028971D01*
X117936971Y-72957542D01*
X117901257Y-72921828D01*
X117829828Y-72886114D01*
X117615542Y-72886114D01*
X117544114Y-72921828D01*
X117508400Y-72957542D01*
X117472685Y-73028971D01*
X117472685Y-73171828D01*
X117508400Y-73243257D01*
X117972685Y-73886114D02*
X117579828Y-73886114D01*
X117508400Y-73850400D01*
X117472685Y-73778971D01*
X117472685Y-73636114D01*
X117508400Y-73564685D01*
X117936971Y-73886114D02*
X117972685Y-73814685D01*
X117972685Y-73636114D01*
X117936971Y-73564685D01*
X117865542Y-73528971D01*
X117794114Y-73528971D01*
X117722685Y-73564685D01*
X117686971Y-73636114D01*
X117686971Y-73814685D01*
X117651257Y-73886114D01*
X117472685Y-74171828D02*
X117972685Y-74350400D01*
X117472685Y-74528971D02*
X117972685Y-74350400D01*
X118151257Y-74278971D01*
X118186971Y-74243257D01*
X118222685Y-74171828D01*
D14*
X127179130Y-73526952D02*
X127121678Y-73469500D01*
X127006773Y-73412047D01*
X126719511Y-73412047D01*
X126604606Y-73469500D01*
X126547154Y-73526952D01*
X126489701Y-73641857D01*
X126489701Y-73756761D01*
X126547154Y-73929119D01*
X127236582Y-74618547D01*
X126489701Y-74618547D01*
X125972630Y-74618547D02*
X125972630Y-73412047D01*
X125570463Y-74273833D01*
X125168297Y-73412047D01*
X125168297Y-74618547D01*
G04 #@! TO.C,OH Lvl*
D12*
X101931885Y-71773428D02*
X101931885Y-71916285D01*
X101967600Y-71987714D01*
X102039028Y-72059142D01*
X102181885Y-72094857D01*
X102431885Y-72094857D01*
X102574742Y-72059142D01*
X102646171Y-71987714D01*
X102681885Y-71916285D01*
X102681885Y-71773428D01*
X102646171Y-71702000D01*
X102574742Y-71630571D01*
X102431885Y-71594857D01*
X102181885Y-71594857D01*
X102039028Y-71630571D01*
X101967600Y-71702000D01*
X101931885Y-71773428D01*
X102681885Y-72416285D02*
X101931885Y-72416285D01*
X102289028Y-72416285D02*
X102289028Y-72844857D01*
X102681885Y-72844857D02*
X101931885Y-72844857D01*
X102681885Y-74130571D02*
X102681885Y-73773428D01*
X101931885Y-73773428D01*
X102181885Y-74309142D02*
X102681885Y-74487714D01*
X102181885Y-74666285D01*
X102681885Y-75059142D02*
X102646171Y-74987714D01*
X102574742Y-74952000D01*
X101931885Y-74952000D01*
D14*
X112129630Y-74273833D02*
X111555106Y-74273833D01*
X112244535Y-74618547D02*
X111842368Y-73412047D01*
X111440201Y-74618547D01*
X110406059Y-74618547D02*
X111095487Y-74618547D01*
X110750773Y-74618547D02*
X110750773Y-73412047D01*
X110865678Y-73584404D01*
X110980582Y-73699309D01*
X111095487Y-73756761D01*
X109659178Y-73412047D02*
X109544273Y-73412047D01*
X109429368Y-73469500D01*
X109371916Y-73526952D01*
X109314463Y-73641857D01*
X109257011Y-73871666D01*
X109257011Y-74158928D01*
X109314463Y-74388738D01*
X109371916Y-74503642D01*
X109429368Y-74561095D01*
X109544273Y-74618547D01*
X109659178Y-74618547D01*
X109774082Y-74561095D01*
X109831535Y-74503642D01*
X109888987Y-74388738D01*
X109946440Y-74158928D01*
X109946440Y-73871666D01*
X109888987Y-73641857D01*
X109831535Y-73526952D01*
X109774082Y-73469500D01*
X109659178Y-73412047D01*
X108510130Y-73412047D02*
X108395225Y-73412047D01*
X108280320Y-73469500D01*
X108222868Y-73526952D01*
X108165416Y-73641857D01*
X108107963Y-73871666D01*
X108107963Y-74158928D01*
X108165416Y-74388738D01*
X108222868Y-74503642D01*
X108280320Y-74561095D01*
X108395225Y-74618547D01*
X108510130Y-74618547D01*
X108625035Y-74561095D01*
X108682487Y-74503642D01*
X108739940Y-74388738D01*
X108797392Y-74158928D01*
X108797392Y-73871666D01*
X108739940Y-73641857D01*
X108682487Y-73526952D01*
X108625035Y-73469500D01*
X108510130Y-73412047D01*
X107590892Y-74618547D02*
X107590892Y-73412047D01*
X107475987Y-74158928D02*
X107131273Y-74618547D01*
X107131273Y-73814214D02*
X107590892Y-74273833D01*
G04 #@! TO.C,CH Lvl*
D12*
X90266057Y-72160742D02*
X90301771Y-72125028D01*
X90337485Y-72017885D01*
X90337485Y-71946457D01*
X90301771Y-71839314D01*
X90230342Y-71767885D01*
X90158914Y-71732171D01*
X90016057Y-71696457D01*
X89908914Y-71696457D01*
X89766057Y-71732171D01*
X89694628Y-71767885D01*
X89623200Y-71839314D01*
X89587485Y-71946457D01*
X89587485Y-72017885D01*
X89623200Y-72125028D01*
X89658914Y-72160742D01*
X90337485Y-72482171D02*
X89587485Y-72482171D01*
X89944628Y-72482171D02*
X89944628Y-72910742D01*
X90337485Y-72910742D02*
X89587485Y-72910742D01*
X90337485Y-74196457D02*
X90337485Y-73839314D01*
X89587485Y-73839314D01*
X89837485Y-74375028D02*
X90337485Y-74553600D01*
X89837485Y-74732171D01*
X90337485Y-75125028D02*
X90301771Y-75053600D01*
X90230342Y-75017885D01*
X89587485Y-75017885D01*
D14*
X99683630Y-74273833D02*
X99109106Y-74273833D01*
X99798535Y-74618547D02*
X99396368Y-73412047D01*
X98994201Y-74618547D01*
X97960059Y-74618547D02*
X98649487Y-74618547D01*
X98304773Y-74618547D02*
X98304773Y-73412047D01*
X98419678Y-73584404D01*
X98534582Y-73699309D01*
X98649487Y-73756761D01*
X97213178Y-73412047D02*
X97098273Y-73412047D01*
X96983368Y-73469500D01*
X96925916Y-73526952D01*
X96868463Y-73641857D01*
X96811011Y-73871666D01*
X96811011Y-74158928D01*
X96868463Y-74388738D01*
X96925916Y-74503642D01*
X96983368Y-74561095D01*
X97098273Y-74618547D01*
X97213178Y-74618547D01*
X97328082Y-74561095D01*
X97385535Y-74503642D01*
X97442987Y-74388738D01*
X97500440Y-74158928D01*
X97500440Y-73871666D01*
X97442987Y-73641857D01*
X97385535Y-73526952D01*
X97328082Y-73469500D01*
X97213178Y-73412047D01*
X96064130Y-73412047D02*
X95949225Y-73412047D01*
X95834320Y-73469500D01*
X95776868Y-73526952D01*
X95719416Y-73641857D01*
X95661963Y-73871666D01*
X95661963Y-74158928D01*
X95719416Y-74388738D01*
X95776868Y-74503642D01*
X95834320Y-74561095D01*
X95949225Y-74618547D01*
X96064130Y-74618547D01*
X96179035Y-74561095D01*
X96236487Y-74503642D01*
X96293940Y-74388738D01*
X96351392Y-74158928D01*
X96351392Y-73871666D01*
X96293940Y-73641857D01*
X96236487Y-73526952D01*
X96179035Y-73469500D01*
X96064130Y-73412047D01*
X95144892Y-74618547D02*
X95144892Y-73412047D01*
X95029987Y-74158928D02*
X94685273Y-74618547D01*
X94685273Y-73814214D02*
X95144892Y-74273833D01*
G04 #@! TO.C,C1*
D12*
X118887066Y-77466000D02*
X118920400Y-77499333D01*
X119020400Y-77532666D01*
X119087066Y-77532666D01*
X119187066Y-77499333D01*
X119253733Y-77432666D01*
X119287066Y-77366000D01*
X119320400Y-77232666D01*
X119320400Y-77132666D01*
X119287066Y-76999333D01*
X119253733Y-76932666D01*
X119187066Y-76866000D01*
X119087066Y-76832666D01*
X119020400Y-76832666D01*
X118920400Y-76866000D01*
X118887066Y-76899333D01*
X118220400Y-77532666D02*
X118620400Y-77532666D01*
X118420400Y-77532666D02*
X118420400Y-76832666D01*
X118487066Y-76932666D01*
X118553733Y-76999333D01*
X118620400Y-77032666D01*
G04 #@! TO.C,C7*
X129047066Y-77669200D02*
X129080400Y-77702533D01*
X129180400Y-77735866D01*
X129247066Y-77735866D01*
X129347066Y-77702533D01*
X129413733Y-77635866D01*
X129447066Y-77569200D01*
X129480400Y-77435866D01*
X129480400Y-77335866D01*
X129447066Y-77202533D01*
X129413733Y-77135866D01*
X129347066Y-77069200D01*
X129247066Y-77035866D01*
X129180400Y-77035866D01*
X129080400Y-77069200D01*
X129047066Y-77102533D01*
X128813733Y-77035866D02*
X128347066Y-77035866D01*
X128647066Y-77735866D01*
G04 #@! TO.C,C12*
X106876000Y-78736000D02*
X106909333Y-78769333D01*
X107009333Y-78802666D01*
X107076000Y-78802666D01*
X107176000Y-78769333D01*
X107242666Y-78702666D01*
X107276000Y-78636000D01*
X107309333Y-78502666D01*
X107309333Y-78402666D01*
X107276000Y-78269333D01*
X107242666Y-78202666D01*
X107176000Y-78136000D01*
X107076000Y-78102666D01*
X107009333Y-78102666D01*
X106909333Y-78136000D01*
X106876000Y-78169333D01*
X106209333Y-78802666D02*
X106609333Y-78802666D01*
X106409333Y-78802666D02*
X106409333Y-78102666D01*
X106476000Y-78202666D01*
X106542666Y-78269333D01*
X106609333Y-78302666D01*
X105942666Y-78169333D02*
X105909333Y-78136000D01*
X105842666Y-78102666D01*
X105676000Y-78102666D01*
X105609333Y-78136000D01*
X105576000Y-78169333D01*
X105542666Y-78236000D01*
X105542666Y-78302666D01*
X105576000Y-78402666D01*
X105976000Y-78802666D01*
X105542666Y-78802666D01*
G04 #@! TO.C,C13*
X101694400Y-76602400D02*
X101727733Y-76635733D01*
X101827733Y-76669066D01*
X101894400Y-76669066D01*
X101994400Y-76635733D01*
X102061066Y-76569066D01*
X102094400Y-76502400D01*
X102127733Y-76369066D01*
X102127733Y-76269066D01*
X102094400Y-76135733D01*
X102061066Y-76069066D01*
X101994400Y-76002400D01*
X101894400Y-75969066D01*
X101827733Y-75969066D01*
X101727733Y-76002400D01*
X101694400Y-76035733D01*
X101027733Y-76669066D02*
X101427733Y-76669066D01*
X101227733Y-76669066D02*
X101227733Y-75969066D01*
X101294400Y-76069066D01*
X101361066Y-76135733D01*
X101427733Y-76169066D01*
X100794400Y-75969066D02*
X100361066Y-75969066D01*
X100594400Y-76235733D01*
X100494400Y-76235733D01*
X100427733Y-76269066D01*
X100394400Y-76302400D01*
X100361066Y-76369066D01*
X100361066Y-76535733D01*
X100394400Y-76602400D01*
X100427733Y-76635733D01*
X100494400Y-76669066D01*
X100694400Y-76669066D01*
X100761066Y-76635733D01*
X100794400Y-76602400D01*
G04 #@! TO.C,C21*
X116121600Y-87880000D02*
X116154933Y-87913333D01*
X116254933Y-87946666D01*
X116321600Y-87946666D01*
X116421600Y-87913333D01*
X116488266Y-87846666D01*
X116521600Y-87780000D01*
X116554933Y-87646666D01*
X116554933Y-87546666D01*
X116521600Y-87413333D01*
X116488266Y-87346666D01*
X116421600Y-87280000D01*
X116321600Y-87246666D01*
X116254933Y-87246666D01*
X116154933Y-87280000D01*
X116121600Y-87313333D01*
X115854933Y-87313333D02*
X115821600Y-87280000D01*
X115754933Y-87246666D01*
X115588266Y-87246666D01*
X115521600Y-87280000D01*
X115488266Y-87313333D01*
X115454933Y-87380000D01*
X115454933Y-87446666D01*
X115488266Y-87546666D01*
X115888266Y-87946666D01*
X115454933Y-87946666D01*
X114788266Y-87946666D02*
X115188266Y-87946666D01*
X114988266Y-87946666D02*
X114988266Y-87246666D01*
X115054933Y-87346666D01*
X115121600Y-87413333D01*
X115188266Y-87446666D01*
G04 #@! TO.C,C24*
X124046400Y-87880000D02*
X124079733Y-87913333D01*
X124179733Y-87946666D01*
X124246400Y-87946666D01*
X124346400Y-87913333D01*
X124413066Y-87846666D01*
X124446400Y-87780000D01*
X124479733Y-87646666D01*
X124479733Y-87546666D01*
X124446400Y-87413333D01*
X124413066Y-87346666D01*
X124346400Y-87280000D01*
X124246400Y-87246666D01*
X124179733Y-87246666D01*
X124079733Y-87280000D01*
X124046400Y-87313333D01*
X123779733Y-87313333D02*
X123746400Y-87280000D01*
X123679733Y-87246666D01*
X123513066Y-87246666D01*
X123446400Y-87280000D01*
X123413066Y-87313333D01*
X123379733Y-87380000D01*
X123379733Y-87446666D01*
X123413066Y-87546666D01*
X123813066Y-87946666D01*
X123379733Y-87946666D01*
X122779733Y-87480000D02*
X122779733Y-87946666D01*
X122946400Y-87213333D02*
X123113066Y-87713333D01*
X122679733Y-87713333D01*
G04 #@! TO.C,R4*
X93026666Y-80299733D02*
X92693333Y-80066400D01*
X93026666Y-79899733D02*
X92326666Y-79899733D01*
X92326666Y-80166400D01*
X92360000Y-80233066D01*
X92393333Y-80266400D01*
X92460000Y-80299733D01*
X92560000Y-80299733D01*
X92626666Y-80266400D01*
X92660000Y-80233066D01*
X92693333Y-80166400D01*
X92693333Y-79899733D01*
X92560000Y-80899733D02*
X93026666Y-80899733D01*
X92293333Y-80733066D02*
X92793333Y-80566400D01*
X92793333Y-80999733D01*
G04 #@! TO.C,R15*
X131413666Y-66065500D02*
X131080333Y-65832166D01*
X131413666Y-65665500D02*
X130713666Y-65665500D01*
X130713666Y-65932166D01*
X130747000Y-65998833D01*
X130780333Y-66032166D01*
X130847000Y-66065500D01*
X130947000Y-66065500D01*
X131013666Y-66032166D01*
X131047000Y-65998833D01*
X131080333Y-65932166D01*
X131080333Y-65665500D01*
X131413666Y-66732166D02*
X131413666Y-66332166D01*
X131413666Y-66532166D02*
X130713666Y-66532166D01*
X130813666Y-66465500D01*
X130880333Y-66398833D01*
X130913666Y-66332166D01*
X130713666Y-67365500D02*
X130713666Y-67032166D01*
X131047000Y-66998833D01*
X131013666Y-67032166D01*
X130980333Y-67098833D01*
X130980333Y-67265500D01*
X131013666Y-67332166D01*
X131047000Y-67365500D01*
X131113666Y-67398833D01*
X131280333Y-67398833D01*
X131347000Y-67365500D01*
X131380333Y-67332166D01*
X131413666Y-67265500D01*
X131413666Y-67098833D01*
X131380333Y-67032166D01*
X131347000Y-66998833D01*
G04 #@! TO.C,R28*
X90232666Y-79966400D02*
X89899333Y-79733066D01*
X90232666Y-79566400D02*
X89532666Y-79566400D01*
X89532666Y-79833066D01*
X89566000Y-79899733D01*
X89599333Y-79933066D01*
X89666000Y-79966400D01*
X89766000Y-79966400D01*
X89832666Y-79933066D01*
X89866000Y-79899733D01*
X89899333Y-79833066D01*
X89899333Y-79566400D01*
X89599333Y-80233066D02*
X89566000Y-80266400D01*
X89532666Y-80333066D01*
X89532666Y-80499733D01*
X89566000Y-80566400D01*
X89599333Y-80599733D01*
X89666000Y-80633066D01*
X89732666Y-80633066D01*
X89832666Y-80599733D01*
X90232666Y-80199733D01*
X90232666Y-80633066D01*
X89832666Y-81033066D02*
X89799333Y-80966400D01*
X89766000Y-80933066D01*
X89699333Y-80899733D01*
X89666000Y-80899733D01*
X89599333Y-80933066D01*
X89566000Y-80966400D01*
X89532666Y-81033066D01*
X89532666Y-81166400D01*
X89566000Y-81233066D01*
X89599333Y-81266400D01*
X89666000Y-81299733D01*
X89699333Y-81299733D01*
X89766000Y-81266400D01*
X89799333Y-81233066D01*
X89832666Y-81166400D01*
X89832666Y-81033066D01*
X89866000Y-80966400D01*
X89899333Y-80933066D01*
X89966000Y-80899733D01*
X90099333Y-80899733D01*
X90166000Y-80933066D01*
X90199333Y-80966400D01*
X90232666Y-81033066D01*
X90232666Y-81166400D01*
X90199333Y-81233066D01*
X90166000Y-81266400D01*
X90099333Y-81299733D01*
X89966000Y-81299733D01*
X89899333Y-81266400D01*
X89866000Y-81233066D01*
X89832666Y-81166400D01*
G04 #@! TD*
M02*
